<?xml version="1.0" encoding="UTF-8" standalone="no"?>
<!-- Created with Inkscape (http://www.inkscape.org/) -->
<svg xmlns:dc="http://purl.org/dc/elements/1.1/" xmlns:cc="http://creativecommons.org/ns#" xmlns:rdf="http://www.w3.org/1999/02/22-rdf-syntax-ns#" xmlns:svg="http://www.w3.org/2000/svg" xmlns="http://www.w3.org/2000/svg" xmlns:sodipodi="http://sodipodi.sourceforge.net/DTD/sodipodi-0.dtd" xmlns:inkscape="http://www.inkscape.org/namespaces/inkscape" width="730.32959" height="591.15973" id="svg2" version="1.1" inkscape:version="0.47 r22583" sodipodi:docname="Kueken.svg">
  <defs id="defs4">
    <inkscape:perspective sodipodi:type="inkscape:persp3d" inkscape:vp_x="0 : 526.18109 : 1" inkscape:vp_y="0 : 1000 : 0" inkscape:vp_z="744.09448 : 526.18109 : 1" inkscape:persp3d-origin="372.04724 : 350.78739 : 1" id="perspective10"/>
    <inkscape:perspective id="perspective2824" inkscape:persp3d-origin="0.5 : 0.33333333 : 1" inkscape:vp_z="1 : 0.5 : 1" inkscape:vp_y="0 : 1000 : 0" inkscape:vp_x="0 : 0.5 : 1" sodipodi:type="inkscape:persp3d"/>
    <inkscape:perspective id="perspective2840" inkscape:persp3d-origin="0.5 : 0.33333333 : 1" inkscape:vp_z="1 : 0.5 : 1" inkscape:vp_y="0 : 1000 : 0" inkscape:vp_x="0 : 0.5 : 1" sodipodi:type="inkscape:persp3d"/>
  </defs>
  <sodipodi:namedview id="base" pagecolor="#ffffff" bordercolor="#666666" borderopacity="1.0" inkscape:pageopacity="0.0" inkscape:pageshadow="2" inkscape:zoom="0.49497475" inkscape:cx="370.85532" inkscape:cy="249.71814" inkscape:document-units="px" inkscape:current-layer="layer1" showgrid="false" inkscape:window-width="1024" inkscape:window-height="695" inkscape:window-x="0" inkscape:window-y="25" inkscape:window-maximized="1"/>
  <metadata id="metadata7">
    <rdf:RDF>
      <cc:Work rdf:about="">
        <dc:format>image/svg+xml</dc:format>
        <dc:type rdf:resource="http://purl.org/dc/dcmitype/StillImage"/>
        <dc:title/>
      </cc:Work>
    </rdf:RDF>
  </metadata>
  <g inkscape:label="Ebene 1" inkscape:groupmode="layer" id="layer1" transform="translate(20.855322,-172.91623)">
    <path style="fill:none;stroke:#000000;stroke-width:5;stroke-linecap:butt;stroke-linejoin:miter;stroke-miterlimit:4;stroke-opacity:1;stroke-dasharray:none" d="m 115.2415,735.05473 c 84.27489,23.94636 256.12059,18.02174 404.45392,13.73603 62.44549,-3.10057 91.30469,-87.68251 108.87601,-139.28572 7.25879,-75.66886 -38.52268,-137.5725 -40.83683,-194.28571 10.72716,-43.18859 40.04814,-39.83318 82.62435,-52.51052 25.05634,-12.26528 64.19631,-26.36015 7.3559,-54.32556 C 598.11704,269.22124 630.74803,213.69453 525.71429,178.07647 505.68193,176.08176 438.09524,160.17174 394.28571,238.07646 364.59803,305.66582 382.0203,377.44268 374.87744,436.01411 330.11554,436.55437 306.83312,398.22661 240,403.79075 192.04387,408.88153 144.07816,438.23953 107.14285,439.50504 69.446997,446.76441 -2.3784694,372.43771 -6.8977534,403.44412 -32.872625,449.84948 49.44876,719.71098 115.2415,735.05473 z" id="path2830" sodipodi:nodetypes="cccccsccccccc"/>
  </g>
</svg>