<?xml version="1.0" encoding="UTF-8" standalone="no"?>
<!-- Created with Inkscape (http://www.inkscape.org/) -->
<svg xmlns:dc="http://purl.org/dc/elements/1.1/" xmlns:cc="http://creativecommons.org/ns#" xmlns:rdf="http://www.w3.org/1999/02/22-rdf-syntax-ns#" xmlns:svg="http://www.w3.org/2000/svg" xmlns="http://www.w3.org/2000/svg" xmlns:sodipodi="http://sodipodi.sourceforge.net/DTD/sodipodi-0.dtd" xmlns:inkscape="http://www.inkscape.org/namespaces/inkscape" width="589.08337" height="545.83502" id="svg2" version="1.1" inkscape:version="0.47 r22583" sodipodi:docname="Neues Dokument 1">
  <defs id="defs4">
    <inkscape:perspective sodipodi:type="inkscape:persp3d" inkscape:vp_x="0 : 526.18109 : 1" inkscape:vp_y="0 : 1000 : 0" inkscape:vp_z="744.09448 : 526.18109 : 1" inkscape:persp3d-origin="372.04724 : 350.78739 : 1" id="perspective10"/>
    <inkscape:perspective id="perspective2824" inkscape:persp3d-origin="0.5 : 0.33333333 : 1" inkscape:vp_z="1 : 0.5 : 1" inkscape:vp_y="0 : 1000 : 0" inkscape:vp_x="0 : 0.5 : 1" sodipodi:type="inkscape:persp3d"/>
  </defs>
  <sodipodi:namedview id="base" pagecolor="#ffffff" bordercolor="#666666" borderopacity="1.0" inkscape:pageopacity="0.0" inkscape:pageshadow="2" inkscape:zoom="0.7" inkscape:cx="315.5561" inkscape:cy="292.71238" inkscape:document-units="px" inkscape:current-layer="layer1" showgrid="false" inkscape:window-width="1024" inkscape:window-height="695" inkscape:window-x="0" inkscape:window-y="25" inkscape:window-maximized="1"/>
  <metadata id="metadata7">
    <rdf:RDF>
      <cc:Work rdf:about="">
        <dc:format>image/svg+xml</dc:format>
        <dc:type rdf:resource="http://purl.org/dc/dcmitype/StillImage"/>
        <dc:title/>
      </cc:Work>
    </rdf:RDF>
  </metadata>
  <g inkscape:label="Ebene 1" inkscape:groupmode="layer" id="layer1" transform="translate(-34.443896,-233.52524)">
    <path style="fill:none;stroke:#000000;stroke-width:5;stroke-linecap:butt;stroke-linejoin:miter;stroke-miterlimit:4;stroke-opacity:1;stroke-dasharray:none" d="m 152.85714,772.36218 205.71429,1.42857 c 21.84041,-72.79794 13.62197,-73.45463 18.57143,-105.71428 17.06171,-32.0777 38.17709,-31.72608 62.85714,-2.85714 30.06249,37.29626 20.386,116.26412 52.85714,111.42857 74.51361,-45.59362 107.19658,-160.79939 125.71429,-245.71429 9.3854,-44.21974 -4.82509,-132.5889 -31.42857,-180 C 491.744,231.1134 377.10784,306.87444 350,346.6479 c -20.40521,33.32752 -42.05713,59.28797 -70,62.85714 -34.31559,1.18191 -39.00935,-56.67191 -40,-97.14286 -0.15716,-83.04992 -20.15928,-70.1825 -42.85714,-44.28571 -42.7625,-48.88213 -27.68272,-35.28486 -68.57143,-2.85714 C 109.52381,260.08027 99.04762,196.02663 80,279.50504 l -8.571429,30 C 57.204483,324.08641 13.777262,327.00531 52.857143,352.36218 95.86549,386.99957 15.179403,419.90772 60,453.79075 l 42.85714,10 c 1.12085,35.71429 6.24921,71.42857 30,107.14286 12.57534,30.47619 33.44581,52.38095 68.57143,82.85714 -12.36082,62.75546 -50.75807,57.00122 -48.57143,118.57143 z" id="path2830" sodipodi:nodetypes="cccccccccccccccccccc"/>
  </g>
</svg>