<?xml version="1.0" encoding="UTF-8" standalone="no"?>
<!-- Created with Inkscape (http://www.inkscape.org/) -->
<svg xmlns:dc="http://purl.org/dc/elements/1.1/" xmlns:cc="http://creativecommons.org/ns#" xmlns:rdf="http://www.w3.org/1999/02/22-rdf-syntax-ns#" xmlns:svg="http://www.w3.org/2000/svg" xmlns="http://www.w3.org/2000/svg" xmlns:sodipodi="http://sodipodi.sourceforge.net/DTD/sodipodi-0.dtd" xmlns:inkscape="http://www.inkscape.org/namespaces/inkscape" width="601.56891" height="638.51935" id="svg2" version="1.1" inkscape:version="0.47 r22583" sodipodi:docname="Ziege.svg">
  <defs id="defs4">
    <inkscape:perspective sodipodi:type="inkscape:persp3d" inkscape:vp_x="0 : 526.18109 : 1" inkscape:vp_y="0 : 1000 : 0" inkscape:vp_z="744.09448 : 526.18109 : 1" inkscape:persp3d-origin="372.04724 : 350.78739 : 1" id="perspective10"/>
    <inkscape:perspective id="perspective2824" inkscape:persp3d-origin="0.5 : 0.33333333 : 1" inkscape:vp_z="1 : 0.5 : 1" inkscape:vp_y="0 : 1000 : 0" inkscape:vp_x="0 : 0.5 : 1" sodipodi:type="inkscape:persp3d"/>
    <inkscape:perspective id="perspective2822" inkscape:persp3d-origin="0.5 : 0.33333333 : 1" inkscape:vp_z="1 : 0.5 : 1" inkscape:vp_y="0 : 1000 : 0" inkscape:vp_x="0 : 0.5 : 1" sodipodi:type="inkscape:persp3d"/>
  </defs>
  <sodipodi:namedview id="base" pagecolor="#ffffff" bordercolor="#666666" borderopacity="1.0" inkscape:pageopacity="0.0" inkscape:pageshadow="2" inkscape:zoom="0.35" inkscape:cx="306.83635" inkscape:cy="202.92128" inkscape:document-units="px" inkscape:current-layer="layer1" showgrid="false" inkscape:window-width="1024" inkscape:window-height="695" inkscape:window-x="0" inkscape:window-y="25" inkscape:window-maximized="1"/>
  <metadata id="metadata7">
    <rdf:RDF>
      <cc:Work rdf:about="">
        <dc:format>image/svg+xml</dc:format>
        <dc:type rdf:resource="http://purl.org/dc/dcmitype/StillImage"/>
        <dc:title/>
      </cc:Work>
    </rdf:RDF>
  </metadata>
  <g inkscape:label="Ebene 1" inkscape:groupmode="layer" id="layer1" transform="translate(-43.163654,-141.76256)">
    <path style="fill:none;stroke:#000000;stroke-width:5;stroke-linecap:butt;stroke-linejoin:miter;stroke-miterlimit:4;stroke-opacity:1;stroke-dasharray:none" d="m 451.42858,205.21932 c -114.21192,-135.725559 44.75328,-5.71146 52.85713,17.14285 48.24018,27.64804 56.67788,30.47844 85.71429,54.28572 60.79497,58.62489 74.08099,48.36125 10,75.71429 -65.72261,13.10086 -14.42291,62.81103 -64.28572,78.57142 -24.49513,-13.32228 -17.78518,-49.64882 -18.57142,-25.71428 -27.14286,60 -72.11605,107.28425 -68.57143,192.85714 l 15,163.57144 c -29.98227,7.86861 -39.5313,6.64807 -60.71428,-0.71429 L 370,608.07646 c -79.91074,31.53405 -88.8086,-8.57694 -130,-0.71428 -19.41097,5.84638 -42.759,-7.79273 -72.61204,16.6019 -5.23809,62.38095 -6.41692,97.47669 -15.61275,149.91079 -48.42615,7.39246 -29.65135,2.43622 -62.612044,0.17331 9.169912,-64.7619 15.361124,-92.19023 12.713564,-165.03336 L 57.142856,583.79075 c 0,0 -12.365097,-65.79156 -11.428567,-71.42857 6.01301,-36.19262 26.94349,-77.80602 67.142851,-90 l 245.71429,-17.14286 c 39.39763,-45.36428 8.65876,2.91264 65.71429,-97.14285 -1.54967,-18.57143 43.74097,-62.85715 27.14286,-102.85715 z" id="path2830" sodipodi:nodetypes="ccccccccccccccccscccc"/>
  </g>
</svg>