<?xml version="1.0" encoding="UTF-8" standalone="no"?>
<!-- Created with Inkscape (http://www.inkscape.org/) -->

<svg
   xmlns:dc="http://purl.org/dc/elements/1.1/"
   xmlns:cc="http://creativecommons.org/ns#"
   xmlns:rdf="http://www.w3.org/1999/02/22-rdf-syntax-ns#"
   xmlns:svg="http://www.w3.org/2000/svg"
   xmlns="http://www.w3.org/2000/svg"
   xmlns:sodipodi="http://sodipodi.sourceforge.net/DTD/sodipodi-0.dtd"
   xmlns:inkscape="http://www.inkscape.org/namespaces/inkscape"
   width="730.32959"
   height="591.15973"
   id="svg2"
   version="1.1"
   inkscape:version="0.48.3.1 r9886"
   sodipodi:docname="Fluegel.svg">
  <defs
     id="defs4">
    <inkscape:perspective
       sodipodi:type="inkscape:persp3d"
       inkscape:vp_x="0 : 526.18109 : 1"
       inkscape:vp_y="0 : 1000 : 0"
       inkscape:vp_z="744.09448 : 526.18109 : 1"
       inkscape:persp3d-origin="372.04724 : 350.78739 : 1"
       id="perspective10" />
    <inkscape:perspective
       id="perspective2824"
       inkscape:persp3d-origin="0.5 : 0.33333333 : 1"
       inkscape:vp_z="1 : 0.5 : 1"
       inkscape:vp_y="0 : 1000 : 0"
       inkscape:vp_x="0 : 0.5 : 1"
       sodipodi:type="inkscape:persp3d" />
    <inkscape:perspective
       id="perspective2840"
       inkscape:persp3d-origin="0.5 : 0.33333333 : 1"
       inkscape:vp_z="1 : 0.5 : 1"
       inkscape:vp_y="0 : 1000 : 0"
       inkscape:vp_x="0 : 0.5 : 1"
       sodipodi:type="inkscape:persp3d" />
  </defs>
  <sodipodi:namedview
     id="base"
     pagecolor="#ffffff"
     bordercolor="#666666"
     borderopacity="1.0"
     inkscape:pageopacity="0.0"
     inkscape:pageshadow="2"
     inkscape:zoom="0.35355339"
     inkscape:cx="173.15353"
     inkscape:cy="383.30979"
     inkscape:document-units="px"
     inkscape:current-layer="g3206"
     showgrid="false"
     inkscape:window-width="1024"
     inkscape:window-height="549"
     inkscape:window-x="0"
     inkscape:window-y="0"
     inkscape:window-maximized="1" />
  <metadata
     id="metadata7">
    <rdf:RDF>
      <cc:Work
         rdf:about="">
        <dc:format>image/svg+xml</dc:format>
        <dc:type
           rdf:resource="http://purl.org/dc/dcmitype/StillImage" />
        <dc:title></dc:title>
      </cc:Work>
    </rdf:RDF>
  </metadata>
  <g
     inkscape:label="Ebene 1"
     inkscape:groupmode="layer"
     id="layer1"
     transform="translate(20.855322,-172.91623)">
    <g
       id="g3206"
       transform="matrix(-0.10589499,0.99437733,-0.99437733,-0.10589499,839.92403,-51.749694)"
       style="fill:#ffffff">
      <g
         id="g3109"
         transform="matrix(0.74561767,-0.66637398,0.66637398,0.74561767,-832.62896,917.52767)"
         style="fill:none;stroke:#0000ff">
        <path
           inkscape:connector-curvature="0"
           id="path3080"
           d="m 1098.5192,259.52371 c 1.9118,-1.44399 2.9656,-1.34218 8.6387,0.83463 46.5248,19.74049 94.8592,42.85091 135.8516,77.06956 16.0579,13.4045 32.6287,26.15359 49.0338,39.93814 7.1454,6.00395 13.8338,11.71257 14.9419,12.59251 1.1081,0.87994 7.5731,6.58479 14.3665,12.67746 6.7934,6.09266 14.2084,12.7383 16.4778,14.76809 2.2694,2.02979 14.5234,13.18887 26.7609,25.28234 l 44.6215,44.09648 c 9.4899,9.3783 34.7706,37.30462 35.2393,38.42558 0.2321,0.555 0.8723,1.01285 1.1695,1.35467 11.9678,13.76808 23.9357,27.53615 35.9035,41.30422 0.5063,0.58239 0.9126,1.43326 1.316,1.62508 0.4033,0.19182 6.4592,7.43547 13.4575,16.09711 l 12.7242,15.74824 -0.1894,5.49797 c -0.2092,6.07462 0.4892,7.89238 3.7419,9.73829 2.046,1.16109 2.5655,1.04722 8.0337,-1.76146 7.3826,-3.79165 15.9046,-4.93004 25.3688,-3.38896 5.8243,0.94838 7.8809,0.81628 13.3035,-0.85462 3.6475,-1.12388 7.9864,-3.25352 10.0589,-4.93739 5.0823,-4.12893 6.5274,-4.26149 7.3277,-0.67242 1.0426,4.67618 -1.0557,8.46499 -7.2829,13.15063 -5.4631,4.11077 -6.3954,4.46523 -20.3329,7.7307 -12.6243,2.95781 -15.2871,3.88592 -19.6146,6.83699 -4.2757,2.91551 -4.9972,3.87881 -4.9376,6.59155 0.1078,4.90601 1.8557,5.5591 10.0113,3.74075 8.1108,-1.80838 15.3591,-2.12817 23.7049,-1.04591 5.7967,0.75176 17.3856,4.16598 17.6137,5.18916 0.068,0.30511 2.8618,-0.3603 6.2084,-1.47847 4.4973,-1.5028 6.8336,-2.92285 8.9556,-5.44313 3.4354,-4.08006 5.0639,-8.04447 4.445,-10.8206 -0.2496,-1.11912 -0.065,-3.50995 0.4108,-5.31284 0.6866,-2.60298 1.4197,-3.33609 3.5605,-3.56045 2.6507,-0.27777 2.7201,-0.16734 4.1324,6.56907 1.7345,8.27372 0.7289,12.79276 -4.9396,22.19739 -4.7403,7.86475 -8.8981,10.45524 -19.6537,12.24521 -5.9674,0.99309 -9.4428,0.81973 -18.784,-0.93699 -10.057,-1.89146 -12.6595,-1.97636 -21.2342,-0.69282 -8.0827,1.21002 -10.2465,1.85955 -12.5144,3.75664 -2.245,1.87806 -2.611,2.88104 -2.0194,5.5343 0.7145,3.20471 0.8119,3.246 8.7708,3.72501 4.4266,0.2664 11.0381,1.18381 14.6924,2.03868 6.7801,2.75108 16.8397,6.92898 20.9565,9.99681 5.9846,4.07001 15.8231,2.29251 24.6339,-4.45055 5.8738,-4.49537 7.6133,-4.49366 7.0886,0.007 -0.5067,4.34696 -4.0037,9.63294 -9.3691,14.16237 -3.7763,3.18797 -5.6378,4.00761 -12.7506,5.61447 -8.282,1.87113 -8.3784,1.86804 -17.3551,-1.18383 -5.4578,-3.66546 -10.186,-3.33674 -14.4229,-4.97644 -3.2743,-1.29828 -5.4315,-1.39965 -9.6702,-0.45461 -12.2512,2.73151 -27.8396,-2.44098 -32.1474,-10.66709 -3.6769,-7.02142 -9.9626,-10.68558 -16.0045,-9.32966 -3.768,0.85036 -24.714,10.09015 -38.0565,16.79669 -32.5367,16.35451 -70.4849,43.1635 -98.1696,69.35313 -9.8401,9.30873 -10.3611,9.53618 -18.482,8.0674 -4.3727,-0.79089 -9.3628,-5.01038 -12.1717,-10.29201 0.02,-1.3429 41.1423,-25.19281 40.5491,-26.13986 l -6.6943,-10.6876 c -0.6062,-0.96783 -41.1854,23.86032 -42.3895,23.19736 -4.3021,-5.49385 -4.247,-15.0363 -1.1198,-22.06354 1.3457,-3.02402 1.6598,-3.16268 21.9191,-9.67877 46.3497,-14.90787 83.2576,-31.36683 119.3169,-53.20902 12.811,-7.75992 32.6544,-21.90442 33.7826,-24.08039 0.7008,-1.35148 0.8972,-4.01763 0.4454,-6.04407 -0.9563,-4.28928 -4.0991,-6.46911 -10.1161,-7.01654 -3.0298,-0.27568 -4.5521,-1.11502 -6.1668,-3.40019 -1.9042,-2.6949 -2.0476,-3.4582 -1.2815,-6.82551 0.6721,-2.95394 0.3575,-5.53443 -1.4239,-11.68262 -2.2228,-7.67163 -2.6781,-8.37409 -16.3613,-25.24422 -7.7411,-9.54413 -18.5506,-22.61774 -24.0211,-29.0525 -5.4704,-6.43466 -9.8773,-11.9068 -9.7931,-12.1603 0.084,-0.25341 -5e-4,-0.31779 -0.1884,-0.14293 -0.1878,0.17476 -4.7969,-4.79123 -10.2425,-11.03555 -41.8127,-47.94637 -87.5498,-92.70393 -140.3746,-142.49297 -6.6454,-6.26357 -11.5577,-10.25012 -16.7305,-14.95962 -6.3871,-5.81501 -16.0261,-13.79722 -19.3722,-16.00108 -0.9908,-0.65253 -11.8218,-8.63095 -24.0689,-17.72964 -12.2472,-9.09879 -26.4534,-19.05119 -31.5695,-22.1165 -5.116,-3.06531 -14.8981,-8.96039 -21.7379,-13.10019 -6.8398,-4.13981 -18.2509,-10.34055 -25.3568,-13.78184 l -17.1715,-8.31588 c -0.757,-0.36663 -3.5396,-2.1354 -6.5651,-3.40287 -7.7646,-3.25277 -10.636,-7.94479 -6.6875,-10.9272 z"
           style="fill:none;stroke:#0000ff"
           sodipodi:nodetypes="ccsssssssccccscsscssccsscssscccccssssccccsccscscccsscssscsscssscssscsssccssscsssscscc" />
      </g>
    </g>
  </g>
</svg>
