<?xml version="1.0" encoding="UTF-8" standalone="no"?>
<!-- Created with Inkscape (http://www.inkscape.org/) -->

<svg
   xmlns:dc="http://purl.org/dc/elements/1.1/"
   xmlns:cc="http://creativecommons.org/ns#"
   xmlns:rdf="http://www.w3.org/1999/02/22-rdf-syntax-ns#"
   xmlns:svg="http://www.w3.org/2000/svg"
   xmlns="http://www.w3.org/2000/svg"
   xmlns:sodipodi="http://sodipodi.sourceforge.net/DTD/sodipodi-0.dtd"
   xmlns:inkscape="http://www.inkscape.org/namespaces/inkscape"
   width="719.65472"
   height="1116.428"
   id="svg2"
   version="1.1"
   inkscape:version="0.48.3.1 r9886"
   sodipodi:docname="New document 1">
  <defs
     id="defs4" />
  <sodipodi:namedview
     id="base"
     pagecolor="#ffffff"
     bordercolor="#666666"
     borderopacity="1.0"
     inkscape:pageopacity="0.0"
     inkscape:pageshadow="2"
     inkscape:zoom="0.5"
     inkscape:cx="201.37006"
     inkscape:cy="482.54548"
     inkscape:document-units="px"
     inkscape:current-layer="layer1"
     showgrid="false"
     fit-margin-top="0"
     fit-margin-left="0"
     fit-margin-right="0"
     fit-margin-bottom="0"
     inkscape:window-width="1280"
     inkscape:window-height="973"
     inkscape:window-x="0"
     inkscape:window-y="0"
     inkscape:window-maximized="1" />
  <metadata
     id="metadata7">
    <rdf:RDF>
      <cc:Work
         rdf:about="">
        <dc:format>image/svg+xml</dc:format>
        <dc:type
           rdf:resource="http://purl.org/dc/dcmitype/StillImage" />
        <dc:title></dc:title>
      </cc:Work>
    </rdf:RDF>
  </metadata>
  <g
     inkscape:label="Layer 1"
     inkscape:groupmode="layer"
     id="layer1"
     transform="translate(-12.913082,-10.952222)">
    <g
       id="g3012"
       transform="translate(-103.62516,-289.63754)">
      <path
         inkscape:connector-curvature="0"
         id="path3007"
         d="m 417.68987,818.77018 c -1.22247,-1.30126 -2.17431,-3.61157 -2.17431,-5.27749 0,-3.67778 -2.39845,-7.22885 -5.74077,-8.4996 -3.07997,-1.171 -4.82177,0.17636 -9.34956,7.23231 -1.71226,2.66832 -3.5174,4.60167 -4.01143,4.29634 -0.49403,-0.30533 -0.89824,-0.0959 -0.89824,0.46533 0,2.04308 -8.0256,3.35031 -12.63892,2.05866 -4.09135,-1.1455 -11.36108,-6.93356 -11.36108,-9.04553 0,-0.54349 -6.1875,-7.11061 -13.75,-14.59359 -7.5625,-7.48298 -13.62635,-14.0251 -13.47522,-14.53803 0.15112,-0.51294 -0.11752,-0.69016 -0.59698,-0.39384 -0.47946,0.29633 -2.17811,-0.8452 -3.77478,-2.53672 -1.59666,-1.69153 -6.46672,-5.83803 -10.82234,-9.21444 -4.35563,-3.37642 -11.55563,-8.9676 -16,-12.42483 -11.11049,-8.64275 -17.22438,-12.80049 -30.34405,-20.63544 -6.72564,-4.0165 -10.9943,-7.16176 -10.59549,-7.80704 0.36733,-0.59436 0.23567,-0.81354 -0.29258,-0.48706 -1.33464,0.82485 -30.5343,-13.74748 -29.60311,-14.77369 0.415,-0.45735 0.21173,-0.52 -0.45173,-0.13922 -1.12609,0.6463 -16.86159,-6.76136 -20.38038,-9.59428 -2.51664,-2.02611 -3.91334,-5.3495 -3.91334,-9.31165 0,-3.80211 0.42379,-4.34661 10.58073,-13.59455 l 3.98549,-3.62881 2.96689,2.41553 c 5.01807,4.08552 7.65407,6.14649 16.46689,12.87472 4.675,3.56917 8.3929,6.91825 8.262,7.44239 -0.13091,0.52415 0.34749,0.72833 1.06309,0.45372 0.71561,-0.2746 2.12995,0.4166 3.14299,1.53599 1.01304,1.1194 2.3954,2.03527 3.0719,2.03527 1.67584,0 4.85323,-5.01896 3.80312,-6.00734 -0.46371,-0.43645 -8.2681,-6.52247 -17.3431,-13.52449 -9.075,-7.00202 -16.695,-12.90432 -16.93333,-13.11623 -0.23834,-0.2119 0.0992,-0.91777 0.75,-1.56861 0.65083,-0.65083 1.18333,-1.97167 1.18333,-2.93519 0,-0.96353 1.64403,-3.34853 3.6534,-5.3 3.18388,-3.09214 4.28816,-3.54814 8.59252,-3.54814 l 4.93911,0 21.65748,21.10657 c 11.91162,11.60861 27.95749,26.15314 35.65749,32.32118 7.7,6.16803 14.675,11.86639 15.5,12.66302 0.825,0.79663 4.875,3.43814 9,5.87002 4.125,2.43188 9.75,5.83648 12.5,7.56577 8.7754,5.51827 28.71317,17.09242 37.67581,21.87133 9.26969,4.94263 11.73209,7.68241 13.75988,15.30989 0.61526,2.31428 1.55905,4.47995 2.09731,4.81262 1.9617,1.21239 7.86103,-1.85035 9.03823,-4.69237 0.63849,-1.54144 1.5535,-2.55996 2.03337,-2.26338 0.47987,0.29657 0.61532,-0.13096 0.30099,-0.95007 -0.3884,-1.01218 0.65645,-2.10624 3.26146,-3.41505 3.22326,-1.61943 6.8552,-2.01984 22.83295,-2.51727 39.26524,-1.22243 78.04564,-8.8207 116.85288,-22.89506 l 13.85289,-5.02407 2.64711,1.96483 c 5.28043,3.91942 6.24481,8.97374 3.74197,19.61157 -0.75565,3.21174 -1.76112,6.2094 -2.23438,6.66147 -0.47326,0.45207 -11.1414,2.75699 -23.70698,5.12205 l -22.8465,4.30011 0.55374,3.41232 c 0.30456,1.87678 0.68549,3.54082 0.84651,3.69787 0.16102,0.15705 10.84499,-1.76701 23.74216,-4.2757 15.12891,-2.9428 23.57469,-4.18538 23.80251,-3.50192 0.19421,0.58264 1.22494,2.06457 2.29051,3.29318 1.06556,1.22861 4.21686,6.46223 7.00287,11.63027 5.18048,9.60976 5.28115,10.22705 2.68067,16.43674 -1.88675,4.50538 -5.37748,5.02651 -25.31814,3.77972 -23.97363,-1.49896 -61.36757,-0.59513 -83.26882,2.01263 -9.54854,1.13694 -26.34334,3.87269 -37.32176,6.07945 -10.97843,2.20675 -20.97504,4.01228 -22.2147,4.01228 -1.23965,0 -3.23235,-1.0415 -4.42823,-2.31445 z m -24.67431,-91.84646 c -19.7022,-3.69309 -36.10391,-12.24678 -48.12578,-25.0982 -6.18145,-6.60799 -12.59335,-15.60816 -12.13064,-17.02736 0.14103,-0.43257 -0.23818,-1.10757 -0.8427,-1.5 -1.9312,-1.2537 -6.61366,-14.43538 -8.06685,-22.70916 -2.45783,-13.9937 -3.34962,-16.88686 -6.83282,-22.16705 -5.74841,-8.71402 -7.98859,-9.8411 -33.71198,-16.96114 -20.20528,-5.59267 -24.22131,-6.40738 -30.32807,-6.15246 -8.17828,0.34138 -17.50141,4.34355 -23.62652,10.14222 -2.01594,1.90851 -4.00059,3.16942 -4.41032,2.80204 -0.40974,-0.36739 -0.43836,-0.13314 -0.0636,0.52056 0.37474,0.6537 -0.11561,1.65251 -1.08968,2.21959 -0.97407,0.56708 -1.42316,1.04474 -0.99798,1.06146 0.42518,0.0167 0.11584,1.04291 -0.68743,2.28041 -0.80327,1.2375 -2.82706,7.98745 -4.49732,14.99989 -1.67025,7.01244 -3.72294,14.07668 -4.56151,15.69831 -4.19654,8.1152 -14.81237,11.22248 -24.09324,7.05214 -6.15247,-2.7646 -8.62819,-4.99453 -13.55321,-12.20765 l -3.89688,-5.70731 4.65492,-5.29269 c 2.56019,-2.91098 8.57854,-9.56769 13.37409,-14.79269 4.79555,-5.225 11.07677,-12.2 13.95825,-15.5 2.88148,-3.3 6.15795,-6.80065 7.28103,-7.77922 l 2.04197,-1.77921 -2.32118,-2.47079 c -1.27665,-1.35893 -2.59232,-2.47078 -2.92371,-2.47078 -0.83628,0 -6.47246,5.85473 -16.10985,16.73454 -4.499,5.079 -8.58692,8.98305 -9.08427,8.67567 -0.49735,-0.30738 -0.78062,0.0371 -0.6295,0.76546 0.15113,0.72838 -0.32117,1.20068 -1.04955,1.04955 -0.72838,-0.15112 -1.03975,0.18568 -0.69193,0.74847 0.34782,0.56278 -1.58159,3.38643 -4.28757,6.27477 -2.70598,2.88835 -6.10915,6.55694 -7.56258,8.15244 -3.01172,3.30606 -2.80652,3.39583 -11.18507,-4.89287 -2.22831,-2.20442 -6.33339,-6.03303 -9.12239,-8.50803 -19.26523,-17.09625 -23.51485,-22.38439 -23.96083,-29.8164 -0.24225,-4.03692 0.38866,-5.85722 4.56937,-13.1836 8.95119,-15.68629 20.36522,-37.38948 26.82164,-51 6.64249,-14.00275 19.98577,-45.5136 22.23115,-52.5 2.50922,-7.80731 8.39502,-18.15771 15.01254,-26.40012 1.925,-2.39768 10.71065,-9.87495 19.52368,-16.61618 14.59316,-11.16255 32.33717,-25.53366 39.97632,-32.37737 4.71233,-4.22164 20.49563,-17.44618 22.80314,-19.10633 4.34556,-3.12644 29.69686,-29.59907 29.69686,-31.01041 0,-0.54428 0.5625,-1.01649 1.25,-1.04937 0.6875,-0.0329 3.27406,-2.4655 5.74792,-5.4058 2.47385,-2.94031 4.90588,-5.09388 5.40451,-4.78571 0.49862,0.30817 0.6478,0.14158 0.33151,-0.37019 -0.31629,-0.51177 1.46804,-3.3938 3.96518,-6.40451 8.47045,-10.2125 13.7947,-16.34874 15.80088,-18.21066 1.1,-1.0209 2.71275,-2.5103 3.58389,-3.30977 0.87114,-0.79947 2.49293,-1.45358 3.60398,-1.45358 2.74508,0 7.31213,4.40868 7.31213,7.05857 0,1.18474 -2.767,7.39373 -6.14888,13.79775 -9.44448,17.88429 -10.98785,20.58559 -12.21443,21.37837 -0.62518,0.40407 -0.79161,0.74157 -0.36984,0.75 0.42176,0.008 -0.31656,2.15329 -1.64071,4.76638 -2.63171,5.19343 -32.50299,50.17739 -37.82326,56.95907 -14.77546,18.83407 -24.13503,31.89119 -27.23199,37.99011 -7.93679,15.63016 -11.57089,31.28084 -11.57089,49.83144 0,9.9105 -0.30034,11.91488 -2.49023,16.61901 -4.66008,10.01038 -2.85757,23.25611 4.10711,30.18099 3.30575,3.28686 20.00227,11.26176 31.94423,15.25779 15.18624,5.08163 27.72838,7.3209 45.18889,8.068 8.3875,0.35888 15.23875,0.92026 15.225,1.24752 -0.0137,0.32725 -1.08301,5.44039 -2.37612,11.36254 -1.29312,5.92215 -2.06937,10.93939 -1.725,11.14942 0.34436,0.21003 1.97395,0.53964 3.6213,0.73246 l 2.99517,0.35058 2.76395,-12.42579 c 1.52018,-6.83419 2.89051,-12.55236 3.04519,-12.70704 0.25539,-0.25539 25.80235,-4.36717 27.13373,-4.36717 0.31173,0 0.56678,3.375 0.56678,7.5 l 0,7.5 3.5,0 3.5,0 0,-9.41847 0,-9.41847 6.75,-2.23595 c 3.7125,-1.22977 9.4875,-3.22416 12.83333,-4.43197 3.85815,-1.39275 6.1279,-1.7935 6.20516,-1.09558 1.19448,10.79022 1.67616,12.0964 4.58333,12.42862 4.3434,0.49634 4.78977,-0.66001 3.52844,-9.14064 -1.5497,-10.41941 -0.93899,-11.22002 12.63303,-16.56129 5.89104,-2.31842 10.81559,-4.08277 10.94344,-3.92078 0.12785,0.16199 1.05069,3.37272 2.05076,7.13495 1.80481,6.78967 1.84059,6.83596 4.82249,6.23958 1.6523,-0.33046 3.22476,-0.8214 3.49434,-1.09099 0.26959,-0.26958 -0.3472,-3.8528 -1.37064,-7.96269 -1.02343,-4.1099 -1.56301,-7.77033 -1.19905,-8.13429 0.84113,-0.84113 20.53503,-6.39203 22.67813,-6.39203 1.14324,0 2.10735,1.95294 3.3549,6.7958 l 1.75064,6.79579 3.47085,-0.4052 c 4.03085,-0.47058 4.05653,-0.61753 1.63449,-9.35215 l -1.83635,-6.62247 12.98298,-2.07428 c 7.14064,-1.14086 13.33194,-1.85862 13.75844,-1.59502 0.4265,0.26359 1.77157,3.51187 2.98904,7.21839 1.21747,3.70653 2.30456,6.85367 2.41576,6.99365 0.56934,0.7167 6.52642,-2.11518 6.52599,-3.10234 -2.8e-4,-0.63369 -0.92524,-3.58519 -2.05547,-6.55887 -1.64766,-4.33508 -1.79622,-5.57081 -0.7495,-6.23469 2.13681,-1.35526 31.24287,-0.94971 46.30547,0.64519 20.20965,2.1399 37.43772,5.81923 58.5,12.49361 32.58379,10.32541 42.76672,12.10806 68.96065,12.07239 19.09816,-0.026 22.03935,0.6943 22.03935,5.39749 0,4.30964 -3.89954,7.20065 -14.68194,10.88479 -18.42343,6.29494 -33.12177,9.37277 -53.3549,11.17253 l -7.53684,0.67042 -4.96316,-3.88482 c -4.36187,-3.41416 -16.42001,-12.3741 -25.64223,-19.05375 l -3.09754,-2.24355 -1.86169,2.14656 c -1.02394,1.1806 -1.8617,2.7217 -1.8617,3.42466 0,0.70297 3.4875,3.74585 7.75,6.76196 4.2625,3.01611 8.65,6.33215 9.75,7.36896 1.1,1.03682 3.4625,2.74711 5.25,3.80064 3.10262,1.82866 4.23536,3.48431 2.38384,3.48431 -0.9721,0 -9.13384,11.80882 -9.13384,13.2153 0,0.4965 -0.46115,0.61773 -1.02478,0.26939 -0.56362,-0.34834 -0.92744,-0.2624 -0.80847,0.19098 0.11897,0.45338 -0.31041,3.1648 -0.95417,6.02537 -0.82269,3.65567 -0.87636,6.62693 -0.18062,10 2.30358,11.16813 2.34694,11.65117 0.9696,10.79993 -0.85061,-0.52571 -1.06898,-0.41907 -0.62219,0.30384 1.00538,1.62675 -1.41039,4.9654 -4.52694,6.25632 -2.0783,0.86085 -3.34155,0.80983 -5.46587,-0.22076 -2.31523,-1.12321 -3.58407,-3.52856 -7.83162,-14.84652 -3.20616,-8.54308 -6.35237,-15.1045 -8.56186,-17.85578 -4.77198,-5.94212 -15.28704,-13.63018 -22.15515,-16.19868 -5.08187,-1.90049 -6.0727,-1.98395 -9.37536,-0.78969 -4.63622,1.67647 -8.46257,6.13217 -8.46257,9.85445 0,3.35537 -3.99884,6.99585 -7.68452,6.99585 -3.21048,0 -8.00626,-2.5537 -9.28584,-4.94461 -0.5663,-1.05815 -1.02964,-3.04583 -1.02964,-4.41707 0,-3.48466 -4.32316,-6.63832 -9.10006,-6.63832 -2.85839,0 -4.7273,0.78754 -7.36514,3.10359 -3.02683,2.65759 -3.5348,3.72737 -3.5348,7.44424 0,5.29221 -2.99057,9.16438 -7.78979,10.0862 -3.05447,0.58669 -3.69166,0.19318 -8.90775,-5.50107 -5.33517,-5.82425 -5.84911,-6.13136 -10.21021,-6.10116 -6.47679,0.0449 -7.92063,1.54231 -9.50514,9.85813 -1.4767,7.75003 -2.4785,9.48542 -6.75116,11.69491 -2.4457,1.26471 -3.25445,1.26714 -6.24235,0.0187 -1.88794,-0.78884 -3.97151,-2.48484 -4.63015,-3.7689 -3.18849,-6.21615 -11.89106,-7.99796 -16.5089,-3.38011 -2.17233,2.17232 -2.45455,3.32211 -2.45455,10 0,4.64396 -0.40723,7.54545 -1.05902,7.54545 -0.58246,0 -0.78518,0.44307 -0.4505,0.9846 0.99597,1.61151 -5.663,5.13353 -8.49048,4.49073 -1.375,-0.3126 -4.7958,-3.02243 -7.60178,-6.02184 -4.69508,-5.01874 -5.45241,-5.45172 -9.5,-5.43125 -6.47477,0.0327 -8.59717,2.17033 -9.82242,9.89278 -1.26346,7.96323 -4.62641,12.085 -9.86013,12.085 -2.84424,0 -4.18227,-0.86106 -8.06291,-5.1887 -2.55902,-2.85379 -4.56667,-5.47457 -4.46144,-5.82397 0.10523,-0.34939 -2.11753,-0.74061 -4.93947,-0.86938 -2.82193,-0.12876 -5.48231,-0.45136 -5.91195,-0.7169 -1.12643,-0.69617 -6.67191,2.30702 -11.54011,6.24963 -2.68528,2.17473 -5.38748,5.8133 -7.49195,10.0881 -2.89892,5.88853 -3.27734,7.58595 -3.17103,14.22384 0.0725,4.52771 0.77343,9.03475 1.75537,11.28738 0.89906,2.0625 1.29112,3.75689 0.87124,3.76531 -0.41988,0.008 -0.29809,0.34592 0.27065,0.75 0.56873,0.40408 3.12896,3.70211 5.6894,7.32897 2.56043,3.62685 7.2701,8.99066 10.46593,11.91959 3.19583,2.92892 5.68695,5.73244 5.53582,6.23005 -0.15112,0.49761 0.21473,0.60221 0.81302,0.23245 0.59828,-0.36976 1.84693,-0.005 2.77477,0.81167 2.59637,2.2839 11.77996,6.66293 18.56926,8.85442 3.36475,1.08609 11.15118,2.48616 17.30319,3.11127 10.04858,1.02103 11.31036,1.36994 12.4144,3.43287 2.12873,3.97756 -0.11324,6.97071 -6.64319,8.86902 -3.09215,0.89891 -6.48549,1.4086 -7.54076,1.13264 -1.05527,-0.27596 -1.66649,-0.0937 -1.35827,0.405 0.71478,1.15654 -11.4447,0.98539 -18.05764,-0.25417 z m 73.59315,-8.22302 c -3.34558,-1.20963 -5.65035,-4.72166 -4.70879,-7.17532 0.25112,-0.65439 2.53006,-1.50075 5.06433,-1.88078 6.05047,-0.90733 11.90417,-4.115 16.40625,-8.99019 2.00478,-2.17093 6.23256,-6.65153 9.39506,-9.95689 3.1625,-3.30535 5.75,-6.37044 5.75,-6.81131 0,-0.44087 0.98202,-0.80158 2.18228,-0.80158 1.20025,0 6.15025,-0.50887 11,-1.13083 8.58686,-1.10122 8.81588,-1.1994 8.74743,-3.75 -0.0704,-2.62173 -1.72696,-7.56567 -1.85942,-5.5492 -0.0397,0.60455 -4.68634,1.60654 -10.6824,2.30353 -9.00908,1.04723 -10.85952,1.01863 -12.25,-0.18932 -0.90084,-0.78259 -4.90368,-2.14496 -8.8952,-3.02748 -6.3849,-1.41171 -17.50619,-7.01442 -19.24269,-9.69413 -0.275,-0.42437 -0.95,-0.86847 -1.5,-0.98688 -1.04926,-0.2259 -1.94965,-0.56405 -9.89086,-3.71461 -4.77771,-1.89549 -5.09004,-1.89874 -13.5,-0.14015 -4.73503,0.99013 -9.39664,1.81797 -10.35914,1.83965 -2.88767,0.065 -2.09012,-4.5036 1.5,-8.59258 4.50167,-5.12718 9.75327,-7.21011 18.78101,-7.44905 7.79966,-0.20644 10.53204,0.67694 28.46899,9.20408 4.46648,2.12334 6.33379,2.37039 17.5,2.31527 11.56841,-0.0571 13.11993,-0.29931 20.81822,-3.25 13.92023,-5.3355 21.57041,-4.13566 30.68178,4.81208 3.7823,3.71438 6.00302,5.06887 9.1185,5.56169 3.36825,0.53281 4.37017,0.30523 5.5,-1.24931 0.75983,-1.04545 3.4065,-3.32158 5.8815,-5.05807 4.49986,-3.15715 4.50061,-3.15729 23.63063,-4.208 25.03295,-1.37493 43.19142,-4.54716 57.64249,-10.06999 2.87479,-1.09867 7.57397,-2.27803 10.44264,-2.6208 4.81208,-0.57498 5.48354,-0.3881 8.67572,2.41467 3.96027,3.47717 8.61246,4.83287 11.4229,3.32877 1.83119,-0.98002 4.18562,-7.65875 4.18562,-11.87318 0,-1.03851 1.21881,-2.52674 2.70846,-3.30718 10.29086,-5.39144 19.76241,-11.93171 25.63053,-17.69831 6.36553,-6.2554 13.59046,-16.74553 15.13199,-21.97067 0.36509,-1.2375 1.11003,-2.25 1.65542,-2.25 0.5454,0 0.73686,-0.41224 0.42546,-0.91608 -0.31139,-0.50385 -0.11216,-2.11021 0.44273,-3.56969 0.55489,-1.45948 1.49764,-5.88474 2.09499,-9.83392 0.59735,-3.94917 1.71816,-8.17178 2.49069,-9.38358 1.60419,-2.51635 7.28938,-3.94825 10.06443,-2.53488 2.84478,1.44887 7.84358,-0.34333 9.18807,-3.29416 2.77221,-6.08434 0.29861,-11.10323 -5.96603,-12.10499 -3.23535,-0.51735 -4.53069,-1.40888 -6.60812,-4.54808 -2.22381,-3.36041 -2.61187,-5.11782 -2.78438,-12.60961 -0.11025,-4.78775 -0.26205,-9.19115 -0.33734,-9.78532 -0.0753,-0.59418 -1.97224,-3.06918 -4.21544,-5.5 -8.4888,-9.19884 -9.10151,-15.51215 -2.46582,-25.40769 l 4.45564,-6.64453 -1.05022,-8.58583 c -0.57762,-4.72221 -0.78634,-9.90526 -0.46381,-11.5179 0.87857,-4.39284 4.37772,-8.76374 7.01586,-8.76374 3.21141,0 5.98689,-3.47694 5.98689,-7.5 0,-6.31137 -5.85609,-9.86687 -11.46986,-6.96387 -2.48543,1.28526 -3.69295,1.36723 -6.49905,0.44113 -4.01109,-1.32378 -4.35487,-1.8678 -7.88486,-12.47726 -3.38683,-10.1792 -8.90231,-19.50444 -15.67363,-26.5 -2.92803,-3.025 -5.21105,-5.87095 -5.07337,-6.32433 0.13768,-0.45338 -0.19039,-0.55195 -0.72905,-0.21904 -0.53866,0.3329 -3.26679,-1.03807 -6.06253,-3.0466 -2.79573,-2.00854 -9.90367,-5.58103 -15.7954,-7.93887 l -10.71225,-4.28699 -2.10514,-5.78992 c -2.66113,-7.3191 -5.10719,-9.16906 -9.64426,-7.29398 -1.78783,0.73888 -4.7281,2.81858 -6.53393,4.62157 -2.81203,2.80759 -3.98365,3.27816 -8.16204,3.27816 -2.68328,0 -8.40578,-0.67625 -12.71666,-1.50278 -9.21541,-1.76688 -31.53036,-3.60707 -36.42447,-3.00373 -1.87742,0.23144 -11.5135,0.94834 -21.4135,1.5931 l -18,1.17229 -5,-2.75906 c -2.75,-1.51749 -5.69519,-3.36194 -6.54488,-4.0988 -2.90008,-2.51498 -8.33941,0.18768 -12.48142,6.20169 -4.13573,6.0049 -8.55768,9.00749 -15.43876,10.48322 -3.79826,0.81458 -6.70961,0.61066 -14.78917,-1.03585 -12.04286,-2.45417 -15.99145,-2.53314 -25.76108,-0.51517 -6.2292,1.28668 -9.42187,2.79873 -19.7412,9.34945 -11.55218,7.33333 -12.75091,7.85795 -19.46702,8.51974 -8.24643,0.81258 -13.33503,-0.25842 -18.16755,-3.82374 -4.32017,-3.18732 -6.26219,-6.01736 -5.49721,-8.01089 0.5263,-1.3715 2.26885,-1.5281 12.53105,-1.12617 7.43932,0.29137 11.69787,0.10786 11.32948,-0.48822 -0.32465,-0.5253 -0.15142,-0.95508 0.38497,-0.95508 1.51031,0 15.26787,-9.47189 18.78322,-12.93199 1.72724,-1.70009 6.33972,-4.41036 10.24996,-6.02281 3.91024,-1.61245 8.10967,-3.63226 9.33207,-4.48847 1.67784,-1.1752 4.86395,-1.55673 13.00005,-1.55673 l 10.77749,0 0,-3.5 0,-3.5 -11.5,0 c -6.88966,0 -11.5,-0.39521 -11.5,-0.98581 0,-0.5422 -1.9125,-2.21126 -4.25,-3.70903 -2.3375,-1.49777 -6.61216,-4.90431 -9.49924,-7.57008 -6.14599,-5.67488 -12.19903,-8.59862 -19.50175,-9.41975 -6.57817,-0.73966 -7.76101,-1.6237 -6.83005,-5.10469 0.95859,-3.58432 7.44557,-6.08372 15.97805,-6.15626 5.9094,-0.0502 6.73409,0.22183 10.81924,3.56931 8.43578,6.91249 20.57336,11.37631 30.93332,11.37631 3.24251,0 9.93842,-1.2778 16.09698,-3.07182 5.94403,-1.73153 11.56011,-2.81705 12.87155,-2.4879 2.86906,0.72009 6.12508,4.08238 7.80498,8.05972 1.97442,4.67463 3.9806,5.90353 7.58583,4.64674 3.35908,-1.17098 5.31639,-2.90993 5.81984,-5.17055 0.52262,-2.34668 3.1034,-4.74235 5.85194,-5.43218 1.87059,-0.46949 4.80246,0.53601 11.20509,3.84283 18.34323,9.47391 35.59914,13.02787 55.9316,11.51946 12.86074,-0.95411 23.23606,-3.55739 34.35435,-8.61989 6.98718,-3.18148 7.9881,-3.38877 11.21727,-2.32304 4.03193,1.33065 8.611,6.21485 8.611,9.18478 0,1.09709 0.6938,2.6885 1.54177,3.53648 1.38903,1.38903 2.32486,1.34512 9.44615,-0.44328 7.554,-1.89708 8.03122,-1.90792 10.76613,-0.24473 1.57396,0.95718 4.7222,4.87194 6.99608,8.69946 2.27389,3.82751 6.21806,9.27672 8.76483,12.10934 2.73912,3.04655 4.33344,5.63085 3.90326,6.32691 -0.44152,0.71439 -0.29679,0.91065 0.36841,0.49954 0.6026,-0.37243 3.26859,1.24554 5.92441,3.59549 13.49648,11.94207 30.56428,19.49937 54.99399,24.35032 3.14432,0.62436 7.38114,6.64591 8.01825,11.39586 0.41081,3.06286 -0.0247,5.11862 -1.78918,8.44461 -1.96746,3.7087 -2.18377,4.99146 -1.38314,8.20253 0.776,3.11232 1.62297,4.0619 4.64528,5.20805 3.36796,1.27725 4.07846,1.21767 8,-0.67077 2.36707,-1.13988 6.10376,-2.34037 8.30376,-2.66777 7.98882,-1.18886 17.30797,6.95497 19.02958,16.6296 0.59825,3.36185 0.44199,3.66888 -2.19272,4.30863 -1.56027,0.37886 -8.39088,2.31113 -15.17912,4.29392 l -12.34226,3.60507 0.60268,3.01338 c 0.33147,1.65736 0.8284,3.23911 1.1043,3.515 0.27589,0.2759 6.58507,-1.21492 14.0204,-3.31293 7.43532,-2.09801 13.77112,-3.56221 14.07955,-3.25378 0.67317,0.67316 2.5818,29.84004 1.99133,30.43052 -0.22668,0.22667 -7.8825,0.90647 -17.01294,1.51066 l -16.6008,1.09852 0,3.27659 c 0,1.80213 0.3375,3.4649 0.75,3.69504 0.4125,0.23015 8.11823,-0.0849 17.12384,-0.70004 10.96314,-0.74889 16.46864,-0.78505 16.66072,-0.10943 0.49258,1.73262 2.53944,29.7684 2.19826,30.10957 -0.17794,0.17794 -6.59015,-0.55938 -14.24935,-1.63849 -7.65921,-1.07911 -14.30346,-1.96202 -14.76502,-1.96202 -0.46155,0 -0.69952,1.6717 -0.52882,3.71489 l 0.31037,3.71488 15,2.04007 15,2.04007 -0.0361,5.12262 c -0.0403,5.72019 -3.39921,11.96853 -8.08398,15.03811 -3.72801,2.44268 -12.34864,3.42582 -14.85243,1.69383 -2.88046,-1.99255 -7.87181,-1.66807 -10.89263,0.70811 -3.578,2.81445 -3.58918,8.24206 -0.0278,13.49005 2.21116,3.25832 2.54007,4.64961 2.1659,9.16167 -0.53416,6.44127 -3.57694,10.13079 -9.97512,12.09534 -6.88527,2.11411 -21.74437,9.44383 -29.49116,14.54743 -8.51625,5.61053 -20.65095,18.16217 -25.9747,26.86716 -2.10759,3.44617 -5.42966,9.77535 -7.38238,14.06484 -4.66884,10.25595 -6.69398,11.61496 -15.69357,10.53151 -9.68226,-1.16563 -10.87275,-0.50192 -11.81548,6.58729 -0.4428,3.32979 -5.25144,8.86868 -7.08769,8.16404 -0.673,-0.25826 -1.39281,0.0379 -1.59957,0.65821 -0.25629,0.76887 -3.53875,0.23844 -10.3146,-1.66679 -7.82053,-2.19897 -12.81584,-2.90384 -23.43869,-3.30737 -15.82113,-0.60099 -24.53681,0.53796 -37.81821,4.94199 -8.45013,2.80201 -25.34482,11.81222 -28.99736,15.46476 -0.75565,0.75565 -2.70691,2.06324 -4.33614,2.90574 -2.70625,1.39946 -3.28136,1.37584 -6.65526,-0.27331 -2.03117,-0.99283 -4.25156,-2.98312 -4.9342,-4.42286 -2.61722,-5.51993 -12.25883,-4.12569 -12.25883,1.77271 0,1.28975 -0.525,2.34501 -1.16667,2.34501 -0.64166,0 -0.8825,0.28417 -0.53518,0.63148 1.10691,1.10692 -1.2549,4.2948 -4.37869,5.91017 -2.74443,1.4192 -4.03266,1.41348 -14.06022,-0.0624 -11.82682,-1.74066 -15.73235,-1.47627 -25.35924,1.71676 -6.48703,2.1516 -16.93632,9.05626 -20.67541,13.66186 -3.97002,4.89004 -13.86707,6.6016 -21.73144,3.75817 z M 692.51556,539.57333 c -35.37606,-4.38794 -68.83343,-12.24978 -102.76464,-24.1477 -20.97942,-7.3564 -24.82924,-9.76765 -28.90907,-18.10652 -3.05055,-6.23511 -3.62975,-14.61935 -1.39783,-20.23448 1.98053,-4.9827 6.00909,-10.15663 7.29123,-9.36423 0.63171,0.39042 0.80421,0.21191 0.41062,-0.42493 -1.20135,-1.94382 7.84673,-6.35307 14.2235,-6.9313 6.544,-0.59339 11.71823,0.69119 17.347,4.30664 2.90454,1.86563 5.16374,2.39945 10.5,2.48101 5.89686,0.0901 7.59546,-0.32957 12.79919,-3.16256 3.3,-1.79656 8.7,-6.00139 12,-9.34407 13.27627,-13.44796 17.47196,-31.63747 12.00552,-52.04737 -1.87283,-6.99251 -1.40182,-9.8798 1.97234,-12.09064 4.02874,-2.63973 8.80477,-0.34943 18.14995,8.70367 4.4703,4.33058 8.90903,7.87378 9.86385,7.87378 4.96022,0 12.29298,6.92623 13.81217,13.04643 0.77624,3.12714 -0.62808,8.54061 -2.13122,8.21557 -0.60535,-0.13091 -0.85847,0.39307 -0.56248,1.16439 0.67885,1.76906 -7.98962,7.05183 -9.83023,5.99078 -0.70394,-0.4058 -0.97615,-0.39942 -0.6049,0.0142 0.37126,0.41359 -1.65374,2.636 -4.5,4.93867 -5.96666,4.82715 -13.0735,14.84392 -14.85334,20.93514 -0.67415,2.30716 -1.24731,8.08662 -1.27369,12.84323 l -0.048,8.6484 -10.5,1.59981 c -5.775,0.8799 -12.67514,1.89195 -15.33364,2.249 l -4.83364,0.64918 0.67282,3.60261 c 0.37006,1.98143 0.7452,3.65907 0.83364,3.72808 0.0884,0.069 6.91082,-0.92942 15.16082,-2.21873 8.25,-1.28931 15.26122,-2.35827 15.58048,-2.37547 0.31926,-0.0172 2.00898,1.95788 3.75492,4.38906 6.54222,9.10988 10.03416,11.4615 26.83748,18.07351 21.8812,8.61012 40.59983,18.00494 42.59147,21.37652 1.60346,2.71444 0.94887,5.58575 -1.67889,7.36433 -1.97595,1.3374 -17.82462,0.58105 -36.58546,-1.74599 z m -282.5,0.81635 c -1.65,-0.2174 -8.4,-2.25639 -15,-4.53109 -11.50688,-3.96585 -12.49312,-4.13441 -24,-4.10197 -6.6,0.0186 -13.86661,0.36791 -16.14802,0.77623 -5.28879,0.94657 -10.52909,-1.38069 -13.33622,-5.92272 -2.51375,-4.06733 -2.63707,-8.20433 -0.26576,-8.91573 3.60275,-1.08084 19.43917,-2.79356 21.309,-2.30459 1.06907,0.27957 1.69158,0.10027 1.38336,-0.39844 -0.30822,-0.49871 0.14116,-0.90674 0.99862,-0.90674 1.11507,0 1.55902,-0.99667 1.55902,-3.5 0,-4.1345 0.35527,-4.0861 -14.95782,-2.03774 -5.7518,0.76939 -10.8143,1.17858 -11.25,0.9093 -1.34365,-0.83042 -0.87454,-10.31161 0.65671,-13.27272 2.47852,-4.79293 5.5968,-6.09884 14.56292,-6.09884 6.64848,0 10.42427,-0.72728 21.28519,-4.09989 l 13.203,-4.0999 13.60967,0.6075 c 13.86699,0.61899 17.47616,0.0198 21.93198,-3.64109 2.58717,-2.12561 5.95835,-8.35622 5.95835,-11.01221 0,-2.85445 2.31127,-5.23268 4.33182,-4.45732 1.84433,0.70773 4.11715,9.21745 3.88859,14.55933 -0.23017,5.37925 -3.68513,12.5135 -7.69957,15.89905 -4.90716,4.13843 -9.40607,5.52123 -20.52084,6.3074 -17.94937,1.26958 -24.42253,5.42447 -19.93853,12.79781 2.83447,4.66091 5.55499,5.88733 17.24759,7.77529 13.42238,2.16725 22.58233,1.16895 32.05269,-3.4933 6.28068,-3.09196 18.03105,-13.6542 19.16508,-17.22719 0.64895,-2.04468 3.87639,-3.40235 5.58207,-2.34817 1.85897,1.1489 0.19015,9.08224 -3.31993,15.78248 -4.07851,7.78531 -14.28972,17.8646 -22.08489,21.79959 -9.23631,4.66247 -20.00132,6.5 -30.20408,5.15567 z m -76.809,-87.50543 c -3.50913,-2.63634 1.70439,-9.52739 5.45456,-7.20966 0.77731,0.48041 0.89178,0.27948 0.3449,-0.60539 -0.58771,-0.95094 -0.36749,-1.15136 0.78089,-0.71069 0.87969,0.33757 1.74101,0.26586 1.91404,-0.15937 0.6795,-1.66984 40.1034,-13.41325 73.81461,-21.98755 31.59334,-8.03563 105.29169,-24.36125 115.29499,-25.54009 2.12625,-0.25057 5.36196,0.2075 7.35852,1.04172 1.95995,0.81891 6.90213,2.32324 10.98264,3.34294 6.90483,1.72548 8.37033,1.75751 21.14148,0.46201 19.63825,-1.9921 21.65782,-1.90718 24.59933,1.03433 2.40594,2.40594 4.23484,6.25366 3.3792,7.1093 -1.05487,1.05487 -40.88479,12.46137 -41.71713,11.94695 -0.92853,-0.57386 -0.83698,0.58815 0.43996,5.58407 l 0.66664,2.60819 7.67719,-2.20613 c 4.22245,-1.21338 13.43673,-3.91751 20.47619,-6.00919 9.47234,-2.81457 13.09109,-3.51096 13.92276,-2.67929 0.61807,0.61807 1.15851,4.27116 1.20099,8.11798 0.1079,9.77037 -0.36574,10.11578 -19.92276,14.52925 -51.15997,11.54537 -47.95509,11.39317 -56.63364,2.6896 -8.27813,-8.302 -7.5679,-7.99409 -17.46338,-7.57097 -23.03807,0.98508 -86.81906,6.98529 -122.90298,11.56213 -51.35991,6.51442 -48.65647,6.26701 -50.809,4.64986 z m -191.05614,-19.8722 c -1.44917,-1.13992 -2.63486,-2.71492 -2.63486,-3.5 0,-0.78508 -0.47874,-1.42742 -1.06387,-1.42742 -0.9429,0 2.03022,-4.53241 10.06387,-15.34201 15.03483,-20.22994 17.34163,-23.8873 15.65997,-24.82841 -0.92909,-0.51994 -2.24468,-1.53993 -2.92352,-2.26663 -1.27311,-1.36287 -1.15876,-1.49982 -18.12281,21.7031 -2.6875,3.67588 -5.34453,6.40027 -5.90451,6.05418 -0.58028,-0.35863 -0.71285,-0.13527 -0.30826,0.51938 0.39044,0.63174 -0.47892,2.70724 -1.93192,4.61222 -2.3045,3.02134 -3.04576,3.38719 -5.80538,2.86517 -3.90041,-0.73781 -5.60267,-2.02664 -6.78537,-5.13738 -0.94042,-2.47349 -0.57134,-3.54562 3.92417,-11.39901 1.171,-2.04567 3.79387,-6.77067 5.8286,-10.5 2.03474,-3.72934 6.38398,-11.50561 9.66498,-17.28061 6.54927,-11.5276 8.35395,-14.76374 14.6154,-26.20819 5.08458,-9.29341 9.12159,-12.31457 16.04409,-12.00685 2.49951,0.11111 5.9018,0.59334 7.56065,1.07164 4.1225,1.18863 5.22725,-0.26509 6.89196,-9.06903 2.00674,-10.61278 4.47094,-12.46994 21.224,-15.99564 7.07737,-1.48943 19.16795,-4.08967 26.86795,-5.7783 25.43432,-5.5778 36.9853,-8.00329 38.13922,-8.00849 0.62656,-0.003 2.20156,0.85508 3.5,1.90645 1.8231,1.47622 2.36619,2.91186 2.38452,6.30339 l 0.0238,4.39179 -19.73093,6.7821 c -10.85201,3.73015 -20.26972,6.44909 -20.92825,6.0421 -0.75711,-0.46792 -0.93499,-0.31551 -0.4838,0.41452 0.4228,0.68411 0.0783,1.15451 -0.84549,1.15451 -1.84417,0 -1.91396,0.68338 -0.48759,4.77505 l 1.07142,3.07349 21.67858,-7.48922 c 11.92321,-4.11907 21.96709,-7.57249 22.31972,-7.67427 0.90002,-0.25977 4.68641,4.19627 5.35463,6.30165 1.37487,4.33185 -1.10588,6.55016 -18.15562,16.23486 -22.03226,12.51488 -46.67484,24.77844 -49.7902,24.77844 -1.36124,0 -4.98773,-0.94014 -8.05886,-2.0892 -7.87015,-2.9446 -8.49115,-2.46843 -8.49115,6.51076 0,4.11638 -0.47811,8.53368 -1.06248,9.81621 -0.58436,1.28254 -5.56709,6.81621 -11.07273,12.29706 -5.50564,5.48084 -10.06558,10.19017 -10.1332,10.46517 -0.14457,0.58801 -20.33204,19.99704 -26.4439,25.4242 -2.49442,2.21499 -4.69851,3.43993 -5.4045,3.0036 -0.75211,-0.46482 -0.92881,-0.31063 -0.47868,0.41769 1.21838,1.97137 -2.93688,1.31019 -5.76965,-0.91807 z"
         style="fill:none;stroke:#000000" />
    </g>
    <path
       style="fill:none;stroke:#000000"
       d="m 261.61949,1126.006 c -1.1418,-0.462 -4.04405,-3.246 -6.44944,-6.1866 -2.40538,-2.9406 -7.86796,-9.2248 -12.13906,-13.9648 -4.2711,-4.7401 -7.44385,-8.9747 -7.05056,-9.4104 0.39329,-0.4356 0.241,-0.523 -0.33844,-0.1941 -0.57944,0.3288 -4.40444,-2.8097 -8.5,-6.9745 -10.7079,-10.889 -21.72536,-20.7795 -35.44648,-31.8208 -6.6,-5.311 -11.87635,-10.1006 -11.72522,-10.6435 0.15112,-0.5429 -0.15745,-0.72 -0.68573,-0.3935 -0.52827,0.3265 -7.86571,-4.0697 -16.3054,-9.7692 -8.4397,-5.6996 -15.78112,-10.5458 -16.31428,-10.7693 -3.64926,-1.5302 -18.31273,-10.3509 -18.0131,-10.8357 0.61628,-0.9972 -7.95706,-0.3907 -11.63472,0.8231 -2.2512,0.7429 -4.28011,2.4928 -5.87947,5.0709 -5.83647,9.4079 -22.904177,13.1911 -36.374087,8.0626 -2.41644,-0.92 -5.53759,-0.5488 -17.74961,2.1109 l -14.81759,3.2272 -5.7504,-1.8101 c -12.22219,-3.8473 -21.23874,-13.3132 -21.24665,-22.3054 -0.002,-2.4492 0.4665,-4.25 1.10605,-4.25 0.61039,0 3.61835,2.2927 6.68437,5.0949 3.06601,2.8021 6.6459,5.5021 7.95531,6 4.34819,1.6531 13.05209,1.047 17.49227,-1.2182 10.12508,-5.1655 14.67358,-6.1698 28.62207,-6.3198 13.23823,-0.1424 13.37635,-0.1676 14.69724,-2.6887 1.17838,-2.249 1.08826,-2.89 -0.7751,-5.5129 -1.79649,-2.52869 -3.60161,-3.34659 -12.19724,-5.52649 -9.44224,-2.3946 -10.88969,-2.503 -22.58871,-1.6913 -12.22826,0.8483 -12.65911,0.8073 -19.81924,-1.8852 -8.18075,-3.0763 -14.6023,-7.7114 -13.75227,-9.9266 0.30173,-0.7863 0.13809,-1.1759 -0.36365,-0.8658 -0.50174,0.3101 -1.9327,-2.02903 -3.1799,-5.19805 -3.96693,-10.07957 -2.70308,-26.1545 2.12268,-26.99839 3.42568,-0.59905 4.49052,1.48672 4.56915,8.94992 0.10883,10.32905 3.4196,15.798 11.64408,19.23441 3.3411,1.396 4.34172,1.39056 10.48635,-0.057 10.12652,-2.38566 26.56535,-1.44383 35.65232,2.04263 3.77273,1.44748 7.69622,2.36628 8.71887,2.04168 1.93903,-0.6154 4.46542,-7.46547 3.10939,-8.4308 -13.54042,-9.63919 -18.78385,-12.28274 -29.11693,-14.67971 -5.29156,-1.22748 -7.41486,-2.38717 -12,-6.55406 -6.85712,-6.23162 -8.44489,-9.00315 -7.63402,-13.3255 0.89685,-4.78063 2.88898,-4.92393 7.28863,-0.52428 6.83904,6.83904 11.18591,8.43035 24.79205,9.07593 10.84364,0.51451 12.65482,0.88069 18.54216,3.7488 3.588557,1.74823 7.518177,4.10421 8.732487,5.23552 1.21431,1.1313 2.21069,1.70188 2.21416,1.26796 0.003,-0.43393 1.29547,-1.52224 2.8711,-2.41847 2.57487,-1.46461 2.91058,-2.26286 3.31749,-7.88832 l 0.45272,-6.25882 11.92619,-11.52147 c 25.68429,-24.8127 33.24113,-31.99514 41.42618,-39.37374 4.675,-4.21438 10.075,-9.08514 12,-10.82392 37.7463,-34.09464 118.26675,-98.19346 121.12828,-96.42494 0.70328,0.43465 0.91586,0.30116 0.52571,-0.33012 -0.37289,-0.60335 3.76011,-4.16282 9.59549,-8.26392 5.63779,-3.96223 11.37552,-8.02977 12.75052,-9.03897 8.52549,-6.25745 17,-11.87617 17,-11.27125 0,0.38898 0.5625,-0.004 1.25,-0.87334 2.42627,-3.06794 59.38043,-39.5527 60.96122,-39.05168 0.43383,0.1375 0.78878,-0.13604 0.78878,-0.60786 0,-2.19304 31.28497,-18.70208 33.19907,-17.51911 0.61047,0.37729 0.83634,0.24327 0.50192,-0.29782 -0.33441,-0.54109 2.63356,-2.52312 6.59549,-4.40451 3.96194,-1.88138 7.43463,-3.72512 7.71711,-4.09719 1.20397,-1.58589 30.69913,-14.79182 46.98641,-21.03735 21.55714,-8.26632 54.95924,-18.78618 59.64886,-18.78618 1.30204,0 2.7688,0.91189 3.41804,2.125 2.03219,3.79719 -0.4487,6.39982 -8.93984,9.37854 -25.81746,9.05682 -37.71093,13.68014 -54.62706,21.23502 -27.36927,12.22335 -31.46207,14.25343 -46.81912,23.22285 -7.60052,4.43915 -14.30755,7.76932 -14.90451,7.40038 -0.59696,-0.36894 -0.81402,-0.23173 -0.48236,0.30491 0.33167,0.53665 -4.43489,3.86868 -10.59234,7.40451 -17.63196,10.12492 -50.17179,32.54686 -75.07936,51.73428 -3.23272,2.49031 -6.47543,4.52784 -7.20601,4.52784 -0.73058,0 -1.13738,0.30896 -0.904,0.68657 0.53527,0.86608 -8.0214,7.07855 -8.87913,6.4466 -0.34824,-0.25657 -0.41197,-0.1703 -0.14161,0.19173 0.27037,0.36203 -2.51238,2.94953 -6.18387,5.75 -7.70831,5.8796 -26.586,20.72824 -30.41023,23.91979 -1.4314,1.19459 -4.79281,3.97198 -7.46982,6.17198 -2.677,2.2 -8.84847,7.375 -13.71438,11.5 -4.8659,4.125 -9.71699,7.94421 -10.78018,8.48713 -1.06319,0.54292 -1.93308,1.27936 -1.93308,1.63654 0,0.35718 -3.1833,3.25377 -7.074,6.43688 -3.89071,3.1831 -8.52288,7.17166 -10.29372,8.86345 -1.77084,1.6918 -6.55077,6.001 -10.62207,9.576 -13.62021,11.95989 -31.01021,28.31286 -31.01021,29.16096 0,0.46147 -0.48214,0.83904 -1.07143,0.83904 -0.58928,0 -1.65762,0.5625 -2.37407,1.25 -0.71645,0.6875 -8.02011,7.775 -16.23034,15.75 -8.21024,7.975 -17.60441,17.04865 -20.87593,20.16366 -4.9146,4.67949 -6.4261,6.95585 -8.69823,13.09983 -1.5125,4.08989 -2.75,9.3242 -2.75,11.63179 0,5.69946 -3.33149,9.10472 -8.90749,9.10472 -2.19912,0 -5.09496,0.49962 -6.43519,1.11027 -4.33118,1.97342 -6.00032,8.52731 -3.19263,12.53586 0.80559,1.15013 1.14309,2.41279 0.75,2.80589 -0.39308,0.393 -0.19178,0.5647 0.44732,0.3813 0.63911,-0.1833 4.23911,2.3856 8,5.7088 14.86141,13.13159 37.81951,30.78979 51.11361,39.31399 5.0385,3.2307 8.8377,6.2319 8.44265,6.6693 -0.39505,0.4374 -0.20866,0.5042 0.41419,0.1486 0.62286,-0.3557 2.19786,0.1685 3.5,1.1648 1.30215,0.9964 5.00451,3.3527 8.22747,5.2364 3.22296,1.8836 7.27296,4.2674 9,5.2971 8.3844,4.9994 31.66412,16.5461 49.88082,24.7407 11.14259,5.0124 20.78221,9.5348 21.42139,10.0498 0.63918,0.5149 1.69071,3.1396 2.33673,5.8325 1.47841,6.1627 -0.64175,14.4543 -4.92042,19.2429 l -2.85232,3.1923 -6.36307,-4.752 c -3.49968,-2.6136 -9.6165,-7.1445 -13.59293,-10.0687 -3.97643,-2.9242 -6.90143,-5.7202 -6.5,-6.2133 0.40143,-0.4931 0.32702,-0.5686 -0.16536,-0.1679 -0.49237,0.4007 -3.02766,-0.8368 -5.63398,-2.75 -2.60631,-1.9132 -5.12845,-3.4645 -5.60477,-3.4472 -0.94604,0.034 -4.77929,4.9318 -4.21429,5.3843 2.1233,1.7006 29.50712,22.0248 33.05236,24.5314 l 4.70409,3.326 -2.84148,4.13 c -4.63963,6.7434 -14.14812,10.258 -20.64272,7.6301 z m 198.55522,-2.2832 c -2.61997,-1.7774 -3.96376,-4.0133 -6.39789,-10.6452 -3.96793,-10.8109 -6.16028,-12.6048 -15.40464,-12.6048 -5.29146,0 -7.32092,0.4596 -9.78194,2.215 -1.7079,1.2183 -4.90072,2.5022 -7.09515,2.8531 -4.97679,0.7958 -15.29958,-1.2293 -15.29958,-3.0015 0,-0.7103 1.125,-6.8153 2.5,-13.5666 3.24653,-15.9405 3.26186,-15.6922 -1,-16.1898 -2.01815,-0.2356 -3.52183,0.036 -3.55156,0.6406 -0.0283,0.5771 -1.30861,7.1242 -2.84502,14.5492 l -2.79346,13.5 -4.35185,-0.2903 c -6.35475,-0.4239 -12.21155,-3.398 -16.01718,-8.1336 -5.24185,-6.5228 -9.00177,-8.4016 -15.70119,-7.8461 -5.47437,0.454 -5.81696,0.6618 -11.6897,7.0916 -7.0535,7.7225 -10.02321,9.1666 -15.70478,7.6367 -3.44834,-0.9285 -4.64986,-2.1249 -9.30183,-9.2623 -2.93809,-4.5078 -6.51053,-9.771 -7.93875,-11.696 -1.42822,-1.925 -3.38604,-4.6173 -4.35072,-5.983 -0.96468,-1.3656 -2.77506,-3.5322 -4.02307,-4.8146 -1.24801,-1.2823 -2.00207,-2.7636 -1.67567,-3.2917 0.32639,-0.5282 0.138,-0.8366 -0.41864,-0.6855 -0.55665,0.1512 -2.9526,-1.3761 -5.32433,-3.3939 -2.37174,-2.0178 -9.0378,-7.4178 -14.81346,-12 -5.77567,-4.5822 -11.40067,-9.0831 -12.5,-10.0019 -1.09934,-0.9189 -4.92379,-4.0528 -8.49879,-6.9643 -3.575,-2.9115 -7.09759,-5.8752 -7.82798,-6.5859 -0.73038,-0.7108 -2.19288,-1.7552 -3.25,-2.3209 -2.81665,-1.5075 -2.62352,-8.5877 0.33295,-12.2055 l 2.24503,-2.7473 19.18113,10.4973 c 10.54963,5.7734 19.5651,10.4972 20.0344,10.4972 0.46929,0 1.69526,-1.4625 2.72439,-3.25 1.02912,-1.7875 1.50814,-2.9195 1.06448,-2.5155 -0.44365,0.4039 -1.30114,0.082 -1.90552,-0.7151 -0.60439,-0.7972 -4.71149,-3.3777 -9.12691,-5.7344 -4.41542,-2.3568 -12.62792,-6.7473 -18.25,-9.7567 -5.62208,-3.0095 -10.22197,-5.9804 -10.22197,-6.6022 0,-0.62169 1.02743,-2.65939 2.28318,-4.52819 1.95044,-2.9027 2.93625,-3.4409 6.76421,-3.6931 3.64885,-0.2403 6.44957,0.6264 15.08102,4.6671 23.61545,11.05529 52.4381,20.17269 68.33301,21.61559 4.37878,0.3975 8.9729,1.1073 10.20915,1.5774 4.01078,1.5249 7.47596,8.1601 8.33144,15.9534 0.49029,4.4665 1.42894,7.8004 2.54259,9.031 0.97096,1.0729 1.35813,1.9671 0.86039,1.9872 -0.49775,0.02 1.0813,0.967 3.50899,2.1043 8.74842,4.0981 15.16311,0.755 19.85342,-10.3471 1.69476,-4.0115 4.18498,-9.7687 5.53382,-12.7937 1.34884,-3.025 2.55448,-5.95 2.67921,-6.5 0.45487,-2.0058 2.92512,-6.1767 4.36695,-7.3733 0.81358,-0.6753 2.70116,-1.4493 4.1946,-1.7201 1.49345,-0.2708 2.99495,-0.5801 3.33669,-0.6873 0.34173,-0.1071 1.99807,0.3812 3.68076,1.0853 5.40602,2.2621 6.10612,4.8306 6.83068,25.0605 0.70339,19.6388 0.99804,20.7732 6.30482,24.2722 6.91808,4.5614 15.06671,1.2134 19.80507,-8.1373 2.66419,-5.2575 7.30491,-9.6619 11.21409,-10.6431 1.55865,-0.3912 6.28097,0.4086 12.07323,2.0447 15.93147,4.5002 28.94365,5.842 58.71268,6.0545 32.92326,0.235 32.33382,0.065 34.05797,9.7939 0.50018,2.8222 0.32781,3.7502 -0.69668,3.7506 -1.84677,9e-4 -36.42062,3.8627 -41.11129,4.5921 -3.00417,0.4671 -3.74695,1.0131 -3.73469,2.7452 0.0351,4.9552 0.31923,4.9922 21.09921,2.75 10.66202,-1.1504 20.5551,-2.291 21.98463,-2.5346 2.21109,-0.3768 2.74433,0.034 3.57152,2.7519 1.06484,3.4986 0.0895,8.8269 -1.91667,10.4709 -0.6897,0.5652 -16.329,5.5156 -34.754,11.0008 -36.22836,10.7854 -37.6971,11.4387 -58.7778,26.1457 -8.31112,5.7983 -11.97762,6.3995 -17.243,2.8274 z m 224.76349,-46.1033 c -18.42053,-9.3656 -35.02859,-14.6304 -58.57902,-18.5699 -19.01217,-3.1803 -21.52148,-5.8139 -20.49071,-21.5059 0.53569,-8.1552 0.87298,-9.539 2.22912,-9.1457 0.87886,0.2548 7.84562,1.6551 15.48171,3.1116 14.84641,2.8319 15.56618,2.7295 15.6009,-2.2194 0.0182,-2.5963 0.45295,-2.4545 -18.15535,-5.9233 l -14.67066,-2.7347 -0.62391,-3.3258 c -1.28028,-6.8244 -3.30348,-7.8364 -22.53477,-11.2719 -9.625,-1.7195 -30.775,-5.5797 -47,-8.57829 -16.225,-2.9986 -37.48007,-6.9141 -47.23349,-8.701 -16.75823,-3.0703 -17.78099,-3.3874 -18.59702,-5.7657 -1.18594,-3.4564 0.48044,-7.91434 3.16452,-8.46579 1.1913,-0.24476 31.19099,-0.97028 66.66599,-1.61228 71.01731,-1.28522 66.74444,-0.82163 69.59377,-7.55063 1.64527,-3.8855 4.05718,-4.36198 22.15623,-4.37701 l 13.25,-0.011 0,-3.94077 0,-3.94076 -16.16112,0.60106 -16.16112,0.60107 0.65393,-9.2126 c 0.74107,-10.44023 1.36023,-12.03994 5.91628,-15.28564 3.0338,-2.16127 4.56061,-2.3637 22.75203,-3.01655 25.38182,-0.91091 45.90523,-4.52845 63.95733,-11.2734 3.70672,-1.38497 5.22231,-1.47317 9,-0.52372 8.88564,2.23322 14.13292,8.53885 15.50222,18.62894 l 0.69722,5.13764 -8.82839,0.58979 c -4.85561,0.32439 -18.16588,0.87446 -29.57838,1.22238 l -20.75,0.63258 0,3.52048 0,3.52049 29.43524,-0.73417 29.43523,-0.73418 0.67606,3.60368 c 1.42243,7.58223 -1.91863,15.12878 -7.96903,17.99988 -8.87873,4.21323 -12.76308,10.0612 -14.03064,21.12341 l -0.68976,6.0196 -21.17855,-1.6965 c -11.6482,-0.9331 -23.54105,-1.8789 -26.42855,-2.1019 -4.81863,-0.372 -5.25,-0.2301 -5.25,1.7269 0,1.1728 -0.52525,2.6575 -1.16722,3.2995 -1.74174,1.7418 -0.6412,1.9174 23.16722,3.69839 11.825,0.8845 23.4125,1.8677 25.75,2.1848 l 4.25,0.5767 0,7.9263 c 0,9.8265 1.7875,13.7135 9.23093,20.0726 6.71937,5.7405 8.07914,9.454 6.52394,17.8167 -0.97347,5.2345 -1.33611,5.8536 -3.17689,5.4233 -7.06665,-1.6519 -52.95896,-10.466 -54.4934,-10.466 -1.37807,0 -1.96973,0.8905 -2.26348,3.4067 l -0.3977,3.4066 28.50236,5.6408 c 15.67629,3.1024 28.57708,5.7319 28.66841,5.8433 0.0913,0.1114 -0.37862,2.3133 -1.04434,4.893 -2.4156,9.3607 -8.7528,15.2275 -17.69428,16.3807 -3.91869,0.5054 -5.6351,-0.089 -17.11286,-5.9244 z M 415.26831,985.24491 c -1.69872,-2.0608 -3.0728,-4.8986 -3.0728,-6.34594 0,-1.43997 2.025,-10.20659 4.5,-19.48138 2.475,-9.27479 4.5,-17.67401 4.5,-18.66492 0,-3.27701 -3.97904,-10.33601 -6.76215,-11.9964 -3.87622,-2.31253 -13.84447,-12.35137 -17.40912,-17.53241 -13.7696,-20.01343 -16.17587,-46.98029 -6.16322,-69.07078 3.09808,-6.83516 11.13552,-18.4213 12.28587,-17.71034 0.45255,0.27969 0.76112,-0.12741 0.68572,-0.90467 -0.23783,-2.45152 13.04171,-17.03731 23.3629,-25.66102 11.56122,-9.6598 27.99025,-19.0045 42.16936,-23.9856 5.91661,-2.07849 6.96063,-2.18705 9.25,-0.96182 3.69378,1.97686 3.44528,5.66246 -0.5286,7.83967 -13.93759,7.63612 -37.7541,25.93165 -47.9462,36.83165 -19.97398,21.36127 -25.96867,34.4451 -24.57121,53.62833 0.83293,11.43373 5.1834,21.70081 13.60976,32.11895 2.37628,2.93796 13.06705,10.62456 14.77699,10.62456 0.84704,0 3.97217,1.23148 6.94474,2.73663 6.11263,3.09511 6.06438,2.42046 0.96167,13.44726 l -3.55577,7.6839 3.26291,1.92516 3.2629,1.92516 1.36385,-3.10905 c 3.68931,-8.41025 7.24092,-15.60906 7.70089,-15.60906 0.96829,0 13.79872,6.30285 14.29871,7.02413 0.95062,1.37135 11.12703,2.97583 18.79922,2.964 11.99708,-0.0185 22.23478,-3.56079 32.5447,-11.26066 4.73997,-3.53999 12.301,-12.95658 15.43867,-19.22747 5.87118,-11.73402 9.27921,-45.77819 7.10755,-71 -0.71035,-8.25 -1.31372,-16.4625 -1.34084,-18.25 -0.0271,-1.7875 -0.3868,-3.25 -0.7993,-3.25 -1.23808,0 -0.84675,-3.48542 0.61591,-5.48573 1.20986,-1.65459 1.71839,-1.72199 4.45121,-0.59002 2.50806,1.03887 3.55377,2.52195 5.58917,7.92686 6.58307,17.481 9.06878,33.66785 8.31527,54.14889 -0.98276,26.71229 -7.33964,49.40483 -17.22806,61.5 -6.0919,7.4514 -7.38518,8.68498 -8.42897,8.03988 -0.57984,-0.35836 -0.82899,-0.0666 -0.562,0.65818 0.93986,2.55125 -19.35142,15.0131 -26.17494,16.0753 -1.00518,0.15648 -2.31843,0.59125 -2.91835,0.96617 -0.59992,0.37492 -5.17272,1.22515 -10.16177,1.8894 -7.81367,1.04032 -10.57592,0.96642 -19.92836,-0.53314 -15.46718,-2.47998 -18.46228,-1.62007 -24.29007,6.97387 -2.39833,3.53669 -4.736,6.43034 -5.19482,6.43034 -0.45882,0 -0.72522,0.3375 -0.59199,0.75 0.4082,1.26386 -2.87267,5.28623 -3.66526,4.49364 -0.409,-0.409 -0.59364,-0.2396 -0.4103,0.37644 0.56511,1.89892 -8.1025,14.12884 -10.46173,14.76144 -1.21272,0.3251 -4.08468,0.5973 -6.38214,0.6049 -3.61409,0.012 -4.59142,-0.4889 -7.25,-3.7143 z M 170.02126,978.4897 c -0.99335,-2.18017 -0.66465,-3.18659 2.69453,-8.25 15.22661,-22.95158 52.36974,-68.07095 54.80058,-66.56861 0.54348,0.33589 0.70687,0.15558 0.36307,-0.40069 -0.6352,-1.02779 39.3723,-40.41678 49.62229,-48.85513 3.35318,-2.76053 6.08733,-4.31729 6.80426,-3.8742 0.72162,0.44598 0.93703,0.31762 0.54136,-0.3226 -0.68722,-1.11195 18.83151,-17.24649 42.30586,-34.97079 7.44827,-5.62382 14.4423,-10.95338 15.5423,-11.84348 1.1,-0.8901 8.075,-5.95861 15.5,-11.26336 7.425,-5.30475 15.525,-11.0959 18,-12.86921 2.475,-1.77332 16.2,-11.05128 30.5,-20.6177 26.93789,-18.02092 43.45378,-28.32419 44.75,-27.91684 0.4125,0.12964 0.75,-0.16772 0.75,-0.66079 0,-0.49308 3.2625,-2.9134 7.25,-5.37849 11.34855,-7.01574 43.97724,-25.81924 45.17328,-26.03278 0.5922,-0.10573 1.30172,-0.48672 1.57672,-0.84665 0.81981,-1.07297 31.77123,-17.84559 32.93144,-17.84559 0.58771,0 1.06856,-0.49814 1.06856,-1.10699 0,-0.60884 0.69837,-0.839 1.55194,-0.51145 1.01395,0.38909 1.30374,0.19394 0.83595,-0.56295 -0.4949,-0.80077 -0.13437,-0.9353 1.16758,-0.4357 1.03596,0.39754 1.57089,0.41012 1.18873,0.028 -0.67277,-0.67278 6.60389,-5.03107 9.38327,-5.62003 0.75489,-0.15996 1.59753,-0.5788 1.87253,-0.93075 0.275,-0.35195 8.66293,-4.68639 18.63985,-9.63208 l 18.13984,-8.99218 5.325,1.38128 c 5.88347,1.52616 7.80966,1.24 10.31921,-1.53302 1.57854,-1.74427 1.58043,-2.27608 0.0293,-8.22447 -2.09419,-8.03086 -1.35082,-16.59633 2.21291,-25.49837 2.19311,-5.47831 2.51171,-7.51432 2.06093,-13.17064 -0.30321,-3.80467 -1.43769,-8.50298 -2.63012,-10.8923 -2.92399,-5.85898 -2.73894,-7.29835 0.93826,-7.29835 4.79105,0 8.03241,2.87243 11.25066,9.97013 2.82334,6.22674 2.96642,7.2138 3.12064,21.52792 0.13968,12.96536 0.46613,15.76631 2.40468,20.63237 1.91528,4.80764 2.69841,5.72149 5.35911,6.25363 4.81192,0.96239 5.82973,-0.60145 5.82973,-8.95727 0,-8.31 1.26519,-15.45414 4.13772,-23.36442 1.99518,-5.49425 7.84943,-16.06236 8.89781,-16.06236 0.31255,0 0.27105,-2.87159 -0.0922,-6.38132 -0.48818,-4.71657 -1.36572,-7.30593 -3.3638,-9.92555 -3.2347,-4.24088 -6.74977,-6.69313 -9.59401,-6.69313 -1.14666,0 -3.4399,-0.70073 -5.09609,-1.55717 -2.39123,-1.23656 -2.94723,-2.11163 -2.70034,-4.25 0.30568,-2.64757 0.42857,-2.69133 7.31091,-2.60379 8.45294,0.10752 12.64481,2.07243 20.59048,9.65166 6.64468,6.33824 8.2683,10.96013 7.67482,21.84751 -0.32926,6.04047 -1.25477,9.39483 -5.00225,18.12985 -4.03468,9.40446 -4.68388,11.92607 -5.29703,20.5746 -0.57797,8.1523 -0.41487,10.40557 0.94327,13.03194 1.34446,2.59989 2.24382,3.1754 4.96225,3.1754 3.28331,0 3.34489,-0.0861 5.54438,-7.75 1.22331,-4.2625 3.55749,-10.51598 5.18707,-13.89662 3.37386,-6.99924 10.54758,-15.68737 12.14021,-14.70308 0.5862,0.3623 0.78516,0.2046 0.44213,-0.35043 -0.34303,-0.55503 0.43789,-2.00645 1.73537,-3.22537 5.27483,-4.95544 5.68093,-14.94496 1.01681,-25.01198 -3.10941,-6.71134 -2.72923,-8.40878 1.54929,-6.91728 4.13247,1.44059 8.53083,6.00408 11.78412,12.22656 2.28974,4.3795 2.68467,6.37479 2.70513,13.66677 0.0238,8.49073 -0.004,8.58418 -4.93216,16.68163 -2.72587,4.47868 -5.3829,7.8793 -5.90451,7.55692 -0.52162,-0.32237 -0.63223,-0.0746 -0.24581,0.55067 0.38642,0.62525 -0.44405,2.82424 -1.84549,4.88665 -1.97964,2.9133 -2.54808,4.99681 -2.54808,9.33956 0,12.55204 -8.44083,26.64125 -17.4072,29.05565 -7.65326,2.06081 -12.59749,7.39847 -12.58893,13.59069 0.005,3.86278 4.47019,26.3175 8.11252,40.79966 8.88211,35.31591 26.79055,78.18876 46.32794,110.90918 6.94427,11.62998 7.05287,12.18807 3.85209,19.79467 -1.72348,4.09582 -6.9278,8.04813 -12.6941,9.64029 -2.75436,0.76051 -3.81452,0.71935 -4.09984,-0.15919 -0.21166,-0.65172 -3.36234,-10.62349 -7.00152,-22.15948 -3.63918,-11.53599 -6.78173,-21.13958 -6.98346,-21.34131 -0.20173,-0.20172 -1.41319,-0.0115 -2.69214,0.42266 -1.27895,0.43419 -2.66286,0.70027 -3.07536,0.59131 -0.4125,-0.10897 -0.75,0.33074 -0.75,0.97713 0,1.18371 5.72277,19.96878 10.95021,35.94421 l 2.82044,8.61948 -3.41925,1.63052 c -6.29836,3.00348 -16.51001,1.7119 -22.68833,-2.86965 -2.65864,-1.97152 -2.72564,-2.30821 -4.67692,-23.5 -4.46418,-48.48317 -12.49697,-88.08827 -25.96864,-128.03656 -4.78615,-14.19261 -14.27344,-36.63852 -16.15174,-38.21326 -1.16655,-0.97803 -3.72608,-1.75 -5.80224,-1.75 -4.39463,0 -7.20613,2.59308 -9.04985,8.34677 -0.92837,2.89718 -2.07889,4.20036 -4.66071,5.27911 -3.04469,1.27215 -3.82088,1.24592 -6.94082,-0.23459 -2.73686,-1.29873 -5.32397,-1.5533 -11.71247,-1.15252 -7.97152,0.50009 -8.75619,0.79158 -28.19968,10.47567 -11,5.4787 -26.11261,13.18413 -33.58357,17.12318 -7.47097,3.93904 -13.77097,7.04951 -14,6.91214 -0.22904,-0.13737 -0.3103,-0.0686 -0.18058,0.15276 0.12972,0.22138 -5.72028,3.63938 -13,7.59554 -55.89633,30.37686 -110.20022,64.31227 -169.6257,106.00194 -2.35195,1.65 -5.57969,4.04475 -7.17274,5.32167 -1.59697,1.28005 -3.42362,1.99587 -4.07145,1.59549 -0.6599,-0.40784 -0.90985,-0.29719 -0.57018,0.25241 0.33264,0.53823 -2.55972,3.19525 -6.42746,5.90451 -7.07474,4.95567 -16.95412,12.63962 -19.83335,15.42592 -0.85252,0.825 -10.99664,9.66023 -22.5425,19.63384 -11.54586,9.97361 -24.35125,21.67361 -28.45643,26 -4.10518,4.32639 -11.98771,12.59116 -17.51674,18.36616 -5.52904,5.775 -14.06534,15.5625 -18.96957,21.75 -4.90422,6.1875 -9.28418,11.25 -9.73325,11.25 -0.44906,0 -0.81648,0.65264 -0.81648,1.45031 0,0.79767 -0.58664,1.81017 -1.30363,2.25 -0.717,0.43983 -2.8545,2.99012 -4.75,5.66732 -4.86449,6.87059 -10.06894,8.65219 -12.12062,4.14928 z m 373.787,-36.6413 c -0.23148,-0.75658 -0.6901,-2.20263 -1.01913,-3.21344 -0.73911,-2.27052 1.65417,-4.41876 10.40638,-9.34095 3.575,-2.01055 8.58529,-5.15533 11.13398,-6.98839 2.54868,-1.83306 4.89073,-3.33283 5.20454,-3.33283 0.31382,0 1.64243,-1.0125 2.95249,-2.25 1.31006,-1.2375 5.04301,-4.47939 8.29546,-7.2042 6.88429,-5.76748 17.15589,-17.19057 23.02221,-25.60311 2.25977,-3.2406 4.39727,-5.67841 4.75,-5.41735 0.35272,0.26106 0.43539,0.19373 0.18369,-0.14964 -0.2517,-0.34336 1.39517,-4.0002 3.6597,-8.1263 l 4.11734,-7.50201 0.0903,-11.62369 c 0.0756,-9.72998 -0.30077,-12.8175 -2.31005,-18.95128 -4.46479,-13.62975 -15.08437,-26.73011 -26.96114,-33.2594 l -5.97416,-3.28431 3.91782,-7.79216 c 2.1548,-4.28568 3.91782,-8.01559 3.91782,-8.28867 0,-0.63393 -6.08859,-3.80399 -6.4757,-3.37162 -0.15942,0.17806 -1.97035,3.69874 -4.0243,7.82374 -2.05395,4.125 -3.86195,7.64275 -4.01779,7.81723 -0.15584,0.17448 -2.46559,-0.7764 -5.13278,-2.11307 -2.66718,-1.33667 -7.32443,-3.04222 -10.34943,-3.79012 -7.10323,-1.75618 -22.96593,-1.74499 -30,0.0212 -7.95648,1.99777 -18.04221,7.58792 -24.28319,13.4593 -4.78131,4.49816 -10.93595,12.10549 -9.79382,12.10549 0.22836,0 -1.0201,3.72186 -2.77436,8.2708 -4.15272,10.76837 -7.74957,25.77854 -9.23245,38.52834 -1.11191,9.56021 -0.92336,20.26282 0.7184,40.77962 l 0.60646,7.57876 -3.26891,1.35402 c -3.12616,1.2949 -3.36966,1.22767 -5.57626,-1.53968 -1.26905,-1.59153 -2.10618,-3.09488 -1.86029,-3.34077 0.24589,-0.24589 0.0415,-0.93848 -0.45417,-1.53908 -1.50364,-1.82192 -3.99963,-15.37387 -5.23501,-28.4234 -1.82687,-19.29762 0.70582,-39.44687 7.59744,-60.44277 4.78182,-14.56822 12.83238,-27.46282 21.72548,-34.79772 6.56542,-5.41507 18.59376,-12.23301 20.37548,-11.5493 0.85749,0.32905 1.32108,0.21318 1.03019,-0.25749 -0.94501,-1.52905 10.6876,-4.27481 20.45348,-4.82782 6.77244,-0.3835 11.9788,-0.0565 18,1.13064 14.24554,2.80858 14.43448,2.70574 27.97153,-15.22492 14.26451,-18.89423 18.33628,-21.66229 26.02002,-17.68888 6.63973,3.43354 6.61677,9.43171 -0.11988,31.31403 -6.28726,20.42257 -6.18017,21.2392 4.04296,30.8299 6.48813,6.08676 16.06991,18.32906 14.37077,18.36103 -0.44763,0.008 -0.3388,0.34592 0.24183,0.75 0.58064,0.40408 1.98444,2.75969 3.11956,5.23469 7.17442,15.64301 7.3117,38.16675 0.33218,54.5 -8.35315,19.54776 -32.99025,46.40105 -54.00744,58.86558 -17.04851,10.11085 -34.2597,16.19532 -35.38725,12.51003 z M 23.810393,926.88449 c -3.10779,-2.44458 -5.61488,-6.90434 -5.61488,-9.98806 0,-1.19663 3.85124,-10.10647 8.55832,-19.79966 l 8.55832,-17.62398 -1.21834,-4.35736 c -0.67009,-2.39656 -3.22877,-7.08834 -5.68595,-10.42619 -16.45121,-22.34739 -16.05511,-49.33619 1.05005,-71.54711 4.4798,-5.81697 13.83721,-12.99882 21.15281,-16.23486 6.39831,-2.83027 23.1396,-5.93448 32.00524,-5.93448 6.66587,0 7.49664,0.22452 8.93099,2.41361 1.40499,2.14429 1.41768,2.74193 0.11373,5.35576 -1.37488,2.756 -1.92636,2.9769 -8.71645,3.49137 -13.5096,1.02359 -29.47188,8.7097 -37.29248,17.95696 -9.6139,11.3677 -11.39866,28.3318 -4.46295,42.42022 2.58522,5.25133 4.87406,7.88502 12.58336,14.47918 5.18284,4.43315 9.42335,8.14195 9.42335,8.24178 0,0.0998 -2.45579,3.54741 -5.45732,7.6613 l -5.45731,7.47982 2.41367,2.25 c 1.32752,1.2375 2.77507,2.25 3.21677,2.25 0.4417,0 1.43297,-1.0125 2.20282,-2.25 0.76985,-1.2375 3.14331,-4.61388 5.27436,-7.50307 l 3.87464,-5.25308 3.71619,2.03455 c 2.0439,1.119 6.19118,3.58819 9.21618,5.48709 8.22077,5.16047 14.70885,6.79585 24.901717,6.27673 9.42658,-0.48009 15.84798,-2.99952 22.47485,-8.81799 11.2814,-9.9052 16.52118,-29.20568 13.13336,-48.37613 -1.55316,-8.7888 -1.54596,-8.93084 0.56642,-11.17937 1.86232,-1.98235 2.48193,-2.12728 4.78161,-1.11846 1.45312,0.63746 2.95288,1.60161 3.3328,2.14254 1.23329,1.75599 4.76913,17.84422 5.76316,26.22262 3.0948,26.08529 -12.49168,50.48344 -38.51307,60.28606 -11.14138,4.19711 -26.517977,3.97825 -38.711077,-0.551 -2.07363,-0.77027 -6.34863,-1.39215 -9.5,-1.38195 l -5.72977,0.0186 -14.5,13.93935 c -14.31252,13.75912 -14.55967,13.93989 -19.11514,13.98145 -3.21353,0.0293 -5.42141,-0.5921 -7.26998,-2.04619 z M 187.69551,812.32427 c -11.70172,-2.43702 -26.99217,-7.94267 -36.5,-13.14261 -7.20278,-3.93929 -16.52675,-9.89633 -19.10932,-12.20887 -0.92134,-0.825 -3.55957,-2.85 -5.86274,-4.5 -2.30318,-1.65 -6.88082,-5.80391 -10.17255,-9.23091 -5.164,-5.37622 -5.94178,-6.67838 -5.67017,-9.49305 0.23179,-2.40209 1.03476,-3.60549 3.04567,-4.56449 3.24459,-1.54735 5.36385,-0.6721 10.75955,4.44364 1.93026,1.8301 3.87362,3.33137 4.31858,3.33614 0.44496,0.005 0.52401,0.46982 0.17567,1.03345 -0.34834,0.56362 -0.2407,0.90112 0.23921,0.75 0.47992,-0.15113 4.53874,2.10248 9.01961,5.00803 10.76544,6.98066 28.92711,15.60817 38.23639,18.16378 26.88693,7.3811 50.99541,-5.07966 61.06381,-31.56155 0.54816,-1.44177 1.62316,-7.10381 2.38888,-12.5823 0.76572,-5.47849 1.5608,-10.12947 1.76685,-10.33551 0.20604,-0.20604 4.54168,-0.0417 9.63475,0.36525 5.09307,0.40693 9.4639,0.53609 9.71297,0.28703 0.24906,-0.24906 0.45284,-1.89793 0.45284,-3.66415 l 0,-3.21131 -9.64898,-0.87202 -9.64898,-0.87203 -0.22362,-12.5 c -0.23443,-13.1049 -1.22213,-17.6409 -5.79195,-26.59943 -4.88098,-9.56854 -16.3342,-19.084 -27.68647,-23.00224 -8.26429,-2.85243 -23.48867,-2.39434 -36.5,1.09825 -5.5,1.47634 -10.96953,2.75607 -12.15451,2.84384 -1.18498,0.0878 -1.97559,0.44908 -1.75691,0.80291 0.21868,0.35383 -0.83679,0.95046 -2.34549,1.32586 -4.10193,1.02064 -18.83645,8.07366 -26.42327,12.64811 -5.90408,3.55985 -6.94971,3.88579 -9,2.80554 -2.90032,-1.5281 -3.78503,-2.83067 -3.80451,-5.60141 -0.0183,-2.59796 2.70305,-5.61353 4.21982,-4.67611 0.61067,0.37741 0.7856,0.19724 0.40554,-0.41772 -0.90638,-1.46654 15.33184,-12.2141 26.18552,-17.33137 32.06519,-15.118 61.04839,-17.45878 81.82436,-6.60839 18.61662,9.72264 29.43147,24.25532 35.27704,47.40425 3.79678,15.03557 3.7421,14.99251 26.03017,20.49664 12.4124,3.0653 18.2655,4.98787 20.25268,6.65242 1.53721,1.28763 2.54216,2.75013 2.23323,3.25 -0.30894,0.49987 -0.1414,0.90885 0.37231,0.90885 1.68489,0 2.20246,6.02215 0.80034,9.31219 -2.98754,7.01015 -4.3952,7.53986 -25.4242,9.5673 -23.50835,2.26647 -23.95605,2.5043 -29.10088,15.45902 -1.90364,4.79339 -3.84842,8.31156 -4.40451,7.96788 -0.5739,-0.35469 -0.68141,-0.1068 -0.25377,0.58513 1.17494,1.90111 -7.05505,13.58501 -14.14575,20.08235 -7.74802,7.09966 -19.92595,13.36875 -30.10259,15.49657 -6.78912,1.41953 -18.00696,1.85521 -22.68462,0.88104 z m -65.4812,-73.81881 c -4.11466,-0.78093 -7.63124,-1.86998 -7.81461,-2.4201 -0.18337,-0.55012 -0.86683,-0.79762 -1.5188,-0.55 -1.87601,0.71253 -17.151137,-7.61609 -22.970867,-12.52464 -5.06027,-4.268 -14.16224,-14.37761 -14.26206,-15.84095 -0.0262,-0.38334 -1.04216,-2.27198 -2.25781,-4.19698 -3.0367,-4.80866 -6.15867,-13.31612 -7.53973,-20.54602 -0.78226,-4.09516 -2.12292,-7.20096 -4.15492,-9.62533 -2.88065,-3.4369 -3.81558,-3.78702 -23.5,-8.80036 -11.275,-2.87158 -20.85396,-5.74018 -21.28659,-6.37467 -4.78962,-7.02447 -4.6496,-13.84663 0.37089,-18.0711 3.35946,-2.82679 3.11949,-2.77288 26.76995,-6.014 16.6008,-2.27501 17.4926,-2.51236 20.54084,-5.46684 1.943,-1.88322 3.67257,-4.94485 4.43186,-7.84512 2.27302,-8.68234 8.24403,-19.39141 15.67086,-28.10588 2.83397,-3.32532 13.26313,-11.42487 18.002187,-13.98097 12.82193,-6.91574 29.98881,-10.23252 42.96897,-8.30196 13.32078,1.98122 32.81912,10.25589 46.53103,19.74677 6.17505,4.27414 23,19.86516 23,21.31319 0,0.3748 1.58419,2.41099 3.52042,4.52486 3.62407,3.95657 3.87221,6.35093 0.97506,9.40891 -1.92076,2.02739 -7.16143,-0.0352 -12.54448,-4.93708 -15.14333,-13.78984 -34.52645,-24.69085 -52.451,-29.49831 -16.15357,-4.33247 -28.6497,-2.49045 -42.35262,6.2431 -5.18862,3.30696 -11.46971,9.41697 -12.16208,11.83081 -0.15776,0.55 -0.870077,1.45 -1.582947,2 -1.77201,1.36718 -5.7977,9.70064 -8.31781,17.21846 -1.34162,4.00221 -2.08454,8.77683 -2.08454,13.39692 l 0,7.17847 -9.5,-0.56678 -9.5,-0.56678 0,3.88092 0,3.88092 8.75,0.28894 8.75,0.28893 0.0569,9.5 c 0.12441,20.78655 9.32228,38.62472 25.022817,48.52877 10.24573,6.4631 19.65186,8.69596 31.13565,7.39108 10.1871,-1.15754 21.21841,-3.84315 30.03467,-7.31206 3.4375,-1.35255 6.25689,-2.15511 6.26531,-1.78348 0.008,0.37163 0.34592,0.2004 0.75,-0.38051 0.40408,-0.5809 3.85546,-2.75566 7.66973,-4.83279 3.81427,-2.07712 9.87012,-5.98646 13.45745,-8.6874 9.6045,-7.23138 16.11049,-7.65601 16.10554,-1.05117 -0.001,1.92692 -1.83693,4.42745 -6.8835,9.37756 -3.78484,3.7125 -7.34646,6.75 -7.9147,6.75 -0.56824,0 -1.18316,0.38031 -1.3665,0.84514 -0.56514,1.43288 -12.99344,9.70769 -19.53814,13.00857 -21.18957,10.68716 -42.44092,14.87422 -59.27639,11.67896 z m 210.38902,-27.95718 c -3.77713,-1.64443 -9.24353,-7.26667 -10.03929,-10.32549 -0.32194,-1.2375 -1.01312,-2.25 -1.53596,-2.25 -0.52283,0 -0.62952,-0.51953 -0.23708,-1.15451 0.41322,-0.6686 0.27709,-0.88477 -0.32344,-0.51362 -0.57034,0.35248 -2.31633,-0.36549 -3.87998,-1.5955 -2.28577,-1.79804 -5.05065,-2.45645 -14.10644,-3.35922 -9.71014,-0.968 -11.74923,-1.49338 -14.78605,-3.80967 -6.52117,-4.97394 -8.627,-15.71096 -4.29776,-21.91311 1.211,-1.7349 2.48595,-3.37937 2.83322,-3.65437 1.12176,-0.8883 6.11016,-12.13018 7.71641,-17.38971 1.88333,-6.16679 2.07372,-22.17934 0.34018,-28.61029 -1.82515,-6.77078 -6.60091,-15.94282 -11.19761,-21.50547 -3.71921,-4.50075 -4.05586,-5.36635 -3.61348,-9.2911 0.91746,-8.13967 7.84907,-11.91344 19.84494,-10.80416 40.59074,3.75349 103.5434,1.97962 157.87452,-4.44856 22.45205,-2.65641 61.11568,-4.04764 103.22169,-3.71423 l 33.27831,0.26352 0.30107,3.08518 c 0.16558,1.69684 -0.28442,3.55625 -1,4.13201 -0.71559,0.57576 -7.37607,2.01192 -14.80107,3.19146 -33.15649,5.26727 -63.91288,12.46266 -90.72535,21.225 -5.07394,1.65817 -9.75597,2.68691 -10.40451,2.28609 -0.69653,-0.43047 -0.91409,-0.29988 -0.53156,0.31908 0.36644,0.5929 -0.54335,1.33055 -2.09549,1.69901 -8.88114,2.10827 -47.34567,17.82071 -65.56183,26.78146 -6.5003,3.19758 -12.30733,5.51181 -12.90451,5.14274 -0.64818,-0.4006 -0.7982,-0.20575 -0.37224,0.48346 0.39244,0.63498 0.214,1.15451 -0.39652,1.15451 -1.73606,0 -4.04479,6.56601 -3.41535,9.71322 l 0.56752,2.83758 -23.08008,4.45543 c -21.71454,4.19183 -23.08008,4.58485 -23.08008,6.64281 0,3.47153 0.99391,5.1583 2.81458,4.77665 15.78724,-3.30932 44.4819,-8.36049 45.14969,-7.94777 0.48502,0.29976 1.19076,2.00235 1.5683,3.78355 0.95148,4.48894 4.73579,9.21085 9.13413,11.39721 2.03733,1.01273 4.53252,2.97687 5.54487,4.36477 2.17558,2.98264 3.7488,10.68813 1.95596,9.58009 -0.74921,-0.46304 -0.93214,-0.15371 -0.52956,0.8954 0.78057,2.03415 -3.07422,6.30548 -7.32578,8.11738 -2.99001,1.27425 -9.10431,0.94746 -10.31219,-0.55117 -0.91379,-1.13374 -8.44579,-3.99292 -12.22298,-4.6399 -2.04764,-0.35073 -5.9232,-0.10987 -8.61236,0.53525 -4.08354,0.97962 -6.15931,2.44756 -12.59462,8.90659 -4.23788,4.2535 -8.01232,8.21069 -8.38764,8.79374 -2.53129,3.93235 -13.667,5.57369 -19.77458,2.91466 z m 2.6691,-72.49857 c 1.6077,-1.60769 2.92308,-3.8159 2.92308,-4.90714 0,-1.09124 -1.125,-9.71764 -2.5,-19.16978 -1.375,-9.45214 -2.5,-17.52169 -2.5,-17.93234 0,-1.10987 -4.75044,-3.06766 -7.44346,-3.06766 -1.42053,0 -3.53144,1.34632 -5.33929,3.40535 -2.66927,3.04013 -3.06375,4.35394 -3.6781,12.25 -0.75205,9.66585 0.70932,24.64539 2.65637,27.22862 4.52591,6.00472 11.15436,6.92 15.8814,2.19295 z m 36.2275,-8.29641 c 3.46198,-4.2071 18.57426,-13.13867 29.39597,-17.37344 6.48979,-2.53959 12.36211,-5.33111 13.04961,-6.20338 2.16317,-2.74454 1.51431,-8.03029 -1.33561,-10.88021 -2.84111,-2.84111 -1.29213,-2.81919 -21.91439,-0.31015 -8.99116,1.09392 -14.97011,0.8454 -27.82577,-1.15661 -6.47339,-1.00811 -6.95092,-0.94541 -9.25,1.21446 -2.24044,2.10479 -2.42423,3.00818 -2.42423,11.91598 0,8.27987 0.35902,10.38275 2.54694,14.91808 1.40081,2.90375 3.68502,6.41763 5.07602,7.80863 2.16382,2.16382 3.17591,2.45619 7.00749,2.02432 2.46312,-0.27763 5.0164,-1.15859 5.67397,-1.95768 z"
       id="path3030"
       inkscape:connector-curvature="0" />
  </g>
</svg>
