<?xml version="1.0" encoding="UTF-8" standalone="no"?>
<!-- Created with Inkscape (http://www.inkscape.org/) -->

<svg
   xmlns:dc="http://purl.org/dc/elements/1.1/"
   xmlns:cc="http://creativecommons.org/ns#"
   xmlns:rdf="http://www.w3.org/1999/02/22-rdf-syntax-ns#"
   xmlns:svg="http://www.w3.org/2000/svg"
   xmlns="http://www.w3.org/2000/svg"
   xmlns:sodipodi="http://sodipodi.sourceforge.net/DTD/sodipodi-0.dtd"
   xmlns:inkscape="http://www.inkscape.org/namespaces/inkscape"
   width="730.32959"
   height="591.15973"
   id="svg2"
   version="1.1"
   inkscape:version="0.48.3.1 r9886"
   sodipodi:docname="Schaedel.svg">
  <defs
     id="defs4">
    <inkscape:perspective
       sodipodi:type="inkscape:persp3d"
       inkscape:vp_x="0 : 526.18109 : 1"
       inkscape:vp_y="0 : 1000 : 0"
       inkscape:vp_z="744.09448 : 526.18109 : 1"
       inkscape:persp3d-origin="372.04724 : 350.78739 : 1"
       id="perspective10" />
    <inkscape:perspective
       id="perspective2824"
       inkscape:persp3d-origin="0.5 : 0.33333333 : 1"
       inkscape:vp_z="1 : 0.5 : 1"
       inkscape:vp_y="0 : 1000 : 0"
       inkscape:vp_x="0 : 0.5 : 1"
       sodipodi:type="inkscape:persp3d" />
    <inkscape:perspective
       id="perspective2840"
       inkscape:persp3d-origin="0.5 : 0.33333333 : 1"
       inkscape:vp_z="1 : 0.5 : 1"
       inkscape:vp_y="0 : 1000 : 0"
       inkscape:vp_x="0 : 0.5 : 1"
       sodipodi:type="inkscape:persp3d" />
  </defs>
  <sodipodi:namedview
     id="base"
     pagecolor="#ffffff"
     bordercolor="#666666"
     borderopacity="1.0"
     inkscape:pageopacity="0.0"
     inkscape:pageshadow="2"
     inkscape:zoom="1.4142136"
     inkscape:cx="186.3211"
     inkscape:cy="359.58396"
     inkscape:document-units="px"
     inkscape:current-layer="g3206"
     showgrid="false"
     inkscape:window-width="1024"
     inkscape:window-height="549"
     inkscape:window-x="0"
     inkscape:window-y="0"
     inkscape:window-maximized="1" />
  <metadata
     id="metadata7">
    <rdf:RDF>
      <cc:Work
         rdf:about="">
        <dc:format>image/svg+xml</dc:format>
        <dc:type
           rdf:resource="http://purl.org/dc/dcmitype/StillImage" />
        <dc:title></dc:title>
      </cc:Work>
    </rdf:RDF>
  </metadata>
  <g
     inkscape:label="Ebene 1"
     inkscape:groupmode="layer"
     id="layer1"
     transform="translate(20.855322,-172.91623)">
    <g
       id="g3206"
       transform="matrix(-0.10589499,0.99437733,-0.99437733,-0.10589499,839.92403,-51.749694)"
       style="fill:#ffffff">
      <path
         inkscape:connector-curvature="0"
         d="m 507.37934,675.3379 c 3.53858,-4.14288 9.6966,-20.58163 11.97841,-31.97619 1.36839,-6.83333 3.09258,-13.10261 3.83153,-13.93175 2.32505,-2.60882 7.64293,-2.89209 10.94636,-0.5831 3.29321,2.30186 3.00138,0.78046 4.1287,21.52419 0.49151,9.04411 1.77934,14.888 5.99351,27.19721 2.12204,6.19823 2.14361,6.67938 0.41798,9.32002 -1.68163,2.57329 -2.5391,2.91187 -11.31029,4.46598 -8.15288,1.44455 -10.28615,1.45792 -15.13364,0.0948 -3.1036,-0.87272 -6.96211,-2.50884 -8.57446,-3.63583 -2.50814,-1.75312 -2.97261,-2.69868 -3.21584,-6.54684 -0.15636,-2.47378 0.26563,-5.1416 0.93774,-5.92849 z m -1.84871,37.11933 c 1.30255,-1.86353 3.2474,-3.544 4.3219,-3.73438 1.07451,-0.19038 9.76488,-0.58765 19.31195,-0.88281 9.54706,-0.29516 17.68912,-0.59528 18.09348,-0.66692 1.09284,-0.19364 3.8494,4.14238 4.31924,6.7941 0.24783,1.39874 -0.70956,3.71217 -2.4216,5.85152 -2.52781,3.15873 -3.75265,3.77637 -11.42043,5.75889 -9.3864,2.42688 -24.39116,3.60134 -27.27446,2.13483 -6.70225,-3.40888 -8.75993,-9.77598 -4.93008,-15.25523 z m -70.92101,15.27667 c 16.10292,14.61305 18.28818,5.61965 24.15919,26.31077 2.64724,9.39233 3.52031,11.30849 6.3309,13.89462 6.03537,5.55337 16.97512,5.75367 22.32683,0.40876 1.49702,-1.49511 2.89383,-3.03741 3.10403,-3.42733 0.67897,-1.25953 10.87814,-8.13275 15.77677,-10.63197 5.74363,-2.93034 21.47739,-5.91145 28.11215,-5.32648 6.98536,0.61589 16.84994,3.7182 23.12924,7.27391 5.0806,2.87694 5.99166,3.05741 9.77904,1.93708 7.85477,-2.32348 10.36133,-9.80718 7.1762,-21.42554 -10.77762,-39.31335 -20.01403,-101.60999 -23.16336,-156.22935 -1.30144,-22.57116 -6.67702,-60.88453 -14.35137,-102.28661 l -6.06541,-32.72195 -3.09039,0.2418 c -1.6997,0.133 -3.45208,0.90051 -3.89417,1.70556 -0.44208,0.80507 -0.69419,7.61396 -0.56023,15.13087 0.37665,65.28525 -4.13032,113.05893 -21.96806,175.84836 -2.32097,8.73009 -1.41946,19.50406 -13.25959,19.70416 -0.97363,0.25778 -2.07982,0.44067 -3.25713,0.54214 -0.61214,0.0528 -1.43662,46.68145 -2.07857,46.68927 -1.36579,0.0166 -3.53878,-0.52304 -4.91718,-0.7229 -0.65187,-0.0945 1.64633,-46.03828 1.01905,-46.18413 -1.37389,-0.31945 -3.92492,-0.90277 -5.77871,-1.66576 -4.50216,-1.85301 -9.8958,-3.05618 -12.81599,-7.00562 -1.35264,-1.8294 -3.72199,-3.94364 -5.26522,-4.69832 -7.3081,-2.79649 -15.14553,0.58194 -17.27848,9.05272 -0.73305,3.16646 0.65546,9.12997 2.34184,10.05787 1.27578,0.70198 5.40519,7.61963 6.70123,11.22602 0.7026,1.95504 1.14158,5.81318 0.97552,8.57364 -0.25216,4.19183 -1.33543,6.49186 -6.57266,13.95536 -3.4489,4.91497 -6.68689,9.32192 -7.19552,9.7932 -3.43042,3.17853 -3.10378,14.42981 0.58003,19.97981 z"
         style="fill:none;stroke:#0000ff"
         id="path3030-3"
         sodipodi:nodetypes="ssssssssssssssscsssssccsscssssssscsccccssssasccssssscc" />
    </g>
  </g>
</svg>
