<?xml version="1.0" encoding="UTF-8" standalone="no"?>
<!-- Created with Inkscape (http://www.inkscape.org/) -->

<svg
   xmlns:dc="http://purl.org/dc/elements/1.1/"
   xmlns:cc="http://creativecommons.org/ns#"
   xmlns:rdf="http://www.w3.org/1999/02/22-rdf-syntax-ns#"
   xmlns:svg="http://www.w3.org/2000/svg"
   xmlns="http://www.w3.org/2000/svg"
   xmlns:xlink="http://www.w3.org/1999/xlink"
   xmlns:sodipodi="http://sodipodi.sourceforge.net/DTD/sodipodi-0.dtd"
   xmlns:inkscape="http://www.inkscape.org/namespaces/inkscape"
   inkscape:version="0.48.3.1 r9886"
   version="1.1"
   id="svg2"
   height="1052.3622047"
   width="744.09448819"
   sodipodi:docname="New document 1">
  <defs
     id="defs4" />
  <sodipodi:namedview
     id="base"
     pagecolor="#ffffff"
     bordercolor="#666666"
     borderopacity="1.0"
     inkscape:pageopacity="0.0"
     inkscape:pageshadow="2"
     inkscape:zoom="1"
     inkscape:cx="652.02147"
     inkscape:cy="604.99639"
     inkscape:document-units="px"
     inkscape:current-layer="layer1"
     showgrid="false"
     inkscape:window-width="1280"
     inkscape:window-height="973"
     inkscape:window-x="0"
     inkscape:window-y="0"
     inkscape:window-maximized="1">
    <inkscape:grid
       type="xygrid"
       id="grid4695" />
  </sodipodi:namedview>
  <metadata
     id="metadata7">
    <rdf:RDF>
      <cc:Work
         rdf:about="">
        <dc:format>image/svg+xml</dc:format>
        <dc:type
           rdf:resource="http://purl.org/dc/dcmitype/StillImage" />
        <dc:title></dc:title>
      </cc:Work>
    </rdf:RDF>
  </metadata>
  <g
     inkscape:label="Layer 1"
     inkscape:groupmode="layer"
     id="layer1">
    <image
       y="343.36218"
       x="-90"
       id="image4681"
       xlink:href="file:///home/code/Hardware/Laserschnitt-Vorlagen/Dinosaurs_files/plans/demo.bmp"
       height="396"
       width="278" />
    <path
       style="fill:none;stroke:#000000"
       d="m 643.50014,716.86218 c 0.0844,-54.44721 -0.43275,-108.89281 -0.93692,-163.33704 0.33149,-15.94776 8.3097,-20.97786 24.09686,-21.81025 3.12458,-9.03482 1.23278,-10.60415 2.81659,0.72494 0.48758,-3.99627 0.64542,-20.66916 0.45608,-29.30189 9.59748,-16.81763 11.93308,8.6308 10.03073,16.67236 0.31681,11.87705 -5.40283,33.66629 14.61882,27.35702 18.4064,1.67097 29.86295,-19.18262 25.93405,-35.62779 -3.30366,-23.74777 0.77239,-50.14103 8.95122,-72.86519 3.71954,-16.11666 14.48289,-32.17047 8.17421,-49.02294 -9.82072,-15.0883 -28.60525,-11.83475 -43.64163,-17.28922 0.19115,15.85869 -1.49678,34.67196 -0.46485,50.49018 0.1958,8.29691 5.68852,35.23803 -8.90352,24.44554 -0.84522,-16.4324 -1.40598,-32.87904 -2.40054,-49.30378 -1.45302,-12.38085 4.59534,-28.43702 -9.89062,-25.33215 -14.96501,5.83982 -19.15503,29.87369 -37.26926,31.0543 -8.14069,8.1411 -9.36005,-6.69684 -14.52158,-4.4556 -0.41872,20.97209 0.6512,41.93133 1.30465,62.88695 2.23753,7.46451 0.0958,31.1362 -9.75712,17.57087 -0.19082,-16.98756 -0.21397,-33.97681 -0.47929,-50.96356 -1.77405,-7.63624 4.08067,-37.84148 -7.78438,-21.37142 1.73213,-0.54532 -15.8496,-4.75962 -23.51067,-10.57118 -8.3532,-5.26846 0.76579,-0.004 -4.00685,-8.27016 -3.96568,-11.84161 -14.51023,-20.8481 -27.85837,-19.37379 -14.7463,-5.00271 -7.27497,10.35634 -6.94401,18.25859 1.79683,16.73585 7.01971,29.31915 6.65617,44.03544 4.02452,7.0459 3.21002,32.94228 -7.0929,17.38845 -2.60791,-25.09845 -6.59468,-50.2692 -8.35617,-75.32041 -3.12831,-8.27013 -4.37608,0.4645 -9.6592,-1.65157 -13.0381,5.73244 -30.79374,12.66901 -27.82521,30.7179 7.11341,32.61777 25.8831,62.1567 28.59568,95.93063 2.92223,13.1448 -2.13092,29.85277 9.83158,39.52685 9.85795,7.16967 24.66905,10.19664 35.7826,4.62042 1.40913,-13.57677 -3.30782,-28.16628 -0.41248,-40.98462 16.2895,-4.54609 3.74647,24.4306 13.14729,31.84858 12.41965,1.96959 22.174,9.45648 23.76753,24.30712 3.04673,42.26181 3.72264,84.70445 4.97269,127.0676 1.97017,14.3011 -5.27459,34.26314 9.57868,43.09385 9.46627,4.40281 20.10236,-1.17977 23.00014,-11.14503 z"
       id="path4690"
       inkscape:connector-curvature="0"
       sodipodi:nodetypes="ccccccccccccccccccccccccccccccccccccccc" />
    <path
       style="fill:none;stroke:#000000"
       d="m 349.5,725.00721 c -2.48124,-1.14759 -8.36436,-6.64503 -7.11122,-6.64503 0.20655,0 -0.20307,-1.68306 -0.91026,-3.74014 -0.89018,-2.58937 -1.32918,-11.12749 -1.4268,-27.75 -0.0776,-13.20542 -0.31891,-24.90986 -0.53636,-26.00986 -0.21744,-1.1 -0.65717,-11.9 -0.97717,-24 -2.27433,-85.99661 -2.86061,-91.18597 -11.1214,-98.43895 -2.15423,-1.89142 -3.91679,-3.76642 -3.91679,-4.16667 0,-0.40024 -0.40965,-1.10271 -0.91033,-1.56105 -0.53607,-0.49073 -0.58736,-0.27539 -0.12477,0.5238 0.61148,1.0564 0.25921,1.18839 -1.58967,0.59562 -1.30638,-0.41884 -3.90356,-1.10951 -5.77152,-1.53482 -1.86796,-0.42531 -3.77357,-1.36834 -4.23469,-2.09561 -0.46111,-0.72728 -0.85218,-0.87232 -0.86902,-0.32232 -0.0168,0.55 -0.43402,0.36271 -0.92705,-0.4162 -0.49303,-0.77891 -1.19421,-6.62891 -1.55817,-13 -0.9981,-17.47171 -2.97552,-21.97761 -8.15541,-18.58361 l -2.65064,1.73677 0.63728,11.13152 c 1.48595,25.95543 1.64239,30.07089 1.10028,28.94402 -0.3975,-0.82625 -1.1607,-0.59809 -2.50879,0.75 -3.20214,3.20214 -27.42221,2.14882 -25.41116,-1.10512 0.31764,-0.51396 -0.12431,-0.66515 -0.98212,-0.33597 -1.70449,0.65407 -5.2301,-1.33497 -8.62341,-4.86507 -4.26602,-4.43798 -5.73094,-9.68437 -6.91257,-24.75634 -2.42943,-30.98778 -4.93518,-40.53009 -22.05786,-84 -9.23231,-23.43834 -10.09118,-32.37604 -3.94117,-41.01293 1.06243,-1.49205 1.60749,-3.07168 1.21125,-3.51027 -0.39626,-0.4386 -0.2181,-0.51092 0.39589,-0.16071 0.614,0.35021 1.964,-0.30521 3,-1.45648 2.00208,-2.22484 12.0348,-7.31314 14.13365,-7.16817 0.6875,0.0475 1.25,-0.33339 1.25,-0.84639 0,-0.513 0.5625,-0.82477 1.25,-0.69284 2.04291,0.39206 5.74881,-1.19539 5.76531,-2.4696 0.009,-0.69893 0.41178,-0.56912 0.98469,0.31739 0.82843,1.2819 0.9716,1.24555 0.98469,-0.25 0.009,-1.01658 0.77402,-1.75 1.82565,-1.75 1.93648,0 2.22338,1.78804 7.22034,45 4.00037,34.59386 3.96276,34.36667 6.23964,37.68955 2.09386,3.0558 2.28121,3.12404 4.13337,1.50566 1.06705,-0.93236 1.61119,-1.13271 1.20919,-0.44521 -0.402,0.6875 -0.46822,1.25 -0.14715,1.25 0.32108,0 1.01155,-1.12516 1.5344,-2.50035 0.89084,-2.34308 0.62665,-5.05948 -2.66471,-27.39873 -0.51791,-3.51518 -0.30146,-4.65259 1.07724,-5.66071 1.60788,-1.17571 1.58684,-1.30559 -0.30891,-1.90728 -1.30687,-0.41479 -2.21837,-1.78761 -2.54914,-3.83929 -0.28318,-1.7565 -1.23531,-7.91864 -2.11585,-13.69364 -0.88054,-5.775 -2.23804,-14.325 -3.01667,-19 -1.42421,-8.55108 -1.76129,-13.74998 -0.72209,-11.13685 0.33322,0.83791 0.78444,0.97161 1.17105,0.34698 0.55259,-0.89281 15.98942,-0.16556 21.13573,0.99574 2.57539,0.58115 6.24026,3.5854 5.61264,4.60091 -0.32857,0.53163 0.15903,1.58009 1.08355,2.32991 1.15609,0.93764 1.44647,0.97302 0.92997,0.11331 -0.41304,-0.6875 -0.34276,-1.25 0.15617,-1.25 0.92176,0 3.53103,5.454 4.78415,10 0.37902,1.375 1.53009,3.69447 2.55794,5.15437 2.34659,3.333 2.39783,4.50541 0.1188,2.71808 -1.59128,-1.24797 -1.62371,-1.21154 -0.3575,0.40172 0.76588,0.97579 1.61061,1.55605 1.8772,1.28947 0.26658,-0.26658 2.5219,0.91694 5.01183,2.63006 2.48992,1.71311 4.16651,2.48285 3.72574,1.71053 -0.44077,-0.77233 0.18231,-0.39173 1.38462,0.84577 1.20231,1.2375 3.03099,2.25 4.06373,2.25 1.03274,0 2.06064,0.54879 2.28423,1.21954 0.25069,0.75209 2.099,1.15206 4.82202,1.04347 3.09629,-0.12347 3.97073,0.10513 2.92682,0.76514 -1.21912,0.77079 -1.12653,0.94122 0.51131,0.94122 2.4136,0 3.96476,-1.02882 4.1,-2.71937 1.81082,-22.63524 3.84624,-1.3982 4.23416,44.17815 0.27885,32.76139 0.82756,36.57185 5.26644,36.57185 5.15249,0 5.34504,-2.22454 4.0105,-46.33407 -0.68015,-22.48055 -1.0028,-41.10756 -0.717,-41.39337 1.20122,-1.20121 3.6059,0.8485 3.6059,3.07361 0,10.70327 26.28957,-0.11929 32.41979,-13.34617 2.22218,-4.7947 5.78153,-9.99361 6.52666,-9.53309 0.41287,0.25516 1.60631,-0.30801 2.65211,-1.25149 1.04579,-0.94348 2.80144,-1.80154 3.90144,-1.9068 1.1,-0.10526 3.45166,-0.39184 5.22592,-0.63685 3.03037,-0.41845 3.26708,-0.22602 3.90506,3.17472 0.55724,2.97033 0.80786,3.26416 1.39619,1.63685 0.97145,-2.68707 1.77578,7.03004 3.33037,40.23452 1.33114,28.43148 1.905,31.28214 6.29745,31.28214 5.58076,0 5.70014,-1.9192 2.79921,-45 -1.97984,-29.40209 -1.95171,-31 0.5458,-31 1.1,0 2,0.40934 2,0.90965 0,0.89215 12.82741,3.51415 16.23031,3.31757 0.95167,-0.055 1.96462,0.27916 2.251,0.74253 0.28637,0.46337 1.42023,0.60725 2.51969,0.31974 1.09945,-0.28751 1.999,-0.0344 1.999,0.56249 0,0.59689 0.62948,0.8437 1.39885,0.54846 0.76937,-0.29523 1.70046,-0.0488 2.0691,0.5477 0.36863,0.59647 1.08915,0.82559 1.60115,0.50915 0.51199,-0.31643 0.9309,-0.12909 0.9309,0.4163 0,0.5454 0.91446,1.28187 2.03213,1.63661 1.92031,0.60948 6.60397,4.68606 7.19514,6.26253 0.15,0.4 0.55729,0.63242 0.90508,0.51649 0.3478,-0.11594 0.57697,0.33406 0.50928,1 -0.0677,0.66593 0.49396,3.63092 1.24812,6.58886 1.64954,6.46984 1.04869,9.72966 -5.62672,30.52675 -11.73807,36.56973 -12.86496,45.28617 -10.18298,78.76489 2.23001,27.83691 -5.269,38.9536 -26.7598,39.66929 -14.71756,0.49012 -13.64231,2.37412 -13.40056,-23.47973 0.11264,-12.04591 -0.22427,-23.03018 -0.74867,-24.40947 C 407.26051,493.91717 403,492.36189 403,494.42433 c 0,0.51582 -0.52266,0.82535 -1.16147,0.68785 -1.97094,-0.42423 -2.62863,4.15023 -2.91145,20.25 -0.21186,12.06043 -0.41758,14.0576 -0.92708,9 l -0.6548,-6.5 -0.18791,6 c -0.10336,3.3 -0.53572,5.45265 -0.96082,4.78366 -0.80728,-1.27045 -13.30415,1.80222 -15.90267,3.91008 -0.6634,0.53814 -1.62491,0.71965 -2.13669,0.40336 -0.51177,-0.31629 -1.54398,0.20747 -2.2938,1.16391 -1.2337,1.57367 -1.19694,1.60851 0.38669,0.36655 2.57808,-2.02188 2.14841,-0.7522 -1.5,4.43246 l -3.25,4.6185 0.48932,54.16074 c 1.11574,123.49468 1.25999,120.56188 -6.19785,126.01049 -3.43011,2.50601 -12.17111,3.20097 -16.29147,1.29528 z m -7.7766,-61.89503 c -0.22183,-1.7875 -0.40333,-0.325 -0.40333,3.25 0,3.575 0.1815,5.0375 0.40333,3.25 0.22182,-1.7875 0.22182,-4.7125 0,-6.5 z m 29.017,-22 c -0.19527,-3.4375 -0.35504,-0.625 -0.35504,6.25 0,6.875 0.15977,9.6875 0.35504,6.25 0.19527,-3.4375 0.19527,-9.0625 0,-12.5 z m -30.05332,-7.51166 c -0.25029,-0.95609 -0.446,0.0617 -0.4349,2.26166 0.0111,2.2 0.21589,2.98225 0.45508,1.73834 0.23919,-1.24391 0.23011,-3.04391 -0.0202,-4 z m -0.9695,-25.97459 c -0.22985,-1.52006 -0.42406,-0.51375 -0.43157,2.23625 -0.007,2.75 0.18056,3.99369 0.41792,2.76375 0.23736,-1.22994 0.24351,-3.47994 0.0136,-5 z m -1.00133,-25.01375 c -0.22912,-1.5125 -0.41659,-0.275 -0.41659,2.75 0,3.025 0.18747,4.2625 0.41659,2.75 0.22913,-1.5125 0.22913,-3.9875 0,-5.5 z m 31.01596,-7.5 c -0.21054,-2.3375 -0.3828,-0.425 -0.3828,4.25 0,4.675 0.17226,6.5875 0.3828,4.25 0.21053,-2.3375 0.21053,-6.1625 0,-8.5 z m -73.04513,-49.51166 c -0.25029,-0.95609 -0.446,0.0617 -0.4349,2.26166 0.0111,2.2 0.21589,2.98225 0.45508,1.73834 0.23919,-1.24391 0.23011,-3.04391 -0.0202,-4 z m 114.03465,-5.51064 c -0.22091,-1.77524 -0.39803,-0.0777 -0.39359,3.7723 0.004,3.85 0.18518,5.30246 0.40166,3.2277 0.21647,-2.07477 0.21284,-5.22477 -0.008,-7 z m -115.016,-7.9777 c -0.23835,-1.2375 -0.43337,-0.225 -0.43337,2.25 0,2.475 0.19502,3.4875 0.43337,2.25 0.23836,-1.2375 0.23836,-3.2625 0,-4.5 z m 57.01052,-40.5 c -0.22912,-1.5125 -0.41659,-0.275 -0.41659,2.75 0,3.025 0.18747,4.2625 0.41659,2.75 0.22913,-1.5125 0.22913,-3.9875 0,-5.5 z m 0.0241,-22.5 c -0.19527,-3.4375 -0.35504,-0.625 -0.35504,6.25 0,6.875 0.15977,9.6875 0.35504,6.25 0.19527,-3.4375 0.19527,-9.0625 0,-12.5 z m 72.98807,-15.5 c -0.21575,-2.0625 -0.39226,-0.375 -0.39226,3.75 0,4.125 0.17651,5.8125 0.39226,3.75 0.21574,-2.0625 0.21574,-5.4375 0,-7.5 z m -15.01222,-16 c -0.22912,-1.5125 -0.41659,-0.275 -0.41659,2.75 0,3.025 0.18747,4.2625 0.41659,2.75 0.22913,-1.5125 0.22913,-3.9875 0,-5.5 z m -71.98121,-7 c -0.206,-2.6125 -0.37454,-0.475 -0.37454,4.75 0,5.225 0.16854,7.3625 0.37454,4.75 0.206,-2.6125 0.206,-6.8875 0,-9.5 z m 12.98669,2.4777 c -0.22086,-1.77524 -0.39798,-0.0777 -0.39354,3.7723 0.004,3.85 0.18518,5.30246 0.40166,3.2277 0.21647,-2.07477 0.21284,-5.22477 -0.008,-7 z m -15.03465,3.51064 c -0.25029,-0.95609 -0.446,0.0617 -0.4349,2.26166 0.0111,2.2 0.21589,2.98225 0.45508,1.73834 0.23919,-1.24391 0.23011,-3.04391 -0.0202,-4 z m 88.0187,-2.48834 c -0.23835,-1.2375 -0.43337,-0.225 -0.43337,2.25 0,2.475 0.19502,3.4875 0.43337,2.25 0.23836,-1.2375 0.23836,-3.2625 0,-4.5 z m -1,-14 c -0.23835,-1.2375 -0.43337,-0.225 -0.43337,2.25 0,2.475 0.19502,3.4875 0.43337,2.25 0.23836,-1.2375 0.23836,-3.2625 0,-4.5 z m -85.0164,0.5 c -0.25153,-0.9625 -0.45733,-0.175 -0.45733,1.75 0,1.925 0.2058,2.7125 0.45733,1.75 0.25152,-0.9625 0.25152,-2.5375 0,-3.5 z m 71.02692,-7 c -0.22912,-1.5125 -0.41659,-0.275 -0.41659,2.75 0,3.025 0.18747,4.2625 0.41659,2.75 0.22913,-1.5125 0.22913,-3.9875 0,-5.5 z m 12.97308,-10 c -0.25153,-0.9625 -0.45733,-0.175 -0.45733,1.75 0,1.925 0.2058,2.7125 0.45733,1.75 0.25152,-0.9625 0.25152,-2.5375 0,-3.5 z"
       id="path4684"
       inkscape:connector-curvature="0" />
  </g>
</svg>
