<?xml version="1.0" encoding="UTF-8" standalone="no"?>
<!-- Created with Inkscape (http://www.inkscape.org/) -->

<svg
   xmlns:dc="http://purl.org/dc/elements/1.1/"
   xmlns:cc="http://creativecommons.org/ns#"
   xmlns:rdf="http://www.w3.org/1999/02/22-rdf-syntax-ns#"
   xmlns:svg="http://www.w3.org/2000/svg"
   xmlns="http://www.w3.org/2000/svg"
   xmlns:xlink="http://www.w3.org/1999/xlink"
   xmlns:sodipodi="http://sodipodi.sourceforge.net/DTD/sodipodi-0.dtd"
   xmlns:inkscape="http://www.inkscape.org/namespaces/inkscape"
   width="744.09448819"
   height="1052.3622047"
   id="svg2"
   version="1.1"
   inkscape:version="0.48.3.1 r9886"
   sodipodi:docname="A.svg">
  <defs
     id="defs4" />
  <sodipodi:namedview
     id="base"
     pagecolor="#ffffff"
     bordercolor="#666666"
     borderopacity="1.0"
     inkscape:pageopacity="0.0"
     inkscape:pageshadow="2"
     inkscape:zoom="0.5"
     inkscape:cx="116.82462"
     inkscape:cy="921.14863"
     inkscape:document-units="px"
     inkscape:current-layer="layer1"
     showgrid="false"
     inkscape:window-width="1280"
     inkscape:window-height="973"
     inkscape:window-x="0"
     inkscape:window-y="0"
     inkscape:window-maximized="1" />
  <metadata
     id="metadata7">
    <rdf:RDF>
      <cc:Work
         rdf:about="">
        <dc:format>image/svg+xml</dc:format>
        <dc:type
           rdf:resource="http://purl.org/dc/dcmitype/StillImage" />
        <dc:title></dc:title>
      </cc:Work>
    </rdf:RDF>
  </metadata>
  <g
     inkscape:label="Layer 1"
     inkscape:groupmode="layer"
     id="layer1">
    <image
       y="17.362183"
       x="-38"
       id="image2993"
       xlink:href="file:///home/code/Hardware/Laserschnitt-Vorlagen/Dinosaurs_files/plans/FX727O7HKM8WVQY.LARGE.jpg"
       height="1024"
       width="832" />
    <path
       style="fill:none;stroke:#000000;stroke-width:1px;stroke-linecap:butt;stroke-linejoin:miter;stroke-opacity:1"
       d="m 210,651.36218 c -6.72108,-2.45485 -9.14577,8.32747 -11.87868,26.58579 -16.96466,0.95306 -80.75906,-2.45535 -86.6335,72.17461 -4.42002,56.15273 45.54364,90.20889 28.92639,102.35051 -21.48091,15.69532 -51.723717,-49.57617 -52.703502,-95.99355 -1.185761,-56.1755 22.809562,-80.9316 62.804012,-99.41025 9.47442,-4.37747 34.85274,8.47719 36.94975,-15.64645 2.58371,-29.72265 3.107,-58.17215 25.53553,-56.06066 8.35701,0.78675 26.00729,-1.31328 17.35355,56.17157 1.95937,6.74146 1.86067,16.65225 16.64645,20.82843 74.98825,20.00333 77.70595,90.46808 60.40328,124.83704 -23.31533,46.31214 -51.018,89.16078 -65.75683,76.99139 -18.28552,-15.09779 16.57546,-28.84782 35.99111,-79.20899 17.62164,-45.70776 11.99385,-86.2951 -63.40533,-107.32655 0.67554,-14.45379 3.75217,-23.37662 -4.23223,-26.29289 z"
       id="path2996"
       inkscape:connector-curvature="0"
       sodipodi:nodetypes="scssssssccssscs" />
    <path
       style="fill:none;stroke:#000000;stroke-width:1px;stroke-linecap:butt;stroke-linejoin:miter;stroke-opacity:1"
       d="m 722.66313,632.34075 c -11.64157,-6.21035 -21.74127,-14.99051 -41.01219,-8.48528 l -25.1127,49.91169 c -13.45607,37.16351 -58.38098,95.70209 -97.92388,153.73507 l -25.45585,19.79899 -15.55635,-28.28428 -33.94112,0 C 190.34171,490.3457 167.66962,398.13468 118.79394,283.03 c -5.04219,-8.03178 -2.05657,-17.06704 -26.870058,-22.62741 -4.348697,7.65296 -15.596334,10.99409 0,31.1127 C 144.88258,417.43166 262.10729,630.9274 469.5189,860.02914 l 38.18377,18.38477 -11.31371,22.62742 -15.55635,45.25484 c 8.0566,43.97037 15.14228,12.91542 22.62742,12.72792 l 15.55635,-50.91169 c 5.82182,-6.258 8.24031,-24.42764 24.04163,4.24264 l -4.24264,25.45584 0,38.18377 -31.1127,24.04165 c -4.12594,24.3574 19.45105,11.7776 38.18376,5.6568 l 18.38478,-28.28424 c -1.99119,-46.14851 -2.65382,-86.9828 8.48528,-80.61017 14.33948,-5.10873 14.07917,18.98213 9.8995,50.91169 l 5.65685,15.55635 -9.89949,36.76957 c -7.3321,24.8395 14.80438,11.5936 27.62741,3.4142 7.68836,-4.34934 9.55522,-12.75243 11.97057,-30.28428 l -14.14214,-48.08326 11.31371,-35.35534 -31.35534,-19.45584 c 0.605,-26.82806 7.81267,-31.38236 15.79899,-38.52691 36.43497,-43.20193 83.2591,-91.59844 130.10765,-140.00715 37.32854,-33.27781 8.08676,-33.27045 11.31371,-49.49747 -18.50232,17.79547 -22.91191,33.5777 -57.98276,53.74011 4.3053,-13.36553 -6.95267,-12.99877 39.59798,-63.63961 z"
       id="path2998"
       inkscape:connector-curvature="0"
       sodipodi:nodetypes="cccccccccccccccccccccccccccccccccccc" />
    <path
       style="fill:none;stroke:#000000;stroke-width:1px;stroke-linecap:butt;stroke-linejoin:miter;stroke-opacity:1"
       d="m 416.32712,71.510889 c 1.70285,13.084146 3.80618,26.011287 -11.53269,39.368151 -16.48642,14.35613 -42.13429,7.94769 -60.56253,5.8847 -44.13555,-4.94084 -142.37469,20.52462 -183.40021,49.37549 -18.88368,13.2798 -12.3426,9.70692 -15.50803,17.83176 -3.90611,10.02597 19.11958,15.93763 20.97535,26.5364 1.95127,11.14417 -21.0313,3.59582 0.0231,44.75771 182.75147,357.2842 260.22672,433.15684 354.75548,513.53122 5.73584,7.55203 15.24341,7.94679 11.69007,33.12615 -8.6952,1.36843 -17.79038,15.71351 -31.11125,-5.97885 C 331.43365,641.75123 232.8313,466.79321 119.06869,231.77233 c -7.79309,-16.09966 11.84143,-33.2682 -15.96029,-36.11265 -8.388949,-0.85829 -11.78733,-2.65814 -27.28545,-3.05558 -15.946073,-0.40892 -22.840788,5.2627 -33.337372,6.71812 -39.7490921,5.51149 -29.124476,-25.2695 -7.106507,-28.13803 14.31311,-1.86474 42.865291,-0.16674 60.550633,1.28843 15.247256,1.25457 20.628086,-25.53181 -2.557126,-26.46704 C 78.933165,145.42313 69.164239,141.89282 60.986109,139.22484 44.858001,133.9633 37.950356,129.03373 25.258662,129.99342 8.6768335,131.24727 5.8216371,154.88344 -6.8010495,152.38879 -25.390644,148.71488 -19.236988,133.22163 -5.6909794,118.90785 -1.0708579,114.02586 5.7716227,102.06615 28.321927,101.43346 56.48139,100.6434 103.30493,144.60459 109.92274,118.75725 116.8618,91.655191 105.06175,106.49473 80.628661,85.51878 74.367701,80.143712 65.011936,69.478378 59.93746,67.311786 48.263983,62.327692 38.986531,67.411466 31.939466,64.660099 16.416843,58.599642 19.89207,56.703246 20.109106,47.151088 20.368956,35.714627 38.948503,35.639475 56.20486,39.566024 c 10.584215,2.408355 28.274689,13.994252 42.717245,22.392097 10.921535,6.35049 24.293195,6.195301 33.648645,14.293857 9.29991,8.05048 12.98593,5.212638 14.95781,27.668212 2.22172,25.30073 34.87094,11.5185 73.80554,-0.652 79.00489,-24.69601 77.57967,-34.463294 136.91219,-64.333126 44.30934,-23.184368 33.98381,4.173718 50.30566,6.880445 -23.17969,11.032529 -43.63938,9.408806 -65.74365,43.289317 -7.67261,11.760264 9.70915,8.092331 73.51882,-17.593937 z"
       id="path2998-5"
       inkscape:connector-curvature="0"
       sodipodi:nodetypes="csssssscccssssssssssssssssssssssccsc" />
  </g>
</svg>
