<?xml version="1.0" standalone="no"?>
<!DOCTYPE svg PUBLIC "-//W3C//DTD SVG 20010904//EN"
 "http://www.w3.org/TR/2001/REC-SVG-20010904/DTD/svg10.dtd">
<svg version="1.0" xmlns="http://www.w3.org/2000/svg"
 width="300.000000pt" height="382.000000pt" viewBox="0 0 300.000000 382.000000"
 preserveAspectRatio="xMidYMid meet">
<metadata>
Created by potrace 1.10, written by Peter Selinger 2001-2011
</metadata>
<g transform="translate(0.000000,382.000000) scale(0.200000,-0.200000)"
fill="#000000" stroke="none">
<g>
<path d="M119 1871 c6 -1 16 -1 22 0 6 2 1 3 -11 3 -12 0 -17 -1 -11 -3z"/>
</g>
<g>
<path d="M161 1867 c2 -2 6 -2 10 0 4 1 3 2 -3 3 -5 0 -8 -1 -7 -3z"/>
</g>
<g>
<path d="M1297 1862 c2 -4 3 -16 3 -26 0 -13 2 -16 4 -11 6 10 1 45 -5 45 -3
0 -4 -4 -2 -8z"/>
</g>
<g>
<path d="M1014 1845 c3 -18 4 -19 7 -5 2 5 0 12 -3 15 -5 4 -6 1 -4 -10z"/>
</g>
<g>
<path d="M1274 1857 c-2 -2 -4 -8 -4 -14 0 -7 2 -8 5 -5 3 3 5 10 4 14 -1 5
-3 7 -5 5z"/>
</g>
<g>
<path d="M988 1845 c-2 -3 0 -5 4 -5 4 0 8 2 8 5 0 3 -2 5 -5 5 -2 0 -6 -2 -7
-5z"/>
</g>
<g>
<path d="M100 1833 c3 -5 7 -8 9 -8 1 0 -1 3 -4 8 -3 4 -7 7 -9 7 -1 0 1 -3 4
-7z"/>
</g>
<g>
<path d="M828 1832 c-7 -5 -8 -7 -3 -7 10 0 22 8 17 11 -3 2 -9 0 -14 -4z"/>
</g>
<g>
<path d="M1236 1821 c-7 -11 -19 -24 -26 -28 -7 -4 -10 -8 -6 -8 6 0 16 10 46
44 5 6 7 11 5 11 -3 0 -11 -9 -19 -19z"/>
</g>
<g>
<path d="M996 1823 c0 -9 1 -13 2 -9 2 3 2 10 0 15 -1 5 -2 2 -2 -6z"/>
</g>
<g>
<path d="M260 1820 c4 -3 11 -5 15 -5 5 1 4 2 -2 5 -14 6 -22 6 -13 0z"/>
</g>
<g>
<path d="M1276 1815 c0 -7 1 -10 2 -6 2 3 2 9 0 12 -1 4 -2 1 -2 -6z"/>
</g>
<g>
<path d="M1373 1805 c7 -14 7 -18 -8 -66 -8 -28 -15 -54 -15 -58 0 -5 8 16 18
47 17 55 18 76 4 87 -5 5 -5 3 1 -10z"/>
</g>
<g>
<path d="M845 1810 c-4 -3 -5 -5 -2 -5 2 0 8 2 12 5 4 3 5 5 3 5 -3 0 -9 -2
-13 -5z"/>
</g>
<g>
<path d="M1300 1805 c0 -6 2 -9 5 -8 2 2 3 7 2 11 -4 10 -7 9 -7 -3z"/>
</g>
<g>
<path d="M931 1790 c0 -7 1 -10 2 -6 2 3 2 9 0 12 -1 4 -2 1 -2 -6z"/>
</g>
<g>
<path d="M1001 1780 c0 -12 1 -17 3 -11 1 6 1 16 0 22 -2 6 -3 1 -3 -11z"/>
</g>
<g>
<path d="M778 1790 c-7 -3 -8 -4 -3 -4 4 0 12 2 18 4 6 3 7 4 2 4 -4 0 -12 -2
-17 -4z"/>
</g>
<g>
<path d="M1165 1779 c0 -14 1 -15 5 -8 3 5 10 9 16 10 11 0 11 0 2 3 -6 1 -13
4 -17 7 -5 4 -6 1 -6 -12z"/>
</g>
<g>
<path d="M700 1784 c0 -13 12 -20 26 -14 l12 4 -14 1 c-7 0 -16 4 -19 9 -4 7
-5 7 -5 0z"/>
</g>
<g>
<path d="M845 1778 c0 -5 1 -8 3 -7 2 2 2 6 0 10 -1 4 -2 3 -3 -3z"/>
</g>
<g>
<path d="M1275 1770 c0 -9 2 -14 5 -12 3 1 5 7 5 12 0 5 -2 11 -5 13 -3 1 -5
-4 -5 -13z"/>
</g>
<g>
<path d="M1131 1777 c2 -2 6 -2 10 0 4 1 3 2 -3 3 -5 0 -8 -1 -7 -3z"/>
</g>
<g>
<path d="M1305 1773 c0 -5 1 -8 3 -7 2 2 2 6 0 10 -1 4 -2 3 -3 -3z"/>
</g>
<g>
<path d="M1006 1739 c-2 -39 11 -64 25 -50 3 3 2 5 -4 4 -8 0 -11 5 -15 32 -5
25 -6 28 -6 14z"/>
</g>
<g>
<path d="M1306 1740 c0 -7 1 -10 2 -6 2 3 2 9 0 12 -1 4 -2 1 -2 -6z"/>
</g>
<g>
<path d="M1168 1734 c-2 -8 -2 -18 0 -23 3 -7 4 -7 6 3 1 6 1 16 0 22 -2 11
-2 11 -6 -2z"/>
</g>
<g>
<path d="M175 1730 c10 -5 20 -10 23 -10 2 0 -3 5 -13 10 -10 5 -20 10 -22 10
-3 0 2 -5 12 -10z"/>
</g>
<g>
<path d="M1281 1722 c-1 -22 7 -34 21 -29 12 4 10 10 -3 10 -10 0 -12 3 -15
20 l-3 20 0 -21z"/>
</g>
<g>
<path d="M346 1727 c5 -5 10 -8 11 -7 1 2 -2 6 -8 9 -11 7 -11 7 -3 -2z"/>
</g>
<g>
<path d="M1144 1732 c-6 -6 -4 -79 2 -92 7 -13 19 -17 23 -7 1 3 -3 6 -8 5 -7
0 -9 5 -11 49 -1 27 -4 47 -6 45z"/>
</g>
<g>
<path d="M264 1720 c-3 -8 -2 -10 2 -6 3 3 4 8 3 12 -1 3 -4 1 -5 -6z"/>
</g>
<g>
<path d="M368 1721 c-2 -3 3 -3 10 -2 6 1 12 3 12 4 0 4 -19 2 -22 -2z"/>
</g>
<g>
<path d="M231 1707 c5 -2 13 -2 18 0 5 1 1 2 -9 2 -10 0 -14 -1 -9 -2z"/>
</g>
<g>
<path d="M25 1671 c0 -2 4 -8 9 -12 8 -6 8 -6 1 4 -4 5 -8 10 -9 12 0 1 -1 -1
-1 -4z"/>
</g>
<g>
<path d="M1347 1640 c0 -18 1 -25 2 -16 1 9 1 23 0 32 -1 9 -2 2 -2 -16z"/>
</g>
<g>
<path d="M258 1653 c2 -5 4 -8 5 -8 1 0 2 3 2 8 0 4 -2 7 -5 7 -3 0 -3 -3 -2
-7z"/>
</g>
<g>
<path d="M729 1627 c3 -2 10 -2 15 0 5 1 2 2 -6 2 -9 0 -13 -1 -9 -2z"/>
</g>
<g>
<path d="M231 1617 c2 -2 6 -2 10 0 4 1 3 2 -3 3 -5 0 -8 -1 -7 -3z"/>
</g>
<g>
<path d="M1069 1607 c3 -2 9 -2 12 0 4 1 1 2 -6 2 -7 0 -10 -1 -6 -2z"/>
</g>
<g>
<path d="M336 1597 c-1 -6 4 -15 10 -20 11 -9 11 -9 3 1 -4 5 -9 14 -10 20 -3
9 -3 9 -3 -1z"/>
</g>
<g>
<path d="M915 1588 c9 -10 18 -18 19 -18 2 0 -5 8 -14 18 -9 9 -18 17 -19 17
-2 0 5 -8 14 -17z"/>
</g>
<g>
<path d="M1345 1598 c0 -4 2 -8 5 -8 3 0 5 2 5 5 0 2 -2 6 -5 8 -3 1 -5 -1 -5
-5z"/>
</g>
<g>
<path d="M91 1590 c0 -7 1 -10 2 -6 2 3 2 9 0 12 -1 4 -2 1 -2 -6z"/>
</g>
<g>
<path d="M1061 1590 c0 -7 1 -10 2 -6 2 3 2 9 0 12 -1 4 -2 1 -2 -6z"/>
</g>
<g>
<path d="M1281 1590 c0 -7 1 -10 2 -6 2 3 2 9 0 12 -1 4 -2 1 -2 -6z"/>
</g>
<g>
<path d="M194 1582 c3 -2 10 -2 15 0 5 1 2 2 -6 2 -9 0 -13 -1 -9 -2z"/>
</g>
<g>
<path d="M1085 1578 c0 -5 1 -8 3 -7 2 2 2 6 0 10 -1 4 -2 3 -3 -3z"/>
</g>
<g>
<path d="M1351 1570 c0 -7 1 -10 2 -6 2 3 2 9 0 12 -1 4 -2 1 -2 -6z"/>
</g>
<g>
<path d="M109 1567 c3 -2 9 -2 12 0 4 1 1 2 -6 2 -7 0 -10 -1 -6 -2z"/>
</g>
<g>
<path d="M365 1560 c8 -15 10 -18 10 -12 0 3 -3 9 -8 15 -7 9 -7 9 -2 -3z"/>
</g>
<g>
<path d="M1060 1560 c0 -3 2 -5 5 -5 3 0 5 1 5 2 0 1 -2 4 -5 6 -3 1 -5 0 -5
-3z"/>
</g>
<g>
<path d="M895 1548 c6 -7 13 -13 14 -13 2 0 -3 6 -9 13 -6 6 -13 12 -14 12 -2
0 3 -6 9 -12z"/>
</g>
<g>
<path d="M1090 1544 c0 -11 2 -14 4 -10 4 7 2 26 -2 26 -1 0 -2 -7 -2 -16z"/>
</g>
<g>
<path d="M430 1548 c0 -5 1 -8 3 -7 2 2 2 6 0 10 -1 4 -2 3 -3 -3z"/>
</g>
<g>
<path d="M1233 1547 c-13 -6 -13 -6 -3 -4 14 4 30 12 23 12 -3 0 -12 -4 -20
-8z"/>
</g>
<g>
<path d="M73 1540 c4 -5 9 -10 10 -10 1 0 0 5 -3 10 -3 6 -8 10 -11 10 -3 0
-1 -4 4 -10z"/>
</g>
<g>
<path d="M33 1537 c-2 -4 -3 -16 -2 -26 0 -17 1 -16 4 7 4 26 3 33 -2 19z"/>
</g>
<g>
<path d="M280 1540 c0 -3 1 -5 2 -5 1 0 4 2 6 5 1 3 0 5 -3 5 -3 0 -5 -2 -5
-5z"/>
</g>
<g>
<path d="M1000 1538 c3 -5 7 -8 9 -8 1 0 -1 3 -4 8 -3 4 -7 7 -9 7 -1 0 1 -3
4 -7z"/>
</g>
<g>
<path d="M1063 1533 c-1 -4 -8 -8 -14 -9 -11 -2 -10 -3 2 -3 7 -1 14 -4 16 -7
1 -4 2 1 3 10 0 17 -2 20 -7 9z"/>
</g>
<g>
<path d="M1331 1531 c-7 -4 -21 -8 -33 -9 -11 0 -21 -4 -22 -7 -1 -4 1 -5 7
-3 5 1 18 3 28 5 9 2 22 8 27 13 10 12 9 12 -7 1z"/>
</g>
<g>
<path d="M440 1528 c3 -5 7 -8 9 -8 1 0 -1 3 -4 8 -3 4 -7 7 -9 7 -1 0 1 -3 4
-7z"/>
</g>
<g>
<path d="M559 1527 c3 -2 9 -2 12 0 4 1 1 2 -6 2 -7 0 -10 -1 -6 -2z"/>
</g>
<g>
<path d="M924 1518 c6 -9 16 -22 24 -30 9 -12 9 -9 -4 8 -9 14 -19 27 -24 30
-4 4 -2 0 4 -8z"/>
</g>
<g>
<path d="M280 1513 c0 -5 1 -8 3 -7 2 2 2 6 0 10 -1 4 -2 3 -3 -3z"/>
</g>
<g>
<path d="M1201 1493 c0 -14 1 -19 3 -12 1 8 1 19 0 25 -2 6 -3 0 -3 -13z"/>
</g>
<g>
<path d="M81 1489 c-1 -13 1 -24 4 -24 6 0 6 10 0 33 -3 13 -4 12 -4 -9z"/>
</g>
<g>
<path d="M557 1502 c6 -4 12 -7 15 -7 3 0 1 3 -5 7 -5 4 -12 8 -14 8 -3 0 -1
-4 4 -8z"/>
</g>
<g>
<path d="M1140 1498 c0 -5 1 -8 3 -7 2 2 2 6 0 10 -1 4 -2 3 -3 -3z"/>
</g>
<g>
<path d="M285 1498 c0 -3 2 -9 5 -13 3 -4 5 -5 5 -2 0 2 -2 8 -5 12 -3 4 -5 5
-5 3z"/>
</g>
<g>
<path d="M1141 1465 c0 -7 1 -10 2 -6 2 3 2 9 0 12 -1 4 -2 1 -2 -6z"/>
</g>
<g>
<path d="M1350 1461 c1 -8 2 -11 3 -7 2 3 11 6 23 6 15 0 20 -2 24 -11 3 -8 4
-9 5 -3 0 11 -9 18 -34 23 -21 5 -21 5 -21 -8z"/>
</g>
<g>
<path d="M968 1459 c9 -15 17 -19 32 -16 16 5 12 11 -5 8 -11 -2 -18 1 -25 10
l-11 12 9 -14z"/>
</g>
<g>
<path d="M1311 1462 c-9 -3 -19 -8 -22 -12 -5 -6 -5 -6 1 -2 4 3 14 7 21 9 13
3 14 2 14 -12 0 -8 2 -15 5 -15 6 0 7 25 1 33 -2 3 -9 3 -20 -1z"/>
</g>
<g>
<path d="M581 1440 c0 -12 1 -17 3 -11 1 6 1 16 0 22 -2 6 -3 1 -3 -11z"/>
</g>
<g>
<path d="M233 1450 c-2 -3 0 -4 4 -2 5 2 14 -1 21 -5 6 -5 12 -6 12 -3 0 11
-31 20 -37 10z"/>
</g>
<g>
<path d="M305 1450 c0 -2 2 -6 5 -7 3 -2 4 0 2 4 -3 9 -7 10 -7 3z"/>
</g>
<g>
<path d="M709 1452 c3 -2 10 -2 15 0 5 1 2 2 -6 2 -9 0 -13 -1 -9 -2z"/>
</g>
<g>
<path d="M85 1443 c0 -5 1 -8 3 -7 2 2 2 6 0 10 -1 4 -2 3 -3 -3z"/>
</g>
<g>
<path d="M315 1432 c0 -3 3 -9 8 -15 7 -9 7 -9 2 3 -8 15 -10 18 -10 12z"/>
</g>
<g>
<path d="M1350 1430 c0 -3 2 -5 5 -5 3 0 5 2 5 5 0 3 -2 5 -5 5 -3 0 -5 -2 -5
-5z"/>
</g>
<g>
<path d="M271 1428 c0 -3 4 -14 9 -25 6 -11 9 -15 7 -8 -4 14 -17 40 -16 33z"/>
</g>
<g>
<path d="M1201 1398 c0 -28 1 -33 5 -25 4 8 4 19 0 35 l-5 25 0 -35z"/>
</g>
<g>
<path d="M1140 1418 c0 -4 2 -9 5 -10 3 -2 5 1 5 7 0 5 -2 10 -5 10 -3 0 -5
-3 -5 -7z"/>
</g>
<g>
<path d="M1403 1418 c2 -5 4 -8 5 -8 1 0 2 3 2 8 0 4 -2 7 -5 7 -3 0 -3 -3 -2
-7z"/>
</g>
<g>
<path d="M1331 1388 c0 -14 1 -19 3 -12 1 8 1 19 0 25 -2 6 -3 0 -3 -13z"/>
</g>
<g>
<path d="M335 1390 c0 -2 2 -6 5 -7 3 -2 4 0 2 4 -3 9 -7 10 -7 3z"/>
</g>
<g>
<path d="M91 1380 c0 -7 1 -10 2 -6 2 3 2 9 0 12 -1 4 -2 1 -2 -6z"/>
</g>
<g>
<path d="M1406 1380 c0 -7 1 -10 2 -6 2 3 2 9 0 12 -1 4 -2 1 -2 -6z"/>
</g>
<g>
<path d="M1146 1368 c0 -11 1 -17 2 -12 2 5 2 14 1 20 -2 6 -3 3 -3 -8z"/>
</g>
<g>
<path d="M290 1378 c0 -3 2 -9 5 -13 3 -4 5 -5 5 -2 0 2 -2 8 -5 12 -3 4 -5 5
-5 3z"/>
</g>
<g>
<path d="M1356 1365 c0 -10 1 -14 2 -9 2 5 2 13 0 18 -1 5 -2 1 -2 -9z"/>
</g>
<g>
<path d="M45 1363 c0 -5 1 -8 3 -7 2 2 2 6 0 10 -1 4 -2 3 -3 -3z"/>
</g>
<g>
<path d="M1291 1343 c0 -14 1 -19 3 -12 1 8 1 19 0 25 -2 6 -3 0 -3 -13z"/>
</g>
<g>
<path d="M95 1353 c0 -5 1 -8 3 -7 2 2 2 6 0 10 -1 4 -2 3 -3 -3z"/>
</g>
<g>
<path d="M302 1350 c4 -16 19 -50 21 -48 1 1 -3 14 -10 29 -7 14 -12 23 -11
19z"/>
</g>
<g>
<path d="M1330 1349 c0 -4 3 -11 7 -17 6 -8 8 -8 15 -2 4 3 8 9 8 12 -1 3 -2
3 -3 -1 -4 -8 -17 -8 -17 1 0 4 -2 9 -5 11 -3 1 -5 0 -5 -4z"/>
</g>
<g>
<path d="M46 1335 c0 -7 1 -10 2 -6 2 3 2 9 0 12 -1 4 -2 1 -2 -6z"/>
</g>
<g>
<path d="M1410 1333 c0 -5 1 -8 3 -7 2 2 2 6 0 10 -1 4 -2 3 -3 -3z"/>
</g>
<g>
<path d="M370 1325 c8 -15 10 -18 10 -12 0 3 -3 9 -8 15 -7 9 -7 9 -2 -3z"/>
</g>
<g>
<path d="M1145 1318 c0 -7 2 -13 5 -13 3 0 5 4 5 10 0 5 -2 11 -5 13 -3 1 -5
-3 -5 -10z"/>
</g>
<g>
<path d="M325 1294 c0 -6 31 -69 34 -67 1 1 -6 17 -16 36 -10 19 -18 33 -18
31z"/>
</g>
<g>
<path d="M1031 1285 c0 -7 1 -10 2 -6 2 3 2 9 0 12 -1 4 -2 1 -2 -6z"/>
</g>
<g>
<path d="M1285 1288 c0 -5 1 -8 3 -7 2 2 2 6 0 10 -1 4 -2 3 -3 -3z"/>
</g>
<g>
<path d="M1203 1271 c-3 -23 -1 -65 4 -69 1 -2 3 17 3 42 0 49 -2 58 -7 27z"/>
</g>
<g>
<path d="M51 1265 c0 -7 1 -10 2 -6 2 3 2 9 0 12 -1 4 -2 1 -2 -6z"/>
</g>
<g>
<path d="M776 1267 c2 -2 6 -2 10 0 4 1 3 2 -3 3 -5 0 -8 -1 -7 -3z"/>
</g>
<g>
<path d="M1152 1240 c0 -18 1 -25 2 -16 1 9 1 23 0 32 -1 9 -2 2 -2 -16z"/>
</g>
<g>
<path d="M1450 1238 c6 -7 13 -13 14 -13 2 0 -3 6 -9 13 -6 6 -13 12 -14 12
-2 0 3 -6 9 -12z"/>
</g>
<g>
<path d="M50 1209 c0 -13 2 -25 5 -26 6 -4 6 25 0 40 -3 7 -4 4 -5 -14z"/>
</g>
<g>
<path d="M821 1227 c2 -2 6 -2 10 0 4 1 3 2 -3 3 -5 0 -8 -1 -7 -3z"/>
</g>
<g>
<path d="M1268 1219 c-1 -6 0 -14 2 -19 3 -5 5 -3 5 11 0 21 -2 24 -7 8z"/>
</g>
<g>
<path d="M425 1220 c0 -2 2 -6 5 -7 3 -2 4 0 2 4 -3 9 -7 10 -7 3z"/>
</g>
<g>
<path d="M761 1222 c5 -2 14 -2 20 -1 6 2 3 3 -8 3 -11 0 -17 -1 -12 -2z"/>
</g>
<g>
<path d="M360 1217 c0 -12 150 -262 157 -262 3 0 -12 25 -42 70 -21 31 -77
129 -97 169 -12 23 -18 31 -18 23z"/>
</g>
<g>
<path d="M1159 1184 c4 -5 13 -9 20 -8 l14 0 -13 3 c-7 1 -16 5 -20 8 -7 5 -7
4 -1 -3z"/>
</g>
<g>
<path d="M1283 1180 c4 -5 10 -10 11 -10 1 0 -2 5 -6 10 -5 6 -11 10 -12 10
-1 0 2 -4 7 -10z"/>
</g>
<g>
<path d="M1458 1168 c-11 -10 -12 -13 -5 -9 11 6 25 20 21 22 -1 1 -8 -5 -16
-13z"/>
</g>
<g>
<path d="M950 1178 c0 -2 5 -5 10 -8 6 -3 10 -4 10 -3 0 2 -4 5 -10 8 -5 3
-10 4 -10 3z"/>
</g>
<g>
<path d="M937 1150 c4 -6 46 -25 56 -25 4 0 7 2 7 6 0 3 -3 4 -8 2 -4 -2 -19
3 -33 10 -14 7 -24 10 -22 7z"/>
</g>
<g>
<path d="M1189 1096 c6 -1 16 -1 22 0 6 2 1 3 -11 3 -12 0 -17 -1 -11 -3z"/>
</g>
<g>
<path d="M54 1088 c-2 -5 -4 -18 -3 -30 l0 -20 5 20 c2 11 4 24 3 30 -1 9 -2
9 -5 0z"/>
</g>
<g>
<path d="M1290 1090 c0 -3 1 -5 2 -5 1 0 4 2 6 5 1 3 0 5 -3 5 -3 0 -5 -2 -5
-5z"/>
</g>
<g>
<path d="M1114 1077 c-6 -7 -15 -12 -23 -12 -7 -1 -11 -2 -7 -3 11 -5 30 3 36
13 8 15 4 16 -6 2z"/>
</g>
<g>
<path d="M119 1077 c3 -2 9 -2 12 0 4 1 1 2 -6 2 -7 0 -10 -1 -6 -2z"/>
</g>
<g>
<path d="M95 1058 c0 -5 1 -8 3 -7 2 2 2 6 0 10 -1 4 -2 3 -3 -3z"/>
</g>
<g>
<path d="M148 1054 c2 -5 4 -8 6 -7 2 2 0 6 -3 9 -5 5 -6 5 -3 -2z"/>
</g>
<g>
<path d="M180 1050 c0 -2 2 -6 5 -7 3 -2 4 0 2 4 -3 9 -7 10 -7 3z"/>
</g>
<g>
<path d="M1431 1041 c-1 -5 -5 -10 -7 -12 -3 -1 0 -4 6 -5 8 -3 10 -1 10 11 0
17 -4 19 -9 6z"/>
</g>
<g>
<path d="M1326 1032 c5 -5 10 -8 11 -7 1 2 -2 6 -8 9 -11 7 -11 7 -3 -2z"/>
</g>
<g>
<path d="M90 1023 c0 -5 1 -8 3 -7 2 2 2 6 0 10 -1 4 -2 3 -3 -3z"/>
</g>
<g>
<path d="M175 1000 c8 -15 10 -18 10 -12 0 3 -3 9 -8 15 -7 9 -7 9 -2 -3z"/>
</g>
<g>
<path d="M250 1003 c0 -9 3 -10 7 -3 2 2 1 6 -2 7 -3 2 -5 0 -5 -4z"/>
</g>
<g>
<path d="M1399 1007 c3 -2 9 -2 12 0 4 1 1 2 -6 2 -7 0 -10 -1 -6 -2z"/>
</g>
<g>
<path d="M51 995 c0 -7 1 -10 2 -6 2 3 2 9 0 12 -1 4 -2 1 -2 -6z"/>
</g>
<g>
<path d="M91 993 c0 -9 1 -13 2 -9 2 3 2 10 0 15 -1 5 -2 2 -2 -6z"/>
</g>
<g>
<path d="M1419 989 c-9 -16 -9 -16 0 -5 6 6 13 11 16 11 3 0 4 2 3 5 -6 8 -10
6 -19 -11z"/>
</g>
<g>
<path d="M811 991 c8 -1 19 -1 25 0 6 2 0 3 -13 3 -14 0 -19 -1 -12 -3z"/>
</g>
<g>
<path d="M1050 988 c3 -5 7 -8 9 -8 1 0 -1 3 -4 8 -3 4 -7 7 -9 7 -1 0 1 -3 4
-7z"/>
</g>
<g>
<path d="M1261 967 c-6 -7 -9 -12 -7 -12 5 0 23 19 21 22 -2 0 -7 -4 -14 -10z"/>
</g>
<g>
<path d="M710 973 c2 -1 8 -4 15 -8 12 -5 12 -5 3 2 -8 7 -24 12 -18 6z"/>
</g>
<g>
<path d="M89 967 c-5 -7 7 -28 16 -31 6 -1 6 -1 1 3 -4 2 -8 11 -10 19 -2 8
-6 12 -7 9z"/>
</g>
<g>
<path d="M1393 962 c-6 -4 -8 -7 -5 -7 3 0 9 3 12 8 8 9 5 9 -7 -1z"/>
</g>
<g>
<path d="M1095 958 c0 -1 3 -3 8 -5 4 -2 6 -1 4 2 -2 5 -12 7 -12 3z"/>
</g>
<g>
<path d="M1231 957 c2 -2 6 -2 10 0 4 1 3 2 -3 3 -5 0 -8 -1 -7 -3z"/>
</g>
<g>
<path d="M530 935 c47 -69 222 -295 235 -303 3 -2 -20 30 -53 70 -32 41 -86
112 -121 157 -60 81 -85 112 -61 76z"/>
</g>
<g>
<path d="M748 940 c4 -5 10 -10 11 -10 1 0 -2 5 -6 10 -5 6 -11 10 -12 10 -1
0 2 -4 7 -10z"/>
</g>
<g>
<path d="M148 940 c-13 -5 0 -5 17 0 10 3 11 4 3 4 -6 0 -15 -2 -20 -4z"/>
</g>
<g>
<path d="M1355 930 c-6 -12 -6 -15 -1 -15 3 0 6 6 7 13 3 14 1 15 -6 2z"/>
</g>
<g>
<path d="M45 923 c0 -5 1 -8 3 -7 2 2 2 6 0 10 -1 4 -2 3 -3 -3z"/>
</g>
<g>
<path d="M398 909 c2 -5 4 -8 6 -7 2 2 0 6 -3 9 -5 5 -6 5 -3 -2z"/>
</g>
<g>
<path d="M1355 905 c0 -2 2 -6 5 -7 3 -2 4 0 2 4 -3 9 -7 10 -7 3z"/>
</g>
<g>
<path d="M45 898 c0 -5 1 -8 3 -7 2 2 2 6 0 10 -1 4 -2 3 -3 -3z"/>
</g>
<g>
<path d="M121 896 c8 -1 21 -1 30 0 9 1 3 2 -13 2 -17 0 -24 0 -17 -2z"/>
</g>
<g>
<path d="M94 886 c-6 -8 -6 -8 2 -2 5 4 9 8 9 9 0 4 -4 2 -11 -7z"/>
</g>
<g>
<path d="M250 890 c0 -8 10 -11 18 -6 7 4 6 5 -5 7 -7 1 -13 1 -13 -1z"/>
</g>
<g>
<path d="M410 878 c0 -5 1 -8 3 -7 2 2 2 6 0 10 -1 4 -2 3 -3 -3z"/>
</g>
<g>
<path d="M1176 865 c0 -7 1 -10 2 -6 2 3 2 9 0 12 -1 4 -2 1 -2 -6z"/>
</g>
<g>
<path d="M90 851 c0 -5 14 -18 17 -15 1 1 -3 5 -8 10 -5 5 -9 7 -9 5z"/>
</g>
<g>
<path d="M1390 848 c0 -5 1 -8 3 -7 2 2 2 6 0 10 -1 4 -2 3 -3 -3z"/>
</g>
<g>
<path d="M170 837 c-12 -4 -14 -7 -7 -7 5 0 14 3 20 7 11 9 10 9 -13 0z"/>
</g>
<g>
<path d="M908 834 c2 -5 4 -8 6 -7 2 2 0 6 -3 9 -5 5 -6 5 -3 -2z"/>
</g>
<g>
<path d="M119 832 c3 -2 9 -2 12 0 4 1 1 2 -6 2 -7 0 -10 -1 -6 -2z"/>
</g>
<g>
<path d="M1377 824 l-9 -11 11 9 c6 5 11 10 11 11 0 4 -4 1 -13 -9z"/>
</g>
<g>
<path d="M1160 744 c-38 -46 -39 -47 -29 -40 5 4 17 18 27 31 11 14 23 25 28
25 5 0 8 2 7 5 -6 9 -12 5 -33 -21z"/>
</g>
<g>
<path d="M1426 762 c-3 -2 -6 -5 -6 -8 0 -3 -6 -13 -14 -21 l-13 -15 16 15
c14 12 30 33 25 32 -1 -1 -4 -2 -8 -3z"/>
</g>
<g>
<path d="M915 753 c3 -3 7 -3 10 0 3 3 1 5 -5 5 -6 0 -8 -2 -5 -5z"/>
</g>
<g>
<path d="M1433 726 l-15 -18 15 13 c8 7 17 12 21 10 4 -1 5 1 3 6 -4 12 -8 10
-24 -11z"/>
</g>
<g>
<path d="M735 733 c3 -5 7 -8 9 -8 1 0 -1 3 -4 8 -3 4 -7 7 -9 7 -1 0 1 -3 4
-7z"/>
</g>
<g>
<path d="M750 713 c3 -5 7 -8 9 -8 1 0 -1 3 -4 8 -3 4 -7 7 -9 7 -1 0 1 -3 4
-7z"/>
</g>
<g>
<path d="M1389 673 c-21 -26 -29 -32 -38 -31 -12 2 -15 -6 -3 -10 9 -4 17 2
47 41 33 42 29 41 -6 0z"/>
</g>
<g>
<path d="M1093 690 c3 -4 7 -12 8 -17 1 -9 3 -8 14 7 8 12 9 15 3 10 -7 -6
-10 -6 -20 0 -9 6 -10 6 -5 0z"/>
</g>
<g>
<path d="M775 683 c3 -5 7 -8 9 -8 1 0 -1 3 -4 8 -3 4 -7 7 -9 7 -1 0 1 -3 4
-7z"/>
</g>
<g>
<path d="M1139 681 c-6 -8 -6 -8 2 -2 5 4 9 8 9 9 0 4 -4 2 -11 -7z"/>
</g>
<g>
<path d="M419 667 c3 -2 9 -2 12 0 4 1 1 2 -6 2 -7 0 -10 -1 -6 -2z"/>
</g>
<g>
<path d="M460 663 c0 -5 1 -8 3 -7 2 2 2 6 0 10 -1 4 -2 3 -3 -3z"/>
</g>
<g>
<path d="M1457 659 l-9 -11 11 9 c6 5 11 10 11 11 0 4 -4 1 -13 -9z"/>
</g>
<g>
<path d="M800 652 c7 -8 24 -26 37 -39 18 -19 17 -16 -7 11 -17 20 -34 38 -37
39 -3 2 0 -3 7 -11z"/>
</g>
<g>
<path d="M1123 660 c-2 -3 -1 -5 2 -5 3 0 5 2 5 5 0 3 -1 5 -2 5 -1 0 -4 -2
-5 -5z"/>
</g>
<g>
<path d="M778 615 c10 -14 42 -50 42 -46 0 2 -11 15 -24 29 -13 13 -21 21 -18
17z"/>
</g>
<g>
<path d="M971 617 c2 -2 6 -2 10 0 4 1 3 2 -3 3 -5 0 -8 -1 -7 -3z"/>
</g>
<g>
<path d="M159 597 c3 -2 9 -2 12 0 4 1 1 2 -6 2 -7 0 -10 -1 -6 -2z"/>
</g>
<g>
<path d="M893 548 c13 -15 28 -28 32 -30 4 -2 -4 9 -18 24 -13 15 -28 28 -32
30 -4 2 4 -9 18 -24z"/>
</g>
<g>
<path d="M1337 549 l-9 -11 11 9 c6 5 11 10 11 11 0 4 -4 1 -13 -9z"/>
</g>
<g>
<path d="M860 518 c3 -5 7 -8 9 -8 1 0 -1 3 -4 8 -3 4 -7 7 -9 7 -1 0 1 -3 4
-7z"/>
</g>
<g>
<path d="M945 500 c0 -2 15 -17 33 -35 17 -18 32 -31 32 -30 0 2 -15 17 -32
35 -18 18 -33 31 -33 30z"/>
</g>
<g>
<path d="M883 489 c2 -5 4 -8 6 -7 2 2 0 6 -3 9 -5 5 -6 5 -3 -2z"/>
</g>
<g>
<path d="M1248 456 l-15 -18 19 17 c19 18 21 20 14 20 -2 -1 -10 -9 -18 -19z"/>
</g>
<g>
<path d="M915 448 c3 -5 7 -8 9 -8 1 0 -1 3 -4 8 -3 4 -7 7 -9 7 -1 0 1 -3 4
-7z"/>
</g>
<g>
<path d="M1019 429 c3 -3 7 -5 9 -3 1 2 -2 4 -7 6 -7 3 -7 2 -2 -3z"/>
</g>
<g>
<path d="M1043 430 c-2 -3 -1 -5 1 -5 3 0 7 2 9 5 1 3 0 5 -2 5 -3 0 -7 -2 -8
-5z"/>
</g>
<g>
<path d="M1213 415 c-8 -8 -14 -15 -12 -15 1 0 9 7 17 15 7 8 13 15 11 15 -1
0 -9 -7 -16 -15z"/>
</g>
<g>
<path d="M1335 418 c0 -5 1 -8 3 -7 2 2 2 6 0 10 -1 4 -2 3 -3 -3z"/>
</g>
<g>
<path d="M1345 398 c3 -5 7 -8 9 -8 1 0 -1 3 -4 8 -3 4 -7 7 -9 7 -1 0 1 -3 4
-7z"/>
</g>
<g>
<path d="M981 397 c2 -2 6 -2 10 0 4 1 3 2 -3 3 -5 0 -8 -1 -7 -3z"/>
</g>
<g>
<path d="M26 375 c0 -12 1 -17 3 -11 1 6 1 16 0 22 -2 6 -3 1 -3 -11z"/>
</g>
<g>
<path d="M1177 374 l-9 -11 11 9 c6 5 11 10 11 11 0 4 -4 1 -13 -9z"/>
</g>
<g>
<path d="M71 363 c0 -9 1 -13 2 -9 2 3 2 10 0 15 -1 5 -2 2 -2 -6z"/>
</g>
<g>
<path d="M1056 352 c2 -2 6 -2 10 0 4 1 3 2 -3 3 -5 0 -8 -1 -7 -3z"/>
</g>
<g>
<path d="M1155 329 c0 -1 7 -9 15 -16 8 -8 15 -14 15 -12 0 1 -7 9 -15 17 -8
7 -15 13 -15 11z"/>
</g>
<g>
<path d="M1200 288 c3 -5 7 -8 9 -8 1 0 -1 3 -4 8 -3 4 -7 7 -9 7 -1 0 1 -3 4
-7z"/>
</g>
<g>
<path d="M1123 255 c-2 -2 1 -3 7 -1 12 3 13 6 3 6 -4 0 -9 -2 -10 -5z"/>
</g>
<g>
<path d="M1049 252 c3 -2 10 -2 15 0 5 1 2 2 -6 2 -9 0 -13 -1 -9 -2z"/>
</g>
<g>
<path d="M240 236 c0 -17 3 -18 25 -11 12 4 12 4 -2 4 -12 -1 -16 1 -19 11 -3
12 -3 11 -4 -4z"/>
</g>
<g>
<path d="M1210 243 c0 -5 1 -8 3 -7 2 2 2 6 0 10 -1 4 -2 3 -3 -3z"/>
</g>
<g>
<path d="M1121 215 c0 -10 1 -14 2 -9 2 5 2 13 0 18 -1 5 -2 1 -2 -9z"/>
</g>
<g>
<path d="M1030 213 c0 -5 1 -8 2 -8 1 0 3 3 5 8 1 4 1 7 -2 7 -3 0 -5 -3 -5
-7z"/>
</g>
<g>
<path d="M1206 203 c0 -11 1 -17 2 -12 2 5 2 14 1 20 -2 6 -3 3 -3 -8z"/>
</g>
<g>
<path d="M210 189 c0 -6 14 -8 19 -2 4 4 2 6 -7 6 -7 0 -12 -2 -12 -4z"/>
</g>
<g>
<path d="M1116 175 c0 -7 1 -10 2 -6 2 3 2 9 0 12 -1 4 -2 1 -2 -6z"/>
</g>
<g>
<path d="M1335 178 c-3 -4 -5 -13 -4 -19 2 -10 3 -10 3 2 1 10 5 16 12 19 8 3
9 4 3 5 -4 0 -10 -3 -14 -7z"/>
</g>
<g>
<path d="M730 175 c0 -3 2 -5 5 -5 3 0 5 1 5 2 0 1 -2 4 -5 6 -3 1 -5 0 -5 -3z"/>
</g>
<g>
<path d="M1210 173 c0 -5 1 -8 3 -7 2 2 2 6 0 10 -1 4 -2 3 -3 -3z"/>
</g>
<g>
<path d="M1070 168 c0 -5 1 -8 3 -7 2 2 2 6 0 10 -1 4 -2 3 -3 -3z"/>
</g>
<g>
<path d="M1356 155 c0 -7 1 -10 2 -6 2 3 2 9 0 12 -1 4 -2 1 -2 -6z"/>
</g>
<g>
<path d="M745 158 c0 -1 2 -4 5 -5 3 -2 5 -1 5 2 0 3 -2 5 -5 5 -3 0 -5 -1 -5
-2z"/>
</g>
<g>
<path d="M767 141 c5 -6 13 -11 18 -11 6 1 6 1 0 4 -4 1 -12 6 -17 10 -10 8
-10 8 -1 -3z"/>
</g>
<g>
<path d="M1329 110 c-2 -5 -8 -10 -15 -11 -11 -3 -11 -3 0 -3 6 -1 11 -4 11
-8 0 -5 2 -8 5 -8 3 0 5 9 5 20 0 22 -2 26 -6 10z"/>
</g>
<g>
<path d="M1351 94 c-1 -14 6 -19 12 -9 1 3 0 5 -2 5 -3 0 -6 4 -8 9 -1 5 -2 3
-2 -5z"/>
</g>
<g>
<path d="M1089 56 c-6 -8 -6 -8 2 -2 9 7 11 11 7 11 -1 0 -5 -4 -9 -9z"/>
</g>
<g>
<path d="M1154 34 c3 -3 8 -4 12 -3 3 1 1 4 -6 5 -8 3 -10 2 -6 -2z"/>
</g>
<g>
<path d="M1031 32 c5 -2 13 -2 18 0 5 1 1 2 -9 2 -10 0 -14 -1 -9 -2z"/>
</g>
</g>
</svg>
