<?xml version="1.0" encoding="UTF-8" standalone="no"?>
<!-- Created with Inkscape (http://www.inkscape.org/) -->

<svg
   xmlns:dc="http://purl.org/dc/elements/1.1/"
   xmlns:cc="http://creativecommons.org/ns#"
   xmlns:rdf="http://www.w3.org/1999/02/22-rdf-syntax-ns#"
   xmlns:svg="http://www.w3.org/2000/svg"
   xmlns="http://www.w3.org/2000/svg"
   xmlns:sodipodi="http://sodipodi.sourceforge.net/DTD/sodipodi-0.dtd"
   xmlns:inkscape="http://www.inkscape.org/namespaces/inkscape"
   width="1597.8369"
   height="1250.2334"
   id="svg2"
   version="1.1"
   inkscape:version="0.48.3.1 r9886"
   sodipodi:docname="Triceratops.svg">
  <defs
     id="defs4" />
  <sodipodi:namedview
     id="base"
     pagecolor="#ffffff"
     bordercolor="#666666"
     borderopacity="1.0"
     inkscape:pageopacity="0.0"
     inkscape:pageshadow="2"
     inkscape:zoom="1"
     inkscape:cx="1064.5597"
     inkscape:cy="1025.7501"
     inkscape:document-units="px"
     inkscape:current-layer="layer1"
     showgrid="false"
     inkscape:window-width="1280"
     inkscape:window-height="973"
     inkscape:window-x="0"
     inkscape:window-y="0"
     inkscape:window-maximized="1"
     fit-margin-top="5"
     fit-margin-left="5"
     fit-margin-right="5"
     fit-margin-bottom="5" />
  <metadata
     id="metadata7">
    <rdf:RDF>
      <cc:Work
         rdf:about="">
        <dc:format>image/svg+xml</dc:format>
        <dc:type
           rdf:resource="http://purl.org/dc/dcmitype/StillImage" />
        <dc:title />
      </cc:Work>
    </rdf:RDF>
  </metadata>
  <g
     inkscape:label="Layer 1"
     inkscape:groupmode="layer"
     id="layer1"
     transform="translate(-1045.5336,140.27985)">
    <g
       id="g3002"
       style="fill:none;stroke:#000000" />
    <g
       id="g3034"
       transform="matrix(0.67442906,-0.73833966,0.73833966,0.67442906,746.47534,290.3348)" />
    <g
       id="g3067"
       transform="matrix(-0.61823085,0.78599658,-0.78599658,-0.61823085,2801.6614,492.85189)">
      <path
         sodipodi:nodetypes="sssssssscccccccssccssssssssssssssssssscsccssssccccsssssssssccsccssssssscccsscssssssssssssssscsccs"
         inkscape:connector-curvature="0"
         id="path2997"
         d="m 603.14739,894.16408 c -7.15407,-5.94983 -19.91668,-18.18077 -27.13299,-13.89925 -12.26643,7.2778 -18.51321,3.68998 -16.89451,-10.48467 1.45813,-12.76857 -12.48421,-15.01761 -15.63274,-2.91891 -2.62496,10.08683 -2.73989,11.59265 -6.41532,12.4549 -11.91731,2.79577 -10.85895,-7.19474 -14.02419,-12.14914 -6.9213,-10.83357 -16.14806,-10.81325 -16.14806,2.09331 0,6.54168 -6.2847,9.26638 -12.34229,5.35093 -3.31272,-2.14124 -4.99994,-4.5385 -10.34915,-14.70433 -11.06555,-15.2784 2.35511,-3.54237 -26.30856,-17.47753 -5.46902,-1.52197 -11.27902,-3.09486 -16.19428,-4.44088 -38.90615,-14.08645 2.58688,1.40896 -32.30572,-11.12056 -0.55,-0.36716 -5.95,-2.63177 -12,-5.03248 -21.52006,-9.78698 -12.00063,-4.03448 -38.5,-16.68506 -40.88845,-20.25231 -5.68492,-0.23156 -55,-28.61592 -13.38598,-13.63272 -10.57369,-13.16649 -16.83382,-17.03422 -5.75063,-3.55294 -7.78498,-0.66356 -16.78789,6.61035 -12.97083,10.4798 -24.09399,0.91772 -17.31879,-14.88817 4.99929,-18.71495 -21.1852,-0.19426 -26.29788,-2.48238 -8.98615,-4.78383 -9.46086,-7.00243 -3.80165,-17.76716 6.92,-13.16295 -1.10357,-16.56671 -16.578,-7.03272 -13.85937,8.53893 -22.76658,-9.72444 -11.12129,-24.56107 6.95732,-8.86394 -2.16096,-16.37239 -10.68797,-11.53957 -17.58268,9.96525 -27.77845,-2.58324 -14.61711,-15.43494 9.33754,-9.11787 6.29829,-14.658 -8.14021,-11.86199 -19.87401,3.8486 -21.75675,-14.4236 -10.60961,-20.24979 12.55711,-6.56313 6.14976,-20.0836 -7.2035,-16.17571 -16.9871,4.97135 -25.99532,-8.84483 -7.49504,-16.70829 19.53421,-8.30293 1.98716,-17.18353 -8.28327,-18.54758 -17.78325,-2.36186 -20.59098,-18.05675 -4.04184,-21.319 17.97932,-3.54417 17.5008,-19.24121 3.56411,-20.10697 -40.263169,-2.50119 -13.40875,-21.86808 -3.46229,-22.25352 10.64154,-0.41237 11.97285,-17.67504 -1.68808,-21.12594 -23.914821,-6.04114 -16.35247,-18.81419 -2.23176,-19.19457 12.10769,-0.32616 16.1053,-12.72726 5.43915,-17.8371 -16.63683,-7.97022 -18.20636,-18.33942 2.59716,-23.67697 10.76658,-2.76238 5.57033,-15.37951 -1.65042,-19.09573 -11.52537,-5.93163 -6.68586,-18.00344 7.51897,-20.96213 12.57461,-2.61913 8.84421,-8.23537 2.98103,-14.50886 -11.45057,-12.16945 -8.21816,-21.91921 7.26704,-21.91921 14.50513,0 18.92135,-6.90344 8.81759,-13.78368 -13.33873,-9.71546 -21.62288,-19.07235 -2.91418,-25.43951 13.91671,-8.74638 16.21315,-17.16034 0.32124,-20.7986 -11.20082,-2.56429 -15.73554,-13.7063 -0.74571,-19.41524 12.58963,-4.79482 9.90751,-16.40402 -1.65278,-21.16901 -7.65723,-3.15621 -4.77491,-9.86481 -5.06201,-17.69809 C 141.86353,212.61765 108.32949,186.7511 84.034397,166.29423 63.652514,145.55079 81.044362,137.21064 101.722,147.4149 c 15.76201,11.79607 53.29291,35.40673 57.17758,50.97514 0,3.42825 3.15183,6.46749 6.71482,6.47495 2.07855,0.004 6.77604,2.78809 10.12975,6.00291 2.56715,2.46083 2.5788,4.54635 0.0745,13.32694 -2.02154,7.08791 0.80014,11.94598 7.18689,12.37365 12.66563,0.84813 18.69829,10.26482 11.14384,17.39501 -9.66022,9.1177 -5.43243,19.07316 8.72837,20.55326 12.64983,1.32217 15.56982,14.83024 4.28141,19.80608 -11.60197,5.11406 -11.05992,17.48309 0.76792,17.5231 13.86542,0.0469 16.81761,14.79222 4.22894,21.12228 -13.40133,6.73869 -13.00945,16.37236 0.7893,19.40307 11.50748,2.52747 8.41765,16.60885 -4.07785,18.58412 -17.72159,8.53787 -6.06368,11.47859 0.75838,17.74145 6.03061,5.55439 1.59782,16.25202 -7.96878,19.23101 -9.33801,2.90781 -10.29955,8.56242 -2.50749,14.74598 8.67948,5.10253 10.81674,17.23763 3.5017,19.65725 -15.79721,4.59237 -19.59061,17.73446 -18.3199,82.53015 0.28318,14.43964 -2.56352,24.61576 2.8091,36.5 5.12997,11.34749 17.18774,13.05427 22.17558,2.80558 7.50165,-15.41391 1.6691,-31.12494 5.54805,-50.30558 2.47745,-12.25051 7.11353,-17.83334 12.16612,-28.12026 6.05039,-12.31841 14.25634,-16.7373 21.22474,-11.42224 4.21783,3.21709 4.23596,7.98234 2.4648,11.72231 -26.3652,55.67257 12.63796,124.65045 58.64366,137.31442 12.90668,3.63539 26.99526,1.43376 37.81624,-5.90956 11.41542,-4.67765 18.87374,-3.39801 24.7777,2.97685 10.8175,11.51469 10.2454,50.31641 -0.78705,53.38017 -7.0544,1.95905 -13.10648,-0.35202 -21.27074,-8.12251 -18.35359,-17.46839 -43.86979,-25.13311 -61.53221,-18.48345 -13.75322,3.49063 -16.09925,19.00578 -14.71676,30.16427 3.42916,27.6778 67.61643,19.70998 62.84625,31.10709 -6.75195,16.13205 6.5974,20.46432 13.24451,10.23505 6.23307,-9.59211 17.78296,-2.3681 14.5474,6.81988 -4.66887,13.25813 11.79058,17.15736 14.32742,7.80147 3.69,-13.60878 21.71421,-3.06287 17.30061,6.27505 -6.08559,12.87538 10.70235,19.42739 16.48482,9.16899 5.53421,-9.81799 20.21163,-5.71465 16.51767,7.14398 -3.2177,11.20072 10.80434,18.05601 16.64752,7.78202 6.54216,-11.503 21.53648,-2.88304 17.07288,8.16891 -4.9852,12.34343 19.32814,15.90076 20.92502,5.84016 0.76147,-4.79737 10.93747,-3.68739 13.33487,-3.0056 10.62298,3.02102 25.45374,-0.56749 31.80537,-2.23637 7.01587,-1.8434 21.33801,-10.50759 22.19463,-19.58819 2.2829,-24.19999 34.19149,-15.12504 50.07874,-6.37608 19.18229,10.56351 36.80529,24.57361 35.37194,40.88631 1.16766,10.71463 4.91662,17.09773 11.48141,19.54856 20.08689,7.49901 22.13859,14.13453 9.05487,29.28455 -11.1734,19.20475 -24.09736,32.64731 -30.52143,42.14422 -5.85921,12.54912 -11.47782,25.56655 -23.21772,15.80283 z"
         style="fill:#ffffff;stroke:#000000" />
      <path
         inkscape:connector-curvature="0"
         id="path3000"
         d="m 641.82185,859.06496 -24.8659,-16.42088"
         style="fill:none;stroke:#ff0000;stroke-width:1px;stroke-linecap:butt;stroke-linejoin:miter;stroke-opacity:1" />
      <path
         inkscape:connector-curvature="0"
         id="path3002"
         d="m 610.3876,752.56382 -25.80425,44.10179"
         style="fill:none;stroke:#ff0000;stroke-width:1px;stroke-linecap:butt;stroke-linejoin:miter;stroke-opacity:1" />
      <path
         inkscape:connector-curvature="0"
         id="path3004"
         d="m 469.16802,848.27409 13.13671,-29.08841"
         style="fill:none;stroke:#ff0000;stroke-width:1px;stroke-linecap:butt;stroke-linejoin:miter;stroke-opacity:1" />
      <path
         inkscape:connector-curvature="0"
         id="path3006"
         d="m 426.9429,833.26072 9.38336,-25.33508 0,0 0,0"
         style="fill:none;stroke:#ff0000;stroke-width:1px;stroke-linecap:butt;stroke-linejoin:miter;stroke-opacity:1" />
      <path
         sodipodi:nodetypes="cc"
         inkscape:connector-curvature="0"
         id="path3008"
         d="m 380.49526,812.14816 6.56836,-18.76673"
         style="fill:none;stroke:#ff0000;stroke-width:1px;stroke-linecap:butt;stroke-linejoin:miter;stroke-opacity:1" />
      <path
         inkscape:connector-curvature="0"
         id="path3010"
         d="m 336.39347,795.25811 9.38336,-24.39674"
         style="fill:none;stroke:#ff0000;stroke-width:1px;stroke-linecap:butt;stroke-linejoin:miter;stroke-opacity:1" />
      <path
         sodipodi:nodetypes="cc"
         inkscape:connector-curvature="0"
         id="path3012"
         d="m 294.63752,764.76219 11.7292,-15.48255"
         style="fill:none;stroke:#ff0000;stroke-width:1px;stroke-linecap:butt;stroke-linejoin:miter;stroke-opacity:1" />
      <path
         inkscape:connector-curvature="0"
         id="path3014"
         d="M 261.32659,586.94751 225.66982,620.7276"
         style="fill:none;stroke:#ff0000;stroke-width:1px;stroke-linecap:butt;stroke-linejoin:miter;stroke-opacity:1" />
    </g>
    <g
       id="g3058"
       transform="matrix(0.21556759,0.97648892,-0.97648892,0.21556759,1791.6702,91.74289)">
      <path
         sodipodi:nodetypes="csssssccscsssscccc"
         inkscape:connector-curvature="0"
         id="path3980"
         d="m 322.22747,322.90108 c -4.61472,-0.78533 -7.32789,-4.76943 -7.32789,-10.76047 0,-5.3275 1.4213,-7.22622 9.2347,-12.33665 6.70003,-4.38222 8.43463,-16.0698 8.6716,-58.42873 0.2438,-43.57835 -0.91799,-49.42603 -11.34009,-57.07847 -7.43884,-5.46197 -8.96722,-8.41357 -7.31264,-14.12208 2.13485,-7.36551 3.09064,-7.78869 21.24643,-9.40696 13.08602,-0.56197 26.17205,-1.12393 39.25807,-1.6859 33.5327,-0.3784 39.8657,8.55559 19.98666,28.19526 l -8.01232,7.91583 0.66279,41.08417 c 0.88482,54.84637 0.7381,54.27376 15.68366,61.20888 5.40391,2.50754 9.07713,6.73531 8.46754,9.74589 -0.23714,1.17117 -0.699,3.79829 -1.02634,5.83805 -1.05881,6.59771 -4.33947,7.96767 -20.18612,8.42946 -15.89329,0.64624 -31.78658,1.29247 -47.67987,1.93871 -9.43474,0.002 -18.58152,-0.24 -20.32618,-0.53691 z"
         style="fill:#ffffff;stroke:#000000" />
      <path
         inkscape:connector-curvature="0"
         id="path3016"
         d="m 363.60522,322.80591 -1.87668,-33.7801"
         style="fill:none;stroke:#ff0000;stroke-width:1px;stroke-linecap:butt;stroke-linejoin:miter;stroke-opacity:1" />
      <path
         sodipodi:nodetypes="cc"
         inkscape:connector-curvature="0"
         id="path3018"
         d="m 355.62936,158.5971 2.34584,46.9168"
         style="fill:none;stroke:#ff0000;stroke-width:1px;stroke-linecap:butt;stroke-linejoin:miter;stroke-opacity:1" />
    </g>
    <g
       id="g3048"
       transform="matrix(0.54555002,0.83807826,-0.83807826,0.54555002,1305.5319,-92.47492)">
      <path
         sodipodi:nodetypes="scsssssssssssccsccssccsccccs"
         inkscape:connector-curvature="0"
         style="fill:#ffffff;stroke:#000000"
         d="m 597.68197,447.64826 c -29.19846,-6.04073 -30.43058,-25.96386 -34.30049,-49.28701 -2.54378,-14.87741 -5.01717,-19.80913 -10.59494,-21.12535 -6.4966,-1.53303 -11.92716,-2.2609 -17.27229,-2.31504 -5.57533,-0.0565 -27.27806,-1.14943 -25.11444,-4.46611 12.0923,-18.53667 28.89589,-21.44519 39.66687,-27.37072 12.92599,-7.11108 15.68779,-20.22316 6.29834,-39.22278 -1.96842,-3.98312 -8.55575,-19.98854 -10.70079,-26 -2.5364,-7.10828 -4.37447,-13.76535 -6.76465,-24.5 -0.48985,-2.2 -1.36186,-6.025 -1.9378,-8.5 -1.11518,-4.7923 -3.2167,-16.88865 -4.98482,-28.69263 -2.48833,-16.61218 -0.98663,-42.27526 2.72477,-46.56426 0.83616,-0.96628 2.01176,-2.76628 2.61245,-4 1.02977,-2.11499 13.97509,-10.18795 15.38046,-9.38613 10.46901,-0.68995 20.93802,-1.3799 31.40703,-2.06985 14.17288,-0.54392 14.58208,-0.50078 19.71774,2.07871 2.88447,1.44879 5.7852,2.63416 6.44605,2.63416 20.07522,9.95126 29.0486,24.91092 48.30538,38.80401 13.26972,9.28929 10.06362,22.58818 -7.46012,30.94481 -17.68338,8.43275 -16.8687,30.25017 1.51451,40.55936 18.76483,10.52316 20.41943,18.05715 7.36711,33.54444 -10.07086,14.37777 -1.49367,18.72647 -1.0928,29.63332 0,0.88834 2.7,7.49299 6.00002,14.67698 6.2511,13.60839 7.6861,21.527 5.0814,28.04003 -3.48553,10.07457 -7.03234,14.03372 -14.82658,19.59695 -3.68375,2.64453 -14.88734,6.11098 -25.28415,7.82306 -10.07332,2.29764 -10.60789,12.24182 -4.09866,18.7544 19.55585,41.39411 -10.65135,30.01737 -28.0896,26.40965 z"
         id="path2987" />
      <path
         style="fill:none;stroke:#000000"
         d="m 606.58513,396.68694 c 1.16064,-4.58511 0.99309,-12.67071 12.84255,-28.82569 9.03536,-15.66012 -5.82565,-25.30095 -29.93069,-19.41702 -18.43292,4.4994 -22.04442,22.70053 -6.26755,31.0876 11.92424,6.33899 12.4412,10.30624 11.67014,11.76205 -2.4292,4.58646 7.98093,8.87337 11.68555,5.39306 z"
         id="path2985"
         inkscape:connector-curvature="0"
         sodipodi:nodetypes="ccsssc" />
      <path
         inkscape:connector-curvature="0"
         id="path3022"
         d="m 630.09265,173.14131 -27.68091,41.75595"
         style="fill:none;stroke:#ff0000;stroke-width:1px;stroke-linecap:butt;stroke-linejoin:miter;stroke-opacity:1" />
      <path
         inkscape:connector-curvature="0"
         id="path3024"
         d="m 562.53246,156.72043 4.82697,84.28327"
         style="fill:none;stroke:#ff0000;stroke-width:1px;stroke-linecap:butt;stroke-linejoin:miter;stroke-opacity:1"
         sodipodi:nodetypes="cc" />
    </g>
    <g
       id="g3063"
       transform="matrix(-0.98079257,-0.19505365,0.19505365,-0.98079257,2399.943,1207.6425)">
      <path
         sodipodi:nodetypes="cscccsccssscsscccssccsssccccc"
         inkscape:connector-curvature="0"
         id="path2991"
         d="m 303.39958,583.81458 c -17.09902,-0.33912 -17.69352,-0.49828 -23.44082,-6.27579 -5.89592,-5.92691 -7.17834,-14.43792 -3.1732,-21.05951 3.10243,-5.11853 6.45084,-14.62536 9.63121,-18.36803 6.43472,-12.18255 10.43263,-17.5803 14.37719,-26.5109 3.07649,-6.88433 4.45815,-15.96504 3.72948,-24.51136 -1.36696,-16.03261 -1.92997,-19.78273 -3.25788,-21.70025 -1.62289,-3.23903 -1.85509,-7.01947 -3.26651,-10.02749 -4.36153,-9.15289 -6.13281,-22.74401 -3.36143,-25.79242 9.1697,-10.08633 4.76331,-20.59621 -10.81298,-25.79058 -4.60467,-1.53556 -9.04987,-6.45557 -7.93588,-11.47888 3.39096,-15.29078 -8.25234,-38.52144 -19.18103,-41.65009 -12.60015,-3.9792 -20.01386,-15.2976 -16.29805,-23.79041 3.82012,-8.73122 10.53491,-14.99307 1.46653,-19.23871 -10.12388,-4.7398 -4.32845,-12.14592 -2.18288,-20.10508 2.28651,-7.9154 -11.27566,-11.78689 -11.26941,-24.76744 -0.59919,-6.02243 69.40433,-23.99163 76.11748,-18.21219 6.69817,7.06626 -6.56994,14.94801 -18.8062,25.91998 -6.86907,6.15933 -9.04209,2.86506 -9.84736,14.40582 -0.50869,7.2904 -6.69699,15.67249 -2.14805,24.14384 -0.29538,10.13221 18.31121,11.40133 15.43681,33.18734 4.6944,13.15592 26.6781,29.03613 40.2284,36.12507 8.45656,4.42411 7.7798,12.21962 5.83602,18.79515 -3.17401,10.73722 5.82386,10.33014 13.2247,15.79746 10.86995,8.0301 12.34308,18.24925 4.96627,34.45114 -7.0779,45.89284 9.7793,83.02107 11.47494,91.39563 6.9375,11.293 9.17026,24.73412 8.99269,34.97533 0,4.42864 -8.27673,7.79205 -22.5,9.14331 -16.00001,0.31302 -32.00003,0.62604 -48.00004,0.93906 z"
         style="fill:#ffffff;stroke:#000000" />
      <path
         inkscape:connector-curvature="0"
         id="path3032"
         d="m 324.1951,584.1325 -0.46917,-37.53344"
         style="fill:none;stroke:#ff0000;stroke-width:1px;stroke-linecap:butt;stroke-linejoin:miter;stroke-opacity:1" />
    </g>
    <path
       style="fill:#cccccc;stroke:#000000"
       d="m 2518.8525,-134.49869 c 0.3336,0.44913 4.1107,0.51728 8.3934,0.1514 22.0656,-1.88508 25.4841,3.93756 18.6536,31.772 -4.6437,18.923348 2.2044,26.590268 22.2725,24.934438 7.3767,-0.60811 12.7058,0.69469 17.2953,4.22986 8.579,4.578547 12.7243,12.765736 15.8213,19.55325 2.7563,6.10283 4.4483,15.12766 5.8219,31.05076 2.323,24.8893868 3.0111,8.897686 0.6744,42.161943 -0.2466,3.60909 -0.8587,10.66179 -1.3601,15.672664 -1.6662,21.394477 -7.4063,42.75372 -12.0605,63.331497 0.408,4.775958 -8.0032,16.164858 -12.2034,16.523678 -10.9433,0.9349 -15.6739,-8.60419 -10.337,-20.844372 1.4266,-3.271906 2.5427,-6.547939 2.4801,-7.280062 6.9875,-24.203681 12.5263,-45.899168 12.7363,-67.638455 1.7948,-31.733398 1.0122,-23.4279235 -0.3249,-39.616123 -0.554,-18.39739 -11.9888,-35.60872 -23.0306,-34.6654 -1.1507,0.0983 -2.552,-0.18354 -3.1142,-0.62619 -0.5623,-0.44265 -3.5286,-1.06582 -6.5918,-1.38483 -3.0633,-0.31901 -8.081,-1.06952 -11.1505,-1.66792 -14.4848,-2.79139 -17.8181,3.11147 -18.9399,-9.69751 -0.9592,-11.05186 -1.7124,-13.80093 -3.9559,-14.44892 -2.9796,-0.86059 -3.8428,1.70811 -3.7147,11.05433 0.1463,10.66565 -0.2771,14.04225 -1.6722,13.33644 -2.0975,-1.06101 -25.3582,1.0186 -29.2148,2.61197 -2.1328,0.88114 -7.2629,2.94852 -11.4004,4.59408 -4.1374,1.64565 -7.4771,3.52425 -7.4215,4.17478 0.055,0.65053 -0.2225,1.36098 -0.6179,1.57872 -1.6524,0.91016 -8.1002,14.69443 -10.4322,22.30234 -1.9257,6.28252 1.0185,50.520883 4.3504,65.366908 7.5151,28.167707 17.3946,50.122131 30.0633,70.747444 0.468,1.61157 1.262,3.13809 1.7644,3.39227 1.7242,0.87224 1.4452,6.69941 -0.4838,10.1037 -1.9693,3.4756 -4.1539,4.50454 -10.3606,4.87971 -3.7567,0.2271 -3.1681,0.91154 -11.3257,-13.16952 -2.1329,-3.68181 -4.588,-7.41629 -5.4556,-8.29888 -1.8368,-1.86839 -11.8113,-23.80689 -14.3931,-31.656599 -2.1186,-6.441751 -4.0121,-11.802772 -6.0218,-17.049297 -0.8191,-2.138041 -2.1411,-7.297837 -2.938,-11.466212 -0.7968,-4.168374 -1.8009,-8.052953 -2.2312,-8.632399 -4.4886,-26.830894 -5.4234,-49.9583714 -0.545,-70.744665 -0.1115,-1.30535 0.2219,-2.68875 0.741,-3.07424 0.5191,-0.38548 0.873,-1.52886 0.7866,-2.54077 0.6823,-5.130932 2.8434,-9.407947 4.6894,-14.40334 4.8831,-9.794201 22.3471,-26.710969 34.2049,-28.11218 8.2804,-0.76662 13.5305,-6.34948 12.2607,-13.03816 -0.9293,-4.89486 -5.3639,-17.162208 -6.5721,-18.180158 -7.0567,-5.94591 -0.1521,-20.7871 10.5807,-22.74279 12.0519,-2.19613 23.6366,-3.41074 24.2791,-2.54569 z"
       id="path3134"
       inkscape:connector-curvature="0"
       sodipodi:nodetypes="csscccccccsscccscsccsccccccsccccscccccccscccscscc" />
    <path
       style="fill:#cccccc;stroke:#000000"
       d="m 1798.2353,19.338147 c 9.2271,1.88148 16.8518,12.11614 11.6471,15.63386 -1.7881,4.628468 -2.3443,9.834165 -4.3294,14.34393 -10.5833,23.67065 -10.2183,25.41622 6.2694,29.98263 3.692,1.02243 7.6724,1.81991 8.8454,1.77205 23.0848,-0.94193 38.3787,37.897143 32.581,82.740473 -1.8809,14.54792 -5.3173,32.49286 -6.6645,34.80063 -2.8662,6.0814 -6.1339,26.11359 -11.0439,29.80837 -0.4047,0.20001 -0.702,1.19092 -0.6608,2.20205 0.2417,5.92279 -6.8615,10.14069 -13.0002,7.71945 -4.325,-1.7059 -4.4327,-1.85581 -4.4055,-6.13426 2.8587,-16.61989 7.493,-30.40107 11.2196,-46.37684 2.7087,-11.60456 4.2612,-23.65923 4.7941,-37.2264 1.49,-14.81793 -3.1232,-16.99044 -2.8906,-22.9412 -2.2765,-7.06178 -6.7381,-9.6435 -11.0528,-13.33297 -9.6799,-8.33249 -38.1495,-15.153083 -37.9017,-9.08033 0.072,1.76233 -0.449,2.45084 -1.8992,2.51001 -1.8918,0.0772 -2.0256,-0.5846 -2.508,-12.408063 -0.5096,-12.48961 -0.5096,-12.48961 -3.5071,-12.3673 -2.9075,0.11863 -3.8615,9.55577 -2.2605,22.360743 0.141,1.12419 -0.4869,1.77133 -1.7686,1.82362 -1.3307,0.0543 -2.014,-0.58908 -2.0694,-1.94865 -0.066,-1.62594 -0.7285,-2.00106 -3.3297,-1.88612 -1.7856,0.0829 -6.1718,0.20379 -9.7468,0.2764 -12.74,0.69373 -28.2796,10.52609 -31.9377,21.49284 -4.5215,14.91428 -4.0761,23.65044 2.5965,50.93647 2.1981,10.53787 4.993,18.89603 7.8321,27.82431 0.925,2.92345 3.0026,9.45994 4.6171,14.52552 5.2598,16.50351 3.3714,25.06122 -5.6111,25.42774 -6.1725,0.25185 -9.64,-3.91711 -12.479,-15.00372 -4.3519,-13.36313 -8.2629,-25.24277 -11.4683,-39.06493 -0.8108,-3.54489 -1.934,-8.22799 -2.4962,-10.40688 -1.0285,-3.98599 -2.7364,-13.67104 -5.1693,-29.31364 -1.2567,-8.07975 -0.6267,-21.35086 1.309,-27.57625 1.0389,-3.34103 2.4163,-6.98142 3.4617,-9.14874 7.8442,-16.956159 28.8272,-27.285587 41.6877,-31.795003 4.2561,-1.45313 5.6569,-2.39983 5.6003,-3.78507 -2.8574,-5.972423 -3.4761,-21.344426 -8.0491,-25.5705 -0.5496,0.0224 -1.032,-0.76347 -1.0721,-1.74635 -0.04,-0.98288 -1.0442,-3.51415 -2.2312,-5.62511 -7.9786,-14.18862 4.8846,-23.41871 31.6018,-22.67643 8.9742,1.014216 16.9026,-2.423854 25.4899,-0.76634 z"
       id="path3132"
       inkscape:connector-curvature="0"
       sodipodi:nodetypes="ccccsscccsccccccssscscccccccsccssccccccccc" />
    <path
       style="fill:#cccccc;stroke:#000000"
       d="m 2377.1993,150.60633 c -6.3794,0 -11.5036,-0.0384 -1.1794,-22.40692 11.5289,-24.9785 17.3949,-54.88246 24.0665,-78.456005 6.2815,-22.195377 7.416,-47.7279226 -0.076,-56.4142108 -9.6018,-11.1326202 -27.9788,-19.8036882 -41.9448,-21.3317332 -12.893,-1.410644 -33.2226,-1.384802 -46.5459,0.690207 -12.6051,4.590187 -35.6923,11.482845 -40.682,26.65182639 -8.5314,25.93605861 -3.8231,47.25720561 2.3007,70.40390961 5.8682,22.180917 13.3741,42.723496 20.8881,59.466256 7.8358,17.46 10.2075,19.93676 -7.539,20.67124 -6.1396,0.2541 -8.2426,0.18705 -12.9096,-10.68584 -7.4634,-17.38783 -12.9407,-32.78897 -17.5718,-50.003096 -5.6832,-21.124599 -9.794,-45.278934 -9.4323,-65.448559 0.2364,-13.184154 0.4625,-20.140205 3.0341,-28.4999972 4.6534,-15.1273898 24.9793,-33.1234448 38.243,-35.4999998 14.2696,-2.55679 33.2347,-6.709269 21.6204,-25.47565 -18.8082,-27.76326 11.8019,-30.589076 28.7846,-29.243446 33.0232,-1.555834 41.2186,7.253776 31.075,28.719096 -6.9577,14.72357 -2.814,21.514851 10.108,24 16.5802,3.188697 22.5844,4.305044 33.5399,16 11.134,11.885468 13.6043,28.1455672 12.6937,43.161257 -1.4857,24.498398 -5.1837,42.297104 -10.7782,64.338739 -5.129,20.207436 -13.1029,38.529406 -20.8631,57.000006 -4.0923,9.74037 -8.5814,12.36292 -16.8324,12.36292 z"
       id="path3124"
       inkscape:connector-curvature="0"
       sodipodi:nodetypes="ssssscsssssssssccssssssss" />
    <path
       style="fill:#cccccc;stroke:#000000"
       d="m 2093.4876,172.09722 c -10.6461,-5.64639 -15.0851,-25.46672 -18.469,-36.54156 -3.7711,-17.03928 -8.1959,-33.97728 -9.9256,-50.728996 -9.2359,-47.265482 13.0132,-74.9177757 14.8529,-77.0214362 18.7466,-21.4364688 37.1205,-19.2879068 41.7108,-23.8691998 5.1742,-5.16407 6.2695,-6.816638 -1.7726,-26.97912 -11.033,-27.661099 16.1355,-20.27497 29.5057,-21.65161 16.7954,-1.729313 44.264,-0.471137 32.0562,21.36695 -5.7224,10.236634 -10.8596,27.798932 2.4241,30.7506 22.7695,8.7749243 37.4701,25.678941 40.2416,36.403822 4.951,19.159247 6.1212,38.90521 3.249,58.499994 -2.8363,19.350056 -6.6858,39.155906 -13.5848,57.499996 -3.6094,9.59719 -8.8356,18.69582 -12.7281,27.5411 -2.0412,4.66326 -6.9125,6.1002 -11.7998,3.48073 -7.2631,-3.89275 -7.166,-6.63681 -1.2233,-21.52183 7.2508,-18.16148 13.1114,-39.40315 15.8854,-56.999996 5.3128,-33.701277 9.8366,-68.502001 -21.9635,-82.110814 -23.9857,-10.50957933 -51.5383,-7.2787517 -70.5,0.61082 -29.1988,12.149031 -27.1479,64.700006 -22.6068,86.324144 3.8718,18.437126 8.4544,34.459556 12.9019,45.675846 5.5462,14.89477 6.232,20.42446 3.037,24.48632 -1.7551,2.2312 -7.8745,5.88101 -9.05,5.39768 -0.1552,-0.0638 -1.1634,-0.33985 -2.2404,-0.61344 z"
       id="path3120"
       inkscape:connector-curvature="0"
       sodipodi:nodetypes="cccssssscssscssscssccccc" />
    <path
       style="fill:#cccccc;stroke:#000000"
       d="m 1974.4859,-33.237236 c 8.6264,-2.347278 13.9055,5.047291 9.8549,16.533204 -0.4086,6.03739 -2.7897,19.5629698 -3.6301,20.6198398 -2.9829,3.75132 1.9642,14.0342732 7.4525,15.4906832 8.5081,3.194079 17.3736,4.584222 25.9239,6.37583 21.3482,4.44758 34.746,23.05766 35.2039,48.899699 4.9255,25.103245 -4.4639,57.72622 -11.1809,78.97747 -3.3249,11.00198 -12.9833,24.83805 -17.1528,34.94393 -14.9769,8.82861 -25.1303,5.07538 -22.3494,-7.05953 0.4232,-1.91861 2.0823,-6.39316 3.6869,-9.94345 1.6047,-3.55029 3.9746,-9.13883 5.2667,-12.41899 1.2921,-3.28015 2.9616,-6.66328 3.7101,-7.51805 9.1402,-19.11051 15.5136,-50.8873 16.4208,-66.49174 1.529,-15.15513 -1.5009,-22.541729 -13.3402,-32.522409 -1.9999,-1.68584 -14.0952,-7.58981 -18.5465,-9.05282 -2.189,-0.71947 -4.8738,-1.70519 -5.9664,-2.1905 -1.0925,-0.48531 -6.1394,-1.52212 -11.2152,-2.30403 -5.0759,-0.7819 -9.2232,-1.78425 -9.2163,-2.22746 0.046,-2.95549 -6.8815,-0.7199 -7.224,2.33118 -0.9974,8.88552 -4.3252,3.7465 -4.4162,-6.82005 -0.047,-5.50142 -0.3815,-12.03245 -0.7424,-14.51341 -0.361,-2.48096 -0.6674,-5.1861 -0.6812,-6.01142 -0.014,-0.82532 -0.9242,-1.51466 -2.0233,-1.53189 -2.6061,-0.0408 -3.5467,5.16963 -3.5541,19.68847 -0.01,10.59931 -0.8997,13.83466 -3.3848,12.24445 -0.6063,-0.38794 -0.9592,-1.90695 -0.7843,-3.37557 0.3641,-3.05762 -7.0091,-4.3724 -9.3299,-1.66367 -10.8548,1.233444 -16.392,3.639332 -26.7602,9.32282 -7.6931,4.525902 -9.8623,11.876989 -14.6208,18.37451 -0.8754,0.619 -2.0228,7.384699 -2.8318,16.697229 -2.2111,19.09297 11.3433,60.07708 22.6973,72.74378 6.5127,7.07792 14.5347,25.56758 12.8088,29.52282 -1.6211,3.71511 -8.1461,9.4363 -10.7161,9.39603 -2.1972,-0.0344 -8.8475,-2.97061 -8.8388,-3.90241 0.01,-0.40507 -1.3183,-2.1956 -2.938,-3.97888 -1.6198,-1.78327 -2.9386,-3.64692 -2.9309,-4.14145 0.01,-0.49452 -0.8399,-1.69676 -1.8838,-2.67164 -1.0439,-0.97487 -3.08,-4.33944 -4.5248,-7.4768 -1.4448,-3.13738 -3.6657,-7.15325 -4.9353,-8.92417 -1.2696,-1.77091 -2.3039,-3.50999 -2.2983,-3.86462 0.01,-0.35462 -1.5465,-4.12193 -3.4491,-8.37179 -3.554,-7.9386 -3.9606,-8.89535 -6.708,-15.77893 -2.8246,-7.07725 -3.1123,-7.91733 -5.2981,-15.46987 -1.1811,-4.08073 -2.2437,-8.59794 -2.3614,-10.03824 -0.1176,-1.4403 -0.8955,-5.21272 -1.7285,-8.38314 -4.958,-18.86902 -1.8813,-45.524859 6.4472,-55.857219 1.6163,-2.00517 2.9444,-4.01212 2.9514,-4.4599 7.0952,-8.718087 19.3133,-18.225083 31.2399,-18.81659 6.9879,0.10752 14.8827,-5.2399 15.7121,-10.64203 0.4154,-3.2389783 -1.3448,-18.7659972 -3.1455,-21.664223 -6.8711,-16.409237 1.4805,-23.400537 9.4884,-21.44226 7.0162,0.501834 36.5722,-2.069924 41.8426,-0.632794 z"
       id="path3102"
       inkscape:connector-curvature="0"
       sodipodi:nodetypes="ccscccccccscccscsssccccccccccccsccccssscsccccscccccc" />
    <g
       id="g3206"
       transform="translate(-31.112698,5.6568542)">
      <path
         sodipodi:nodetypes="cccccssccssccssccsscccccc"
         inkscape:connector-curvature="0"
         d="m 1789.0036,714.67698 c -12.6646,-1.79288 -29.3568,-17.05477 -44.8033,-11.80955 -7.8638,7.51995 -2.3341,14.96113 -10.4939,27.89005 -9.0893,8.85793 -25.2286,4.01739 -38.495,4.75641 -7.423,-0.27053 -15.1309,-1.92514 -21.6066,-9.35577 -5.0962,-4.16917 -4.8332,-9.25616 0.9529,-21.21319 6.2268,-12.86781 6.8964,-14.49704 8.0466,-19.57782 1.4942,-6.60017 1.4096,-26.21153 0.9233,-29.35193 -3.9753,-25.66925 -7.6336,-56.7434 11.0558,-61.23612 12.3542,-0.77074 19.4632,11.74691 27.3742,14.9103 17.8785,7.14917 25.4543,-0.0974 33.0267,-7.98279 12.3609,-12.87186 23.9396,-17.46819 34.3469,-17.41929 l 1.4914,0.15138 c 10.4073,-0.0489 21.986,4.54743 34.3469,17.41929 7.5724,7.88542 15.1482,15.13196 33.0267,7.98279 7.911,-3.16339 15.02,-15.68104 27.3742,-14.9103 18.6894,4.49272 15.0311,35.56687 11.0558,61.23612 -0.4863,3.1404 -0.5709,22.75176 0.9233,29.35193 1.1502,5.08078 1.8198,6.71001 8.0466,19.57782 5.7861,11.95703 6.0491,17.04402 0.9529,21.21319 -6.4757,7.43063 -14.1836,9.08524 -21.6066,9.35577 -13.2664,-0.73902 -29.4057,4.10152 -38.495,-4.75641 -8.1598,-12.92892 -2.6301,-20.3701 -10.4939,-27.89005 -15.4465,-5.24522 -32.1387,10.01667 -44.8033,11.80955 z"
         style="fill:#cccccc;stroke:#000000"
         id="path3114-2" />
      <path
         inkscape:connector-curvature="0"
         id="path3147"
         d="m 1874.9699,736.60117 -4.2427,-49.14392"
         style="fill:none;stroke:#ff0000;stroke-width:1px;stroke-linecap:butt;stroke-linejoin:miter;stroke-opacity:1" />
      <path
         inkscape:connector-curvature="0"
         id="path3147-8"
         d="m 1705.9713,735.71728 4.2427,-49.14392"
         style="fill:none;stroke:#ff0000;stroke-width:1px;stroke-linecap:butt;stroke-linejoin:miter;stroke-opacity:1" />
      <path
         transform="translate(1045.5336,-140.27985)"
         inkscape:connector-curvature="0"
         id="path3186"
         d="m 745,724.4834 -0.25,48.5 0,0.25"
         style="fill:none;stroke:#ff0000;stroke-width:1px;stroke-linecap:butt;stroke-linejoin:miter;stroke-opacity:1" />
    </g>
    <g
       id="g3318"
       transform="matrix(0.97643861,-0.21579538,0.21579538,0.97643861,-29.82187,250.85391)">
      <path
         sodipodi:nodetypes="ssssccssssssssssssssssss"
         inkscape:connector-curvature="0"
         id="path3106"
         d="m 1076.7966,333.03729 c 18.4336,16.05835 58.5409,30.74344 84.7738,24.18417 3.2102,-0.80269 13.4662,8.52515 24.2069,23.02439 10.827,14.61591 21.0393,19.48381 28.0864,13.38805 2.0046,-1.73395 11.6588,-15.2389 12.6652,-17.71689 9.355,-18.17798 29.6958,-0.44961 40.2929,-9.99608 2.3934,-2.48846 6.6227,-6.92159 9.4099,-9.84056 7.1421,-7.47984 23.6712,0.35757 31.4305,10.11908 6.4244,8.0823 8.869,18.96305 12.5639,31.23795 4.457,14.80664 13.1219,34.38803 6.4637,50.51809 -2.9569,7.16329 -7.0727,13.62757 -11.916,17.02225 -19.0222,13.33271 -35.9269,24.96539 -44.4073,44.52247 -6.489,14.96464 -19.5088,14.05108 -31.5428,15.91898 -4.51,0.70004 -15.933,-8.07318 -18.1728,-16.72236 -9.8351,-37.97978 -36.9263,-44.43858 -40.231,-9.9252 -0.6652,6.94743 -0.7015,36.41722 -11.6131,30.889 -15.3782,-7.79114 -33.8861,-18.89554 -44.8318,-30.42891 -17.6651,-18.61344 -21.8294,-36.98374 -17.6003,-46.25102 1.6831,-3.68818 6.9501,-13.59118 24.5583,-27.27795 14.486,-11.25987 27.365,-22.21301 8.813,-37.18002 -4.2884,-3.45968 -7.5268,-4.43937 -23.9242,-9.15556 -16.587,-4.77072 -33.7418,-12.5139 -46.3349,-24.13971 -12.0423,-11.11733 -19.5707,-27.43326 -16.7645,-37.72575 4.6558,-17.07676 17.3411,9.67011 24.0742,15.53558 z"
         style="fill:#cccccc;stroke:#000000" />
      <path
         sodipodi:nodetypes="cc"
         transform="translate(1045.5336,-140.27985)"
         inkscape:connector-curvature="0"
         id="path3242"
         d="m 269.5,523.2334 -92,40.5"
         style="fill:none;stroke:#ff0000;stroke-width:1px;stroke-linecap:butt;stroke-linejoin:miter;stroke-opacity:1" />
    </g>
    <g
       id="g3282"
       transform="matrix(0.62760359,0.77853306,-0.77853306,0.62760359,807.40706,-1109.5561)"
       style="fill:#cccccc">
      <path
         sodipodi:nodetypes="sssssssssssssssssssssssssss"
         inkscape:connector-curvature="0"
         id="path2993-5"
         d="m 1518.0002,441.7376 c -6.9531,-3.53528 0.4608,-19.34844 -5.3449,-19.8656 l -30.9597,-2.7579 c -18.6327,-1.6598 -21.0946,-12.57664 -15.3349,-31.14398 4.6402,-14.95828 9.3695,-17.22775 -12.1728,-35.64778 -15.7872,-13.49908 -20.18,-22.61587 -3.4136,-33.67313 10.0776,-6.64608 4.1074,-18.63017 -11.6954,-24.65275 -19.7338,-7.52072 -14.591,-30.58614 1.0862,-31.68103 14.3965,-1.00546 28.0641,-11.12958 12.0486,-23.20177 -19.4924,-14.69299 -5.6251,-33.38711 12.4964,-27.8119 16.5948,5.10549 24.1754,-1.86167 22.067,-19.96118 -2.6501,-22.74954 10.3603,-29.50574 28.2298,-14.65951 13.4376,11.16418 18.0757,15.58022 23.4772,-0.75453 15.1746,-45.88994 28.2743,-22.14624 35.6671,-2.05875 5.9422,16.14594 9.7424,12.16297 23.4516,1.334 18.2305,-14.40048 31.0701,-7.32511 27.8592,15.35207 -2.5547,18.04194 4.8514,25.19415 21.5673,20.49997 18.2537,-5.12606 31.6552,13.90476 11.8059,28.11197 -16.3088,11.67306 -2.8953,22.13157 11.472,23.4922 15.6454,1.48165 20.2171,24.66701 0.3037,31.69819 -15.9466,5.63055 -23.3258,19.43983 -12.3006,24.35644 21.3527,9.52209 13.2462,19.92364 -4.2441,33.57858 -22.3413,17.44224 -18.9693,20.83687 -13.0492,35.33636 8.7228,21.36402 2.8043,29.5415 -16.0992,30.75585 l -31.0184,1.9926 c -5.8167,0.37367 1.0057,15.97725 -5.8337,19.72758 -23.9648,13.14085 -49.1368,12.27516 -70.0655,1.634 z"
         style="fill:#cccccc;stroke:#000000;stroke-width:1" />
      <path
         id="path3280"
         d="M 1493.8136,414.11706 1506.661,320.0522"
         style="fill:#cccccc;stroke:#ff0000;stroke-width:1"
         inkscape:connector-curvature="0" />
      <path
         id="path3278"
         d="m 1551.5165,449.033 -1.1619,-95.42364"
         style="fill:#cccccc;stroke:#ff0000;stroke-width:1"
         inkscape:connector-curvature="0" />
      <path
         id="path3276"
         d="m 1607.9029,407.1294 -14.0136,-85.8758"
         style="fill:#cccccc;stroke:#ff0000;stroke-width:1"
         inkscape:connector-curvature="0" />
    </g>
    <g
       id="g3314"
       transform="translate(31.112698,-29.698485)">
      <path
         sodipodi:nodetypes="cccccccscssccssccccscssscccccccccc"
         inkscape:connector-curvature="0"
         id="path3116"
         d="m 1979.6208,784.28175 c -8.9983,-0.42855 -12.2628,4.95834 -18.4739,16.53893 -7.6845,15.17028 -20.5272,25.266 -35.7475,31.86558 -13.7269,5.91603 -21.9138,20.03307 -12.236,24.88011 7.5145,8.41558 -7.3212,23.6346 -0.058,27.512 4.5908,2.21065 9.9996,12.93017 10.9427,15.35532 0.8814,2.26634 6.0302,11.19756 5.202,12.851 -1.2529,2.50171 1.5861,6.36738 7.3617,10.02395 12.3797,7.8377 15.1682,15.54583 9.4022,25.9905 -3.0588,5.54062 -1.9929,3.43827 1.7839,8.8416 3.3579,4.80408 4.0701,10.24652 1.6728,16.06371 -1.9744,4.79108 1.8349,3.25543 -10.9755,17.34468 -11.5284,7.43464 -0.1999,34.77677 -3.2291,38.89547 -1.8854,6.0093 -9.662,10.6765 -8.8134,15.0686 2.5516,13.2068 18.0624,21.6319 6.6431,25.4914 -8.5271,2.882 -73.824,4.1526 -76.5455,-3.5408 -2.4088,-7.243 11.9379,-11.4368 15.1223,-12.4193 14.68,-10.429 22.4489,-20.3324 16.5128,-29.425 -0.07,-0.9743 -0.8877,-4.9628 3.623,-11.4464 22.3262,-27.2529 12.1245,-24.90934 10.6349,-34.34499 -2.4734,-15.66741 5.1765,-25.90814 6.6649,-23.44096 -2.0373,-1.10348 -11.9363,-6.28376 -18.3308,-10.28955 -9.5809,-6.00177 -9.9414,-12.97649 -13.2639,-13.8895 -14.9948,-4.12048 -22.6938,-21.13899 -22.4061,-27.20127 0.1753,-3.69296 -3.4859,-8.6135 -12.9633,-13.38293 -13.416,-7.82851 -15.6497,-12.1447 -7.7439,-24.45896 -2.8396,-36.47378 -100.8547,-51.19302 11.3138,-49.46864 15.1915,1.08646 33.2618,0.77346 48.5055,0.28029 12.5072,-3.39815 10.6202,-2.79975 19.6445,-10.14413 9.2163,-7.43776 15.199,-17.6351 16.4529,-28.04298 2.1999,-8.68685 1.1254,-18.13482 -1.1294,-26.57351 -1.7005,-6.22455 4.8475,-19.56393 10.1933,-21.45753 31.7563,-18.37086 127.2049,56.4397 40.2404,52.52331 z"
         style="fill:#cccccc;stroke:#000000" />
      <path
         transform="translate(1045.5336,-140.27985)"
         inkscape:connector-curvature="0"
         id="path3288"
         d="m 835.44666,958.55185 1.76777,49.85105"
         style="fill:none;stroke:#ff0000;stroke-width:1px;stroke-linecap:butt;stroke-linejoin:miter;stroke-opacity:1" />
    </g>
    <path
       style="fill:none;stroke:#000000;stroke-width:1px;stroke-linecap:butt;stroke-linejoin:miter;stroke-opacity:1"
       d="M 730.08775,242.60623 729.7342,221.74658"
       id="path3322"
       inkscape:connector-curvature="0"
       transform="translate(1045.5336,-140.27985)" />
    <path
       style="fill:none;stroke:#000000;stroke-width:1px;stroke-linecap:butt;stroke-linejoin:miter;stroke-opacity:1"
       d="m 910.04643,177.19886 -1.06066,-26.51651"
       id="path3324"
       inkscape:connector-curvature="0"
       transform="translate(1045.5336,-140.27985)" />
    <path
       style="fill:none;stroke:#000000;stroke-width:1px;stroke-linecap:butt;stroke-linejoin:miter;stroke-opacity:1"
       d="m 1103.0866,147.50037 0.3535,-24.04163"
       id="path3326"
       inkscape:connector-curvature="0"
       transform="translate(1045.5336,-140.27985)" />
    <path
       style="fill:none;stroke:#000000;stroke-width:1px;stroke-linecap:butt;stroke-linejoin:miter;stroke-opacity:1"
       d="m 1292.5912,113.9128 c 0,-2.47487 0,-22.273863 0,-22.273863"
       id="path3328"
       inkscape:connector-curvature="0"
       transform="translate(1045.5336,-140.27985)" />
    <path
       style="fill:none;stroke:#000000;stroke-width:1px;stroke-linecap:butt;stroke-linejoin:miter;stroke-opacity:1"
       d="m 1476.7925,80.678781 -1.0606,-24.395184"
       id="path3330"
       inkscape:connector-curvature="0"
       transform="translate(1045.5336,-140.27985)" />
  </g>
</svg>
