<?xml version="1.0" encoding="UTF-8" standalone="no"?>
<!-- Created with Inkscape (http://www.inkscape.org/) -->

<svg
   xmlns:dc="http://purl.org/dc/elements/1.1/"
   xmlns:cc="http://creativecommons.org/ns#"
   xmlns:rdf="http://www.w3.org/1999/02/22-rdf-syntax-ns#"
   xmlns:svg="http://www.w3.org/2000/svg"
   xmlns="http://www.w3.org/2000/svg"
   xmlns:sodipodi="http://sodipodi.sourceforge.net/DTD/sodipodi-0.dtd"
   xmlns:inkscape="http://www.inkscape.org/namespaces/inkscape"
   width="744.09448819"
   height="1052.3622047"
   id="svg2"
   version="1.1"
   inkscape:version="0.48.3.1 r9886"
   sodipodi:docname="Triceratops.svg">
  <defs
     id="defs4" />
  <sodipodi:namedview
     id="base"
     pagecolor="#ffffff"
     bordercolor="#666666"
     borderopacity="1.0"
     inkscape:pageopacity="0.0"
     inkscape:pageshadow="2"
     inkscape:zoom="0.53285814"
     inkscape:cx="284.82338"
     inkscape:cy="551.59024"
     inkscape:document-units="px"
     inkscape:current-layer="layer1"
     showgrid="false"
     inkscape:window-width="1280"
     inkscape:window-height="973"
     inkscape:window-x="0"
     inkscape:window-y="0"
     inkscape:window-maximized="1" />
  <metadata
     id="metadata7">
    <rdf:RDF>
      <cc:Work
         rdf:about="">
        <dc:format>image/svg+xml</dc:format>
        <dc:type
           rdf:resource="http://purl.org/dc/dcmitype/StillImage" />
        <dc:title />
      </cc:Work>
    </rdf:RDF>
  </metadata>
  <g
     inkscape:label="Layer 1"
     inkscape:groupmode="layer"
     id="layer1">
    <path
       style="fill:none;stroke:#000000"
       d="m 229.78186,901.53471 c -7.22139,-2.68843 -23.88228,-16.30743 -23.88228,-19.52195 0,-0.41615 -2.34293,-3.1493 -5.20652,-6.07366 l -5.20651,-5.31703 -6.60423,0.47253 c -3.63232,0.25989 -7.70189,1.1711 -9.04348,2.02492 -5.3856,3.42749 -14.41601,3.29566 -21.25264,-0.31025 -10.10274,-5.32859 -14.0406,-8.80566 -12.47999,-11.01967 9.453,-13.41086 22.30325,-32.25212 25.43468,-37.29277 2.43881,-3.92575 4.80786,-10.51975 4.05129,-11.27632 -0.73278,-0.73277 -6.6926,2.51356 -6.6926,3.64549 0,0.52436 -2.8125,4.53283 -6.25,8.90772 -8.15653,10.38076 -14.69999,19.32925 -18.8802,25.81956 -4.47296,6.94482 -7.27956,5.93117 -13.79432,-4.98203 -1.23123,-2.0625 -2.56855,-3.75 -2.97183,-3.75 -1.08626,0 -4.10365,-6.74111 -4.10365,-9.16791 0,-3.3284 -2.1975,-10.15858 -3.92016,-12.18447 -3.39024,-3.98701 -18.90528,-9.34659 -22.102853,-7.6353 -6.25119,3.34553 -23.72632,-8.77943 -28.43777,-19.73129 -3.29795,-7.66616 -1.83476,-21.56194 2.92998,-27.82576 5.28812,-6.95187 18.09088,-20.45527 19.39392,-20.45527 0.59704,0 1.76563,-1.31518 2.59687,-2.92262 0.83123,-1.60743 3.35621,-5.0542 5.61105,-7.65947 5.734153,-6.62528 7.523893,-12.70188 9.842563,-33.41791 2.14548,-19.16862 13.22301,-24.06474 32.45667,-14.34543 8.80034,4.44706 11.3031,8.88184 7.01899,12.43734 -0.76409,0.63414 -1.38926,1.55682 -1.38926,2.05041 0,0.49358 -1.223,2.80098 -2.71779,5.12755 -6.83819,10.64338 -14.33655,27.10436 -12.96942,28.47149 2.09974,2.09974 4.33668,0.5253 7.89244,-5.55501 1.81212,-3.09871 4.29656,-7.2208 5.52097,-9.16019 1.22442,-1.93939 3.13649,-5.1949 4.24906,-7.23448 1.11257,-2.03957 3.72516,-6.40062 5.80576,-9.69122 l 3.78291,-5.98291 4.00238,2.57304 c 10.91003,7.01379 13.10178,16.28959 7.91144,33.48236 -2.94562,9.75725 2.94297,17.3482 14.66943,18.91028 29.73664,3.96121 34.42497,6.86812 45.83141,28.41677 7.19242,13.58768 11.69888,15.50834 19.30221,8.22664 14.57461,-13.95809 24.29907,-15.58327 33.35672,-5.57468 0.91985,1.01642 2.08056,1.84804 2.57936,1.84804 0.4988,0 1.94753,0.78495 3.21941,1.74433 l 2.3125,1.74432 -4.62439,6.00568 c -2.54342,3.30312 -5.10589,6.45567 -5.69437,7.00567 -0.58848,0.55 -1.93848,2.30457 -3,3.89903 -2.11541,3.17749 -3.058,4.56021 -8.79969,12.90852 -3.64469,5.29931 -4.25806,8.69245 -1.57132,8.69245 1.5046,0 9.74768,-8.63808 15.33138,-16.06605 2.48596,-3.30705 6.76254,-8.52898 9.50352,-11.60429 l 4.9836,-5.59148 4.31124,2.5451 c 6.6891,3.94884 10.78983,8.47434 10.95102,12.08538 0.48633,10.89496 -0.3977,12.90623 -8.27404,18.8244 -2.91311,2.18887 -6.2878,4.95338 -7.49932,6.14335 -5.47212,5.37483 -18.26608,15.66359 -19.4775,15.66359 -1.1485,0 -10.88892,19.83322 -10.88892,22.17176 0,0.94061 -0.38728,1.94956 -0.86061,2.24209 -0.47334,0.29254 -1.60882,3.19848 -2.5233,6.45765 -4.22152,15.04539 -21.15242,25.48583 -33.73381,20.80196 z"
       id="path2999" />
    <path
       style="fill:none;stroke:#000000"
       d="m 603.14739,894.16408 c -1.23871,-0.24338 -2.71704,-1.31108 -3.28519,-2.37267 -0.56814,-1.06159 -1.69086,-1.93016 -2.49492,-1.93016 -0.80407,0 -3.15073,-1.51006 -5.21482,-3.35568 -5.32218,-4.7589 -7.41497,-5.6414 -13.43714,-5.66628 -9.43193,-0.039 -13.81574,-2.84964 -13.81574,-8.85795 0,-12.85156 -18.2639,-17.21879 -21.41243,-5.12009 -2.62496,10.08683 -3.00772,10.82993 -6.41532,12.4549 -5.52592,2.63513 -13.44857,-0.98447 -13.77419,-6.29297 -0.0561,-0.91406 -0.16857,-3.54934 -0.25,-5.85617 -0.45354,-12.84776 -16.14806,-10.81325 -16.14806,2.09331 0,6.54168 -6.2847,9.26638 -12.34229,5.35093 -3.31272,-2.14124 -4.99994,-4.5385 -10.34915,-14.70433 -3.33001,-6.32847 -6.17854,-9.04567 -9.48287,-9.04567 -3.35463,0 -3.36051,-0.0313 -0.90749,-4.83966 1.64968,-3.23364 7.58906,-17.98363 9.44189,-23.44819 0.74832,-2.20705 -1.81071,-3.41299 -3.77793,-1.78034 -0.7658,0.63556 -3.96046,6.87341 -7.09923,13.86188 -6.83675,15.22199 -5.90724,14.11391 -9.24336,11.01905 -1.50676,-1.39779 -3.86457,-2.85787 -5.23957,-3.2446 -1.375,-0.38674 -3.85,-1.07002 -5.5,-1.5184 -1.65,-0.44838 -6.46243,-1.7635 -10.69428,-2.92248 -4.23186,-1.15899 -8.39436,-1.83861 -9.25,-1.51027 -2.17007,0.83274 -2.01234,-2.00275 0.51243,-9.21176 1.89844,-5.42067 2.70282,-8.20973 4.48126,-15.53801 0.37777,-1.55665 0.17379,-2.92026 -0.49905,-3.33609 -2.38789,-1.47581 -5.03821,2.72332 -10.07887,15.96887 -1.25584,3.3 -2.6376,6.40193 -3.07059,6.89318 -0.69441,0.78784 -11.64746,-2.54843 -14.4009,-4.38648 -0.55,-0.36716 -5.95,-2.63177 -12,-5.03248 -12.5366,-4.97466 -14.76598,-6.42581 -13.56258,-8.82814 0.45352,-0.90534 1.61838,-4.79608 2.5886,-8.64608 4.38613,-17.40507 -3.13883,-13.81827 -8.62282,4.11009 -1.55465,5.08248 -1.17089,5.1499 -18.9032,-3.32093 -7.425,-3.54697 -14.20231,-6.50241 -15.06069,-6.56764 -4.20843,-0.31982 -4.84861,-3.88507 -1.92896,-10.74263 3.78856,-8.89847 5.37668,-14.52793 4.64001,-16.44766 -1.15853,-3.01909 -4.2865,0.12881 -7.14086,7.18636 -3.87146,9.57238 -4.25908,10.56632 -4.88744,12.53241 -0.60063,1.87934 -5.62206,2.52043 -5.62206,0.71778 0,-0.56773 -0.7875,-1.35912 -1.75,-1.75866 -0.9625,-0.39954 -4.3777,-2.29754 -7.58932,-4.21778 -8.82867,-5.27867 -12.90483,-7.70398 -15.66068,-9.3181 -1.375,-0.80534 -3.625,-1.62378 -5,-1.81875 -4.50801,-0.63922 -3.99549,-3.65342 2.21275,-13.01346 8.90021,-13.41867 7.17906,-17.68477 -2.84289,-7.04647 l -5.45884,5.79456 -5.74484,-0.9501 c -6.66908,-1.10295 -7.78498,-0.66356 -16.78789,6.61035 -12.97083,10.4798 -24.09399,0.91772 -17.31879,-14.88817 2.56815,-5.99125 1.46178,-9.88517 -2.58864,-9.11088 -1.6491,0.31525 -2.47086,0.0196 -2.47086,-0.88899 0,-0.74873 -0.29408,-1.36133 -0.65351,-1.36133 -1.50697,0 -11.34649,5.12971 -11.34649,5.91535 0,1.99794 -6.8965,4.21018 -9.23838,2.96347 -8.98615,-4.78383 -9.46086,-7.00243 -3.80165,-17.76716 6.92,-13.16295 -1.10357,-16.56671 -16.578,-7.03272 -13.85937,8.53893 -21.81086,-9.02172 -11.12129,-24.56107 5.08383,-7.39034 2.24293,-14.43851 -4.45245,-11.04638 -18.02853,9.13393 -34.01397,-3.07643 -20.85263,-15.92813 9.33754,-9.11787 6.50071,-13.25173 -8.14021,-11.86199 -11.76541,1.11679 -14.10056,0.60163 -16.26749,-3.58875 -3.16614,-6.12263 -0.67467,-13.45938 5.65788,-16.66104 12.64459,-6.39297 9.35301,-18.00323 -4.12473,-14.54899 -12.20849,3.12894 -20.08984,-10.53734 -10.57381,-18.33501 6.77622,-5.5526 7.49276,-6.46466 7.49276,-9.53722 0,-7.06488 -3.4063,-9.01036 -15.77603,-9.01036 -17.09715,0 -20.26163,-16.69129 -4.04184,-21.319 10.46755,-2.98652 11.97219,-3.80609 13.44088,-7.32115 2.87853,-6.8893 -0.8004,-11.6518 -9.87677,-12.78582 -9.76476,-1.22002 -13.78586,-4.26264 -13.9651,-10.56687 -0.11422,-4.01728 2.14852,-9.00536 4.09018,-9.01654 2.47352,-0.0143 11.91974,-5.7317 13.0936,-7.92507 2.53344,-4.73377 -2.15169,-11.06555 -8.18783,-11.06555 -3.6027,0 -11.26151,-4.30828 -12.36406,-6.9551 -1.8199,-4.36894 -2.14051,-8.02618 -0.80106,-9.13783 0.76342,-0.63358 1.38803,-1.69342 1.38803,-2.3552 0,-2.83432 4.58358,-5.55187 9.36411,-5.55187 12.11208,0 15.82717,-12.18324 5.43915,-17.8371 -13.36558,-7.27445 -12.03289,-19.4239 2.59716,-23.67697 8.83554,-2.56857 11.29173,-15.48593 2.94459,-15.48593 -0.73975,0 -1.34501,-0.43844 -1.34501,-0.97432 0,-0.53588 -1.4625,-1.72184 -3.25,-2.63548 -11.54191,-5.89937 -6.85338,-18.97053 7.51897,-20.96213 4.77448,-0.66161 8.73103,-3.8554 8.73103,-7.04783 0,-0.74252 -2.5875,-4.09998 -5.75,-7.46103 -11.45057,-12.16945 -8.21816,-21.91921 7.26704,-21.91921 14.50513,0 18.92135,-6.90344 8.81759,-13.78368 -8.52679,-5.80639 -9.6583,-7.38263 -10.05273,-14.00379 l -0.34031,-5.71253 7.47886,-5.72319 c 11.35241,-8.68742 11.44517,-14.69342 0.32124,-20.7986 -7.99741,-4.38923 -11.43748,-11.89895 -6.9498,-15.17151 9.80417,-7.14952 11.76461,-18.09585 4.55131,-25.41274 -5.8145,-5.898 -6.21302,-7.29132 -5.06201,-17.69809 1.33274,-12.04997 -1.73577,-18.30134 -11.84968,-24.14095 -3.54384,-2.04615 -7.26572,-7.38677 -13.97628,-20.05492 -7.19544,-13.5835 -15.9661,-23.60357 -33.320413,-38.06702 -3.88374,-3.23678 -7.13482,-10.07613 -7.13482,-15.00961 0,-7.04233 12.88773,-12.4008 18.11424,-7.53157 1.11683,1.04049 4.13552,2.68833 6.708183,3.66185 8.34414,3.15752 20.90281,12.53334 34.7545,25.94635 3.97592,3.85 9.12682,8.35 11.44644,10 6.0282,4.28799 10.97664,11.0632 10.97664,15.02879 0,3.42825 3.15183,6.46749 6.71482,6.47495 2.07855,0.004 6.77604,2.78809 10.12975,6.00291 2.56715,2.46083 2.5788,4.54635 0.0745,13.32694 -2.02154,7.08791 0.80014,11.94598 7.18689,12.37365 12.66563,0.84813 18.69829,10.26482 11.14384,17.39501 -9.66022,9.1177 -5.43243,19.07316 8.72837,20.55326 12.64983,1.32217 15.56982,14.83024 4.28141,19.80608 -11.60197,5.11406 -11.05992,17.48309 0.76792,17.5231 13.86542,0.0469 16.81761,14.79222 4.22894,21.12228 -13.40133,6.73869 -13.00945,16.37236 0.7893,19.40307 11.50748,2.52747 8.41765,16.60885 -4.07785,18.58412 -9.88158,1.56207 -14.80108,12.90584 -5.59694,12.90584 0.79502,0 2.57828,1.35684 6.35532,4.83561 6.03061,5.55439 1.59782,16.25202 -7.96878,19.23101 -9.33801,2.90781 -10.29955,8.56242 -2.50749,14.74598 2.8875,2.29144 5.8125,4.63876 6.5,5.21626 0.6875,0.57749 1.25,3.02045 1.25,5.42878 0,2.40833 0.26397,5.06669 0.58661,5.90746 0.44509,1.1599 -0.72127,1.90888 -4.83491,3.10475 -15.79721,4.59237 -18.71196,17.72319 -18.3199,82.53015 l 0.19056,31.5 2.61854,5 c 5.77748,11.0319 15.88537,12.31071 22.17558,2.80558 2.7813,-4.20284 2.98322,-6.17453 2.0282,-19.80558 -0.69541,-9.92555 0.19849,-17.67133 3.51985,-30.5 2.01441,-7.78061 3.2228,-10.79293 7.8224,-19.5 0.87163,-1.65 2.8263,-5.52912 4.34372,-8.62026 6.04766,-12.31975 14.25634,-16.7373 21.22474,-11.42224 4.21783,3.21709 5.39092,8.79619 2.4648,11.72231 -1.0011,1.0011 -1.82019,2.29181 -1.82019,2.86823 0,0.57642 -1.575,3.51015 -3.5,6.51941 -1.925,3.00926 -3.5,6.08255 -3.5,6.82952 0,0.74698 -0.63057,1.88147 -1.40127,2.52109 -9.67873,8.03263 -8.87394,31.90942 1.46898,43.58194 0.9747,1.1 3.69657,5.6 6.0486,10 2.35203,4.4 4.63806,8.15 5.08005,8.33333 0.442,0.18334 0.80364,1.10983 0.80364,2.05887 0,0.94905 0.66069,2.59905 1.4682,3.66667 0.8075,1.06762 1.4825,2.92811 1.5,4.13443 0.0175,1.20631 1.0443,2.92476 2.2818,3.81879 2.25,1.62549 2.25,1.62549 -3.64298,6.95593 -4.5788,4.14171 -5.77047,5.79893 -5.34362,7.43121 0.40371,1.54382 0.085,2.10077 -1.20203,2.10077 -0.96327,0 -2.60864,0.97065 -3.65638,2.15699 -1.88865,2.1385 -1.88569,2.15216 0.34501,1.59362 1.5789,-0.39533 2.25,-0.11883 2.25,0.92704 0,1.58639 3.93897,-1.21689 11.38608,-8.10322 2.40709,-2.22584 4.31002,-3.27588 5,-2.75902 0.61265,0.45893 2.96358,1.36245 5.22428,2.00781 6.16251,1.75922 11.21583,6.3365 18.02283,16.32505 6.63669,9.73862 8.28321,11.28979 12.86681,12.12167 1.65,0.29946 5.68373,1.30039 8.96385,2.22429 12.90668,3.63539 26.99526,1.43376 37.81624,-5.90956 5.79054,-3.92956 22.71991,-4.10902 22.71991,-0.24083 0,0.56499 0.92601,2.01295 2.05779,3.21768 10.8175,11.51469 10.2454,50.31641 -0.78705,53.38017 -7.0544,1.95905 -13.10648,-0.35202 -21.27074,-8.12251 -18.35359,-17.46839 -43.86979,-25.13311 -61.53221,-18.48345 -2.18228,0.8216 -5.12142,1.74469 -6.53141,2.05132 -7.93642,1.7259 -12.85183,18.60811 -8.18535,28.11295 2.928,5.96385 21.51383,21.5 25.72035,21.5 0.91306,0 2.64302,0.52639 3.84436,1.16976 1.36739,0.73229 6.55524,1.1093 13.87193,1.0081 l 11.68767,-0.16166 2.13043,2.9919 c 1.17324,1.64766 3.04648,2.9919 4.16931,2.9919 1.46189,0 1.86437,0.4548 1.4222,1.60709 -2.80141,7.30035 2.65314,11.5155 13.24451,10.23505 10.05272,-1.21532 12.00402,-0.30055 14.5474,6.81988 3.35982,9.40614 6.2292,11.47747 13.06454,9.43093 7.52515,-2.25306 8.70572,-2.36045 12.43165,-1.13078 2.84253,0.93812 4.28705,2.2989 6.13184,5.77637 3.66823,6.91467 4.26232,7.26146 12.4399,7.26146 7.04008,0 9.74113,0.76927 14.04475,4 2.06933,1.55345 5.49813,7.05047 5.49813,8.81455 0,7.4054 7.90678,10.64166 17.64081,7.22043 6.74053,-2.36911 9.76156,-1.49148 17.0993,4.96746 6.57221,5.78509 6.48903,5.77468 23.75989,2.97424 4.7948,-0.77746 8.1026,-0.82147 10.5,-0.13968 10.62298,3.02102 26.69705,1.89079 31.80537,-2.23637 3.00823,-2.43044 5.79528,-4.38904 11.69463,-8.21844 5.34158,-3.46733 10.5,-9.05304 10.5,-11.36975 0,-1.03194 1.4625,-2.90954 3.25,-4.17246 1.7875,-1.26291 3.925,-3.04082 4.75,-3.95091 6.73444,-7.42904 32.70338,-6.3507 42.07874,1.74729 0.86831,0.75 1.99331,1.37053 2.5,1.37895 4.18545,0.0696 3.12184,3.60716 -5.25696,17.48469 -11.93987,19.77563 -15.69921,27.07405 -14.95053,29.02509 0.99043,2.58101 3.65476,2.89334 5.86104,0.68706 2.04882,-2.04882 3.20162,-3.92413 11.63967,-18.93477 2.40458,-4.27756 5.55458,-9.34533 7,-11.26171 1.44542,-1.91638 3.09084,-4.39138 3.65648,-5.5 4.42971,-8.6819 23.22586,12.44076 24.92224,28.007 1.16766,10.71463 4.91662,17.09773 11.48141,19.54856 20.08689,7.49901 22.13859,14.13453 9.05487,29.28455 -5.6764,6.57285 -9.98696,13.75889 -9.98696,16.649 0,4.93937 0.29581,5.03322 -17.5,-5.55261 -8.42828,-5.01357 -11.79939,-6.00128 -13.49784,-3.95477 -1.87518,2.25945 13.25276,15.1003 21.74784,18.45993 3.5332,1.39731 4.32174,3.04267 1.45821,3.04267 -2.39411,0 -9.28489,7.30031 -12.74268,13.5 -6.30565,11.30581 -15.22112,17.374 -23.21772,15.80283 z"
       id="path2997" />
    <path
       style="fill:none;stroke:#ff0000"
       d="m 236.59868,614.45334 c 7.01841,-6.90556 7.46585,-7.59725 6.59822,-10.20012 l -0.93074,-2.79222 -3.43329,3.21586 c -1.88831,1.76873 -5.68329,5.31774 -8.43329,7.88669 -2.86669,2.67796 -5.0811,5.65788 -5.19009,6.98426 -0.35854,4.36356 3.5564,2.61237 11.38919,-5.09447 z"
       id="path2995" />
    <path
       style="fill:none;stroke:#000000"
       d="m 511.06368,745.79831 c -2.559,-1.02558 -8.94555,-5.35833 -16.48992,-11.18706 -2.66957,-2.0625 -5.5042,-3.75 -6.29916,-3.75 -2.132,0 -0.23205,-3.20893 6.51292,-11 3.09498,-3.575 7.86334,-9.2 10.59634,-12.5 2.733,-3.3 5.54209,-6.35986 6.24241,-6.79969 0.70032,-0.43983 1.27331,-1.41771 1.27331,-2.17308 0,-0.75536 1.2487,-2.6455 2.77488,-4.20031 4.69919,-4.78732 15.09445,-17.94603 16.34437,-20.68931 0.65135,-1.42954 1.90351,-2.82744 2.78258,-3.10645 0.87907,-0.27901 2.80478,-2.42516 4.27936,-4.76922 3.64528,-5.79475 8.60137,-12.86419 10.45263,-14.90981 1.1936,-1.31891 1.28297,-2.13909 0.4107,-3.76894 -1.65686,-3.09587 -3.36526,-2.56979 -7.66716,2.36098 -7.52693,8.62724 -23.36379,28.76628 -23.37179,29.72088 -0.003,0.36578 -0.88678,1.71578 -1.96382,3 -4.27023,5.09168 -13.86431,17.58081 -16.7735,21.83495 -4.49577,6.57422 -9.28974,10.68759 -13.26825,11.38453 -25.52471,4.47131 -37.15308,4.43875 -39.15838,-0.10967 -0.48964,-1.1106 -13.82271,-7.85646 -17.09162,-8.6475 -3.64509,-0.88206 -3.47967,-1.73542 1.14655,-5.91493 2.1431,-1.93617 4.2806,-4.17808 4.75,-4.98203 0.4694,-0.80395 4.67845,-4.72616 9.35345,-8.71603 4.675,-3.98986 12.56371,-11.13782 17.53047,-15.88434 4.96676,-4.74651 11.26352,-10.43003 13.99281,-12.63003 10.80376,-8.70862 20.43022,-20.14819 18.95857,-22.52937 -2.37434,-3.84177 -5.959,-1.2096 -31.48185,23.1167 -8.525,8.12533 -16.7375,15.83151 -18.25,17.12484 -1.5125,1.29333 -2.75,2.66541 -2.75,3.04907 0,0.38366 -2.11678,2.61934 -4.70395,4.96816 -2.58718,2.34883 -7.10376,6.67975 -10.03685,9.62426 l -5.33289,5.35365 -3.45632,-2.35365 c -1.90098,-1.29451 -3.4594,-2.59707 -3.46316,-2.89458 -0.0117,-0.92453 -9.91684,-16.28534 -10.89025,-16.88848 -1.2409,-0.76887 1.06323,-14.33849 4.30201,-25.33571 1.41978,-4.82081 2.58141,-9.41831 2.58141,-10.21667 0,-3.67195 12.82656,-13.1846 43.84656,-32.51822 3.97103,-2.475 9.7056,-6.39028 12.74347,-8.70062 3.03788,-2.31033 6.45923,-4.49763 7.603,-4.86064 7.272,-2.30805 17.56567,-14.43874 12.2522,-14.43874 -1.78165,0 -12.57451,6.22135 -19.94523,11.49707 -2.75,1.96836 -7.925,5.44706 -11.5,7.73044 -3.575,2.28338 -7.93293,5.37659 -9.68429,6.8738 -1.75137,1.49721 -4.22637,3.04621 -5.5,3.44222 -3.01766,0.93827 -13.17378,7.88292 -18.54337,12.67976 -2.32521,2.07719 -4.88057,3.77671 -5.67857,3.77671 -0.798,0 -2.04556,0.58061 -2.77234,1.29024 -0.72679,0.70963 -3.739,2.90043 -6.69381,4.86845 l -5.37239,3.57823 -5.77323,-5.61846 c -7.30891,-7.11297 -10.44065,-16.83308 -6.482,-20.11846 0.825,-0.68469 1.5,-2.23635 1.5,-3.44813 0,-2.45803 3.82052,-6.55187 6.11445,-6.55187 0.81705,0 2.0334,-0.54785 2.70299,-1.21744 0.78779,-0.78779 3.89949,-1.13747 8.81713,-0.99083 15.65446,0.46681 18.48104,-4.68826 18.11045,-33.0296 -0.24502,-18.73788 -0.24502,-18.73788 2.25498,-21.0092 6.54314,-5.94463 10.45707,-6.75833 20.30497,-4.22136 11.69012,3.01155 16.86883,-9.67199 10.31439,-25.2617 -3.65857,-8.70188 -2.62827,-16.71468 2.71807,-21.13892 2.79894,-2.31619 19.19056,-1.87641 21.40588,0.57432 14.53951,16.08454 25.25669,13.21946 25.25669,-6.75201 0,-6.56447 0.41847,-11.09385 1.06168,-11.49138 0.58393,-0.36089 1.47279,-1.73745 1.97525,-3.05902 0.50246,-1.32157 1.58387,-2.40286 2.40314,-2.40286 0.81926,0 1.97123,-0.9 2.55993,-2 1.10907,-2.07232 11,-3.09099 11,-1.13289 0,0.47692 1.74548,2.02222 3.87885,3.43402 2.32789,1.54052 4.76049,4.38812 6.08376,7.12162 7.56517,15.62757 17.67909,16.59404 29.62072,2.83049 15.00961,-17.29959 28.77257,-12.25007 29.86269,10.95638 0.81975,17.45096 3.3999,19.25589 19.71337,13.79038 22.40138,-7.50515 31.06703,1.74176 20.69712,22.08543 -9.74963,19.12682 -8.66184,22.06952 8.64349,23.38233 16.86968,1.27977 22.49998,5.15585 22.49998,15.48953 0,6.82986 -8.17792,19.04271 -12.75122,19.04271 -0.5844,0 -2.90443,2.19995 -5.15564,4.88878 -7.28465,8.70071 -6.0352,12.66321 7.28734,23.11122 18.52142,14.52514 12.03272,28.79394 -13.11475,28.83959 -19.24447,0.0349 -23.33786,5.23935 -15.22193,19.35346 6.71756,11.68225 7.14574,16.7668 1.93621,22.99201 -3.51644,4.20203 -14.68956,4.72189 -21.00057,0.97712 -12.64329,-7.50216 -22.15683,-5.40492 -23.44238,5.16785 -2.49675,20.53407 -10.77992,26.13337 -27.09392,18.31509 -17.23881,-8.26148 -31.20793,-1.31634 -32.89545,16.35488 -1.56351,16.37268 -8.50188,23.89738 -18.38357,19.93706 z"
       id="path2993" />
    <path
       style="fill:none;stroke:#000000"
       d="m 314.81625,584.44699 c -0.22917,-0.22784 -5.36667,-0.51242 -11.41667,-0.63241 -17.09902,-0.33912 -17.69352,-0.49828 -23.44082,-6.27579 -5.89592,-5.92691 -7.17834,-14.43792 -3.1732,-21.05951 1.03729,-1.71491 2.22704,-4.24303 2.64389,-5.61803 0.41684,-1.375 1.81815,-3.89248 3.11402,-5.59439 1.29586,-1.70192 2.35611,-3.61442 2.35611,-4.25 0,-0.63559 0.68274,-1.94311 1.51719,-2.90561 6.40804,-7.39134 12.48281,-17.43884 12.48281,-20.64623 0,-0.89406 0.85247,-3.53316 1.89438,-5.86467 3.07649,-6.88433 4.45815,-15.96504 3.72948,-24.51136 -1.36696,-16.03261 -1.92997,-19.78273 -3.25788,-21.70025 -0.75129,-1.08487 -1.36473,-2.88487 -1.3632,-4 0.002,-1.11512 -0.85496,-3.82749 -1.90331,-6.02749 -4.36153,-9.15289 -6.13281,-22.74401 -3.36143,-25.79242 9.1697,-10.08633 4.76331,-20.59621 -10.81298,-25.79058 -4.60467,-1.53556 -7.92174,-6.33355 -7.93588,-11.47888 -0.006,-2.16597 -0.68096,-6.14714 -1.5,-8.84705 -0.81905,-2.69991 -1.48918,-6.12881 -1.48918,-7.61978 0,-6.10927 -9.38525,-20.7062 -16.19185,-25.18326 -11.03953,-7.2613 -16.01539,-14.5246 -16.29805,-23.79041 -0.16329,-5.35275 -0.96595,-8.17029 -4.42099,-15.51888 -4.08713,-8.69302 -5.58005,-19.50472 -2.96585,-21.47874 1.36952,-1.03415 8.88023,-11.48875 8.96081,-12.47309 0.0462,-0.5648 0.20637,-3.63955 0.35586,-6.83277 0.14949,-3.19323 0.78666,-6.32073 1.41593,-6.95 0.62928,-0.62928 1.14414,-1.8015 1.14414,-2.60494 0,-3.87796 13.95268,-12.1392 20.50231,-12.1392 1.78939,0 4.85799,-0.67042 6.81909,-1.48982 7.00512,-2.92693 19.9949,-3.15389 22.61002,-0.39505 6.69817,7.06626 4.17361,11.68959 -10.46394,19.16301 -3.84926,1.96529 -6.89015,8.67949 -8.47922,18.72186 -0.65273,4.125 -2.26711,10.11716 -3.58752,13.31591 -1.32041,3.19876 -2.40074,6.71584 -2.40074,7.81575 0,1.0999 -0.47869,2.89426 -1.06375,3.98745 -1.49706,2.79729 2.71652,9.72356 8.0709,13.26693 5.78792,3.83026 9.8244,8.5528 10.57725,12.37501 0.35328,1.79357 0.98096,3.47033 1.39485,3.72613 0.41389,0.2558 0.54789,1.5356 0.29777,2.844 -0.75249,3.93641 3.96446,15.84881 7.46555,18.85381 3.47847,2.98559 13.85765,8.82452 18.75743,10.55221 2.75,0.96966 6.54981,2.86829 8.44403,4.21917 1.89421,1.35087 4.39684,2.47582 5.56139,2.49988 4.65011,0.0961 8.15696,6.22462 9.46661,16.54375 1.40969,11.10743 2.19327,12.58154 9.59411,18.04886 10.86995,8.0301 12.34308,18.24925 4.96627,34.45114 -1.22584,2.69235 -2.15475,6.17579 -5.73327,21.5 -1.56859,6.71713 -1.60582,32.59071 -0.0491,34.14884 0.6875,0.68814 1.25,2.3631 1.25,3.72213 0,2.41592 4.21585,11.65141 8.04737,17.62903 1.05762,1.65 2.3844,4.05438 2.94842,5.34307 0.56401,1.28869 2.8192,5.36234 5.01152,9.05256 6.23143,10.48906 12.53035,31.03601 9.99486,32.60303 -0.5512,0.34066 -1.00217,1.40819 -1.00217,2.3723 0,4.42864 -8.27673,7.79205 -22.5,9.14331 -6.05,0.57476 -13.8125,1.32176 -17.25,1.65998 l -6.25,0.61496 -0.0614,-12.39461 c -0.0673,-13.58072 -1.77541,-26.00689 -3.66126,-26.6355 -2.11822,-0.70608 -2.78086,4.83304 -2.63074,21.9909 l 0.14656,16.75 -3.22989,0 c -1.77644,0 -3.41739,-0.18642 -3.64655,-0.41426 z"
       id="path2991" />
    <path
       style="fill:none;stroke:#000000"
       d="m 408.89958,522.40246 c -2.07189,-1.14261 -17.2934,-10.97904 -24.39481,-15.76438 -3.48426,-2.34789 -11.08953,-9.06074 -12.45885,-10.99689 -1.40897,-1.99222 -1.33618,-2.82296 1.24103,-14.16432 1.07275,-4.72077 1.37249,-9.15475 0.95375,-14.10845 -1.10306,-13.0492 -0.16209,-15.90063 7.87242,-23.85586 7.09309,-7.02308 10.72576,-15.23393 10.77465,-24.35369 0.0124,-2.31805 6.23468,-9.09129 14.60009,-15.89295 14.2776,-11.60869 17.26586,-16.40944 18.92559,-30.40467 1.59034,-13.4102 4.49187,-18.30611 13.75084,-23.20257 6.63503,-3.50883 9.37455,-7.85779 7.73305,-12.27614 -3.23474,-8.70684 -3.01075,-22.56442 0.5268,-32.59091 3.29514,-9.3394 0.0577,-16.84368 -9.17931,-21.27712 -9.52032,-4.56943 -17.06016,-20.62125 -11.34525,-24.15326 0.55,-0.33992 1,-1.95567 1,-3.59056 0,-1.63489 0.837,-5.54584 1.86,-8.69099 1.023,-3.14515 1.94138,-7.81052 2.04085,-10.36749 0.0995,-2.55697 0.58518,-6.05884 1.07935,-7.78193 0.49418,-1.72308 0.69136,-6.15601 0.43818,-9.85096 -1.63499,-23.86183 -2.44334,-32.24152 -3.49382,-36.21807 -0.65382,-2.475 -1.378,-8.325 -1.60929,-13 l -0.42053,-8.5 5.12631,-5.3508 c 4.52073,-4.71871 5.50154,-5.29417 8.30263,-4.87136 1.74698,0.2637 7.00132,1.03891 11.67632,1.72271 10.9987,1.60873 21.00622,6.45984 20.99657,10.17802 -0.003,1.34716 -4.073,11.70263 -7.78945,19.82143 -4.17652,9.12385 -9.17493,23.92032 -8.59291,25.43704 1.84299,4.80274 9.35209,-5.96145 14.86168,-21.30398 0.71756,-1.99818 2.42514,-5.88306 3.79463,-8.63306 1.36948,-2.75 3.26831,-6.68366 4.21962,-8.74147 2.05678,-4.4491 3.13343,-4.38187 13.94984,0.87109 3.81699,1.85371 7.6592,3.37038 8.53824,3.37038 1.63742,0 7.68169,6.60554 9.97056,10.89642 2.50516,4.69636 -0.36473,13.86663 -8.95163,28.60358 -1.28189,2.2 -3.44339,6.025 -4.80333,8.5 -1.35994,2.475 -4.38891,7.875 -6.73105,12 -7.63768,13.45159 -10.96739,26.28635 -10.12987,39.04678 0.91588,13.95436 3.8384,28.17727 6.7712,32.95322 0.50662,0.825 1.81491,3.525 2.90732,6 1.0924,2.475 2.43392,5.175 2.98114,6 12.32052,18.57456 12.07571,29.82959 -0.73031,33.57568 -15.08559,4.41293 -16.78328,6.29966 -15.82793,17.5904 0.31023,3.66635 0.79835,7.27666 1.08471,8.02292 0.28637,0.74626 -0.77579,3.37153 -2.36036,5.83392 -2.86743,4.45594 -3.75418,5.0381 -17.42646,11.44062 -11.02842,5.16444 -20.29057,17.07824 -21.79641,28.03646 -2.15269,15.66544 -5.82358,22.5 -12.08491,22.5 -8.7465,0 -11.32777,4.28943 -11.4337,19 -0.0455,6.325 -0.57752,14.875 -1.18216,19 -1.22213,8.33753 -1.01761,9.2895 5.41979,25.22788 l 3.52513,8.72789 -2.17252,2.77211 c -3.43009,4.37676 -7.46027,5.32102 -12.00743,2.81333 z"
       id="path2989" />
    <g
       id="g3002"
       style="fill:none;stroke:#000000">
      <path
         id="path2987"
         d="m 598.89958,444.86125 c -3.575,-0.4427 -7.85,-1.10111 -9.5,-1.46313 -1.65,-0.36202 -4.05009,-0.87393 -5.33354,-1.13756 -2.97198,-0.61049 -13.63766,-11.09932 -14.64209,-14.39931 -0.41851,-1.375 -1.43906,-3.2727 -2.26788,-4.21712 -0.87978,-1.00248 -1.26671,-2.6358 -0.9297,-3.92451 0.31748,-1.21407 0.19197,-4.26637 -0.27891,-6.78289 -0.47088,-2.51651 -1.62558,-9.07548 -2.56598,-14.57548 -2.54378,-14.87741 -5.01717,-19.80913 -10.59494,-21.12535 -6.4966,-1.53303 -11.92716,-2.2609 -17.27229,-2.31504 -10.6551,-0.10792 -15.03046,-8.22718 -9.90857,-18.38711 1.41284,-2.80256 2.87767,-3.60798 24.461,-13.44972 13.42326,-6.12084 15.68779,-20.22316 6.29834,-39.22278 -1.96842,-3.98312 -8.55575,-19.98854 -10.70079,-26 -2.5364,-7.10828 -4.37447,-13.76535 -6.76465,-24.5 -0.48985,-2.2 -1.36186,-6.025 -1.9378,-8.5 -1.11518,-4.7923 -3.2167,-16.88865 -4.98482,-28.69263 -2.48833,-16.61218 -0.98663,-42.27526 2.72477,-46.56426 0.83616,-0.96628 2.01176,-2.76628 2.61245,-4 1.02977,-2.11499 19.27839,-11.95572 20.68376,-11.1539 0.32909,0.18776 0.88863,5.1945 1.24341,11.12609 2.21741,37.07296 3.08358,43.2847 6.03565,43.2847 3.67573,0 4.5659,-13.44374 2.51364,-37.96216 -1.42553,-17.03087 -2.39749,-16.03271 16.31103,-16.75071 14.17288,-0.54392 14.58208,-0.50078 19.71774,2.07871 2.88447,1.44879 5.7852,2.63416 6.44605,2.63416 1.11041,0 9.10272,4.71553 14.38412,8.48674 3.42555,2.44604 2.84862,4.28696 -5,15.95442 -3.9875,5.92767 -8.65658,12.97737 -10.37573,15.66601 -1.71915,2.68863 -3.73013,5.61669 -4.46885,6.50679 -6.45838,7.78187 -1.62253,14.38363 5.00604,6.8341 2.79101,-3.17878 15.52365,-21.346 22.08854,-31.51642 2.53954,-3.9343 4.59121,-4.98003 5.17668,-2.63854 0.34905,1.39601 16.2982,15.87329 21.49458,19.51091 13.26972,9.28929 10.06362,22.58818 -7.46012,30.94481 -17.68338,8.43275 -16.8687,30.25017 1.51451,40.55936 18.76483,10.52316 20.41943,18.05715 7.36711,33.54444 -5.69349,6.75566 -6.80363,14.74287 -3.2101,23.09622 1.1645,2.70706 2.1173,5.64875 2.1173,6.5371 0,0.88834 2.7,7.49299 6.00002,14.67698 6.2511,13.60839 7.6861,21.527 5.0814,28.04003 -0.5053,1.26338 -1.1897,2.97205 -1.521,3.79705 -1.921,4.78393 -6.34272,11.61676 -8.08112,12.48765 -1.1114,0.55679 -3.4624,2.04731 -5.22446,3.31225 -3.68375,2.64453 -14.88734,6.11098 -25.28415,7.82306 -4.3874,0.72249 -6.91897,2.51239 -7.44946,5.267 -0.22429,1.16466 -0.69031,2.57466 -1.0356,3.13335 -1.05381,1.70511 1.39685,7.48988 4.3864,10.35405 8.19476,7.85108 8.52016,18.69705 0.62801,20.93239 -1.65,0.46734 -4.35,1.27998 -6,1.80588 -4.40728,1.4047 -14.08387,1.80273 -21.5,0.88437 z"
         style="fill:none;stroke:#000000" />
      <path
         id="path2985"
         d="m 606.58513,396.68694 c 1.27295,-1.19588 2.31468,-2.88338 2.31495,-3.75 10e-4,-3.11052 5.73622,-16.77125 10.5276,-25.07569 9.03536,-15.66012 -5.82565,-25.30095 -29.93069,-19.41702 -18.43292,4.4994 -22.13869,22.88031 -6.26755,31.0876 3.81241,1.97147 11.67014,9.89109 11.67014,11.76205 0,5.19005 7.98093,8.87337 11.68555,5.39306 z"
         style="fill:none;stroke:#000000" />
    </g>
    <path
       style="fill:none;stroke:#000000"
       d="m 322.22747,322.90108 c -4.61472,-0.78533 -7.32789,-4.76943 -7.32789,-10.76047 0,-5.3275 1.4213,-7.22622 9.2347,-12.33665 6.70003,-4.38222 8.43463,-16.0698 8.6716,-58.42873 0.2438,-43.57835 -0.91799,-49.42603 -11.34009,-57.07847 -7.43884,-5.46197 -8.96722,-8.41357 -7.31264,-14.12208 2.13485,-7.36551 3.09064,-7.78869 21.24643,-9.40696 6.05,-0.53924 12.01182,-1.48948 13.24849,-2.11163 3.55809,-1.79002 3.00995,-4.69685 5.36996,28.47711 1.25723,17.67251 2.282,21.30044 5.30743,18.78957 1.4641,-1.2151 1.58522,-3.82136 1.11628,-24.0188 l -0.52601,-22.6558 14.74192,-0.16635 c 33.5327,-0.3784 39.8657,8.55559 19.98666,28.19526 l -8.01232,7.91583 0.66279,41.08417 c 0.88482,54.84637 0.7381,54.27376 15.68366,61.20888 5.40391,2.50754 9.07713,6.73531 8.46754,9.74589 -0.23714,1.17117 -0.699,3.79829 -1.02634,5.83805 -1.05881,6.59771 -4.33947,7.96767 -20.18612,8.42946 -7.43283,0.21661 -15.57313,0.85523 -18.08954,1.41917 -5.74804,1.28816 -5.93186,1.01275 -6.67166,-9.99656 -1.21245,-18.04294 -2.99143,-25.97567 -5.30607,-23.66057 -0.42167,0.42175 -0.69734,8.28336 -0.6126,17.47025 l 0.15406,16.70342 -17.15406,0.003 c -9.43474,0.002 -18.58152,-0.24 -20.32618,-0.53691 z"
       id="path3980" />
    <path
       style="fill:none;stroke:#ff0000;stroke-width:1px;stroke-linecap:butt;stroke-linejoin:miter;stroke-opacity:1"
       d="M 494.73768,714.79579 548.692,646.53184"
       id="path2994"
       inkscape:connector-curvature="0" />
    <path
       style="fill:none;stroke:#ff0000;stroke-width:1px;stroke-linecap:butt;stroke-linejoin:miter;stroke-opacity:1"
       d="m 425.76998,701.4245 69.67145,-65.21435"
       id="path2996"
       inkscape:connector-curvature="0"
       sodipodi:nodetypes="cc" />
    <path
       style="fill:none;stroke:#ff0000;stroke-width:1px;stroke-linecap:butt;stroke-linejoin:miter;stroke-opacity:1"
       d="m 412.63327,635.27181 78.11648,-53.95432"
       id="path2998"
       inkscape:connector-curvature="0" />
    <path
       style="fill:none;stroke:#ff0000;stroke-width:1px;stroke-linecap:butt;stroke-linejoin:miter;stroke-opacity:1"
       d="m 641.82185,859.06496 -24.8659,-16.42088"
       id="path3000"
       inkscape:connector-curvature="0" />
    <path
       style="fill:none;stroke:#ff0000;stroke-width:1px;stroke-linecap:butt;stroke-linejoin:miter;stroke-opacity:1"
       d="m 610.3876,752.56382 -25.80425,44.10179"
       id="path3002"
       inkscape:connector-curvature="0" />
    <path
       style="fill:none;stroke:#ff0000;stroke-width:1px;stroke-linecap:butt;stroke-linejoin:miter;stroke-opacity:1"
       d="m 469.16802,848.27409 13.13671,-29.08841"
       id="path3004"
       inkscape:connector-curvature="0" />
    <path
       style="fill:none;stroke:#ff0000;stroke-width:1px;stroke-linecap:butt;stroke-linejoin:miter;stroke-opacity:1"
       d="m 426.9429,833.26072 9.38336,-25.33508 0,0 0,0"
       id="path3006"
       inkscape:connector-curvature="0" />
    <path
       style="fill:none;stroke:#ff0000;stroke-width:1px;stroke-linecap:butt;stroke-linejoin:miter;stroke-opacity:1"
       d="m 380.49526,812.14816 6.56836,-18.76673"
       id="path3008"
       inkscape:connector-curvature="0"
       sodipodi:nodetypes="cc" />
    <path
       style="fill:none;stroke:#ff0000;stroke-width:1px;stroke-linecap:butt;stroke-linejoin:miter;stroke-opacity:1"
       d="m 336.39347,795.25811 9.38336,-24.39674"
       id="path3010"
       inkscape:connector-curvature="0" />
    <path
       style="fill:none;stroke:#ff0000;stroke-width:1px;stroke-linecap:butt;stroke-linejoin:miter;stroke-opacity:1"
       d="m 294.63752,764.76219 11.7292,-15.48255"
       id="path3012"
       inkscape:connector-curvature="0"
       sodipodi:nodetypes="cc" />
    <path
       style="fill:none;stroke:#ff0000;stroke-width:1px;stroke-linecap:butt;stroke-linejoin:miter;stroke-opacity:1"
       d="M 261.32659,586.94751 225.66982,620.7276"
       id="path3014"
       inkscape:connector-curvature="0" />
    <path
       style="fill:none;stroke:#ff0000;stroke-width:1px;stroke-linecap:butt;stroke-linejoin:miter;stroke-opacity:1"
       d="m 363.60522,322.80591 -1.87668,-33.7801"
       id="path3016"
       inkscape:connector-curvature="0" />
    <path
       style="fill:none;stroke:#ff0000;stroke-width:1px;stroke-linecap:butt;stroke-linejoin:miter;stroke-opacity:1"
       d="m 355.62936,158.5971 2.34584,46.9168"
       id="path3018"
       inkscape:connector-curvature="0"
       sodipodi:nodetypes="cc" />
    <path
       style="fill:none;stroke:#ff0000;stroke-width:1px;stroke-linecap:butt;stroke-linejoin:miter;stroke-opacity:1"
       d="m 479.48972,164.22712 -19.23589,44.57096"
       id="path3020"
       inkscape:connector-curvature="0" />
    <path
       style="fill:none;stroke:#ff0000;stroke-width:1px;stroke-linecap:butt;stroke-linejoin:miter;stroke-opacity:1"
       d="m 630.09265,173.14131 -27.68091,41.75595"
       id="path3022"
       inkscape:connector-curvature="0" />
    <path
       style="fill:none;stroke:#ff0000;stroke-width:1px;stroke-linecap:butt;stroke-linejoin:miter;stroke-opacity:1"
       d="m 562.53246,156.72043 2.81501,52.54682"
       id="path3024"
       inkscape:connector-curvature="0" />
    <path
       style="fill:none;stroke:#ff0000;stroke-width:1px;stroke-linecap:butt;stroke-linejoin:miter;stroke-opacity:1"
       d="m 293.69918,791.97393 -26.27341,34.71843"
       id="path3026"
       inkscape:connector-curvature="0" />
    <path
       style="fill:none;stroke:#ff0000;stroke-width:1px;stroke-linecap:butt;stroke-linejoin:miter;stroke-opacity:1"
       d="m 154.35628,695.79449 -22.52007,40.34845"
       id="path3028"
       inkscape:connector-curvature="0" />
    <path
       style="fill:none;stroke:#ff0000;stroke-width:1px;stroke-linecap:butt;stroke-linejoin:miter;stroke-opacity:1"
       d="m 143.09625,860.00329 30.96509,-45.5093"
       id="path3030"
       inkscape:connector-curvature="0"
       sodipodi:nodetypes="cc" />
    <path
       style="fill:none;stroke:#ff0000;stroke-width:1px;stroke-linecap:butt;stroke-linejoin:miter;stroke-opacity:1"
       d="m 324.1951,584.1325 -0.46917,-37.53344"
       id="path3032"
       inkscape:connector-curvature="0" />
  </g>
</svg>
