<?xml version="1.0" encoding="UTF-8" standalone="no"?>
<!-- Created with Inkscape (http://www.inkscape.org/) -->

<svg
   xmlns:dc="http://purl.org/dc/elements/1.1/"
   xmlns:cc="http://creativecommons.org/ns#"
   xmlns:rdf="http://www.w3.org/1999/02/22-rdf-syntax-ns#"
   xmlns:svg="http://www.w3.org/2000/svg"
   xmlns="http://www.w3.org/2000/svg"
   xmlns:sodipodi="http://sodipodi.sourceforge.net/DTD/sodipodi-0.dtd"
   xmlns:inkscape="http://www.inkscape.org/namespaces/inkscape"
   width="1597.8369"
   height="1250.2334"
   id="svg2"
   version="1.1"
   inkscape:version="0.48.3.1 r9886"
   sodipodi:docname="Triceratops.svg">
  <defs
     id="defs4" />
  <sodipodi:namedview
     id="base"
     pagecolor="#ffffff"
     bordercolor="#666666"
     borderopacity="1.0"
     inkscape:pageopacity="0.0"
     inkscape:pageshadow="2"
     inkscape:zoom="0.35355339"
     inkscape:cx="700.38307"
     inkscape:cy="538.05455"
     inkscape:document-units="px"
     inkscape:current-layer="layer1"
     showgrid="false"
     inkscape:window-width="1280"
     inkscape:window-height="973"
     inkscape:window-x="0"
     inkscape:window-y="0"
     inkscape:window-maximized="1"
     fit-margin-top="5"
     fit-margin-left="5"
     fit-margin-right="5"
     fit-margin-bottom="5" />
  <metadata
     id="metadata7">
    <rdf:RDF>
      <cc:Work
         rdf:about="">
        <dc:format>image/svg+xml</dc:format>
        <dc:type
           rdf:resource="http://purl.org/dc/dcmitype/StillImage" />
        <dc:title />
      </cc:Work>
    </rdf:RDF>
  </metadata>
  <g
     inkscape:label="Layer 1"
     inkscape:groupmode="layer"
     id="layer1"
     transform="translate(-1045.5336,140.27985)">
    <g
       id="g3002"
       style="fill:none;stroke:#000000" />
    <g
       id="g3034"
       transform="matrix(0.67442906,-0.73833966,0.73833966,0.67442906,746.47534,290.3348)">
      <path
         sodipodi:nodetypes="ccccssccsscccsssssssssssscccsssssssssssssssssc"
         inkscape:connector-curvature="0"
         id="path2993"
         d="m 511.06368,745.79831 c -9.69816,-3.30166 -13.35785,-8.09381 -22.78908,-14.93706 -2.132,0 -0.23205,-3.20893 6.51292,-11 64.78626,-132.74477 62.83914,-25.1237 -7.88794,-4.61547 -8.12346,1.42303 -15.90003,10.16805 -21.34616,10.67831 -11.66616,1.09305 -20.33421,-3.44449 -21.70131,-6.54534 -0.48964,-1.1106 -7.10519,-7.85646 -10.3741,-8.6475 L 417.8947,694.94714 c -7.12071,-4.39653 -11.76532,-10.76581 -12.23209,-21.90438 -0.56141,-13.39698 1.41678,-10.4494 4.65556,-21.44662 1.41978,-4.82081 2.58141,-9.41831 2.58141,-10.21667 81.88094,-58.69057 59.30566,-50.58534 -3.87238,-8.35953 l -8.20082,3.57823 -2.9448,-5.61846 c -4.73456,-9.03318 -10.44065,-16.83308 -6.482,-20.11846 0.825,-0.68469 1.5,-2.23635 1.5,-3.44813 0,-2.45803 3.82052,-6.55187 6.11445,-6.55187 0.81705,0 2.0334,-0.54785 2.70299,-1.21744 0.78779,-0.78779 3.89949,-1.13747 8.81713,-0.99083 15.65446,0.46681 18.48104,-4.68826 18.11045,-33.0296 -0.24502,-18.73788 -0.24502,-18.73788 2.25498,-21.0092 6.54314,-5.94463 10.45707,-6.75833 20.30497,-4.22136 11.69012,3.01155 16.86883,-9.67199 10.31439,-25.2617 -3.65857,-8.70188 -2.62827,-16.71468 2.71807,-21.13892 2.79894,-2.31619 19.19056,-1.87641 21.40588,0.57432 14.53951,16.08454 25.25669,13.21946 25.25669,-6.75201 -0.98131,-7.71596 1.03218,-9.41627 3.03693,-14.5504 8.51277,-8.65564 13.3579,-6.43709 19.84192,-2.10173 2.32789,1.54052 4.76049,4.38812 6.08376,7.12162 7.56517,15.62757 17.67909,16.59404 29.62072,2.83049 15.00961,-17.29959 28.77257,-12.25007 29.86269,10.95638 0.81975,17.45096 3.3999,19.25589 19.71337,13.79038 22.40138,-7.50515 31.06703,1.74176 20.69712,22.08543 -9.74963,19.12682 -8.66184,22.06952 8.64349,23.38233 16.86968,1.27977 22.49998,5.15585 22.49998,15.48953 0,6.82986 -8.17792,19.04271 -12.75122,19.04271 -0.5844,0 -2.90443,2.19995 -5.15564,4.88878 -7.28465,8.70071 -6.0352,12.66321 7.28734,23.11122 18.52142,14.52514 12.03272,28.79394 -13.11475,28.83959 -19.24447,0.0349 -23.33786,5.23935 -15.22193,19.35346 6.71756,11.68225 7.14574,16.7668 1.93621,22.99201 -3.51644,4.20203 -14.68956,4.72189 -21.00057,0.97712 -12.64329,-7.50216 -22.15683,-5.40492 -23.44238,5.16785 -2.49675,20.53407 -10.77992,26.13337 -27.09392,18.31509 -17.23881,-8.26148 -31.20793,-1.31634 -32.89545,16.35488 -1.56351,16.37268 -8.50188,23.89738 -18.38357,19.93706 z"
         style="fill:#ffffff;stroke:#000000" />
      <path
         inkscape:connector-curvature="0"
         id="path2994"
         d="M 494.73768,714.79579 548.692,646.53184"
         style="fill:none;stroke:#ff0000;stroke-width:1px;stroke-linecap:butt;stroke-linejoin:miter;stroke-opacity:1" />
      <path
         sodipodi:nodetypes="cc"
         inkscape:connector-curvature="0"
         id="path2996"
         d="m 425.76998,701.4245 69.67145,-65.21435"
         style="fill:none;stroke:#ff0000;stroke-width:1px;stroke-linecap:butt;stroke-linejoin:miter;stroke-opacity:1" />
      <path
         inkscape:connector-curvature="0"
         id="path2998"
         d="m 412.63327,635.27181 78.11648,-53.95432"
         style="fill:none;stroke:#ff0000;stroke-width:1px;stroke-linecap:butt;stroke-linejoin:miter;stroke-opacity:1" />
    </g>
    <g
       id="g3067"
       transform="matrix(-0.61823085,0.78599658,-0.78599658,-0.61823085,2801.6614,492.85189)">
      <path
         sodipodi:nodetypes="sssssssscsssssssssssssssscsssssssssssssssscssssssssssssssssssssssscccscsccsssssccssssssssssssscsssssssssssssccscsssccscccccsssccssccccsssssssssssssssssssscssssssssssssssss"
         inkscape:connector-curvature="0"
         id="path2997"
         d="m 603.14739,894.16408 c -1.23871,-0.24338 -2.71704,-1.31108 -3.28519,-2.37267 -0.56814,-1.06159 -1.69086,-1.93016 -2.49492,-1.93016 -0.80407,0 -3.15073,-1.51006 -5.21482,-3.35568 -5.32218,-4.7589 -7.41497,-5.6414 -13.43714,-5.66628 -9.43193,-0.039 -13.81574,-2.84964 -13.81574,-8.85795 0,-12.85156 -18.2639,-17.21879 -21.41243,-5.12009 -2.62496,10.08683 -3.00772,10.82993 -6.41532,12.4549 -5.52592,2.63513 -13.44857,-0.98447 -13.77419,-6.29297 -0.0561,-0.91406 -0.16857,-3.54934 -0.25,-5.85617 -0.45354,-12.84776 -16.14806,-10.81325 -16.14806,2.09331 0,6.54168 -6.2847,9.26638 -12.34229,5.35093 -3.31272,-2.14124 -4.99994,-4.5385 -10.34915,-14.70433 -3.33001,-6.32847 -6.17854,-9.04567 -9.48287,-9.04567 -3.35463,0 -3.36051,-0.0313 -0.90749,-4.83966 1.64968,-3.23364 7.58906,-17.98363 9.44189,-23.44819 0.74832,-2.20705 -1.81071,-3.41299 -3.77793,-1.78034 -0.7658,0.63556 -3.96046,6.87341 -7.09923,13.86188 -6.83675,15.22199 -5.90724,14.11391 -9.24336,11.01905 -1.50676,-1.39779 -3.86457,-2.85787 -5.23957,-3.2446 -1.375,-0.38674 -3.85,-1.07002 -5.5,-1.5184 -1.65,-0.44838 -6.46243,-1.7635 -10.69428,-2.92248 -4.23186,-1.15899 -8.39436,-1.83861 -9.25,-1.51027 -2.17007,0.83274 -2.01234,-2.00275 0.51243,-9.21176 1.89844,-5.42067 2.70282,-8.20973 4.48126,-15.53801 0.37777,-1.55665 0.17379,-2.92026 -0.49905,-3.33609 -2.38789,-1.47581 -5.03821,2.72332 -10.07887,15.96887 -1.25584,3.3 -2.6376,6.40193 -3.07059,6.89318 -0.69441,0.78784 -11.64746,-2.54843 -14.4009,-4.38648 -0.55,-0.36716 -5.95,-2.63177 -12,-5.03248 -12.5366,-4.97466 -14.76598,-6.42581 -13.56258,-8.82814 0.45352,-0.90534 1.61838,-4.79608 2.5886,-8.64608 4.38613,-17.40507 -3.13883,-13.81827 -8.62282,4.11009 -1.55465,5.08248 -1.17089,5.1499 -18.9032,-3.32093 -7.425,-3.54697 -14.20231,-6.50241 -15.06069,-6.56764 -4.20843,-0.31982 -4.84861,-3.88507 -1.92896,-10.74263 3.78856,-8.89847 5.37668,-14.52793 4.64001,-16.44766 -1.15853,-3.01909 -4.2865,0.12881 -7.14086,7.18636 -3.87146,9.57238 -4.25908,10.56632 -4.88744,12.53241 -0.60063,1.87934 -5.62206,2.52043 -5.62206,0.71778 0,-0.56773 -0.7875,-1.35912 -1.75,-1.75866 -0.9625,-0.39954 -4.3777,-2.29754 -7.58932,-4.21778 -8.82867,-5.27867 -12.90483,-7.70398 -15.66068,-9.3181 -7.9322,-2.65518 -10.57369,-13.16649 -16.83382,-17.03422 -5.75063,-3.55294 -7.78498,-0.66356 -16.78789,6.61035 -12.97083,10.4798 -24.09399,0.91772 -17.31879,-14.88817 2.56815,-5.99125 1.46178,-9.88517 -2.58864,-9.11088 -1.6491,0.31525 -2.47086,0.0196 -2.47086,-0.88899 0,-0.74873 -0.29408,-1.36133 -0.65351,-1.36133 -1.50697,0 -11.34649,5.12971 -11.34649,5.91535 0,1.99794 -6.8965,4.21018 -9.23838,2.96347 -8.98615,-4.78383 -9.46086,-7.00243 -3.80165,-17.76716 6.92,-13.16295 -1.10357,-16.56671 -16.578,-7.03272 -13.85937,8.53893 -21.81086,-9.02172 -11.12129,-24.56107 5.08383,-7.39034 2.24293,-14.43851 -4.45245,-11.04638 -18.02853,9.13393 -34.01397,-3.07643 -20.85263,-15.92813 9.33754,-9.11787 6.50071,-13.25173 -8.14021,-11.86199 -11.76541,1.11679 -14.10056,0.60163 -16.26749,-3.58875 -3.16614,-6.12263 -0.67467,-13.45938 5.65788,-16.66104 12.64459,-6.39297 9.35301,-18.00323 -4.12473,-14.54899 -12.20849,3.12894 -20.08984,-10.53734 -10.57381,-18.33501 6.77622,-5.5526 7.49276,-6.46466 7.49276,-9.53722 0,-7.06488 -3.4063,-9.01036 -15.77603,-9.01036 -17.09715,0 -20.26163,-16.69129 -4.04184,-21.319 10.46755,-2.98652 11.97219,-3.80609 13.44088,-7.32115 2.87853,-6.8893 -0.8004,-11.6518 -9.87677,-12.78582 -9.76476,-1.22002 -13.78586,-4.26264 -13.9651,-10.56687 0.14179,-12.99833 12.10078,-8.93393 17.18378,-16.94161 2.53344,-4.73377 -2.15169,-11.06555 -8.18783,-11.06555 -6.91377,-0.1283 -17.76602,-10.67126 -13.16512,-16.09293 3.40986,-4.01815 5.85148,-7.80385 10.75214,-7.90707 12.11208,0 15.82717,-12.18324 5.43915,-17.8371 -13.36558,-7.27445 -12.03289,-19.4239 2.59716,-23.67697 9.84901,-5.15237 5.55367,-15.34731 -1.65042,-19.09573 -11.54191,-5.89937 -6.85338,-18.97053 7.51897,-20.96213 4.77448,-0.66161 8.73103,-3.8554 8.73103,-7.04783 0,-0.74252 -2.5875,-4.09998 -5.75,-7.46103 -11.45057,-12.16945 -8.21816,-21.91921 7.26704,-21.91921 14.50513,0 18.92135,-6.90344 8.81759,-13.78368 -8.52679,-5.80639 -9.6583,-7.38263 -10.05273,-14.00379 -1.3788,-6.62854 2.16179,-7.62726 7.13855,-11.43572 11.35241,-8.68742 11.44517,-14.69342 0.32124,-20.7986 -7.99741,-4.38923 -11.43748,-11.89895 -6.9498,-15.17151 9.80417,-7.14952 11.76461,-18.09585 4.55131,-25.41274 -5.8145,-5.898 -6.21302,-7.29132 -5.06201,-17.69809 1.33274,-12.04997 -1.73577,-18.30134 -11.84968,-24.14095 -3.54384,-2.04615 -7.26572,-7.38677 -13.97628,-20.05492 -7.19544,-13.5835 -15.9661,-23.60357 -33.320413,-38.06702 -3.88374,-3.23678 -7.13482,-10.07613 -7.13482,-15.00961 0,-7.04233 12.88773,-12.4008 18.11424,-7.53157 1.11683,1.04049 4.13552,2.68833 6.708183,3.66185 8.34414,3.15752 20.90281,12.53334 34.7545,25.94635 3.97592,3.85 9.12682,8.35 11.44644,10 6.0282,4.28799 10.97664,11.0632 10.97664,15.02879 0,3.42825 3.15183,6.46749 6.71482,6.47495 2.07855,0.004 6.77604,2.78809 10.12975,6.00291 2.56715,2.46083 2.5788,4.54635 0.0745,13.32694 -2.02154,7.08791 0.80014,11.94598 7.18689,12.37365 12.66563,0.84813 18.69829,10.26482 11.14384,17.39501 -9.66022,9.1177 -5.43243,19.07316 8.72837,20.55326 12.64983,1.32217 15.56982,14.83024 4.28141,19.80608 -11.60197,5.11406 -11.05992,17.48309 0.76792,17.5231 13.86542,0.0469 16.81761,14.79222 4.22894,21.12228 -13.40133,6.73869 -13.00945,16.37236 0.7893,19.40307 11.50748,2.52747 8.41765,16.60885 -4.07785,18.58412 -9.88158,1.56207 -14.80108,12.90584 -5.59694,12.90584 0.79502,0 2.57828,1.35684 6.35532,4.83561 6.03061,5.55439 1.59782,16.25202 -7.96878,19.23101 -9.33801,2.90781 -10.29955,8.56242 -2.50749,14.74598 8.67948,5.10253 10.81674,17.23763 3.5017,19.65725 -15.79721,4.59237 -18.71196,17.72319 -18.3199,82.53015 l 0.19056,31.5 2.61854,5 c 5.77748,11.0319 15.88537,12.31071 22.17558,2.80558 2.7813,-4.20284 2.98322,-6.17453 2.0282,-19.80558 -0.69541,-9.92555 0.19849,-17.67133 3.51985,-30.5 3.32421,-12.04833 7.11081,-17.83468 12.16612,-28.12026 6.04766,-12.31975 14.25634,-16.7373 21.22474,-11.42224 4.21783,3.21709 5.39092,8.79619 2.4648,11.72231 -11.98723,20.33687 -18.42288,49.59679 -8.75248,62.32019 0.9747,1.1 3.69657,5.6 6.0486,10 3.45984,3.95253 5.697,15.80069 8.059,19.00862 4.71405,6.75478 8.721,8.55982 13.43505,15.3146 6.16251,1.75922 11.21583,6.3365 18.02283,16.32505 6.63669,9.73862 8.28321,11.28979 12.86681,12.12167 1.65,0.29946 5.68373,1.30039 8.96385,2.22429 12.90668,3.63539 26.99526,1.43376 37.81624,-5.90956 11.41542,-4.67765 18.87374,-3.39801 24.7777,2.97685 10.8175,11.51469 10.2454,50.31641 -0.78705,53.38017 -7.0544,1.95905 -13.10648,-0.35202 -21.27074,-8.12251 -18.35359,-17.46839 -43.86979,-25.13311 -61.53221,-18.48345 -13.75322,3.49063 -19.25893,19.87875 -14.71676,30.16427 2.928,5.96385 21.51383,21.5 25.72035,21.5 6.13331,1.98763 12.61738,2.23644 17.71629,2.17786 l 11.68767,-0.16166 c 3.51064,-0.0486 8.29457,6.08521 7.72194,7.59089 -2.77961,7.30868 2.65314,11.5155 13.24451,10.23505 10.05272,-1.21532 12.00402,-0.30055 14.5474,6.81988 3.35982,9.40614 6.2292,11.47747 13.06454,9.43093 7.52515,-2.25306 8.70572,-2.36045 12.43165,-1.13078 2.84253,0.93812 4.28705,2.2989 6.13184,5.77637 3.66823,6.91467 4.26232,7.26146 12.4399,7.26146 7.04008,0 9.74113,0.76927 14.04475,4 2.06933,1.55345 5.49813,7.05047 5.49813,8.81455 0,7.4054 7.90678,10.64166 17.64081,7.22043 6.74053,-2.36911 9.76156,-1.49148 17.0993,4.96746 6.57221,5.78509 6.48903,5.77468 23.75989,2.97424 4.7948,-0.77746 8.1026,-0.82147 10.5,-0.13968 10.62298,3.02102 26.69705,1.89079 31.80537,-2.23637 3.00823,-2.43044 5.79528,-4.38904 11.69463,-8.21844 5.34158,-3.46733 10.5,-9.05304 10.5,-11.36975 0,-1.03194 1.4625,-2.90954 3.25,-4.17246 1.7875,-1.26291 3.925,-3.04082 4.75,-3.95091 6.73444,-7.42904 32.70338,-6.3507 42.07874,1.74729 0.86831,0.75 1.99331,1.37053 2.5,1.37895 4.18545,0.0696 3.12184,3.60716 -5.25696,17.48469 -11.93987,19.77563 -15.69921,27.07405 -14.95053,29.02509 0.99043,2.58101 3.65476,2.89334 5.86104,0.68706 2.04882,-2.04882 3.20162,-3.92413 11.63967,-18.93477 2.40458,-4.27756 5.55458,-9.34533 7,-11.26171 1.44542,-1.91638 3.09084,-4.39138 3.65648,-5.5 4.42971,-8.6819 23.22586,12.44076 24.92224,28.007 1.16766,10.71463 4.91662,17.09773 11.48141,19.54856 20.08689,7.49901 22.13859,14.13453 9.05487,29.28455 -5.6764,6.57285 -9.98696,13.75889 -9.98696,16.649 0,4.93937 0.29581,5.03322 -17.5,-5.55261 -8.42828,-5.01357 -11.79939,-6.00128 -13.49784,-3.95477 -1.87518,2.25945 13.25276,15.1003 21.74784,18.45993 3.5332,1.39731 4.32174,3.04267 1.45821,3.04267 -2.39411,0 -9.28489,7.30031 -12.74268,13.5 -6.30565,11.30581 -15.22112,17.374 -23.21772,15.80283 z"
         style="fill:#ffffff;stroke:#000000" />
      <path
         inkscape:connector-curvature="0"
         id="path3000"
         d="m 641.82185,859.06496 -24.8659,-16.42088"
         style="fill:none;stroke:#ff0000;stroke-width:1px;stroke-linecap:butt;stroke-linejoin:miter;stroke-opacity:1" />
      <path
         inkscape:connector-curvature="0"
         id="path3002"
         d="m 610.3876,752.56382 -25.80425,44.10179"
         style="fill:none;stroke:#ff0000;stroke-width:1px;stroke-linecap:butt;stroke-linejoin:miter;stroke-opacity:1" />
      <path
         inkscape:connector-curvature="0"
         id="path3004"
         d="m 469.16802,848.27409 13.13671,-29.08841"
         style="fill:none;stroke:#ff0000;stroke-width:1px;stroke-linecap:butt;stroke-linejoin:miter;stroke-opacity:1" />
      <path
         inkscape:connector-curvature="0"
         id="path3006"
         d="m 426.9429,833.26072 9.38336,-25.33508 0,0 0,0"
         style="fill:none;stroke:#ff0000;stroke-width:1px;stroke-linecap:butt;stroke-linejoin:miter;stroke-opacity:1" />
      <path
         sodipodi:nodetypes="cc"
         inkscape:connector-curvature="0"
         id="path3008"
         d="m 380.49526,812.14816 6.56836,-18.76673"
         style="fill:none;stroke:#ff0000;stroke-width:1px;stroke-linecap:butt;stroke-linejoin:miter;stroke-opacity:1" />
      <path
         inkscape:connector-curvature="0"
         id="path3010"
         d="m 336.39347,795.25811 9.38336,-24.39674"
         style="fill:none;stroke:#ff0000;stroke-width:1px;stroke-linecap:butt;stroke-linejoin:miter;stroke-opacity:1" />
      <path
         sodipodi:nodetypes="cc"
         inkscape:connector-curvature="0"
         id="path3012"
         d="m 294.63752,764.76219 11.7292,-15.48255"
         style="fill:none;stroke:#ff0000;stroke-width:1px;stroke-linecap:butt;stroke-linejoin:miter;stroke-opacity:1" />
      <path
         inkscape:connector-curvature="0"
         id="path3014"
         d="M 261.32659,586.94751 225.66982,620.7276"
         style="fill:none;stroke:#ff0000;stroke-width:1px;stroke-linecap:butt;stroke-linejoin:miter;stroke-opacity:1" />
    </g>
    <g
       id="g3058"
       transform="matrix(0.21556759,0.97648892,-0.97648892,0.21556759,1791.6702,91.74289)">
      <path
         sodipodi:nodetypes="csssssccscsssscccc"
         inkscape:connector-curvature="0"
         id="path3980"
         d="m 322.22747,322.90108 c -4.61472,-0.78533 -7.32789,-4.76943 -7.32789,-10.76047 0,-5.3275 1.4213,-7.22622 9.2347,-12.33665 6.70003,-4.38222 8.43463,-16.0698 8.6716,-58.42873 0.2438,-43.57835 -0.91799,-49.42603 -11.34009,-57.07847 -7.43884,-5.46197 -8.96722,-8.41357 -7.31264,-14.12208 2.13485,-7.36551 3.09064,-7.78869 21.24643,-9.40696 13.08602,-0.56197 26.17205,-1.12393 39.25807,-1.6859 33.5327,-0.3784 39.8657,8.55559 19.98666,28.19526 l -8.01232,7.91583 0.66279,41.08417 c 0.88482,54.84637 0.7381,54.27376 15.68366,61.20888 5.40391,2.50754 9.07713,6.73531 8.46754,9.74589 -0.23714,1.17117 -0.699,3.79829 -1.02634,5.83805 -1.05881,6.59771 -4.33947,7.96767 -20.18612,8.42946 -15.89329,0.64624 -31.78658,1.29247 -47.67987,1.93871 -9.43474,0.002 -18.58152,-0.24 -20.32618,-0.53691 z"
         style="fill:#ffffff;stroke:#000000" />
      <path
         inkscape:connector-curvature="0"
         id="path3016"
         d="m 363.60522,322.80591 -1.87668,-33.7801"
         style="fill:none;stroke:#ff0000;stroke-width:1px;stroke-linecap:butt;stroke-linejoin:miter;stroke-opacity:1" />
      <path
         sodipodi:nodetypes="cc"
         inkscape:connector-curvature="0"
         id="path3018"
         d="m 355.62936,158.5971 2.34584,46.9168"
         style="fill:none;stroke:#ff0000;stroke-width:1px;stroke-linecap:butt;stroke-linejoin:miter;stroke-opacity:1" />
    </g>
    <g
       id="g3054"
       transform="matrix(0.8981111,-0.43976863,0.43976863,0.8981111,1896.7523,653.16163)">
      <path
         id="path2989"
         d="m 408.89958,522.40246 c -2.07189,-1.14261 -17.2934,-10.97904 -24.39481,-15.76438 -3.48426,-2.34789 -11.08953,-9.06074 -12.45885,-10.99689 -1.40897,-1.99222 -1.33618,-2.82296 1.24103,-14.16432 1.07275,-4.72077 1.37249,-9.15475 0.95375,-14.10845 -1.10306,-13.0492 -0.16209,-15.90063 7.87242,-23.85586 7.09309,-7.02308 10.72576,-15.23393 10.77465,-24.35369 0.0124,-2.31805 6.23468,-9.09129 14.60009,-15.89295 14.2776,-11.60869 17.26586,-16.40944 18.92559,-30.40467 1.59034,-13.4102 4.49187,-18.30611 13.75084,-23.20257 6.63503,-3.50883 9.37455,-7.85779 7.73305,-12.27614 -3.23474,-8.70684 -3.01075,-22.56442 0.5268,-32.59091 3.29514,-9.3394 0.0577,-16.84368 -9.17931,-21.27712 -9.52032,-4.56943 -17.06016,-20.62125 -11.34525,-24.15326 0.55,-0.33992 1,-1.95567 1,-3.59056 0,-1.63489 0.837,-5.54584 1.86,-8.69099 1.023,-3.14515 1.94138,-7.81052 2.04085,-10.36749 0.0995,-2.55697 0.58518,-6.05884 1.07935,-7.78193 0.49418,-1.72308 0.69136,-6.15601 0.43818,-9.85096 -1.63499,-23.86183 -2.44334,-32.24152 -3.49382,-36.21807 -0.65382,-2.475 -1.378,-8.325 -1.60929,-13 l -0.42053,-8.5 5.12631,-5.3508 c 4.52073,-4.71871 5.50154,-5.29417 8.30263,-4.87136 1.74698,0.2637 7.00132,1.03891 11.67632,1.72271 10.9987,1.60873 21.00622,6.45984 20.99657,10.17802 -0.003,1.34716 -4.073,11.70263 -7.78945,19.82143 -4.17652,9.12385 -9.17493,23.92032 -8.59291,25.43704 1.84299,4.80274 9.35209,-5.96145 14.86168,-21.30398 0.71756,-1.99818 2.42514,-5.88306 3.79463,-8.63306 1.36948,-2.75 3.26831,-6.68366 4.21962,-8.74147 2.05678,-4.4491 3.13343,-4.38187 13.94984,0.87109 3.81699,1.85371 7.6592,3.37038 8.53824,3.37038 1.63742,0 7.68169,6.60554 9.97056,10.89642 2.50516,4.69636 -0.36473,13.86663 -8.95163,28.60358 -1.28189,2.2 -3.44339,6.025 -4.80333,8.5 -1.35994,2.475 -4.38891,7.875 -6.73105,12 -7.63768,13.45159 -10.96739,26.28635 -10.12987,39.04678 0.91588,13.95436 3.8384,28.17727 6.7712,32.95322 0.50662,0.825 1.81491,3.525 2.90732,6 1.0924,2.475 2.43392,5.175 2.98114,6 12.32052,18.57456 12.07571,29.82959 -0.73031,33.57568 -15.08559,4.41293 -16.78328,6.29966 -15.82793,17.5904 0.31023,3.66635 0.79835,7.27666 1.08471,8.02292 0.28637,0.74626 -0.77579,3.37153 -2.36036,5.83392 -2.86743,4.45594 -3.75418,5.0381 -17.42646,11.44062 -11.02842,5.16444 -20.29057,17.07824 -21.79641,28.03646 -2.15269,15.66544 -5.82358,22.5 -12.08491,22.5 -8.7465,0 -11.32777,4.28943 -11.4337,19 -0.0455,6.325 -0.57752,14.875 -1.18216,19 -1.22213,8.33753 -1.01761,9.2895 5.41979,25.22788 l 3.52513,8.72789 -2.17252,2.77211 c -3.43009,4.37676 -7.46027,5.32102 -12.00743,2.81333 z"
         style="fill:#ffffff;stroke:#000000"
         inkscape:connector-curvature="0" />
      <path
         inkscape:connector-curvature="0"
         id="path3020"
         d="m 479.48972,164.22712 -19.23589,44.57096"
         style="fill:none;stroke:#ff0000;stroke-width:1px;stroke-linecap:butt;stroke-linejoin:miter;stroke-opacity:1" />
    </g>
    <g
       id="g3048"
       transform="matrix(0.54555002,0.83807826,-0.83807826,0.54555002,1314.5319,-95.47492)">
      <path
         sodipodi:nodetypes="cssccssssssssssssccsccssccscccccc"
         inkscape:connector-curvature="0"
         style="fill:#ffffff;stroke:#000000"
         d="m 598.89958,444.86125 c -3.575,-0.4427 -7.85,-1.10111 -9.5,-1.46313 -1.65,-0.36202 -4.05009,-0.87393 -5.33354,-1.13756 -2.97198,-0.61049 -13.63766,-11.09932 -14.64209,-14.39931 -3.90657,-4.78764 -2.5357,-9.7146 -3.47649,-14.92452 -0.47088,-2.51651 -1.62558,-9.07548 -2.56598,-14.57548 -2.54378,-14.87741 -5.01717,-19.80913 -10.59494,-21.12535 -6.4966,-1.53303 -11.92716,-2.2609 -17.27229,-2.31504 -10.6551,-0.10792 -15.03046,-8.22718 -9.90857,-18.38711 1.41284,-2.80256 2.87767,-3.60798 24.461,-13.44972 13.42326,-6.12084 15.68779,-20.22316 6.29834,-39.22278 -1.96842,-3.98312 -8.55575,-19.98854 -10.70079,-26 -2.5364,-7.10828 -4.37447,-13.76535 -6.76465,-24.5 -0.48985,-2.2 -1.36186,-6.025 -1.9378,-8.5 -1.11518,-4.7923 -3.2167,-16.88865 -4.98482,-28.69263 -2.48833,-16.61218 -0.98663,-42.27526 2.72477,-46.56426 0.83616,-0.96628 2.01176,-2.76628 2.61245,-4 1.02977,-2.11499 13.97509,-10.18795 15.38046,-9.38613 10.46901,-0.68995 20.93802,-1.3799 31.40703,-2.06985 14.17288,-0.54392 14.58208,-0.50078 19.71774,2.07871 2.88447,1.44879 5.7852,2.63416 6.44605,2.63416 20.07522,9.95126 29.0486,24.91092 48.30538,38.80401 13.26972,9.28929 10.06362,22.58818 -7.46012,30.94481 -17.68338,8.43275 -16.8687,30.25017 1.51451,40.55936 18.76483,10.52316 20.41943,18.05715 7.36711,33.54444 -10.07086,14.37777 -1.49367,18.72647 -1.0928,29.63332 0,0.88834 2.7,7.49299 6.00002,14.67698 6.2511,13.60839 7.6861,21.527 5.0814,28.04003 -3.48553,10.07457 -7.03234,14.03372 -14.82658,19.59695 -3.68375,2.64453 -14.88734,6.11098 -25.28415,7.82306 -10.07332,2.29764 -10.60789,12.24182 -4.09866,18.7544 8.19476,7.85108 8.52016,18.69705 0.62801,20.93239 -8.92346,3.0242 -19.00737,3.67465 -27.5,2.69025 z"
         id="path2987" />
      <path
         style="fill:none;stroke:#000000"
         d="m 606.58513,396.68694 c 1.27295,-1.19588 2.31468,-2.88338 2.31495,-3.75 10e-4,-3.11052 5.73622,-16.77125 10.5276,-25.07569 9.03536,-15.66012 -5.82565,-25.30095 -29.93069,-19.41702 -18.43292,4.4994 -22.13869,22.88031 -6.26755,31.0876 3.81241,1.97147 11.67014,9.89109 11.67014,11.76205 0,5.19005 7.98093,8.87337 11.68555,5.39306 z"
         id="path2985"
         inkscape:connector-curvature="0" />
      <path
         inkscape:connector-curvature="0"
         id="path3022"
         d="m 630.09265,173.14131 -27.68091,41.75595"
         style="fill:none;stroke:#ff0000;stroke-width:1px;stroke-linecap:butt;stroke-linejoin:miter;stroke-opacity:1" />
      <path
         inkscape:connector-curvature="0"
         id="path3024"
         d="m 562.53246,156.72043 2.81501,52.54682"
         style="fill:none;stroke:#ff0000;stroke-width:1px;stroke-linecap:butt;stroke-linejoin:miter;stroke-opacity:1" />
    </g>
    <g
       id="g3040"
       transform="matrix(-0.83213891,0.55456725,-0.55456725,-0.83213891,2830.6174,1073.4294)">
      <path
         id="path2999"
         d="m 229.78186,901.53471 c -7.22139,-2.68843 -23.88228,-16.30743 -23.88228,-19.52195 0,-0.41615 -2.34293,-3.1493 -5.20652,-6.07366 l -5.20651,-5.31703 -6.60423,0.47253 c -3.63232,0.25989 -7.70189,1.1711 -9.04348,2.02492 -5.3856,3.42749 -14.41601,3.29566 -21.25264,-0.31025 -10.10274,-5.32859 -14.0406,-8.80566 -12.47999,-11.01967 9.453,-13.41086 22.30325,-32.25212 25.43468,-37.29277 2.43881,-3.92575 4.80786,-10.51975 4.05129,-11.27632 -0.73278,-0.73277 -6.6926,2.51356 -6.6926,3.64549 0,0.52436 -2.8125,4.53283 -6.25,8.90772 -8.15653,10.38076 -14.69999,19.32925 -18.8802,25.81956 -4.47296,6.94482 -7.27956,5.93117 -13.79432,-4.98203 -1.23123,-2.0625 -2.56855,-3.75 -2.97183,-3.75 -1.08626,0 -4.10365,-6.74111 -4.10365,-9.16791 0,-3.3284 -2.1975,-10.15858 -3.92016,-12.18447 -3.39024,-3.98701 -18.90528,-9.34659 -22.102853,-7.6353 -6.25119,3.34553 -23.72632,-8.77943 -28.43777,-19.73129 -3.29795,-7.66616 -1.83476,-21.56194 2.92998,-27.82576 5.28812,-6.95187 18.09088,-20.45527 19.39392,-20.45527 0.59704,0 1.76563,-1.31518 2.59687,-2.92262 0.83123,-1.60743 3.35621,-5.0542 5.61105,-7.65947 5.734153,-6.62528 7.523893,-12.70188 9.842563,-33.41791 2.14548,-19.16862 13.22301,-24.06474 32.45667,-14.34543 8.80034,4.44706 11.3031,8.88184 7.01899,12.43734 -0.76409,0.63414 -1.38926,1.55682 -1.38926,2.05041 0,0.49358 -1.223,2.80098 -2.71779,5.12755 -6.83819,10.64338 -14.33655,27.10436 -12.96942,28.47149 2.09974,2.09974 4.33668,0.5253 7.89244,-5.55501 1.81212,-3.09871 4.29656,-7.2208 5.52097,-9.16019 1.22442,-1.93939 3.13649,-5.1949 4.24906,-7.23448 1.11257,-2.03957 3.72516,-6.40062 5.80576,-9.69122 l 3.78291,-5.98291 4.00238,2.57304 c 10.91003,7.01379 13.10178,16.28959 7.91144,33.48236 -2.94562,9.75725 2.94297,17.3482 14.66943,18.91028 29.73664,3.96121 34.42497,6.86812 45.83141,28.41677 7.19242,13.58768 11.69888,15.50834 19.30221,8.22664 14.57461,-13.95809 24.29907,-15.58327 33.35672,-5.57468 0.91985,1.01642 2.08056,1.84804 2.57936,1.84804 0.4988,0 1.94753,0.78495 3.21941,1.74433 l 2.3125,1.74432 -4.62439,6.00568 c -2.54342,3.30312 -5.10589,6.45567 -5.69437,7.00567 -0.58848,0.55 -1.93848,2.30457 -3,3.89903 -2.11541,3.17749 -3.058,4.56021 -8.79969,12.90852 -3.64469,5.29931 -4.25806,8.69245 -1.57132,8.69245 1.5046,0 9.74768,-8.63808 15.33138,-16.06605 2.48596,-3.30705 6.76254,-8.52898 9.50352,-11.60429 l 4.9836,-5.59148 4.31124,2.5451 c 6.6891,3.94884 10.78983,8.47434 10.95102,12.08538 0.48633,10.89496 -0.3977,12.90623 -8.27404,18.8244 -2.91311,2.18887 -6.2878,4.95338 -7.49932,6.14335 -5.47212,5.37483 -18.26608,15.66359 -19.4775,15.66359 -1.1485,0 -10.88892,19.83322 -10.88892,22.17176 0,0.94061 -0.38728,1.94956 -0.86061,2.24209 -0.47334,0.29254 -1.60882,3.19848 -2.5233,6.45765 -4.22152,15.04539 -21.15242,25.48583 -33.73381,20.80196 z"
         style="fill:#ffffff;stroke:#000000"
         inkscape:connector-curvature="0" />
      <path
         inkscape:connector-curvature="0"
         id="path3026"
         d="m 293.69918,791.97393 -26.27341,34.71843"
         style="fill:none;stroke:#ff0000;stroke-width:1px;stroke-linecap:butt;stroke-linejoin:miter;stroke-opacity:1" />
      <path
         inkscape:connector-curvature="0"
         id="path3028"
         d="m 154.35628,695.79449 -22.52007,40.34845"
         style="fill:none;stroke:#ff0000;stroke-width:1px;stroke-linecap:butt;stroke-linejoin:miter;stroke-opacity:1" />
      <path
         sodipodi:nodetypes="cc"
         inkscape:connector-curvature="0"
         id="path3030"
         d="m 143.09625,860.00329 30.96509,-45.5093"
         style="fill:none;stroke:#ff0000;stroke-width:1px;stroke-linecap:butt;stroke-linejoin:miter;stroke-opacity:1" />
    </g>
    <g
       id="g3063"
       transform="matrix(-0.98079257,-0.19505365,0.19505365,-0.98079257,2300.9481,1230.27)">
      <path
         sodipodi:nodetypes="cscccsccsscsssssscsssssssssssccccssssccscccc"
         inkscape:connector-curvature="0"
         id="path2991"
         d="m 303.39958,583.81458 c -17.09902,-0.33912 -17.69352,-0.49828 -23.44082,-6.27579 -5.89592,-5.92691 -7.17834,-14.43792 -3.1732,-21.05951 3.10243,-5.11853 6.45084,-14.62536 9.63121,-18.36803 6.43472,-12.18255 10.43263,-17.5803 14.37719,-26.5109 3.07649,-6.88433 4.45815,-15.96504 3.72948,-24.51136 -1.36696,-16.03261 -1.92997,-19.78273 -3.25788,-21.70025 -1.62289,-3.23903 -1.85509,-7.01947 -3.26651,-10.02749 -4.36153,-9.15289 -6.13281,-22.74401 -3.36143,-25.79242 9.1697,-10.08633 4.76331,-20.59621 -10.81298,-25.79058 -4.60467,-1.53556 -7.92174,-6.33355 -7.93588,-11.47888 -0.006,-2.16597 -0.68096,-6.14714 -1.5,-8.84705 -0.81905,-2.69991 -1.48918,-6.12881 -1.48918,-7.61978 0,-6.10927 -9.38525,-20.7062 -16.19185,-25.18326 -11.03953,-7.2613 -16.01539,-14.5246 -16.29805,-23.79041 -0.16329,-5.35275 -0.96595,-8.17029 -4.42099,-15.51888 -4.08713,-8.69302 -5.58005,-19.50472 -2.96585,-21.47874 1.36952,-1.03415 8.88023,-11.48875 8.96081,-12.47309 0.0462,-0.5648 0.20637,-3.63955 0.35586,-6.83277 0.14949,-3.19323 0.78666,-6.32073 1.41593,-6.95 0.62928,-0.62928 1.14414,-1.8015 1.14414,-2.60494 0,-3.87796 13.95268,-12.1392 20.50231,-12.1392 1.78939,0 4.85799,-0.67042 6.81909,-1.48982 7.00512,-2.92693 19.9949,-3.15389 22.61002,-0.39505 6.69817,7.06626 4.17361,11.68959 -10.46394,19.16301 -3.84926,1.96529 -6.89015,8.67949 -8.47922,18.72186 -0.65273,4.125 -2.26711,10.11716 -3.58752,13.31591 -1.32041,3.19876 -2.40074,6.71584 -2.40074,7.81575 0,1.0999 -0.47869,2.89426 -1.06375,3.98745 -1.49706,2.79729 2.71652,9.72356 8.0709,13.26693 5.38214,3.92374 13.22003,12.51851 12.26987,18.94514 -0.75249,3.93641 3.96446,15.84881 7.46555,18.85381 4.78579,2.4389 27.46775,16.9877 32.76285,17.27126 4.65011,0.0961 8.15696,6.22462 9.46661,16.54375 1.40969,11.10743 2.19327,12.58154 9.59411,18.04886 10.86995,8.0301 12.34308,18.24925 4.96627,34.45114 -1.22584,2.69235 -2.15475,6.17579 -5.73327,21.5 -1.56859,6.71713 -1.60582,32.59071 -0.0491,34.14884 2.54226,7.31673 5.32226,15.04833 9.29737,21.35116 1.05762,1.65 2.3844,4.05438 2.94842,5.34307 0.56401,1.28869 2.8192,5.36234 5.01152,9.05256 6.9375,11.293 9.17026,24.73412 8.99269,34.97533 0,4.42864 -8.27673,7.79205 -22.5,9.14331 -16.00001,0.31302 -32.00003,0.62604 -48.00004,0.93906 z"
         style="fill:#ffffff;stroke:#000000" />
      <path
         inkscape:connector-curvature="0"
         id="path3032"
         d="m 324.1951,584.1325 -0.46917,-37.53344"
         style="fill:none;stroke:#ff0000;stroke-width:1px;stroke-linecap:butt;stroke-linejoin:miter;stroke-opacity:1" />
    </g>
    <path
       style="fill:#cccccc;stroke:#000000"
       d="m 2518.8525,-134.49869 c 0.3336,0.44913 4.1107,0.51728 8.3934,0.1514 22.0656,-1.88508 25.4841,3.93756 18.6536,31.772 -4.6437,18.923348 2.2044,26.590268 22.2725,24.934438 7.3767,-0.60811 12.7058,0.69469 17.2953,4.22986 2.137,1.64598 4.653,3.16603 5.5913,3.37803 1.9784,0.44672 5.9945,6.79681 10.23,16.17522 2.7563,6.10283 4.4483,15.12766 5.8219,31.05076 1.6476,19.0970698 2.1212,20.9618598 5.2586,20.6938298 5.9643,-0.50953 8.5388,0.4324 8.6081,3.14946 0.1029,4.03482 -0.4437,4.50652 -2.9499,2.54576 -3.1539,-2.46734 -10.2433,-3.21079002 -9.1514,-0.95966 0.4238,0.87361 0.4526,3.51937 0.064,5.87946 -0.3886,2.3601232 -0.9083,7.2440032 -1.155,10.8530932 -0.2466,3.60909 -0.8587,10.66179 -1.3601,15.672664 -0.5015,5.010873 -0.9775,10.812765 -1.0578,12.893101 -0.08,2.080337 -0.5258,4.064511 -0.9901,4.409289 -0.4642,0.344787 -0.7053,2.249955 -0.5358,4.233719 0.2886,3.378743 -0.4643,8.198421 -2.0279,12.981707 -0.3713,1.135725 -0.6977,3.685457 -0.7256,5.666081 -0.028,1.980626 -0.666,5.153101 -1.4182,7.049941 -0.7521,1.89685 -1.2962,4.282732 -1.2092,5.301989 0.1674,1.958675 -1.2036,5.468974 -3.0881,7.907114 -0.6213,0.803855 -1.0748,2.103715 -1.0078,2.888556 0.408,4.775958 -8.0032,16.164858 -12.2034,16.523678 -10.9433,0.9349 -15.6739,-8.60419 -10.337,-20.844372 1.4266,-3.271906 2.5427,-6.547939 2.4801,-7.280062 -0.063,-0.732123 0.2297,-2.144714 0.6495,-3.139095 0.4198,-0.994381 1.5117,-4.355917 2.4265,-7.470091 0.9148,-3.114166 1.9599,-6.590749 2.3225,-7.725725 0.3626,-1.134985 1.0299,-4.127654 1.4832,-6.650388 0.4532,-2.522733 1.1621,-5.399913 1.5754,-6.393741 0.4133,-0.993828 0.6629,-2.844289 0.5546,-4.112131 -0.1083,-1.267842 0.1691,-2.765502 0.6165,-3.328121 0.7502,-0.943384 0.9546,-2.887354 1.4859,-14.127758 0.1048,-2.216965 0.503,-4.960826 0.8852,-6.097478 0.3821,-1.136657 0.7137,-5.003917 0.737,-8.593927 0.023,-3.59002 0.098,-9.065853 0.1661,-12.1685432 0.1239,-5.64123 0.1239,-5.64123 -5.4466,-4.98314 -10.1077,1.19413 -10.7512,-1.25603002 -0.801,-3.04957 5.5534,-1.00098 6.3099,-1.39685 6.2485,-3.26941 -0.038,-1.17184 -0.2597,-8.4372498 -0.4919,-16.1454598 -0.554,-18.39739 -11.9888,-35.60872 -23.0306,-34.6654 -1.1507,0.0983 -2.552,-0.18354 -3.1142,-0.62619 -0.5623,-0.44265 -3.5286,-1.06582 -6.5918,-1.38483 -3.0633,-0.31901 -8.081,-1.06952 -11.1505,-1.66792 -3.0694,-0.5984 -6.9408,-0.97874 -8.6032,-0.84515 -1.6624,0.13198 -3.7057,-0.11207 -4.5411,-0.54574 -0.9281,-0.48185 -2.1857,-0.35464 -3.2339,0.32646 -1.5984,1.03952 -1.7729,0.45134 -2.5617,-8.63308 -0.9592,-11.05186 -1.7124,-13.80093 -3.9559,-14.44892 -2.9796,-0.86059 -3.8428,1.70811 -3.7147,11.05433 0.1463,10.66565 -0.2771,14.04225 -1.6722,13.33644 -2.0975,-1.06101 -25.3582,1.0186 -29.2148,2.61197 -2.1328,0.88114 -7.2629,2.94852 -11.4004,4.59408 -4.1374,1.64565 -7.4771,3.52425 -7.4215,4.17478 0.055,0.65053 -0.2225,1.36098 -0.6179,1.57872 -1.6524,0.91016 -8.1002,14.69443 -10.4322,22.30234 -1.9257,6.28252 1.0185,50.520883 4.3504,65.366908 2.9587,13.183398 6.9438,25.2805 11.2551,34.165958 1.4144,2.915188 3.146,6.606183 3.8479,8.202229 0.702,1.596037 2.5421,5.152454 4.0892,7.90315 1.5471,2.750697 3.2267,6.220318 3.7326,7.710257 0.5059,1.48995 2.1277,4.31251 3.6037,6.27236 1.4761,1.95984 3.0668,4.88192 3.5348,6.49349 0.468,1.61157 1.262,3.13809 1.7644,3.39227 1.7242,0.87224 1.4452,6.69941 -0.4838,10.1037 -1.9693,3.4756 -4.1539,4.50454 -10.3606,4.87971 -3.7567,0.2271 -3.1681,0.91154 -11.3257,-13.16952 -2.1329,-3.68181 -4.588,-7.41629 -5.4556,-8.29888 -1.8368,-1.86839 -11.8113,-23.80689 -14.3931,-31.656599 -2.1186,-6.441751 -4.0121,-11.802772 -6.0218,-17.049297 -0.8191,-2.138041 -2.1411,-7.297837 -2.938,-11.466212 -0.7968,-4.168374 -1.8009,-8.052953 -2.2312,-8.632399 -1.0677,-1.43769 -4.9871,-48.4534752 -4.1732,-50.0621052 0.5996,-1.1853998 1.1806,-5.4487398 1.8764,-13.7676498 0.1516,-1.81208 0.6533,-3.57529 1.115,-3.91813 0.4618,-0.34295 0.7483,-1.69154 0.6368,-2.99678 -0.1115,-1.30535 0.2219,-2.68875 0.741,-3.07424 0.5191,-0.38548 0.873,-1.52886 0.7866,-2.54077 -0.086,-1.01182 0.6396,-3.86999 1.6136,-6.35131 0.9739,-2.4814 2.358,-6.10487 3.0758,-8.05203 1.5216,-4.12821 10.4394,-14.94887 14.345,-17.40604 1.4809,-0.93163 2.8956,-1.96129 3.1437,-2.28809 0.2481,-0.3269 1.9589,-1.4469 3.8019,-2.48906 7.0471,-3.98472 10.8699,-5.73978 12.9143,-5.92899 8.2804,-0.76662 13.5305,-6.34948 12.2607,-13.03816 -0.9293,-4.89486 -5.3639,-17.162208 -6.5721,-18.180158 -7.0567,-5.94591 -0.1521,-20.7871 10.5807,-22.74279 12.0519,-2.19613 23.6366,-3.41074 24.2791,-2.54569 z"
       id="path3134"
       inkscape:connector-curvature="0" />
    <path
       style="fill:#cccccc;stroke:#000000"
       d="m 1798.2353,19.338147 c 9.2271,1.88148 16.8518,12.11614 11.6471,15.63386 -0.5357,0.36204 -0.9303,1.72926 -0.8769,3.03827 0.053,1.30891 -0.3412,2.67614 -0.8768,3.03828 -0.5357,0.36204 -0.9401,1.48846 -0.8987,2.50322 0.041,1.01465 -0.7132,3.60857 -1.677,5.76416 -10.5833,23.67065 -10.2183,25.41622 6.2694,29.98263 3.692,1.02243 7.6724,1.81991 8.8454,1.77205 23.0848,-0.94193 38.3787,37.897143 32.581,82.740473 -1.8809,14.54792 -5.3173,32.49286 -6.6645,34.80063 -0.329,0.56389 -1.1051,3.07261 -1.7246,5.57495 -0.6194,2.50233 -1.8889,6.49001 -2.8212,8.86149 -0.9322,2.37149 -1.6797,4.65386 -1.6612,5.07194 0.049,1.21212 -4.0256,9.89904 -4.8369,10.29999 -0.4047,0.20001 -0.702,1.19092 -0.6608,2.20205 0.2417,5.92279 -6.8615,10.14069 -13.0002,7.71945 -4.325,-1.7059 -4.4327,-1.85581 -4.4055,-6.13426 0.031,-4.85147 3.1044,-18.60002 4.5945,-20.55231 0.5223,-0.68417 1.9346,-5.52413 3.1386,-10.75548 1.2041,-5.23135 2.773,-12.01242 3.4865,-15.06905 2.7087,-11.60456 4.2612,-23.65923 4.7941,-37.2264 0.2274,-5.78909 0.6632,-11.2157 0.9685,-12.05915 0.3054,-0.84344 -0.4232,-3.27341 -1.6189,-5.39993 -1.1958,-2.12651 -2.204,-4.59346 -2.2402,-5.48212 -0.071,-1.73535 -6.1972,-10.71325 -7.2855,-10.67655 -0.3604,0.0147 -2.0558,-1.18317 -3.7673,-2.65642 -9.6799,-8.33249 -38.1495,-15.153083 -37.9017,-9.08033 0.072,1.76233 -0.449,2.45084 -1.8992,2.51001 -1.8918,0.0772 -2.0256,-0.5846 -2.508,-12.408063 -0.5096,-12.48961 -0.5096,-12.48961 -3.5071,-12.3673 -2.9075,0.11863 -3.8615,9.55577 -2.2605,22.360743 0.141,1.12419 -0.4869,1.77133 -1.7686,1.82362 -1.3307,0.0543 -2.014,-0.58908 -2.0694,-1.94865 -0.066,-1.62594 -0.7285,-2.00106 -3.3297,-1.88612 -1.7856,0.0829 -6.1718,0.20379 -9.7468,0.2764 -4.3659,0.0891 -7.4621,0.71322 -9.4304,1.90025 -1.6117,0.97202 -3.4821,1.79255 -4.1565,1.82347 -6.2673,0.28676 -15.8696,9.58526 -18.3508,17.76912 -4.5215,14.91428 -4.0761,23.65044 2.5965,50.93647 1.666,6.81274 3.4933,14.31205 4.0607,16.66512 0.5674,2.35307 1.2697,4.63056 1.5607,5.06107 0.291,0.43052 1.2858,3.17467 2.2107,6.09812 0.925,2.92345 3.0026,9.45994 4.6171,14.52552 5.2598,16.50351 3.3714,25.06122 -5.6111,25.42774 -6.1725,0.25185 -9.64,-3.91711 -12.479,-15.00372 -0.837,-3.26859 -1.8578,-6.37956 -2.2685,-6.91326 -0.4106,-0.5337 -1.0336,-2.30978 -1.3843,-3.94685 -0.3506,-1.63706 -1.9209,-7.20267 -3.4895,-12.36802 -1.5685,-5.16535 -3.5153,-12.2919 -4.326,-15.8368 -0.8108,-3.54489 -1.934,-8.22799 -2.4962,-10.40688 -1.0285,-3.98599 -2.7364,-13.67104 -5.1693,-29.31364 -1.2567,-8.07975 -0.6267,-21.35086 1.309,-27.57625 1.0389,-3.34103 2.4163,-6.98142 3.4617,-9.14874 0.5417,-1.12302 1.5546,-3.29402 2.2511,-4.82439 4.6232,-10.159833 19.0036,-19.994483 39.4366,-26.970613 4.2561,-1.45313 5.6569,-2.39983 5.6003,-3.78507 -0.1006,-2.46695 -2.4585,-10.84909 -3.6501,-12.97588 -0.5235,-0.93443 -1.0062,-3.02739 -1.0724,-4.65104 -0.066,-1.62375 -0.5814,-3.21167 -1.1448,-3.52886 -0.5634,-0.3173 -1.06,-1.44949 -1.1035,-2.51621 -0.044,-1.06661 -0.5288,-1.92094 -1.0783,-1.89851 -0.5496,0.0224 -1.032,-0.76347 -1.0721,-1.74635 -0.04,-0.98288 -1.0442,-3.51415 -2.2312,-5.62511 -7.9786,-14.18862 4.8846,-23.41871 31.6018,-22.67643 6.1292,0.17036 11.5477,-0.14391 16.4747,-0.95546 2.4605,-0.40535 6.5174,-0.31997 9.0152,0.18912 z"
       id="path3132"
       inkscape:connector-curvature="0" />
    <path
       style="fill:#cccccc;stroke:#000000"
       d="m 2377.1993,150.60633 c -6.1877,-1.78274 -7.5465,-9.58761 -3.0599,-17.5757 1.0343,-1.84144 1.8805,-4.01548 1.8805,-4.83122 0,-0.81573 0.4007,-2.26454 0.8905,-3.21958 1.5009,-2.92635 4.7389,-10.54441 6.0512,-14.23643 0.6842,-1.925 2.1022,-5.74365 3.1512,-8.48588 1.0489,-2.742236 1.9071,-5.914736 1.9071,-7.049996 0,-1.13527 0.3717,-2.49162 0.8261,-3.01412 0.4544,-0.5225 1.3849,-2.975 2.0678,-5.45 0.6829,-2.475 1.6611,-5.88195 2.1738,-7.571 0.5128,-1.68905 0.9323,-4.02499 0.9323,-5.19098 0,-1.16599 0.45,-2.3981 1,-2.73802 0.55,-0.33992 1,-2.36492 1,-4.5 0,-2.13508 0.3893,-4.12255 0.865,-4.4166 0.4758,-0.29405 1.1414,-2.23311 1.4792,-4.30902 0.3377,-2.07591 1.1127,-5.799379 1.7223,-8.274379 5.5412,-22.50028 3.6162,-54.9999972 -3.2578,-54.9999972 -0.4448,0 -0.8087,-0.675 -0.8087,-1.5 0,-0.83333 -0.8889,-1.5 -2,-1.5 -1.3046,0 -2,-0.66667 -2,-1.9172898 0,-1.36823 -1.3603,-2.43231 -4.75,-3.71567 -2.6125,-0.98911 -6.8412,-3.0898 -9.3971,-4.6682 -3.2648,-2.0162 -6.4708,-3.0352 -10.7784,-3.4258 -3.3722,-0.30578 -6.3701,-0.94231 -6.6619,-1.41451 -0.2919,-0.47219 -2.4166,-0.91177 -4.7216,-0.97684 -2.3051,-0.0651 -5.541,-0.42472 -7.191,-0.79921 -1.65,-0.37448 -3.8012,-0.20874 -4.7805,0.36832 -2.3386,1.37808 -3.7096,-0.72488 -3.5536,-5.4508 0.3351,-10.14654 -2.3453,-20.24325 -4.947,-18.63529 -1.0126,0.62581 -2.9565,15.31468 -2.4661,18.63529 0.7685,5.20449 -3.1257,8.34669 -4.3414,3.50302 -0.6478,-2.58113 -10.9184,-2.92048 -16.9114,-0.55876 -1.1,0.43348 -3.125,1.24706 -4.5,1.80796 -1.375,0.5609 -4.525,1.60858 -7,2.32819 -2.475,0.71961 -5.5732,2.1209 -6.8849,3.11398 -1.3116,0.99309 -2.7931,1.80561 -3.2922,1.80561 -0.9446,0 -1.4734,0.39021 -6.1482,4.53753 -4.3258,3.8377498 -9.6747,11.2529098 -9.6747,13.41210978 0,1.06278 -0.438,2.20300002 -0.9733,2.53382002 -7.9892,4.9376 -7.9419,39.5256772 0.092,67.5165362 1.184,4.125 2.3642,9.19032 2.6225,11.25627 0.2584,2.06595 0.8722,4.005 1.3641,4.30901 0.4919,0.30402 0.8944,1.4323 0.8944,2.50731 0,1.95498 0.2839,2.68071 3.3572,8.5817 0.9035,1.73486 1.6428,3.878466 1.6428,4.763566 0,0.8851 0.4349,2.39067 0.9665,3.34571 0.5317,0.95504 2.1391,4.88643 3.572,8.73643 2.9924,8.03956 3.4635,9.20228 6.4686,15.96626 2.8875,6.49921 3.1463,13.51915 0.5927,16.07505 -7.3402,7.34684 -16.3037,4.75267 -21.0413,-6.08965 -0.9496,-2.17341 -2.1388,-4.73304 -2.6426,-5.68809 -0.5037,-0.95504 -0.9159,-2.19744 -0.9159,-2.7609 0,-0.56346 -0.9449,-3.15706 -2.0997,-5.76357 -3.3648,-7.59464 -3.7182,-8.48786 -5.3441,-13.50673 -0.8494,-2.6222 -1.4515,-5.0972 -1.3379,-5.5 0.1136,-0.40281 -0.3394,-1.71606 -1.0068,-2.91834 -0.6673,-1.20228 -2.5685,-7.441736 -4.2248,-13.865466 -1.6563,-6.42373 -3.2252,-12.02546 -3.4866,-12.44829 -0.6669,-1.07907 -3.5542,-20.28184 -4.135,-27.500269 -0.2655,-3.3 -0.8435,-7.125 -1.2846,-8.5 -0.441,-1.375 -0.6777,-9.025 -0.5261,-17 0.2507,-13.18389 0.9763,-19.9991372 3.0341,-28.4999972 1.0518,-4.34494 11.2744,-20.4999998 12.972,-20.4999998 0.7917,0 1.4395,-0.675 1.4395,-1.5 0,-0.825 0.6592,-1.5 1.4648,-1.5 0.8057,0 1.9177,-0.84625 2.4713,-1.88055 1.3248,-2.47551 16.3533,-10.11945 19.8954,-10.11945 1.5227,0 3.196,-0.37879 3.7185,-0.84176 0.5225,-0.46296 3.6351,-1.41707 6.9168,-2.12024 6.7306,-1.44213 10.5332,-2.95784 10.5332,-4.19852 0,-0.46171 0.675,-0.83948 1.5,-0.83948 2.8078,0 2.032,-12.93698 -1.0481,-17.47565 -1.4014,-2.06511 -2.8062,-5.16541 -3.1218,-6.88955 -0.3156,-1.72414 -1.1377,-4.04557 -1.8269,-5.15873 -9.1835,-14.83281 2.8664,-19.57354 49.9968,-19.67004 20.316,-0.0416 24.9551,9.72865 14.8115,31.19397 -6.9577,14.72357 -3.0508,24 10.108,24 2.4544,0 4.7406,0.45 5.0805,1 0.3399,0.55 2.6595,1 5.1547,1 2.4952,0 5.7311,0.65051 7.191,1.44558 1.4599,0.79506 4.3755,2.21233 6.4792,3.14948 2.1037,0.93714 4.5604,2.87413 5.4594,4.30442 0.899,1.43029 2.7778,3.72552 4.1751,5.10052 3.702,3.64284 4.899,5.71834 9.5158,16.4999998 2.9161,6.81002 3.8046,14.26403 3.1779,26.6612572 -0.954,18.87193 -1.8323,27.83147 -2.7861,28.42094 -0.4769,0.29471 -0.867,2.73272 -0.867,5.4178 0,2.685079 -0.45,5.160079 -1,5.499999 -0.55,0.33992 -1,2.18488 -1,4.09992 0,1.91504 -0.9204,6.50098 -2.0452,10.19098 -1.1249,3.69001 -2.5109,8.5091 -3.0799,10.7091 -1.5172,5.86508 -8.7622,28.590736 -10.0424,31.499996 -1.2456,2.83071 -2.7487,6.54953 -3.8396,9.5 -0.4068,1.1 -1.7544,4.25 -2.9948,7 -1.2404,2.75 -3.0342,6.80001 -3.9863,9.00001 -0.9521,2.2 -2.4668,5.69772 -3.3661,7.77272 -2.3044,5.31735 -6.2612,6.66607 -13.4663,4.5902 z"
       id="path3124"
       inkscape:connector-curvature="0" />
    <path
       style="fill:#cccccc;stroke:#000000"
       d="m 2093.4876,172.09722 c -4.9984,-1.26967 -12.5417,-12.10043 -12.5417,-18.00755 0,-1.02466 -0.3718,-2.29051 -0.8261,-2.81301 -0.4544,-0.5225 -1.3217,-2.75 -1.9274,-4.95 -0.6056,-2.2 -2.0339,-7.04695 -3.1738,-10.771 -1.14,-3.72405 -2.0727,-8.30999 -2.0727,-10.19098 0,-1.88099 -0.4025,-3.66872 -0.8944,-3.97274 -0.4919,-0.30401 -1.0958,-2.24306 -1.342,-4.30901 -0.4114,-3.45172 -2.3191,-11.6537 -3.5485,-15.25627 -0.2815,-0.825 -0.6644,-3.074996 -0.8507,-4.999996 -0.1864,-1.925 -0.7342,-7.325 -1.2173,-12 -2.0385,-19.726654 -0.2215,-45.336334 3.9378,-55.499994 0.6752,-1.65 1.1285,-3.79057 1.0074,-4.75682 -0.1212,-0.96625 0.433,-2.00752 1.2314,-2.31393 0.7985,-0.30641 1.7018,-1.76584 2.0072,-3.24318 0.3055,-1.47734 1.8185,-4.05317 3.3622,-5.72407 2.9298,-3.171072 3.3069,-3.7963222 3.3069,-5.4834422 0,-0.56179 1.125,-1.53402 2.5,-2.16051 1.375,-0.6265 2.5,-1.96685 2.5,-2.97857 0,-1.01171 0.4975,-1.83948002 1.1056,-1.83948002 0.6081,0 2.4426,-1.125 4.0767,-2.49999998 1.6341,-1.375 3.6212,-2.5 4.4158,-2.5 0.7946,0 3.1859,-1.15222 5.3139,-2.56049 3.1137,-2.06053 11.316,-4.1821198 17.088,-4.4198898 0.275,-0.0113 2.3949,-2.22095 4.7108,-4.91026 4.7703,-5.53929 4.7226,-6.2665 -1.7726,-26.97912 -3.3849,-10.7943 -3.5292,-12.63825 -1.3335,-17.03976 1.4843,-2.97522 1.4785,-3.30917 -0.077,-4.44665 -1.4021,-1.02526 -0.047,-1.4317 8.1453,-2.4432 10.8089,-1.33457 39.8381,-0.0897 41.7167,1.78895 0.5558,0.55573 2.4689,1.01042 4.2514,1.01042 1.7826,0 3.5363,0.47776 3.8972,1.06168 0.3609,0.58393 1.6684,1.44655 2.9056,1.91695 5.6802,2.15959 6.7502,13.20999 1.8995,19.61576 -1.2888,1.70192 -2.3433,3.38266 -2.3433,3.73498 0,0.35232 -1.35,2.83461 -3,5.51621 -3.0558,4.96642 -3.7969,8.54384 -2,9.65442 0.55,0.33992 1,1.26256 1,2.05032 0,2.07657 5.9115,7.40624 8.9241,8.04586 9.4143,1.99874 12.6905,2.8673998 13.5259,3.5863298 0.5225,0.44962 1.5568,0.81749 2.2984,0.81749 0.7415,0 3.211,0.9 5.4878,2 2.2767,1.1 4.955,2 5.9517,2 0.9967,0 1.8121,0.62252 1.8121,1.38337 0,0.76085 0.8371,1.60226 1.8602,1.86979998 4.2924,1.12249 10.7123,13.76426222 11.8055,23.24683222 0.2536,2.2 0.7409,4.675 1.0829,5.5 1.7301,4.17405 1.4969,42.241804 -0.3339,54.499994 -0.8214,5.5 -1.8937,12.7 -2.3827,16 -1.2739,8.596266 -8.4847,35.309506 -11.2021,41.499996 -0.6036,1.375 -1.4093,3.4 -1.7904,4.5 -0.3811,1.1 -1.6241,4.025 -2.7621,6.5 -1.1381,2.475 -2.3382,5.175 -2.6669,6 -0.3288,0.825 -1.1216,2.4 -1.7618,3.5 -2.2333,3.83709 -2.8595,5.01382 -3.7469,7.0411 -2.0412,4.66326 -6.9125,6.1002 -11.7998,3.48073 -7.2631,-3.89275 -7.4251,-6.74288 -1.2233,-21.52183 0.9907,-2.36084 9.11,-28.32589 11.1009,-35.5 1.3178,-4.74862 2.8244,-11.76033 3.438,-15.999996 0.2785,-1.925 0.8845,-4.4 1.3465,-5.5 3.6909,-8.78805 3.6304,-56.778504 -0.074,-59.068284 -0.4892,-0.30236 -0.8895,-1.46532 -0.8895,-2.58435 0,-1.1936 -0.8267,-2.25079 -2,-2.55761 -1.2943,-0.33846 -2,-1.36402 -2,-2.90638 0,-1.31085 -0.45,-2.38337 -1,-2.38337 -0.55,0 -1,-0.675 -1,-1.5 0,-0.825 -0.5966,-1.5 -1.3257,-1.5 -0.7291,0 -2.3282,-1.06708 -3.5534,-2.37128 -1.2252,-1.30421 -3.8912,-3.21671 -5.9243,-4.25 -2.0332,-1.0333 -3.9216,-2.15359 -4.1966,-2.48954 -0.275,-0.33595 -4.325,-1.3769122 -9,-2.3132422 -4.675,-0.93633 -9.7384,-1.95016 -11.2519,-2.25295 -1.71,-0.34211 -3.723,0.0858 -5.3169,1.13014 -3.1764,2.08127 -5.3726,0.69094 -4.6748,-2.95948 0.2715,-1.42008 0,-2.54747 -0.6398,-2.61865 -0.6142,-0.0688 -1.5666,-0.18125 -2.1166,-0.25 -1.9243,-0.24053 -1.4812,-2.12237002 0.5,-2.12368002 1.7878,-0.001 1.9734,-0.58476998 1.7492,-5.50131998 -0.7724,-16.9410998 -6.2316,-11.9650798 -6.2436,5.69097998 -0.01,8.35636002 -0.8147,10.44890002 -3.0148,7.79801002 -2.146,-2.58583 -18.0311,-1.51765 -24.2273,1.62914 -0.955,0.48503 -2.6159,0.88187 -3.6909,0.88187 -1.075,0 -2.2327,0.4500002 -2.5726,1.0000022 -0.3399,0.55 -1.3833,1 -2.3185,1 -0.9352,0 -2.2537,0.88584 -2.9298,1.96854 -0.6762,1.0827 -2.6154,2.68528 -4.3094,3.56129 -15.4444,7.98662 -22.2542,49.627997 -13.0491,79.794314 0.533,1.74672 1.3961,5.875846 1.9179,9.175846 0.999,6.31817 3.7632,17.61777 5.137,21 0.7885,1.94102 1.5423,3.9393 5.847,15.5 5.5462,14.89477 6.232,20.42446 3.037,24.48632 -1.7551,2.2312 -7.8745,5.88101 -9.05,5.39768 -0.1552,-0.0638 -1.1634,-0.33985 -2.2404,-0.61344 z"
       id="path3120"
       inkscape:connector-curvature="0" />
    <path
       style="fill:#cccccc;stroke:#000000"
       d="m 1981.6182,740.61374 c 0.058,0.64394 2.2702,2.25544 4.917,3.581 2.6466,1.32558 4.8593,2.93703 4.9169,3.581 0.058,0.64393 1.4655,1.85241 3.1287,2.68539 1.6632,0.83296 3.0711,2.04138 3.1286,2.68538 0.058,0.64392 0.8858,1.56203 1.8404,2.04006 0.9545,0.47809 1.5817,1.17616 1.3938,1.55135 -0.1879,0.37517 0.3405,1.52057 1.1742,2.54528 1.6688,2.05133 2.347,7.8699 1.2111,10.39344 -0.3986,0.88521 -0.6285,2.62739 -0.5113,3.87132 0.2583,2.74136 -9.2934,10.65423 -12.2961,10.18637 -0.9868,-0.15379 -2.9966,0.49604 -4.4663,1.44415 -1.4696,0.94805 -4.0469,1.6582 -5.7273,1.57814 -8.9983,-0.42855 -12.9699,2.48347 -19.181,14.06406 -4.4775,8.34788 -6.7104,11.44145 -11.5625,16.01811 -2.9981,2.82802 -10.7217,9.17602 -11.4145,9.38171 -0.3856,0.11442 -2.0664,1.03414 -3.7351,2.04378 -1.6688,1.00959 -5.7346,2.99951 -9.0354,4.42198 -13.7269,5.91603 -19.4138,21.03307 -9.736,25.88011 2.4805,1.24227 1.3828,8.19237 -2.1858,13.83977 -3.875,6.13234 -4.0157,10.91791 -0.3726,12.67223 4.5908,2.21065 14.9996,10.93017 15.9427,13.35532 0.8814,2.26634 1.0302,13.19756 0.202,14.851 -1.2529,2.50171 1.5861,6.36738 7.3617,10.02395 12.3797,7.8377 15.1682,15.54583 9.4022,25.9905 -3.0588,5.54062 -1.9832,9.50306 3.5517,13.08424 8.5774,5.54972 9.5241,7.44182 6.6225,13.23528 -1.0762,2.14882 -2.4238,3.94874 -2.9948,3.99987 -0.5711,0.0511 -1.983,1.33622 -3.1376,2.85585 -1.1546,1.51967 -2.9386,2.95805 -3.9645,3.1966 -1.0258,0.23888 -2.4332,1.56758 -3.1274,2.95368 -0.6942,1.3861 -1.7891,2.5673 -2.4331,2.6249 -0.6439,0.058 -1.562,0.8858 -2.04,1.8402 -0.4781,0.9546 -1.2716,1.5341 -1.7634,1.2878 -1.6907,-0.8468 -8.2342,13.83404 -8.8436,19.84154 -0.5666,5.5852 -6.7469,23.0229 -9.1177,25.7255 -0.8854,1.0093 -0.6734,2.8826 0.6866,6.0686 5.831,13.6605 6.8304,19.9485 3.3537,21.1048 -0.8317,0.2766 -1.8264,1.1255 -2.2106,1.8866 -1.2994,2.5721 -6.9821,3.968 -12.7461,3.1297 -3.1536,-0.4585 -7.2071,-0.4079 -9.0081,0.1124 -1.8011,0.5204 -7.5558,0.5982 -12.7883,0.1729 -5.2325,-0.4253 -11.7157,-0.6282 -14.4071,-0.4509 -6.2848,0.414 -9.1165,-1.0572 -10.5959,-5.5049 -2.4088,-7.243 0.5621,-10.4368 10.6223,-11.4193 5.7976,-0.5662 14.5093,-3.2492 14.7783,-4.5515 0.093,-0.4521 1.4108,-1.6227 2.9276,-2.6011 2.6305,-1.6969 2.7314,-1.9479 2.1878,-5.4394 -0.3133,-2.0131 -0.4438,-3.9122 -0.2895,-4.2202 0.1542,-0.308 -0.5086,-2.5016 -1.4729,-4.875 -0.9643,-2.3732 -1.4934,-4.8337 -1.1759,-5.4679 0.3176,-0.6341 0.1184,-1.6555 -0.4426,-2.2699 -0.7658,-0.8385 0.1377,-3.6928 3.623,-11.4464 4.9145,-10.933 6.4315,-15.92974 6.7243,-22.14884 0.5437,-11.5486 4.6896,-22.50754 9.9106,-26.19615 6.5642,-4.63767 6.6473,-12.93007 0.1649,-16.44096 -2.0373,-1.10348 -8.9363,-5.28376 -15.3308,-9.28955 -9.5809,-6.00177 -12.3546,-7.38999 -15.7639,-7.8895 -13.5511,-1.9865 -26.9114,-18.20581 -22.4061,-27.20127 1.6556,-3.30567 -3.4859,-8.6135 -12.9633,-13.38293 -9.7647,-4.91399 -9.1486,-4.17264 -11.4452,-13.77188 -0.2018,-0.84417 1.4637,-5.65336 3.7013,-10.68708 4.5462,-10.22696 5.4866,-20.82712 2.0023,-22.57216 -0.5204,-0.26063 -1.1112,-2.31801 -1.3129,-4.57197 -0.2017,-2.25397 -0.9375,-4.38396 -1.635,-4.73329 -0.6976,-0.34938 -0.9907,-1.18949 -0.6514,-1.86694 0.3392,-0.67742 0.2668,-2.02895 -0.1611,-3.00341 -0.4278,-0.97443 -0.388,-2.0123 0.088,-2.30633 0.4766,-0.29406 0.8401,-1.51199 0.8076,-2.70663 -0.044,-1.63721 0.4238,-2.28415 1.9013,-2.62759 1.0779,-0.25062 2.1365,-1.28973 2.3522,-2.30922 0.2528,-1.19465 1.2605,-1.87286 2.8351,-1.90793 1.3435,-0.0299 3.633,-0.41831 5.0877,-0.86317 3.5482,-1.08495 25.8793,-1.47918 26.5034,-0.46786 0.581,0.94161 2.6254,-0.75504 3.8458,-3.19178 0.5604,-1.11903 1.4805,-1.40385 2.6472,-0.81949 1.2999,0.65103 1.4897,1.49171 0.6952,3.07817 -1.2272,2.45034 -0.5232,4.48047 1.0867,3.13363 0.5778,-0.48335 0.3005,0.0747 -0.6202,1.23809 -0.9165,1.16539 -1.3664,2.6055 -0.9992,3.20036 0.3674,0.59501 0.8812,0.65554 1.142,0.13475 0.2608,-0.52079 0.9259,-0.72071 1.4779,-0.44425 0.6954,0.34828 0.4577,0.74232 -0.7735,1.28293 -2.441,1.07187 -2.653,8.18509 -0.2794,9.37385 1.1881,0.595 1.2961,1.25039 0.3794,2.29583 -0.7508,0.8558 -1.1104,5.20192 -0.8664,10.47052 0.2293,4.95406 0.358,10.7659 0.286,12.91522 -0.1785,5.32562 1.4021,9.27585 3.44,8.598 1.1679,-0.38845 1.3679,-1.1587 0.8158,-3.14397 -0.4023,-1.44619 -0.3097,-2.41849 0.2049,-2.16056 0.5151,0.25794 0.9124,-1.43033 0.8833,-3.75171 -0.029,-2.32137 -0.4878,-4.31244 -1.0187,-4.4246 -0.531,-0.11217 -0.3729,-1.38728 0.3514,-2.83356 0.7245,-1.4463 1.0568,-3.0513 0.7388,-3.56669 -0.3179,-0.51537 -0.583,-2.31347 -0.5917,-3.99542 -0.013,-3.73218 -0.1295,-8.13575 -0.2763,-10.46137 -0.06,-0.95283 2e-4,-2.52347 0.1342,-3.49031 0.1338,-0.96687 -0.1794,-2.22088 -0.6962,-2.78677 -0.5168,-0.56583 -0.6809,-2.79345 -0.3648,-4.95026 0.3163,-2.15677 0.2291,-5.09859 -0.1936,-6.53738 -0.4226,-1.43879 -0.5039,-3.1437 -0.1811,-3.7886 1.0092,-2.01513 3.9414,0.37154 4.3056,3.50462 0.285,2.44995 0.7428,2.97824 2.5399,2.92956 3.2833,-0.0889 8.7527,-1.84933 9.3306,-3.00317 0.2797,-0.55831 1.0849,-0.72643 1.7894,-0.3736 0.7045,0.35289 1.9089,-0.004 2.6765,-0.79296 0.7676,-0.78899 2.0969,-1.36566 2.9541,-1.28146 0.857,0.0842 1.8779,-0.48517 2.2687,-1.26525 0.3906,-0.78008 2.4221,-2.79978 4.5143,-4.48835 9.2163,-7.43776 15.199,-17.6351 16.4529,-28.04298 0.1048,-0.87015 0.4612,-2.30543 0.7921,-3.1895 0.917,-2.45153 0.8278,-13.89374 -0.1122,-14.36452 -0.4557,-0.22821 -0.5262,-1.01844 -0.1568,-1.75608 0.3696,-0.73767 0.068,-1.64348 -0.6694,-2.01292 -0.7377,-0.36944 -1.1052,-1.14292 -0.8167,-1.71892 0.2884,-0.57599 0.2137,-2.16527 -0.1664,-3.53157 -1.7289,-6.21672 4.7519,-19.8592 10.1933,-21.45753 1.4576,-0.42816 2.9627,-1.04865 3.3446,-1.37871 5.5046,-4.7582 38.3178,3.87629 38.8867,10.2326 z"
       id="path3116"
       inkscape:connector-curvature="0" />
    <path
       style="fill:#cccccc;stroke:#000000"
       d="m 1865.8929,738.77372 c -0.825,-0.50673 -4.1715,-1.43554 -7.4366,-2.06402 -4.2422,-0.81656 -6.7615,-1.96763 -8.8269,-4.03307 -1.5897,-1.5897 -3.3057,-2.89037 -3.8134,-2.89037 -0.5077,0 -0.9231,-0.64928 -0.9231,-1.44284 0,-0.79356 -0.8674,-2.93106 -1.9275,-4.75 -1.0602,-1.81894 -2.5002,-6.11966 -3.2001,-9.55716 -0.9937,-4.88042 -1.667,-6.25 -3.0725,-6.25 -0.9899,0 -1.7999,-0.39526 -1.7999,-0.87836 0,-4.14514 -12.2532,-2.62066 -23.2745,2.8957 -4.3764,2.19047 -9.0034,3.98266 -10.2823,3.98266 -1.2788,0 -2.5625,0.38397 -2.8525,0.85327 -3.0789,4.98171 -24.5963,0.55308 -34.8126,-7.165 -2.047,-1.54645 -4.972,-3.18709 -6.5,-3.64585 -1.5279,-0.45877 -3.4785,-1.1207 -4.3345,-1.47097 -2.3677,-0.96881 -6.9439,3.57038 -8.0856,8.02019 -1.6509,6.43483 -3.1619,14.75954 -3.1143,17.15836 0.025,1.27882 -0.5571,2.25 -1.3495,2.25 -0.7668,0 -1.3942,0.37813 -1.3942,0.84029 0,1.26983 -10.566,3.54183 -12.6655,2.72344 -49.9052,-3.75817 -23.7034,5.921 -46.7678,-3.40937 -0.3391,-0.9099 -1.3126,-2.90801 -2.1634,-4.44025 -2.8446,-5.12316 -1.0519,-22.33126 2.4481,-23.49791 1.3863,-3.33159 3.6456,-7.67289 3.977,-11.49051 -0.1364,-0.67413 0.3964,-2.35069 1.184,-3.72569 3.8783,-6.77068 5.6362,-29.1541 2.6331,-33.52749 -2.43,-3.53879 -6.0888,-26.18899 -4.5105,-27.92251 -0.8374,-11.49989 5.2633,-25.60727 18.7293,-29.05616 7.3546,-1.88364 25.5582,8.26166 37.3721,14.5778 0.9551,0.5106 4.7316,2.63682 7.2111,0.92836 4.2306,-2.91516 8.4613,-5.83031 12.692,-8.74547 17.4346,-13.56311 45.3162,-28.49533 69.3191,0.58493 6.9593,8.43147 15.1482,15.13196 33.0267,7.98279 7.911,-3.16339 15.02,-15.68104 27.3742,-14.9103 21.7391,1.35624 13.5879,41.02987 12.5112,53.44275 -0.21,2.82991 -0.865,6.33693 -1.4554,7.79337 -1.1939,2.94504 -0.5709,22.75176 0.9233,29.35193 1.1502,5.08078 1.8198,6.71001 8.0466,19.57782 5.7861,11.95703 6.0491,18.10468 0.9529,22.27385 -1.286,1.05204 -2.2301,2.28985 -2.0981,2.7507 0.5978,2.08665 -6.2011,4.01895 -19.5085,5.54441 -2.8976,0.33217 -5.5117,0.99753 -5.809,1.47858 -2.6897,4.35204 -3.7652,-0.44435 -5.5217,-24.62536 -1.6254,-22.37458 -1.6866,-22.66171 -4.756,-22.30627 -2.5536,0.29571 -3.2921,18.32064 -1.8141,44.27881 0.1804,3.16749 -1.5923,4.19691 -4.3307,2.51492 z"
       id="path3114"
       inkscape:connector-curvature="0"
       sodipodi:nodetypes="sssssssssssssssssssccsccsscssscssscsssssssssss" />
    <path
       style="fill:#cccccc;stroke:#000000;stroke-width:1"
       d="m 1627.5584,1056.0244 c -2.2464,0.029 -6.5514,0.5683 -9.5666,1.1994 -3.0153,0.6309 -6.8457,1.0225 -8.5121,0.8695 -1.6664,-0.1529 -4.7599,-0.1882 -6.8744,-0.078 -4.3704,0.227 -7.7363,-2.5447 -11.0609,-9.1082 -1.1071,-2.1857 -2.5683,-3.7864 -3.3078,-3.6237 -0.7285,0.1604 -2.6428,-1.4638 -4.2539,-3.6093 -1.6112,-2.1455 -3.4502,-4.0834 -4.0868,-4.3063 -0.6367,-0.2231 -1.0793,-1.2667 -0.9835,-2.3193 0.096,-1.0527 -0.3611,-2.1012 -1.0146,-2.3303 -0.6812,-0.2386 -1.2351,-1.7929 -1.2975,-3.6403 -0.067,-1.9962 -1.8324,-6.5433 -4.6348,-11.9397 -5.5382,-10.6648 -6.3923,-18.77719 -2.5131,-23.87189 1.2047,-1.5823 2.025,-3.629 1.8227,-4.5481 -0.2023,-0.9191 -0.062,-2.1762 0.3124,-2.7935 1.2398,-2.0459 -0.082,-14.5862 -1.8372,-17.4365 -2.3671,-3.8428 -7.3026,-31.1459 -7.3922,-40.89309 -0.2002,-21.77292 3.0195,-35.39183 9.181,-38.83536 1.1253,-0.62889 2.6009,-2.01149 3.279,-3.07235 1.0815,-1.69192 2.0921,-1.96902 8.2318,-2.25658 3.8494,-0.18036 8.4411,-0.64532 10.2037,-1.03326 1.7625,-0.38792 3.7121,-0.3891 4.3321,-0.003 1.7087,1.06511 9.5871,-2.64089 15.6595,-7.36612 2.92,-2.27228 8.2581,-5.38774 11.8623,-6.92336 7.0615,-3.0085 7.7647,-3.67566 8.6921,-8.24727 1.0691,-5.27009 -2.5722,-12.44081 -5.941,-11.69933 -0.792,0.1743 -1.6229,-0.44916 -1.8466,-1.38546 -0.2235,-0.93635 -1.8441,-3.50739 -3.6009,-5.71344 -2.9949,-3.76058 -3.2131,-4.44774 -3.4953,-11.00596 -0.5643,-13.11822 -4.1146,-19.3794 -11.5176,-20.31223 -1.5929,-0.20071 -2.9979,-0.82727 -3.1223,-1.39236 -0.1244,-0.56508 -1.5446,-0.73724 -3.156,-0.38257 -1.6888,0.3717 -3.0469,0.12843 -3.2062,-0.57425 -0.2772,-1.21281 -5.0701,-2.72384 -7.1756,-2.26043 -0.6075,0.1337 -3.9694,-1.42736 -7.4709,-3.46905 -3.5015,-2.04169 -6.667,-3.64884 -7.0343,-3.57145 -0.3674,0.0778 -1.1405,-0.67683 -1.7179,-1.67607 -0.5774,-0.99925 -1.7091,-1.67171 -2.5148,-1.49437 -1.0099,0.22228 -1.4071,-0.31288 -1.2789,-1.72319 0.1277,-1.40483 -0.5287,-2.29972 -2.0956,-2.85685 -1.255,-0.44619 -2.3867,-1.28815 -2.515,-1.87102 -0.3954,-1.79663 -5.57,-4.33788 -7.8232,-3.84197 -1.6099,0.35433 -2.2629,-0.11408 -2.6573,-1.90597 -0.3423,-1.55527 -1.2802,-2.44462 -2.7157,-2.57517 -1.2061,-0.10967 -3.2124,-0.85108 -4.4584,-1.64757 -1.246,-0.79648 -2.9141,-1.3054 -3.7068,-1.13092 -0.7928,0.17448 -3.0734,-0.24339 -5.0681,-0.92858 -1.9947,-0.6852 -5.175,-0.9527 -7.0672,-0.59447 -11.0777,2.0972 -29.1635,-10.99258 -23.1919,-16.78553 0.4834,-0.46896 0.6917,-1.70334 0.4629,-2.74306 -0.5412,-2.45913 13.3768,-23.0151 14.9166,-22.03082 0.3875,0.24772 2.0679,-0.87216 3.7342,-2.4886 20.9486,-20.32202 34.402,-20.50138 43.4936,-0.5799 3.7457,8.2075 11.0491,22.9066 12.7071,25.57466 10.2456,16.48721 10.5413,16.90771 12.4935,17.76716 1.0089,0.44423 1.905,1.12805 1.9912,1.51961 0.3749,1.70373 10.869,7.12837 16.6272,8.59509 3.4606,0.88143 6.6455,2.13872 7.0777,2.79394 0.4321,0.65522 1.5098,1.04165 2.3948,0.85872 1.3901,-0.2873 11.4865,0.77595 17.1837,1.80963 1.5068,0.27337 1.7557,-0.16448 1.2917,-2.27229 -0.5,-2.2721 -0.2172,-2.64753 2.1791,-2.89301 1.8944,-0.19406 2.7207,0.20451 2.6478,1.27712 -0.1512,2.22763 5.3868,25.40323 6.2938,26.3382 4.2705,4.40217 4.2244,-6.81676 -0.1061,-25.84087 -0.6795,-2.98489 0.5254,-4.6821 2.5764,-3.6291 0.7658,0.39318 4.3633,0.60507 7.9943,0.47086 6.0641,-0.22413 10.4806,-0.20796 15.8838,0.0582 2.9352,0.14457 9.5897,4.02667 9.9856,5.82541 0.1829,0.8309 1.2022,2.06666 2.2652,2.74614 1.7826,1.13944 1.8191,1.36423 0.4705,2.89333 -0.8914,1.01055 -1.0808,2.23631 -0.4853,3.13918 0.5373,0.81473 0.6574,5.34743 0.2669,10.0727 -0.3906,4.72527 -0.8395,10.15654 -0.9977,12.06949 -0.25,3.02309 0.2846,4.19434 4.087,8.95346 2.4061,3.01151 4.4719,5.91707 4.5907,6.45675 0.1188,0.53978 1.0074,1.38943 1.9746,1.88819 1.1305,0.58294 1.6834,1.69456 1.548,3.11241 -0.1158,1.21315 -0.031,2.85731 0.1888,3.65372 0.3766,1.3669 0.1065,3.6011 -1.1147,9.20477 -0.2899,1.33094 -1.0968,2.54526 -1.7928,2.69846 -0.6961,0.15319 -1.5425,1.26104 -1.881,2.46186 -0.3599,1.27671 -1.615,2.40332 -3.0227,2.71315 -1.5291,0.33655 -2.2849,1.08512 -2.072,2.05237 0.1843,0.83736 -0.094,1.37219 -0.6185,1.18853 -1.8342,-0.64246 -5.5788,3.14712 -5.1356,5.19739 0.2434,1.10593 -0.023,3.00755 -0.5817,4.22376 -0.6122,1.33162 -0.5373,4.44818 0.1883,7.83385 0.6632,3.09223 0.7739,5.7173 0.2469,5.83329 -1.5659,0.34463 -1.2544,5.2778 0.4153,6.57747 1.2372,0.96297 1.2413,1.24939 0.022,1.5178 -0.8267,0.18196 -1.8085,-0.17791 -2.1817,-0.79973 -0.5327,-0.88744 -1.159,-0.72103 -2.912,0.77393 -1.5969,1.36158 -3.8966,2.06976 -8.0683,2.48446 -3.209,0.31895 -7.8602,0.79792 -10.3358,1.06448 -2.4756,0.26646 -5.6736,0.19062 -7.1068,-0.16841 -7.8616,-1.96998 -33.1297,7.73324 -33.9217,13.02632 -0.076,0.50772 -0.6526,1.02852 -1.2812,1.15715 -2.1594,0.4425 -9.3704,6.68822 -9.1398,7.91688 0.2612,1.39167 3.3603,0.99187 4.4916,-0.57953 0.8898,-1.23606 9.1694,-2.30251 9.4094,-1.21201 0.2792,1.26854 -4.8735,3.02682 -6.4691,2.20745 -1.0655,-0.54725 -1.7439,-0.37193 -2.3736,0.61355 -1.0813,1.69168 -4.3175,2.51709 -4.6125,1.17657 -0.3113,-1.41434 -2.4453,-0.72053 -5.5865,1.8165 -2.8595,2.30942 -3.2408,5.24602 -0.6058,4.66608 0.8374,-0.18432 1.3477,0.16415 1.1339,0.77436 -0.2137,0.6102 -1.2009,1.28826 -2.1939,1.5068 -1.4627,0.32196 -1.6865,1.39084 -1.1794,5.63525 0.9198,7.69988 0.8015,11.64688 -0.3949,13.18398 -0.5847,0.7512 -0.7187,1.8879 -0.2978,2.5262 0.421,0.6383 0.1559,1.5625 -0.589,2.0538 -0.745,0.4913 -2.0999,2.8072 -3.0109,5.1465 -0.9112,2.3393 -2.1537,5.3928 -2.7612,6.7856 -0.7114,1.6308 -0.6902,3.0841 0.06,4.0826 0.6403,0.8526 1.5437,2.8491 2.0074,4.4365 0.4638,1.5874 2.0597,6.8459 3.5466,11.6856 2.4609,8.0104 2.5856,9.1587 1.391,12.80749 -0.7217,2.2045 -1.1877,4.5741 -1.0354,5.2659 0.1522,0.6918 -0.3862,2.1894 -1.1968,3.3279 -1.9438,2.731 -2.2727,9.9467 -0.6414,14.0718 3.5257,8.9152 3.6733,9.1031 8.1399,10.3568 2.4015,0.6742 5.2219,1.0374 6.2673,0.8073 2.314,-0.5093 15.2396,0.4706 17.5613,1.3315 0.9198,0.341 3.2452,0.9619 5.1674,1.3798 6.195,1.3468 6.2352,9.3496 0.073,14.5792 -3.7554,3.1871 -6.6962,4.09 -13.6075,4.1776 z"
       id="path3108"
       inkscape:connector-curvature="0" />
    <path
       style="fill:#cccccc;stroke:#000000"
       d="m 1061.0237,311.4336 c 1.7399,-0.29892 3.4961,-0.16027 3.9026,0.30811 0.4064,0.46838 1.582,0.83443 2.6123,0.81343 1.5519,-0.0317 4.085,2.62567 14.758,15.48215 9.8631,11.88091 13.8655,16.14725 17.0662,18.19475 2.2999,1.47085 4.0349,2.80119 3.8556,2.95631 -0.1793,0.15504 1.7831,0.98627 4.3611,1.84703 2.5778,0.86082 6.0402,2.18338 7.6941,2.93897 1.654,0.75559 6.4977,1.65448 10.7637,1.9976 4.2662,0.34305 8.6409,1.16629 9.7217,1.82942 1.0808,0.66313 2.2533,0.95641 2.6055,0.65175 0.9515,-0.82306 19.2555,0.85938 20.184,1.85527 0.9331,1.00076 5.687,1.57781 7.5219,0.91307 3.1112,-1.1271 8.9662,4.52515 19.7069,19.02439 10.827,14.61591 21.0393,19.48384 28.0864,13.38805 2.0046,-1.73392 11.6588,-15.2389 12.6652,-17.71689 2.0406,-5.02437 15.9913,-11.8497 17.6747,-8.64733 0.269,0.51178 3.2765,1.06808 6.6835,1.23622 3.4068,0.16821 6.5636,0.73004 7.0151,1.24856 0.4497,0.51997 1.3313,0.50119 1.9552,-0.0385 0.624,-0.53973 1.4692,-0.59438 1.8783,-0.12146 0.5172,0.59798 2.0662,-0.52084 5.0861,-3.67357 2.3883,-2.49339 6.6227,-6.9216 9.4099,-9.84056 9.0571,-9.48535 34.6183,4.63831 34.2973,18.95072 -0.052,2.32587 0.1185,2.39482 3.0491,1.23209 1.7073,-0.67736 3.5171,-0.75444 4.0216,-0.17117 1.0458,1.20902 -1.4412,3.78138 -3.1403,3.24811 -0.617,-0.19355 -1.9071,0.32738 -2.867,1.1577 -0.9599,0.83032 -3.9635,2.30416 -6.6748,3.27527 -2.7113,0.97104 -6.8224,2.67256 -9.136,3.78113 -2.3135,1.10858 -6.428,2.88659 -9.1432,3.95114 -2.7152,1.06455 -6.8307,2.84134 -9.1456,3.94841 -2.3148,1.10707 -5.115,2.34082 -6.2227,2.74166 -3.5526,1.28559 -21.0435,9.02023 -26.3005,11.63029 -2.798,1.38921 -8.2478,4.03082 -12.1108,5.87026 -9.6463,4.59328 -11.6508,6.40221 -9.6532,8.71158 2.269,2.62315 13.3817,-1.33638 45.9867,-16.38562 18.8116,-8.68265 29.4338,-13.26039 30.7729,-13.2619 0.6902,-7.6e-4 2.1398,-0.7668 3.2213,-1.70232 1.0816,-0.93552 2.566,-1.66129 3.2988,-1.61281 0.7328,0.0485 2.3065,-0.50524 3.4972,-1.23047 7.8699,-4.7933 9.8968,-5.72634 11.073,-5.09708 1.9308,1.03296 1.5275,2.15492 -0.9776,2.71968 -2.6904,0.60655 -2.678,1.40683 0.1482,9.60036 1.8625,5.39973 2.7392,7.19454 5.0402,10.31882 0.3471,0.47162 0.585,2.11096 0.5285,3.64314 -0.056,1.53225 0.697,5.60379 1.6746,9.04788 2.62,9.23059 2.2837,21.09799 -0.7796,27.50825 -1.3874,2.90331 -3.0415,6.59591 -3.6757,8.20582 -0.8061,2.04605 -3.2865,4.69995 -8.2403,8.81643 -14.7513,12.25824 -30.7081,26.73134 -30.1645,27.35978 0.3108,0.3593 -1.6971,3.02503 -4.4619,5.92384 -2.7648,2.89882 -7.1662,7.95629 -9.7809,11.23885 -9.8948,12.42212 -23.3051,19.8665 -28.8842,16.03421 -0.8558,-0.5879 -2.0522,-0.63978 -2.6586,-0.11523 -3.4518,2.98581 -15.5783,-8.17289 -18.1728,-16.72236 -0.8677,-2.85923 -2.568,-7.01935 -3.7785,-9.24476 -1.2105,-2.22535 -3.0696,-5.67465 -4.1313,-7.66513 -12.2822,-23.02545 -30.3833,-19.11371 -32.3212,6.98469 -2.01,27.06823 -2.4092,28.66173 -7.7058,30.76314 -1.6445,0.65247 -3.4028,0.70912 -3.9073,0.12586 -0.5045,-0.58327 -1.5236,-0.53601 -2.2648,0.10512 -1.4925,1.29095 -6.3549,-1.43253 -12.0615,-6.75553 -13.1441,-12.26092 -16.3795,-15.02938 -20.0053,-17.11787 -2.2537,-1.29821 -4.7649,-3.12189 -5.5805,-4.05259 -0.8172,-0.9294 -1.8234,-1.39776 -2.2393,-1.03795 -0.416,0.35982 -1.6222,-0.34672 -2.6804,-1.57009 -1.0582,-1.22337 -2.4463,-2.14026 -3.0846,-2.03753 -1.5141,0.24365 -12.8892,-12.90677 -12.43,-14.36995 0.1936,-0.61691 -0.5332,-2.14495 -1.615,-3.39567 -3.1434,-3.63399 -4.1192,-21.39385 -1.309,-23.82463 0.482,-0.41693 0.8593,-1.59746 0.8383,-2.62324 -0.083,-4.05322 7.691,-12.68784 24.5583,-27.27795 16.0381,-13.87296 18.7991,-16.71961 16.8192,-17.34089 -0.5566,-0.17468 -0.6565,-0.98203 -0.222,-1.79414 0.4344,-0.81204 0.2524,-2.09786 -0.4044,-2.85727 -0.6569,-0.75941 -0.7333,-2.13228 -0.1697,-3.05077 1.2253,-1.99706 -2.3284,-7.97902 -7.2101,-12.13695 -4.1947,-3.57263 -7.425,-4.80883 -23.9242,-9.15556 -4.0028,-1.05454 -7.6327,-2.31209 -8.0662,-2.79465 -0.4334,-0.4827 -2.1898,-1.15254 -3.9028,-1.48887 -1.713,-0.33626 -3.6373,-1.20047 -4.2762,-1.92044 -0.6388,-0.7201 -1.502,-1.01463 -1.918,-0.65481 -0.416,0.35981 -1.1769,0.168 -1.6909,-0.42624 -0.514,-0.59425 -1.9316,-1.15259 -3.1502,-1.24082 -1.2186,-0.0882 -3.7631,-1.59652 -5.6543,-3.35187 -1.8913,-1.75536 -4.5014,-3.51415 -5.8003,-3.90855 -2.1162,-0.64255 -7.8764,-4.6942 -11.876,-8.35346 -12.2032,-11.16481 -22.0533,-31.82872 -17.1812,-36.04307 0.589,-0.5095 0.7765,-1.2667 0.4167,-1.68268 -1.0339,-1.1953 4.8121,-5.46863 8.3013,-6.06808 z"
       id="path3106"
       inkscape:connector-curvature="0" />
    <path
       style="fill:#cccccc;stroke:#000000"
       d="m 1962.9855,-31.944842 c 11.8697,0.95147 16.4726,1.87589 16.4502,3.3038 -0.01,0.49943 1.104,1.35337 2.4706,1.89762 2.4972,0.99451 2.9267,2.76576 2.4345,10.03939 -0.4086,6.03739 -2.7897,19.5629698 -3.6301,20.6198398 -2.9829,3.75132 1.9642,14.0342732 7.4525,15.4906832 2.2025,0.58446 4.7789,1.51451 5.7255,2.06677 0.9465,0.55225 2.9121,1.02278 4.368,1.04559 1.4561,0.0228 4.2677,0.48606 6.2483,1.02943 1.9805,0.54337 6.2925,1.54868 9.5821,2.23404 21.3482,4.44758 34.746,23.05766 35.2039,48.899699 0.095,5.36603 0.5746,8.15038 1.5111,8.77476 0.9426,0.62856 1.0291,1.14381 0.2763,1.64751 -0.6024,0.40311 -1.2192,3.881374 -1.3705,7.729476 -0.1513,3.848101 -0.8707,11.712794 -1.5984,17.477094 -0.7276,5.76431 -1.2882,11.73922 -1.2456,13.27757 0.043,1.53838 -0.526,3.0178 -1.2635,3.28763 -0.8742,0.31985 -1.4169,2.45053 -1.5591,6.12163 -0.1196,3.09707 -0.7294,5.93603 -1.3542,6.3088 -0.625,0.37278 -1.1497,1.96641 -1.1662,3.54139 -0.015,1.57501 -0.3636,3.30844 -0.7713,3.85212 -0.4078,0.54367 -1.5955,3.67545 -2.6395,6.95949 -1.044,3.28404 -3.4603,9.1662 -5.3696,13.07146 -1.9094,3.90526 -3.491,7.70594 -3.5148,8.44596 -0.024,0.74002 -0.9408,2.45655 -2.0378,3.81453 -1.0969,1.35798 -2.0124,2.97623 -2.0343,3.59611 -0.022,0.6199 -0.7712,1.7148 -1.6649,2.43312 -0.8935,0.71833 -2.0327,2.33056 -2.5314,3.58275 -2.9984,7.52893 -23.0395,7.39178 -22.9212,-0.15686 0.016,-1.0508 -0.5324,-1.92626 -1.2196,-1.94545 -0.8865,-0.0248 -0.9195,-0.24327 -0.1139,-0.75187 0.6247,-0.39434 1.482,-2.28675 1.9053,-4.20535 0.4232,-1.91861 2.0823,-6.39316 3.6869,-9.94345 1.6047,-3.55029 3.9746,-9.13883 5.2667,-12.41899 1.2921,-3.28015 2.9616,-6.66328 3.7101,-7.51805 2.143,-2.44736 5.7638,-13.89203 5.1812,-16.37729 -0.3852,-1.64347 -0.021,-2.37247 1.354,-2.70907 1.2895,-0.31571 2.0737,-1.67587 2.4938,-4.32558 0.3371,-2.12578 1.1455,-6.10698 1.7965,-8.84711 5.2451,-22.078087 5.18,-23.980891 -0.8143,-23.798033 -2.5925,0.07909 -4.9452,-0.244336 -5.2282,-0.718709 -0.7515,-1.2596 2.2397,-3.361224 3.8582,-2.710851 0.7603,0.305502 1.9141,0.0402 2.564,-0.589664 0.8984,-0.870687 1.3926,-0.791233 2.0625,0.331553 1.4504,2.431216 2.4411,0.311452 3.1531,-6.746986 1.529,-15.15513 -1.5009,-22.541729 -13.3402,-32.522409 -1.9999,-1.68584 -14.0952,-7.58981 -18.5465,-9.05282 -2.189,-0.71947 -4.8738,-1.70519 -5.9664,-2.1905 -1.0925,-0.48531 -6.1394,-1.52212 -11.2152,-2.30403 -5.0759,-0.7819 -9.2232,-1.78425 -9.2163,-2.22746 0.046,-2.95549 -6.8815,-0.7199 -7.224,2.33118 -0.9974,8.88552 -4.3252,3.7465 -4.4162,-6.82005 -0.047,-5.50142 -0.3815,-12.03245 -0.7424,-14.51341 -0.361,-2.48096 -0.6674,-5.1861 -0.6812,-6.01142 -0.014,-0.82532 -0.9242,-1.51466 -2.0233,-1.53189 -2.6061,-0.0408 -3.5467,5.16963 -3.5541,19.68847 -0.01,10.59931 -0.8997,13.83466 -3.3848,12.24445 -0.6063,-0.38794 -0.9592,-1.90695 -0.7843,-3.37557 0.3641,-3.05762 -7.0091,-4.3724 -9.3299,-1.66367 -0.6781,0.79149 -3.1987,1.2949 -6.2619,1.25057 -2.8462,-0.0416 -6.4729,0.63255 -8.1524,1.51442 -6.4963,3.4113 -10.1768,5.36629 -12.3459,6.55783 -3.9484,2.16891 -9.2001,8.08187 -11.6037,13.06485 -1.2788,2.65124 -2.6365,5.04059 -3.0171,5.30966 -0.8754,0.619 -2.0228,7.384699 -2.8318,16.697229 -0.6765,7.787757 0.5,18.74477 2.8788,26.80885 0.8151,2.76311 2.1357,7.28436 2.9348,10.04722 0.7991,2.76286 1.8333,5.4569 2.2982,5.98675 0.465,0.52985 0.8324,1.78876 0.8166,2.79758 -0.025,1.60217 0.5733,1.77102 4.7297,1.33465 5.9119,-0.62067 8.745,0.91114 5.7608,3.11485 -1.0803,0.79772 -3.228,1.43059 -4.7727,1.40638 -3.4476,-0.054 -3.5,0.66364 -0.3935,5.39936 1.3431,2.04747 2.4317,4.37761 2.4191,5.17809 -0.013,0.80047 0.3211,1.4608 0.7412,1.46739 0.4203,0.007 1.491,1.76451 2.3793,3.90649 0.8883,2.14199 2.1956,4.52526 2.905,5.29617 6.5127,7.07792 14.5347,25.56758 12.8088,29.52282 -1.6211,3.71511 -8.1461,9.4363 -10.7161,9.39603 -2.1972,-0.0344 -8.8475,-2.97061 -8.8388,-3.90241 0.01,-0.40507 -1.3183,-2.1956 -2.938,-3.97888 -1.6198,-1.78327 -2.9386,-3.64692 -2.9309,-4.14145 0.01,-0.49452 -0.8399,-1.69676 -1.8838,-2.67164 -1.0439,-0.97487 -3.08,-4.33944 -4.5248,-7.4768 -1.4448,-3.13738 -3.6657,-7.15325 -4.9353,-8.92417 -1.2696,-1.77091 -2.3039,-3.50999 -2.2983,-3.86462 0.01,-0.35462 -1.5465,-4.12193 -3.4491,-8.37179 -3.554,-7.9386 -3.9606,-8.89535 -6.708,-15.77893 -2.8246,-7.07725 -3.1123,-7.91733 -5.2981,-15.46987 -1.1811,-4.08073 -2.2437,-8.59794 -2.3614,-10.03824 -0.1176,-1.4403 -0.8955,-5.21272 -1.7285,-8.38314 -4.958,-18.86902 -1.8813,-45.524859 6.4472,-55.857219 1.6163,-2.00517 2.9444,-4.01212 2.9514,-4.4599 0.01,-0.44778 1.6535,-2.13607 3.6587,-3.75176 2.0052,-1.6157 4.2782,-4.11142 5.0512,-5.54603 1.7232,-3.19846 8.475,-6.72675 12.8243,-6.70156 1.7706,0.0103 4.103,-0.62828 5.1833,-1.41895 1.0801,-0.79068 3.1152,-1.41991 4.5224,-1.39829 6.9879,0.10752 14.8827,-5.2399 15.7121,-10.64203 0.8363,-5.4467632 0.1128,-12.7486132 -1.3572,-13.6889932 -0.4972,-0.31818 -0.8802,-2.1002 -0.8511,-3.96005 0.029,-1.85985 -0.3926,-3.6666798 -0.9372,-4.0151798 -6.1368,-3.92696 1.5978,-21.40569 9.4884,-21.44226 2.3924,-0.0111 7.7258,-0.0654 11.8521,-0.12065 4.1264,-0.0553 12.4469,0.29584 18.4901,0.78025 z"
       id="path3102"
       inkscape:connector-curvature="0" />
  </g>
</svg>
