  0
SECTION
  2
HEADER
  9
$ACADVER
  1
AC1009
  9
$DWGCODEPAGE
  3
ansi_1252
  9
$INSBASE
 10
0.0
 20
0.0
 30
0.0
  9
$EXTMIN
 10
3.407097315436327
 20
0.9664055311213602
 30
0.0
  9
$EXTMAX
 10
34.21094561362691
 20
28.77533464584501
 30
0.0
  9
$LIMMIN
 10
0.0
 20
0.0
  9
$LIMMAX
 10
12.0
 20
9.0
  9
$ORTHOMODE
 70
     0
  9
$REGENMODE
 70
     1
  9
$FILLMODE
 70
     1
  9
$QTEXTMODE
 70
     0
  9
$MIRRTEXT
 70
     1
  9
$DRAGMODE
 70
     2
  9
$LTSCALE
 40
1.0
  9
$OSMODE
 70
    37
  9
$ATTMODE
 70
     1
  9
$TEXTSIZE
 40
0.2
  9
$TRACEWID
 40
0.05
  9
$TEXTSTYLE
  7
STANDARD
  9
$CLAYER
  8
0
  9
$CELTYPE
  6
BYLAYER
  9
$CECOLOR
 62
   256
  9
$DIMSCALE
 40
1.0
  9
$DIMASZ
 40
0.18
  9
$DIMEXO
 40
0.0625
  9
$DIMDLI
 40
0.38
  9
$DIMRND
 40
0.0
  9
$DIMDLE
 40
0.0
  9
$DIMEXE
 40
0.18
  9
$DIMTP
 40
0.0
  9
$DIMTM
 40
0.0
  9
$DIMTXT
 40
0.18
  9
$DIMCEN
 40
0.09
  9
$DIMTSZ
 40
0.0
  9
$DIMTOL
 70
     0
  9
$DIMLIM
 70
     0
  9
$DIMTIH
 70
     1
  9
$DIMTOH
 70
     1
  9
$DIMSE1
 70
     0
  9
$DIMSE2
 70
     0
  9
$DIMTAD
 70
     0
  9
$DIMZIN
 70
     0
  9
$DIMBLK
  1

  9
$DIMASO
 70
     1
  9
$DIMSHO
 70
     1
  9
$DIMPOST
  1

  9
$DIMAPOST
  1

  9
$DIMALT
 70
     0
  9
$DIMALTD
 70
     2
  9
$DIMALTF
 40
25.4
  9
$DIMLFAC
 40
1.0
  9
$DIMTOFL
 70
     0
  9
$DIMTVP
 40
0.0
  9
$DIMTIX
 70
     0
  9
$DIMSOXD
 70
     0
  9
$DIMSAH
 70
     0
  9
$DIMBLK1
  1

  9
$DIMBLK2
  1

  9
$DIMSTYLE
  2
STANDARD
  9
$DIMCLRD
 70
     0
  9
$DIMCLRE
 70
     0
  9
$DIMCLRT
 70
     0
  9
$DIMTFAC
 40
1.0
  9
$DIMGAP
 40
0.09
  9
$LUNITS
 70
     2
  9
$LUPREC
 70
     4
  9
$SKETCHINC
 40
0.1
  9
$FILLETRAD
 40
0.5
  9
$AUNITS
 70
     0
  9
$AUPREC
 70
     0
  9
$MENU
  1
.
  9
$ELEVATION
 40
0.0
  9
$PELEVATION
 40
0.0
  9
$THICKNESS
 40
0.0
  9
$LIMCHECK
 70
     0
  9
$CHAMFERA
 40
0.0
  9
$CHAMFERB
 40
0.0
  9
$SKPOLY
 70
     0
  9
$TDCREATE
 40
2454910.5
  9
$TDUPDATE
 40
2456657.070948704
  9
$TDINDWG
 40
0.0000000116
  9
$TDUSRTIMER
 40
0.0000000116
  9
$USRTIMER
 70
     1
  9
$ANGBASE
 50
0.0
  9
$ANGDIR
 70
     0
  9
$PDMODE
 70
     0
  9
$PDSIZE
 40
0.0
  9
$PLINEWID
 40
0.0
  9
$COORDS
 70
     1
  9
$SPLFRAME
 70
     0
  9
$SPLINETYPE
 70
     6
  9
$SPLINESEGS
 70
     8
  9
$ATTDIA
 70
     0
  9
$ATTREQ
 70
     1
  9
$HANDLING
 70
     1
  9
$HANDSEED
  5
1C3
  9
$SURFTAB1
 70
     6
  9
$SURFTAB2
 70
     6
  9
$SURFTYPE
 70
     6
  9
$SURFU
 70
     6
  9
$SURFV
 70
     6
  9
$UCSNAME
  2

  9
$UCSORG
 10
0.0
 20
0.0
 30
0.0
  9
$UCSXDIR
 10
1.0
 20
0.0
 30
0.0
  9
$UCSYDIR
 10
0.0
 20
1.0
 30
0.0
  9
$PUCSNAME
  2

  9
$PUCSORG
 10
0.0
 20
0.0
 30
0.0
  9
$PUCSXDIR
 10
1.0
 20
0.0
 30
0.0
  9
$PUCSYDIR
 10
0.0
 20
1.0
 30
0.0
  9
$USERI1
 70
     0
  9
$USERI2
 70
     0
  9
$USERI3
 70
     0
  9
$USERI4
 70
     0
  9
$USERI5
 70
     0
  9
$USERR1
 40
0.0
  9
$USERR2
 40
0.0
  9
$USERR3
 40
0.0
  9
$USERR4
 40
0.0
  9
$USERR5
 40
0.0
  9
$WORLDVIEW
 70
     1
  9
$SHADEDGE
 70
     3
  9
$SHADEDIF
 70
    70
  9
$TILEMODE
 70
     1
  9
$MAXACTVP
 70
    64
  9
$PLIMCHECK
 70
     0
  9
$PEXTMIN
 10
1.000000000000000E+20
 20
1.000000000000000E+20
 30
1.000000000000000E+20
  9
$PEXTMAX
 10
-1.000000000000000E+20
 20
-1.000000000000000E+20
 30
-1.000000000000000E+20
  9
$PLIMMIN
 10
0.0
 20
0.0
  9
$PLIMMAX
 10
12.0
 20
9.0
  9
$UNITMODE
 70
     0
  9
$VISRETAIN
 70
     1
  9
$PLINEGEN
 70
     0
  9
$PSLTSCALE
 70
     1
  0
ENDSEC
  0
SECTION
  2
TABLES
  0
TABLE
  2
VPORT
 70
     1
  0
VPORT
  2
*ACTIVE
 70
     0
 10
0.0
 20
0.0
 11
1.0
 21
1.0
 12
10.42990654205607
 22
4.5
 13
0.0
 23
0.0
 14
0.5
 24
0.5
 15
0.5
 25
0.5
 16
0.0
 26
0.0
 36
1.0
 17
0.0
 27
0.0
 37
0.0
 40
9.0
 41
1.972972972850329
 42
50.0
 43
0.0
 44
0.0
 50
0.0
 51
0.0
 71
     0
 72
   100
 73
     1
 74
     3
 75
     0
 76
     0
 77
     0
 78
     0
  0
ENDTAB
  0
TABLE
  2
LTYPE
 70
     2
  0
LTYPE
  2
CONTINUOUS
 70
     0
  3
Solid line
 72
    65
 73
     0
 40
0.0
  0
LTYPE
  2
CONTINUOUS2
 70
     0
  3
Solid Line
 72
    65
 73
     0
 40
0.0
  0
ENDTAB
  0
TABLE
  2
LAYER
 70
     4
  0
LAYER
  2
0
 70
     0
 62
     7
  6
CONTINUOUS
  0
LAYER
  2
FRONT
 70
     0
 62
    18
  6
CONTINUOUS
  0
LAYER
  2
BACK_BACK
 70
     0
 62
    18
  6
CONTINUOUS
  0
LAYER
  2
CF_BACK
 70
     0
 62
    18
  6
CONTINUOUS
  0
ENDTAB
  0
TABLE
  2
STYLE
 70
     1
  0
STYLE
  2
STANDARD
 70
     0
 40
0.0
 41
1.0
 50
0.0
 71
     0
 42
0.2
  3
txt
  4

  0
ENDTAB
  0
TABLE
  2
VIEW
 70
     0
  0
ENDTAB
  0
TABLE
  2
UCS
 70
     0
  0
ENDTAB
  0
TABLE
  2
APPID
 70
     1
  0
APPID
  2
ACAD
 70
     0
  0
ENDTAB
  0
TABLE
  2
DIMSTYLE
 70
     1
  0
DIMSTYLE
  2
STANDARD
 70
     0
  3

  4

  5

  6

  7

 40
1.0
 41
0.18
 42
0.0625
 43
0.38
 44
0.18
 45
0.0
 46
0.0
 47
0.0
 48
0.0
140
0.18
141
0.09
142
0.0
143
25.4
144
1.0
145
0.0
146
1.0
147
0.09
 71
     0
 72
     0
 73
     1
 74
     1
 75
     0
 76
     0
 77
     0
 78
     0
170
     0
171
     2
172
     0
173
     0
174
     0
175
     0
176
     0
177
     0
178
     0
  0
ENDTAB
  0
ENDSEC
  0
SECTION
  2
BLOCKS
  0
BLOCK
  8
0
  2
$MODEL_SPACE
 70
     0
 10
0.0
 20
0.0
 30
0.0
  3
$MODEL_SPACE
  1

  0
ENDBLK
  5
21
  8
0
  0
BLOCK
 67
     1
  8
0
  2
$PAPER_SPACE
 70
     0
 10
0.0
 20
0.0
 30
0.0
  3
$PAPER_SPACE
  1

  0
ENDBLK
  5
1D
 67
     1
  8
0
  0
ENDSEC
  0
SECTION
  2
ENTITIES
  0
POLYLINE
  5
6C
  8
FRONT
 66
     1
 10
0.0
 20
0.0
 30
0.0
 70
     1
  0
VERTEX
  5
A1
  8
FRONT
 10
34.21094561362691
 20
7.608335531121362
 30
0.0
 42
0.4142135623730951
  0
VERTEX
  5
A2
  8
FRONT
 10
33.81744561362692
 20
8.001835531121358
 30
0.0
  0
VERTEX
  5
A3
  8
FRONT
 10
24.26194561362691
 20
8.001835531121365
 30
0.0
 42
0.4142135623730951
  0
VERTEX
  5
A4
  8
FRONT
 10
23.86844561362691
 20
7.608335531121362
 30
0.0
  0
VERTEX
  5
A5
  8
FRONT
 10
23.86844561362691
 20
1.35990553112136
 30
0.0
 42
0.4142135623730951
  0
VERTEX
  5
A6
  8
FRONT
 10
24.26194561362691
 20
0.9664055311213602
 30
0.0
  0
VERTEX
  5
A7
  8
FRONT
 10
33.81744561362691
 20
0.9664055311213602
 30
0.0
 42
0.4142135623730951
  0
VERTEX
  5
A8
  8
FRONT
 10
34.21094561362691
 20
1.35990553112136
 30
0.0
  0
SEQEND
  5
197
  8
FRONT
  0
POLYLINE
  5
6D
  8
FRONT
 66
     1
 10
0.0
 20
0.0
 30
0.0
 70
     1
  0
VERTEX
  5
A9
  8
FRONT
 10
29.56361124340859
 20
14.4490127996951
 30
0.0
  0
VERTEX
  5
AA
  8
FRONT
 10
29.56275122668758
 20
14.34901649790729
 30
0.0
  0
VERTEX
  5
AB
  8
FRONT
 10
29.96273643383884
 20
14.34557643102326
 30
0.0
  0
VERTEX
  5
AC
  8
FRONT
 10
29.89315770238809
 20
11.59042411899713
 30
0.0
  0
VERTEX
  5
AD
  8
FRONT
 10
29.49317249523684
 20
11.59386418588116
 30
0.0
  0
VERTEX
  5
AE
  8
FRONT
 10
29.49231247851584
 20
11.49386788409334
 30
0.0
  0
VERTEX
  5
AF
  8
FRONT
 10
29.19232357315239
 20
11.49644793425636
 30
0.0
  0
VERTEX
  5
B0
  8
FRONT
 10
29.20178375708347
 20
12.59640725392232
 30
0.0
  0
VERTEX
  5
B1
  8
FRONT
 10
29.10178745529565
 20
12.59726727064333
 30
0.0
  0
VERTEX
  5
B2
  8
FRONT
 10
29.10608753890068
 20
13.09724877958239
 30
0.0
  0
VERTEX
  5
B3
  8
FRONT
 10
28.60610602996161
 20
13.10154886318743
 30
0.0
  0
VERTEX
  5
B4
  8
FRONT
 10
28.5061097281738
 20
13.10240887990843
 30
0.0
  0
VERTEX
  5
B5
  8
FRONT
 10
28.51814996226789
 20
14.50235710493783
 30
0.0
  0
VERTEX
  5
B6
  8
FRONT
 10
29.56399267106396
 20
14.49336235012164
 30
0.0
  0
VERTEX
  5
B7
  8
FRONT
 10
29.56313265434295
 20
14.39336604833382
 30
0.0
  0
VERTEX
  5
B8
  8
FRONT
 10
29.56399267106396
 20
14.49336235012164
 30
0.0
  0
VERTEX
  5
B9
  8
FRONT
 10
29.56313265434295
 20
14.39336604833382
 30
0.0
  0
SEQEND
  5
198
  8
FRONT
  0
POLYLINE
  5
6E
  8
FRONT
 66
     1
 10
0.0
 20
0.0
 30
0.0
 70
     1
  0
VERTEX
  5
BA
  8
FRONT
 10
16.59290268456367
 20
1.236039300199983
 30
0.0
  0
VERTEX
  5
BB
  8
FRONT
 10
16.59290268456367
 20
11.12539332704549
 30
0.0
  0
VERTEX
  5
BC
  8
FRONT
 10
3.407097315436327
 20
11.12539332704549
 30
0.0
  0
VERTEX
  5
BD
  8
FRONT
 10
3.407097315436327
 20
1.236039300199983
 30
0.0
  0
SEQEND
  5
199
  8
FRONT
  0
POLYLINE
  5
6F
  8
FRONT
 66
     1
 10
0.0
 20
0.0
 30
0.0
 70
     1
  0
VERTEX
  5
BE
  8
FRONT
 10
8.417289840951824
 20
27.69598753511933
 30
0.0
 42
0.4142135623730951
  0
VERTEX
  5
BF
  8
FRONT
 10
8.317289840951823
 20
27.79598753511933
 30
0.0
 42
0.4142135623730951
  0
VERTEX
  5
C0
  8
FRONT
 10
8.217289840951821
 20
27.69598753511933
 30
0.0
 42
0.4142135623730951
  0
VERTEX
  5
C1
  8
FRONT
 10
8.317289840951823
 20
27.59598753511933
 30
0.0
 42
0.4142135623730951
  0
SEQEND
  5
19A
  8
FRONT
  0
POLYLINE
  5
70
  8
FRONT
 66
     1
 10
0.0
 20
0.0
 30
0.0
 70
     1
  0
VERTEX
  5
C2
  8
FRONT
 10
8.028667363873488
 20
27.69598753511933
 30
0.0
 42
0.4142135623730951
  0
VERTEX
  5
C3
  8
FRONT
 10
7.928667363873486
 20
27.79598753511933
 30
0.0
 42
0.4142135623730951
  0
VERTEX
  5
C4
  8
FRONT
 10
7.828667363873492
 20
27.69598753511933
 30
0.0
 42
0.4142135623730951
  0
VERTEX
  5
C5
  8
FRONT
 10
7.928667363873486
 20
27.59598753511933
 30
0.0
 42
0.4142135623730951
  0
SEQEND
  5
19B
  8
FRONT
  0
POLYLINE
  5
71
  8
FRONT
 66
     1
 10
0.0
 20
0.0
 30
0.0
 70
     1
  0
VERTEX
  5
C6
  8
FRONT
 10
7.048031206759943
 20
27.67824697398459
 30
0.0
 42
0.4142135623730951
  0
VERTEX
  5
C7
  8
FRONT
 10
6.948031206759942
 20
27.77824697398459
 30
0.0
 42
0.4142135623730951
  0
VERTEX
  5
C8
  8
FRONT
 10
6.848031206759944
 20
27.67824697398459
 30
0.0
 42
0.4142135623730951
  0
VERTEX
  5
C9
  8
FRONT
 10
6.948031206759942
 20
27.57824697398459
 30
0.0
 42
0.4142135623730951
  0
SEQEND
  5
19C
  8
FRONT
  0
POLYLINE
  5
72
  8
FRONT
 66
     1
 10
0.0
 20
0.0
 30
0.0
 70
     1
  0
VERTEX
  5
CA
  8
FRONT
 10
6.655776743914525
 20
27.67824697398459
 30
0.0
 42
0.4142135623730951
  0
VERTEX
  5
CB
  8
FRONT
 10
6.555776743914524
 20
27.77824697398459
 30
0.0
 42
0.4142135623730951
  0
VERTEX
  5
CC
  8
FRONT
 10
6.455776743914526
 20
27.67824697398459
 30
0.0
 42
0.4142135623730951
  0
VERTEX
  5
CD
  8
FRONT
 10
6.555776743914524
 20
27.57824697398459
 30
0.0
 42
0.4142135623730951
  0
SEQEND
  5
19D
  8
FRONT
  0
POLYLINE
  5
73
  8
FRONT
 66
     1
 10
0.0
 20
0.0
 30
0.0
 70
     1
  0
VERTEX
  5
CE
  8
FRONT
 10
7.684717299549631
 20
27.69598753511933
 30
0.0
 42
0.4142135623730951
  0
VERTEX
  5
CF
  8
FRONT
 10
7.434717299549628
 20
27.94598753511933
 30
0.0
 42
0.4142135623730951
  0
VERTEX
  5
D0
  8
FRONT
 10
7.184717299549628
 20
27.69598753511933
 30
0.0
 42
0.4142135623730951
  0
VERTEX
  5
D1
  8
FRONT
 10
7.434717299549628
 20
27.44598753511933
 30
0.0
 42
0.4142135623730951
  0
SEQEND
  5
19E
  8
FRONT
  0
POLYLINE
  5
74
  8
FRONT
 66
     1
 10
0.0
 20
0.0
 30
0.0
 70
     1
  0
VERTEX
  5
D2
  8
FRONT
 10
8.314667110878652
 20
28.31970850332006
 30
0.0
  0
VERTEX
  5
D3
  8
FRONT
 10
8.65077269799859
 20
28.31970850332006
 30
0.0
 42
-0.4142135623730951
  0
VERTEX
  5
D4
  8
FRONT
 10
8.900772697998592
 20
28.06970850332006
 30
0.0
  0
VERTEX
  5
D5
  8
FRONT
 10
8.900772697998592
 20
22.94470850332006
 30
0.0
 42
-0.4142135623730951
  0
VERTEX
  5
D6
  8
FRONT
 10
8.65077269799859
 20
22.69470850332006
 30
0.0
  0
VERTEX
  5
D7
  8
FRONT
 10
6.338272697998593
 20
22.69470850332006
 30
0.0
 42
-0.4142135623730951
  0
VERTEX
  5
D8
  8
FRONT
 10
6.088272697998593
 20
22.94470850332006
 30
0.0
  0
VERTEX
  5
D9
  8
FRONT
 10
6.088272697998593
 20
28.06970850332006
 30
0.0
 42
-0.4142135623730951
  0
VERTEX
  5
DA
  8
FRONT
 10
6.338272697998593
 20
28.31970850332006
 30
0.0
  0
VERTEX
  5
DB
  8
FRONT
 10
7.814667110878651
 20
28.31970850332006
 30
0.0
  0
VERTEX
  5
DC
  8
FRONT
 10
7.814667110878651
 20
28.77533464584501
 30
0.0
  0
VERTEX
  5
DD
  8
FRONT
 10
8.314667110878652
 20
28.77533464584501
 30
0.0
  0
SEQEND
  5
19F
  8
FRONT
  0
POLYLINE
  5
75
  8
FRONT
 66
     1
 10
0.0
 20
0.0
 30
0.0
 70
     1
  0
VERTEX
  5
DE
  8
FRONT
 10
16.12483677091098
 20
10.6843
 30
0.0
 42
0.4142135623730951
  0
VERTEX
  5
DF
  8
FRONT
 10
15.99983677091098
 20
10.5593
 30
0.0
 42
0.4142135623730951
  0
VERTEX
  5
E0
  8
FRONT
 10
16.12483677091098
 20
10.4343
 30
0.0
 42
0.4142135623730951
  0
VERTEX
  5
E1
  8
FRONT
 10
16.24983677091098
 20
10.5593
 30
0.0
 42
0.4142135623730951
  0
SEQEND
  5
1A0
  8
FRONT
  0
POLYLINE
  5
76
  8
FRONT
 66
     1
 10
0.0
 20
0.0
 30
0.0
 70
     1
  0
VERTEX
  5
E2
  8
FRONT
 10
16.12483677091098
 20
1.9272
 30
0.0
 42
0.4142135623730951
  0
VERTEX
  5
E3
  8
FRONT
 10
15.99983677091098
 20
1.8022
 30
0.0
 42
0.4142135623730951
  0
VERTEX
  5
E4
  8
FRONT
 10
16.12483677091098
 20
1.6772
 30
0.0
 42
0.4142135623730951
  0
VERTEX
  5
E5
  8
FRONT
 10
16.24983677091098
 20
1.8022
 30
0.0
 42
0.4142135623730951
  0
SEQEND
  5
1A1
  8
FRONT
  0
POLYLINE
  5
77
  8
FRONT
 66
     1
 10
0.0
 20
0.0
 30
0.0
 70
     1
  0
VERTEX
  5
E6
  8
FRONT
 10
3.875136770910979
 20
1.9272
 30
0.0
 42
0.4142135623730951
  0
VERTEX
  5
E7
  8
FRONT
 10
3.750136770910979
 20
1.8022
 30
0.0
 42
0.4142135623730951
  0
VERTEX
  5
E8
  8
FRONT
 10
3.875136770910979
 20
1.6772
 30
0.0
 42
0.4142135623730951
  0
VERTEX
  5
E9
  8
FRONT
 10
4.000136770910979
 20
1.8022
 30
0.0
 42
0.4142135623730951
  0
SEQEND
  5
1A2
  8
FRONT
  0
POLYLINE
  5
78
  8
FRONT
 66
     1
 10
0.0
 20
0.0
 30
0.0
 70
     1
  0
VERTEX
  5
EA
  8
FRONT
 10
3.875136770910979
 20
10.6843
 30
0.0
 42
0.4142135623730951
  0
VERTEX
  5
EB
  8
FRONT
 10
3.750136770910979
 20
10.5593
 30
0.0
 42
0.4142135623730951
  0
VERTEX
  5
EC
  8
FRONT
 10
3.875136770910979
 20
10.4343
 30
0.0
 42
0.4142135623730951
  0
VERTEX
  5
ED
  8
FRONT
 10
4.000136770910979
 20
10.5593
 30
0.0
 42
0.4142135623730951
  0
SEQEND
  5
1A3
  8
FRONT
  0
POLYLINE
  5
79
  8
FRONT
 66
     1
 10
0.0
 20
0.0
 30
0.0
 70
     1
  0
VERTEX
  5
EE
  8
FRONT
 10
16.59290268456367
 20
1.236030582799797
 30
0.0
  0
VERTEX
  5
EF
  8
FRONT
 10
16.59290268456367
 20
11.12538460964531
 30
0.0
  0
VERTEX
  5
F0
  8
FRONT
 10
3.407097315436331
 20
11.12538460964531
 30
0.0
  0
VERTEX
  5
F1
  8
FRONT
 10
3.407097315436331
 20
1.236030582799797
 30
0.0
  0
SEQEND
  5
1A4
  8
FRONT
  0
POLYLINE
  5
7A
  8
FRONT
 66
     1
 10
0.0
 20
0.0
 30
0.0
 70
     1
  0
VERTEX
  5
F2
  8
FRONT
 10
14.77775
 20
2.647401313622735
 30
0.0
 42
0.4142135623730961
  0
VERTEX
  5
F3
  8
FRONT
 10
15.18685
 20
3.056501313622737
 30
0.0
  0
VERTEX
  5
F4
  8
FRONT
 10
15.18685
 20
9.304931313622738
 30
0.0
 42
0.4142135623730953
  0
VERTEX
  5
F5
  8
FRONT
 10
14.77775
 20
9.71403131362274
 30
0.0
  0
VERTEX
  5
F6
  8
FRONT
 10
5.222249999999998
 20
9.71403131362274
 30
0.0
 42
0.4142135623730901
  0
VERTEX
  5
F7
  8
FRONT
 10
4.813149999999999
 20
9.304931313622745
 30
0.0
  0
VERTEX
  5
F8
  8
FRONT
 10
4.813149999999999
 20
3.056501313622739
 30
0.0
 42
0.4142135623730983
  0
VERTEX
  5
F9
  8
FRONT
 10
5.222249999999998
 20
2.647401313622746
 30
0.0
  0
SEQEND
  5
1A5
  8
FRONT
  0
POLYLINE
  5
7B
  8
FRONT
 66
     1
 10
0.0
 20
0.0
 30
0.0
 70
     1
  0
VERTEX
  5
FA
  8
FRONT
 10
15.42125
 20
3.056501313622737
 30
0.0
  0
VERTEX
  5
FB
  8
FRONT
 10
15.42125
 20
9.304931313622738
 30
0.0
 42
0.414213562373095
  0
VERTEX
  5
FC
  8
FRONT
 10
14.77775
 20
9.948431313622741
 30
0.0
  0
VERTEX
  5
FD
  8
FRONT
 10
5.222250000000002
 20
9.948431313622741
 30
0.0
 42
0.4142135623730929
  0
VERTEX
  5
FE
  8
FRONT
 10
4.578749999999999
 20
9.304931313622745
 30
0.0
  0
VERTEX
  5
FF
  8
FRONT
 10
4.578749999999999
 20
3.056501313622739
 30
0.0
 42
0.414213562373095
  0
VERTEX
  5
100
  8
FRONT
 10
5.222249999999998
 20
2.413001313622745
 30
0.0
  0
VERTEX
  5
101
  8
FRONT
 10
14.77775
 20
2.413001313622734
 30
0.0
 42
0.4142135623730951
  0
SEQEND
  5
1A6
  8
FRONT
  0
POLYLINE
  5
7C
  8
FRONT
 66
     1
 10
0.0
 20
0.0
 30
0.0
 70
     1
  0
VERTEX
  5
102
  8
FRONT
 10
5.313149999999999
 20
3.054883902159891
 30
0.0
  0
VERTEX
  5
103
  8
FRONT
 10
14.68685
 20
3.05488390215988
 30
0.0
  0
VERTEX
  5
104
  8
FRONT
 10
14.68685
 20
9.306548725085594
 30
0.0
  0
VERTEX
  5
105
  8
FRONT
 10
5.313149999999999
 20
9.306548725085594
 30
0.0
  0
SEQEND
  5
1A7
  8
FRONT
  0
POLYLINE
  5
7D
  8
FRONT
 66
     1
 10
0.0
 20
0.0
 30
0.0
 70
     1
  0
VERTEX
  5
106
  8
FRONT
 10
5.41315
 20
9.206548725085593
 30
0.0
  0
VERTEX
  5
107
  8
FRONT
 10
5.41315
 20
3.154883902159892
 30
0.0
  0
VERTEX
  5
108
  8
FRONT
 10
14.58685
 20
3.15488390215988
 30
0.0
  0
VERTEX
  5
109
  8
FRONT
 10
14.58685
 20
9.206548725085593
 30
0.0
  0
SEQEND
  5
1A8
  8
FRONT
  0
POLYLINE
  5
7F
  8
BACK_BACK
 66
     1
 10
0.0
 20
0.0
 30
0.0
 70
     1
  0
VERTEX
  5
10A
  8
BACK_BACK
 10
8.43211041850789
 20
27.67373465100059
 30
0.0
 42
0.4142135623730951
  0
VERTEX
  5
10B
  8
BACK_BACK
 10
8.332110418507888
 20
27.77373465100059
 30
0.0
 42
0.4142135623730951
  0
VERTEX
  5
10C
  8
BACK_BACK
 10
8.232110418507887
 20
27.67373465100059
 30
0.0
 42
0.4142135623730951
  0
VERTEX
  5
10D
  8
BACK_BACK
 10
8.332110418507888
 20
27.57373465100059
 30
0.0
 42
0.4142135623730951
  0
SEQEND
  5
1A9
  8
BACK_BACK
  0
POLYLINE
  5
80
  8
BACK_BACK
 66
     1
 10
0.0
 20
0.0
 30
0.0
 70
     1
  0
VERTEX
  5
10E
  8
BACK_BACK
 10
8.043487941429554
 20
27.67373465100059
 30
0.0
 42
0.4142135623730951
  0
VERTEX
  5
10F
  8
BACK_BACK
 10
7.943487941429551
 20
27.77373465100059
 30
0.0
 42
0.4142135623730951
  0
VERTEX
  5
110
  8
BACK_BACK
 10
7.843487941429557
 20
27.67373465100059
 30
0.0
 42
0.4142135623730951
  0
VERTEX
  5
111
  8
BACK_BACK
 10
7.943487941429551
 20
27.57373465100059
 30
0.0
 42
0.4142135623730951
  0
SEQEND
  5
1AA
  8
BACK_BACK
  0
POLYLINE
  5
81
  8
BACK_BACK
 66
     1
 10
0.0
 20
0.0
 30
0.0
 70
     1
  0
VERTEX
  5
112
  8
BACK_BACK
 10
7.062851784316009
 20
27.65599408986586
 30
0.0
 42
0.4142135623730951
  0
VERTEX
  5
113
  8
BACK_BACK
 10
6.962851784316007
 20
27.75599408986586
 30
0.0
 42
0.4142135623730951
  0
VERTEX
  5
114
  8
BACK_BACK
 10
6.86285178431601
 20
27.65599408986586
 30
0.0
 42
0.4142135623730951
  0
VERTEX
  5
115
  8
BACK_BACK
 10
6.962851784316007
 20
27.55599408986586
 30
0.0
 42
0.4142135623730951
  0
SEQEND
  5
1AB
  8
BACK_BACK
  0
POLYLINE
  5
82
  8
BACK_BACK
 66
     1
 10
0.0
 20
0.0
 30
0.0
 70
     1
  0
VERTEX
  5
116
  8
BACK_BACK
 10
6.67059732147059
 20
27.65599408986586
 30
0.0
 42
0.4142135623730951
  0
VERTEX
  5
117
  8
BACK_BACK
 10
6.570597321470589
 20
27.75599408986586
 30
0.0
 42
0.4142135623730951
  0
VERTEX
  5
118
  8
BACK_BACK
 10
6.470597321470591
 20
27.65599408986586
 30
0.0
 42
0.4142135623730951
  0
VERTEX
  5
119
  8
BACK_BACK
 10
6.570597321470589
 20
27.55599408986586
 30
0.0
 42
0.4142135623730951
  0
SEQEND
  5
1AC
  8
BACK_BACK
  0
POLYLINE
  5
83
  8
BACK_BACK
 66
     1
 10
0.0
 20
0.0
 30
0.0
 70
     1
  0
VERTEX
  5
11A
  8
BACK_BACK
 10
7.699537877105697
 20
27.67373465100059
 30
0.0
 42
0.4142135623730951
  0
VERTEX
  5
11B
  8
BACK_BACK
 10
7.449537877105693
 20
27.92373465100059
 30
0.0
 42
0.4142135623730951
  0
VERTEX
  5
11C
  8
BACK_BACK
 10
7.199537877105693
 20
27.67373465100059
 30
0.0
 42
0.4142135623730951
  0
VERTEX
  5
11D
  8
BACK_BACK
 10
7.449537877105693
 20
27.42373465100059
 30
0.0
 42
0.4142135623730951
  0
SEQEND
  5
1AD
  8
BACK_BACK
  0
POLYLINE
  5
84
  8
BACK_BACK
 66
     1
 10
0.0
 20
0.0
 30
0.0
 70
     1
  0
VERTEX
  5
11E
  8
BACK_BACK
 10
8.329487688434718
 20
28.29745561920132
 30
0.0
  0
VERTEX
  5
11F
  8
BACK_BACK
 10
8.665593275554656
 20
28.29745561920132
 30
0.0
 42
-0.4142135623730951
  0
VERTEX
  5
120
  8
BACK_BACK
 10
8.915593275554658
 20
28.04745561920132
 30
0.0
  0
VERTEX
  5
121
  8
BACK_BACK
 10
8.915593275554658
 20
22.92245561920132
 30
0.0
 42
-0.4142135623730951
  0
VERTEX
  5
122
  8
BACK_BACK
 10
8.665593275554656
 20
22.67245561920132
 30
0.0
  0
VERTEX
  5
123
  8
BACK_BACK
 10
6.353093275554659
 20
22.67245561920132
 30
0.0
 42
-0.4142135623730951
  0
VERTEX
  5
124
  8
BACK_BACK
 10
6.103093275554659
 20
22.92245561920132
 30
0.0
  0
VERTEX
  5
125
  8
BACK_BACK
 10
6.103093275554659
 20
28.04745561920132
 30
0.0
 42
-0.4142135623730951
  0
VERTEX
  5
126
  8
BACK_BACK
 10
6.353093275554659
 20
28.29745561920132
 30
0.0
  0
VERTEX
  5
127
  8
BACK_BACK
 10
7.829487688434717
 20
28.29745561920132
 30
0.0
  0
VERTEX
  5
128
  8
BACK_BACK
 10
7.829487688434717
 20
28.75308176172628
 30
0.0
  0
VERTEX
  5
129
  8
BACK_BACK
 10
8.329487688434718
 20
28.75308176172628
 30
0.0
  0
SEQEND
  5
1AE
  8
BACK_BACK
  0
POLYLINE
  5
85
  8
BACK_BACK
 66
     1
 10
0.0
 20
0.0
 30
0.0
 70
     1
  0
VERTEX
  5
12A
  8
BACK_BACK
 10
16.59290268456367
 20
1.236030582799797
 30
0.0
  0
VERTEX
  5
12B
  8
BACK_BACK
 10
16.59290268456367
 20
11.12538460964531
 30
0.0
  0
VERTEX
  5
12C
  8
BACK_BACK
 10
3.407097315436331
 20
11.12538460964531
 30
0.0
  0
VERTEX
  5
12D
  8
BACK_BACK
 10
3.407097315436331
 20
1.236030582799797
 30
0.0
  0
SEQEND
  5
1AF
  8
BACK_BACK
  0
POLYLINE
  5
86
  8
BACK_BACK
 66
     1
 10
0.0
 20
0.0
 30
0.0
 70
     1
  0
VERTEX
  5
12E
  8
BACK_BACK
 10
16.12483677091098
 20
10.6843
 30
0.0
 42
0.4142135623730951
  0
VERTEX
  5
12F
  8
BACK_BACK
 10
15.99983677091098
 20
10.5593
 30
0.0
 42
0.4142135623730951
  0
VERTEX
  5
130
  8
BACK_BACK
 10
16.12483677091098
 20
10.4343
 30
0.0
 42
0.4142135623730951
  0
VERTEX
  5
131
  8
BACK_BACK
 10
16.24983677091098
 20
10.5593
 30
0.0
 42
0.4142135623730951
  0
SEQEND
  5
1B0
  8
BACK_BACK
  0
POLYLINE
  5
87
  8
BACK_BACK
 66
     1
 10
0.0
 20
0.0
 30
0.0
 70
     1
  0
VERTEX
  5
132
  8
BACK_BACK
 10
16.12483677091098
 20
1.9272
 30
0.0
 42
0.4142135623730951
  0
VERTEX
  5
133
  8
BACK_BACK
 10
15.99983677091098
 20
1.8022
 30
0.0
 42
0.4142135623730951
  0
VERTEX
  5
134
  8
BACK_BACK
 10
16.12483677091098
 20
1.6772
 30
0.0
 42
0.4142135623730951
  0
VERTEX
  5
135
  8
BACK_BACK
 10
16.24983677091098
 20
1.8022
 30
0.0
 42
0.4142135623730951
  0
SEQEND
  5
1B1
  8
BACK_BACK
  0
POLYLINE
  5
88
  8
BACK_BACK
 66
     1
 10
0.0
 20
0.0
 30
0.0
 70
     1
  0
VERTEX
  5
136
  8
BACK_BACK
 10
3.875136770910979
 20
1.9272
 30
0.0
 42
0.4142135623730951
  0
VERTEX
  5
137
  8
BACK_BACK
 10
3.750136770910979
 20
1.8022
 30
0.0
 42
0.4142135623730951
  0
VERTEX
  5
138
  8
BACK_BACK
 10
3.875136770910979
 20
1.6772
 30
0.0
 42
0.4142135623730951
  0
VERTEX
  5
139
  8
BACK_BACK
 10
4.000136770910979
 20
1.8022
 30
0.0
 42
0.4142135623730951
  0
SEQEND
  5
1B2
  8
BACK_BACK
  0
POLYLINE
  5
89
  8
BACK_BACK
 66
     1
 10
0.0
 20
0.0
 30
0.0
 70
     1
  0
VERTEX
  5
13A
  8
BACK_BACK
 10
3.875136770910979
 20
10.6843
 30
0.0
 42
0.4142135623730951
  0
VERTEX
  5
13B
  8
BACK_BACK
 10
3.750136770910979
 20
10.5593
 30
0.0
 42
0.4142135623730951
  0
VERTEX
  5
13C
  8
BACK_BACK
 10
3.875136770910979
 20
10.4343
 30
0.0
 42
0.4142135623730951
  0
VERTEX
  5
13D
  8
BACK_BACK
 10
4.000136770910979
 20
10.5593
 30
0.0
 42
0.4142135623730951
  0
SEQEND
  5
1B3
  8
BACK_BACK
  0
POLYLINE
  5
8A
  8
BACK_BACK
 66
     1
 10
0.0
 20
0.0
 30
0.0
 70
     1
  0
VERTEX
  5
13E
  8
BACK_BACK
 10
16.59290268456367
 20
1.236030582799797
 30
0.0
  0
VERTEX
  5
13F
  8
BACK_BACK
 10
16.59290268456367
 20
11.12538460964531
 30
0.0
  0
VERTEX
  5
140
  8
BACK_BACK
 10
3.407097315436331
 20
11.12538460964531
 30
0.0
  0
VERTEX
  5
141
  8
BACK_BACK
 10
3.407097315436331
 20
1.236030582799797
 30
0.0
  0
SEQEND
  5
1B4
  8
BACK_BACK
  0
POLYLINE
  5
8B
  8
BACK_BACK
 66
     1
 10
0.0
 20
0.0
 30
0.0
  0
VERTEX
  5
142
  8
BACK_BACK
 10
11.27395888353914
 20
26.64159070441951
 30
0.0
  0
VERTEX
  5
143
  8
BACK_BACK
 10
10.01537360796523
 20
26.64130964195117
 30
0.0
  0
VERTEX
  5
144
  8
BACK_BACK
 10
10.0231778361221
 20
26.1207147773396
 30
0.0
  0
VERTEX
  5
145
  8
BACK_BACK
 10
9.723177841076664
 20
26.120769300165
 30
0.0
  0
VERTEX
  5
146
  8
BACK_BACK
 10
9.722887052674553
 20
24.52076932658934
 30
0.0
  0
VERTEX
  5
147
  8
BACK_BACK
 10
11.42288702459869
 20
24.52046036391209
 30
0.0
  0
VERTEX
  5
148
  8
BACK_BACK
 10
11.42265075902197
 20
23.22046038538187
 30
0.0
  0
VERTEX
  5
149
  8
BACK_BACK
 10
12.32265074415828
 20
23.22029681690568
 30
0.0
  0
VERTEX
  5
14A
  8
BACK_BACK
 10
12.32254169850749
 20
22.62029682681481
 30
0.0
  0
VERTEX
  5
14B
  8
BACK_BACK
 10
13.02254168694684
 20
22.62016960688889
 30
0.0
  0
VERTEX
  5
14C
  8
BACK_BACK
 10
13.02266890687276
 20
23.32016959532823
 30
0.0
  0
VERTEX
  5
14D
  8
BACK_BACK
 10
13.72266889531211
 20
23.32004237540231
 30
0.0
  0
VERTEX
  5
14E
  8
BACK_BACK
 10
13.72279611523803
 20
24.02004236384166
 30
0.0
  0
VERTEX
  5
14F
  8
BACK_BACK
 10
14.17944431833475
 20
24.00078553499042
 30
0.0
  0
VERTEX
  5
150
  8
BACK_BACK
 10
14.17964953772437
 20
25.12996061755642
 30
0.0
  0
VERTEX
  5
151
  8
BACK_BACK
 10
13.7229960322645
 20
25.12004234567493
 30
0.0
  0
VERTEX
  5
152
  8
BACK_BACK
 10
13.72328682066661
 20
26.72004231925059
 30
0.0
  0
VERTEX
  5
153
  8
BACK_BACK
 10
13.22328682892421
 20
26.72013319062625
 30
0.0
  0
VERTEX
  5
154
  8
BACK_BACK
 10
13.223395874575
 20
27.32013318071712
 30
0.0
  0
VERTEX
  5
155
  8
BACK_BACK
 10
12.12339589274174
 20
27.32033309774357
 30
0.0
  0
VERTEX
  5
156
  8
BACK_BACK
 10
12.12334136991634
 20
27.02033310269814
 30
0.0
  0
SEQEND
  5
1B5
  8
BACK_BACK
  0
POLYLINE
  5
8C
  8
BACK_BACK
 66
     1
 10
0.0
 20
0.0
 30
0.0
 70
     1
  0
VERTEX
  5
157
  8
BACK_BACK
 10
12.04656707344287
 20
25.88566577408353
 30
0.0
  0
VERTEX
  5
158
  8
BACK_BACK
 10
12.04683506582225
 20
27.36023558778736
 30
0.0
  0
VERTEX
  5
159
  8
BACK_BACK
 10
13.22914779933254
 20
27.36002071101471
 30
0.0
  0
VERTEX
  5
15A
  8
BACK_BACK
 10
13.22887980695316
 20
25.88545089731088
 30
0.0
  0
SEQEND
  5
1B6
  8
BACK_BACK
  0
POLYLINE
  5
8D
  8
BACK_BACK
 66
     1
 10
0.0
 20
0.0
 30
0.0
  0
VERTEX
  5
15B
  8
BACK_BACK
 10
12.12334136991634
 20
27.02033310269814
 30
0.0
  0
VERTEX
  5
15C
  8
BACK_BACK
 10
11.57627666917349
 20
27.02401173848101
 30
0.0
  0
SEQEND
  5
1B7
  8
BACK_BACK
  0
POLYLINE
  5
8E
  8
BACK_BACK
 66
     1
 10
0.0
 20
0.0
 30
0.0
  0
VERTEX
  5
15D
  8
BACK_BACK
 10
11.57627666917349
 20
27.02401173848101
 30
0.0
  0
VERTEX
  5
15E
  8
BACK_BACK
 10
11.57451252974596
 20
26.6393372928159
 30
0.0
  0
VERTEX
  5
15F
  8
BACK_BACK
 10
11.27395888353914
 20
26.64159070441951
 30
0.0
  0
VERTEX
  5
160
  8
BACK_BACK
 10
11.27395888353914
 20
26.64159070441951
 30
0.0
  0
SEQEND
  5
1B8
  8
BACK_BACK
  0
POLYLINE
  5
8F
  8
BACK_BACK
 66
     1
 10
0.0
 20
0.0
 30
0.0
 70
     1
  0
VERTEX
  5
161
  8
BACK_BACK
 10
14.7777670635404
 20
9.444040819637996
 30
0.0
  0
VERTEX
  5
162
  8
BACK_BACK
 10
5.222267063540393
 20
9.444040819638003
 30
0.0
 42
0.4142135623730991
  0
VERTEX
  5
163
  8
BACK_BACK
 10
5.08316706354039
 20
9.304940819638
 30
0.0
  0
VERTEX
  5
164
  8
BACK_BACK
 10
5.08316706354039
 20
3.056510819638012
 30
0.0
 42
0.4142135623731051
  0
VERTEX
  5
165
  8
BACK_BACK
 10
5.222267063540379
 20
2.917410819637999
 30
0.0
  0
VERTEX
  5
166
  8
BACK_BACK
 10
14.7777670635404
 20
2.917410819637999
 30
0.0
 42
0.4142135623730779
  0
VERTEX
  5
167
  8
BACK_BACK
 10
14.91686706354039
 20
3.056510819637998
 30
0.0
  0
VERTEX
  5
168
  8
BACK_BACK
 10
14.91686706354039
 20
9.304940819638
 30
0.0
 42
0.4142135623731025
  0
SEQEND
  5
1B9
  8
BACK_BACK
  0
POLYLINE
  5
90
  8
BACK_BACK
 66
     1
 10
0.0
 20
0.0
 30
0.0
 70
     1
  0
VERTEX
  5
169
  8
BACK_BACK
 10
15.42126706354039
 20
3.056510819637991
 30
0.0
  0
VERTEX
  5
16A
  8
BACK_BACK
 10
15.4212670635404
 20
9.304940819637993
 30
0.0
 42
0.414213562373095
  0
VERTEX
  5
16B
  8
BACK_BACK
 10
14.7777670635404
 20
9.948440819637996
 30
0.0
  0
VERTEX
  5
16C
  8
BACK_BACK
 10
5.222267063540396
 20
9.948440819638014
 30
0.0
 42
0.4142135623730929
  0
VERTEX
  5
16D
  8
BACK_BACK
 10
4.578767063540393
 20
9.304940819638018
 30
0.0
  0
VERTEX
  5
16E
  8
BACK_BACK
 10
4.578767063540385
 20
3.056510819638008
 30
0.0
 42
0.414213562373095
  0
VERTEX
  5
16F
  8
BACK_BACK
 10
5.222267063540384
 20
2.413010819638014
 30
0.0
  0
VERTEX
  5
170
  8
BACK_BACK
 10
14.77776706354039
 20
2.413010819637988
 30
0.0
 42
0.4142135623730951
  0
SEQEND
  5
1BA
  8
BACK_BACK
  0
POLYLINE
  5
91
  8
BACK_BACK
 66
     1
 10
0.0
 20
0.0
 30
0.0
 70
     1
  0
VERTEX
  5
171
  8
BACK_BACK
 10
5.313167063540385
 20
3.054893408175161
 30
0.0
  0
VERTEX
  5
172
  8
BACK_BACK
 10
14.68686706354039
 20
3.054893408175134
 30
0.0
  0
VERTEX
  5
173
  8
BACK_BACK
 10
14.6868670635404
 20
9.306558231100846
 30
0.0
  0
VERTEX
  5
174
  8
BACK_BACK
 10
5.313167063540394
 20
9.306558231100864
 30
0.0
  0
SEQEND
  5
1BB
  8
BACK_BACK
  0
POLYLINE
  5
92
  8
BACK_BACK
 66
     1
 10
0.0
 20
0.0
 30
0.0
 70
     1
  0
VERTEX
  5
175
  8
BACK_BACK
 10
5.563167063540385
 20
3.30489340817516
 30
0.0
  0
VERTEX
  5
176
  8
BACK_BACK
 10
14.43686706354039
 20
3.304893408175135
 30
0.0
  0
VERTEX
  5
177
  8
BACK_BACK
 10
14.4368670635404
 20
9.056558231100846
 30
0.0
  0
VERTEX
  5
178
  8
BACK_BACK
 10
5.563167063540394
 20
9.056558231100862
 30
0.0
  0
SEQEND
  5
1BC
  8
BACK_BACK
  0
POLYLINE
  5
94
  8
CF_BACK
 66
     1
 10
0.0
 20
0.0
 30
0.0
 70
     1
  0
VERTEX
  5
179
  8
CF_BACK
 10
15.23218414337789
 20
19.52123808626974
 30
0.0
  0
VERTEX
  5
17A
  8
CF_BACK
 10
15.23218414337789
 20
13.27280808626975
 30
0.0
 42
-0.4142135623731032
  0
VERTEX
  5
17B
  8
CF_BACK
 10
15.1030841433779
 20
13.14370808626974
 30
0.0
  0
VERTEX
  5
17C
  8
CF_BACK
 10
5.547584143377879
 20
13.14370808626974
 30
0.0
 42
-0.4142135623730832
  0
VERTEX
  5
17D
  8
CF_BACK
 10
5.418484143377881
 20
13.27280808626974
 30
0.0
  0
VERTEX
  5
17E
  8
CF_BACK
 10
5.418484143377881
 20
19.52123808626974
 30
0.0
 42
-0.4142135623730963
  0
VERTEX
  5
17F
  8
CF_BACK
 10
5.547584143377879
 20
19.65033808626974
 30
0.0
  0
VERTEX
  5
180
  8
CF_BACK
 10
15.10308414337788
 20
19.65033808626975
 30
0.0
 42
-0.4142135623730919
  0
SEQEND
  5
1BD
  8
CF_BACK
  0
POLYLINE
  5
95
  8
CF_BACK
 66
     1
 10
0.0
 20
0.0
 30
0.0
 70
     1
  0
VERTEX
  5
181
  8
CF_BACK
 10
12.41101084188675
 20
18.34522081463511
 30
0.0
 42
-0.4142135623730951
  0
VERTEX
  5
182
  8
CF_BACK
 10
12.51101084188675
 20
18.44522081463511
 30
0.0
 42
-0.4142135623730951
  0
VERTEX
  5
183
  8
CF_BACK
 10
12.61101084188675
 20
18.34522081463511
 30
0.0
 42
-0.4142135623730951
  0
VERTEX
  5
184
  8
CF_BACK
 10
12.51101084188675
 20
18.2452208146351
 30
0.0
 42
-0.4142135623730951
  0
SEQEND
  5
1BE
  8
CF_BACK
  0
POLYLINE
  5
96
  8
CF_BACK
 66
     1
 10
0.0
 20
0.0
 30
0.0
 70
     1
  0
VERTEX
  5
185
  8
CF_BACK
 10
12.79963331896508
 20
18.34522081463511
 30
0.0
 42
-0.4142135623730951
  0
VERTEX
  5
186
  8
CF_BACK
 10
12.89963331896508
 20
18.44522081463511
 30
0.0
 42
-0.4142135623730951
  0
VERTEX
  5
187
  8
CF_BACK
 10
12.99963331896508
 20
18.34522081463511
 30
0.0
 42
-0.4142135623730951
  0
VERTEX
  5
188
  8
CF_BACK
 10
12.89963331896508
 20
18.2452208146351
 30
0.0
 42
-0.4142135623730951
  0
SEQEND
  5
1BF
  8
CF_BACK
  0
POLYLINE
  5
97
  8
CF_BACK
 66
     1
 10
0.0
 20
0.0
 30
0.0
 70
     1
  0
VERTEX
  5
189
  8
CF_BACK
 10
13.78026947607863
 20
18.32748025350037
 30
0.0
 42
-0.4142135623730951
  0
VERTEX
  5
18A
  8
CF_BACK
 10
13.88026947607863
 20
18.42748025350037
 30
0.0
 42
-0.4142135623730951
  0
VERTEX
  5
18B
  8
CF_BACK
 10
13.98026947607862
 20
18.32748025350037
 30
0.0
 42
-0.4142135623730951
  0
VERTEX
  5
18C
  8
CF_BACK
 10
13.88026947607863
 20
18.22748025350037
 30
0.0
 42
-0.4142135623730951
  0
SEQEND
  5
1C0
  8
CF_BACK
  0
POLYLINE
  5
98
  8
CF_BACK
 66
     1
 10
0.0
 20
0.0
 30
0.0
 70
     1
  0
VERTEX
  5
18D
  8
CF_BACK
 10
14.17252393892404
 20
18.32748025350037
 30
0.0
 42
-0.4142135623730951
  0
VERTEX
  5
18E
  8
CF_BACK
 10
14.27252393892404
 20
18.42748025350037
 30
0.0
 42
-0.4142135623730951
  0
VERTEX
  5
18F
  8
CF_BACK
 10
14.37252393892404
 20
18.32748025350037
 30
0.0
 42
-0.4142135623730951
  0
VERTEX
  5
190
  8
CF_BACK
 10
14.27252393892404
 20
18.22748025350037
 30
0.0
 42
-0.4142135623730951
  0
SEQEND
  5
1C1
  8
CF_BACK
  0
POLYLINE
  5
99
  8
CF_BACK
 66
     1
 10
0.0
 20
0.0
 30
0.0
 70
     1
  0
VERTEX
  5
191
  8
CF_BACK
 10
13.14358338328894
 20
18.34522081463511
 30
0.0
 42
-0.4142135623730951
  0
VERTEX
  5
192
  8
CF_BACK
 10
13.39358338328894
 20
18.59522081463511
 30
0.0
 42
-0.4142135623730951
  0
VERTEX
  5
193
  8
CF_BACK
 10
13.64358338328894
 20
18.34522081463511
 30
0.0
 42
-0.4142135623730951
  0
VERTEX
  5
194
  8
CF_BACK
 10
13.39358338328894
 20
18.09522081463511
 30
0.0
 42
-0.4142135623730951
  0
SEQEND
  5
1C2
  8
CF_BACK
  0
ENDSEC
  0
EOF
