<?xml version="1.0" encoding="UTF-8"?>
<!-- Created by Vectric (http://www.vectric.com/) -->
<svg width="30.80384830in" height="27.80892911in" viewBox="0 0 30.80384830 27.80892911" id="svg2" version="1.1" xmlns="http://www.w3.org/2000/svg" xmlns:xlink="http://www.w3.org/1999/xlink" xmlns:inkscape="http://www.inkscape.org/namespaces/inkscape">
    <g inkscape:groupmode="layer" id="85667243-1302-4a85-b3ac-c7bf39b332ec" inkscape:label="Toolpath Previews"/>
    <g inkscape:groupmode="layer" id="315437ed-9390-42df-9538-723c0b5c0eaa" inkscape:label="Front">
        <path style="fill:none;stroke-width:0.010000;stroke-linecap:round;stroke-linejoin:round;stroke-opacity:1;stroke:#000000;" d="M 30.803848,21.166999 A 0.393500,0.393500 0 0,0 30.410348,20.773499 L 20.854848,20.773499 A 0.393500,0.393500 0 0,0 20.461348,21.166999 L 20.461348,27.415429 A 0.393500,0.393500 0 0,0 20.854848,27.808929 L 30.410348,27.808929 A 0.393500,0.393500 0 0,0 30.803848,27.415429 L 30.803848,21.166999 "/>
        <path style="fill:none;stroke-width:0.010000;stroke-linecap:round;stroke-linejoin:round;stroke-opacity:1;stroke:#000000;" d="M 26.156514,14.326322 L 26.155654,14.426318 L 26.555639,14.429758 L 26.486060,17.184911 L 26.086075,17.181470 L 26.085215,17.281467 L 25.785226,17.278887 L 25.794686,16.178927 L 25.694690,16.178067 L 25.698990,15.678086 L 25.199009,15.673786 L 25.099012,15.672926 L 25.111053,14.272978 L 26.156895,14.281972 L 26.156035,14.381969 L 26.156895,14.281972 L 26.156035,14.381969 L 26.156514,14.326322 "/>
        <path style="fill:none;stroke-width:0.010000;stroke-linecap:round;stroke-linejoin:round;stroke-opacity:1;stroke:#000000;" d="M 13.185805,27.539295 L 13.185805,17.649941 L 0.000000,17.649941 L 0.000000,27.539295 L 13.185805,27.539295 "/>
        <path style="fill:none;stroke-width:0.010000;stroke-linecap:round;stroke-linejoin:round;stroke-opacity:1;stroke:#000000;" d="M 5.010193,1.079347 A 0.100000,0.100000 0 0,0 4.910193,0.979347 A 0.100000,0.100000 0 0,0 4.810193,1.079347 A 0.100000,0.100000 0 0,0 4.910193,1.179347 A 0.100000,0.100000 0 0,0 5.010193,1.079347 "/>
        <path style="fill:none;stroke-width:0.010000;stroke-linecap:round;stroke-linejoin:round;stroke-opacity:1;stroke:#000000;" d="M 4.621570,1.079347 A 0.100000,0.100000 0 0,0 4.521570,0.979347 A 0.100000,0.100000 0 0,0 4.421570,1.079347 A 0.100000,0.100000 0 0,0 4.521570,1.179347 A 0.100000,0.100000 0 0,0 4.621570,1.079347 "/>
        <path style="fill:none;stroke-width:0.010000;stroke-linecap:round;stroke-linejoin:round;stroke-opacity:1;stroke:#000000;" d="M 3.640934,1.097088 A 0.100000,0.100000 0 0,0 3.540934,0.997088 A 0.100000,0.100000 0 0,0 3.440934,1.097088 A 0.100000,0.100000 0 0,0 3.540934,1.197088 A 0.100000,0.100000 0 0,0 3.640934,1.097088 "/>
        <path style="fill:none;stroke-width:0.010000;stroke-linecap:round;stroke-linejoin:round;stroke-opacity:1;stroke:#000000;" d="M 3.248679,1.097088 A 0.100000,0.100000 0 0,0 3.148679,0.997088 A 0.100000,0.100000 0 0,0 3.048679,1.097088 A 0.100000,0.100000 0 0,0 3.148679,1.197088 A 0.100000,0.100000 0 0,0 3.248679,1.097088 "/>
        <path style="fill:none;stroke-width:0.010000;stroke-linecap:round;stroke-linejoin:round;stroke-opacity:1;stroke:#000000;" d="M 4.277620,1.079347 A 0.250000,0.250000 0 0,0 4.027620,0.829347 A 0.250000,0.250000 0 0,0 3.777620,1.079347 A 0.250000,0.250000 0 0,0 4.027620,1.329347 A 0.250000,0.250000 0 0,0 4.277620,1.079347 "/>
        <path style="fill:none;stroke-width:0.010000;stroke-linecap:round;stroke-linejoin:round;stroke-opacity:1;stroke:#000000;" d="M 4.907570,0.455626 L 5.243675,0.455626 A 0.250000,0.250000 0 0,1 5.493675,0.705626 L 5.493675,5.830626 A 0.250000,0.250000 0 0,1 5.243675,6.080626 L 2.931175,6.080626 A 0.250000,0.250000 0 0,1 2.681175,5.830626 L 2.681175,0.705626 A 0.250000,0.250000 0 0,1 2.931175,0.455626 L 4.407570,0.455626 L 4.407570,0.000000 L 4.907570,0.000000 L 4.907570,0.455626 "/>
        <path style="fill:none;stroke-width:0.010000;stroke-linecap:round;stroke-linejoin:round;stroke-opacity:1;stroke:#000000;" d="M 12.717739,18.091035 A 0.125000,0.125000 0 0,0 12.592739,18.216035 A 0.125000,0.125000 0 0,0 12.717739,18.341035 A 0.125000,0.125000 0 0,0 12.842739,18.216035 A 0.125000,0.125000 0 0,0 12.717739,18.091035 "/>
        <path style="fill:none;stroke-width:0.010000;stroke-linecap:round;stroke-linejoin:round;stroke-opacity:1;stroke:#000000;" d="M 12.717739,26.848135 A 0.125000,0.125000 0 0,0 12.592739,26.973135 A 0.125000,0.125000 0 0,0 12.717739,27.098135 A 0.125000,0.125000 0 0,0 12.842739,26.973135 A 0.125000,0.125000 0 0,0 12.717739,26.848135 "/>
        <path style="fill:none;stroke-width:0.010000;stroke-linecap:round;stroke-linejoin:round;stroke-opacity:1;stroke:#000000;" d="M 0.468039,26.848135 A 0.125000,0.125000 0 0,0 0.343039,26.973135 A 0.125000,0.125000 0 0,0 0.468039,27.098135 A 0.125000,0.125000 0 0,0 0.593039,26.973135 A 0.125000,0.125000 0 0,0 0.468039,26.848135 "/>
        <path style="fill:none;stroke-width:0.010000;stroke-linecap:round;stroke-linejoin:round;stroke-opacity:1;stroke:#000000;" d="M 0.468039,18.091035 A 0.125000,0.125000 0 0,0 0.343039,18.216035 A 0.125000,0.125000 0 0,0 0.468039,18.341035 A 0.125000,0.125000 0 0,0 0.593039,18.216035 A 0.125000,0.125000 0 0,0 0.468039,18.091035 "/>
        <path style="fill:none;stroke-width:0.010000;stroke-linecap:round;stroke-linejoin:round;stroke-opacity:1;stroke:#000000;" d="M 13.185805,27.539304 L 13.185805,17.649950 L 0.000000,17.649950 L 0.000000,27.539304 L 13.185805,27.539304 "/>
        <path style="fill:none;stroke-width:0.010000;stroke-linecap:round;stroke-linejoin:round;stroke-opacity:1;stroke:#000000;" d="M 11.370653,26.127933 A 0.409100,0.409100 0 0,0 11.779753,25.718833 L 11.779753,19.470403 A 0.409100,0.409100 0 0,0 11.370653,19.061303 L 1.815153,19.061303 A 0.409100,0.409100 0 0,0 1.406053,19.470403 L 1.406053,25.718833 A 0.409100,0.409100 0 0,0 1.815153,26.127933 L 11.370653,26.127933 "/>
        <path style="fill:none;stroke-width:0.010000;stroke-linecap:round;stroke-linejoin:round;stroke-opacity:1;stroke:#000000;" d="M 12.014153,25.718833 L 12.014153,19.470403 A 0.643500,0.643500 0 0,0 11.370653,18.826903 L 1.815153,18.826903 A 0.643500,0.643500 0 0,0 1.171653,19.470403 L 1.171653,25.718833 A 0.643500,0.643500 0 0,0 1.815153,26.362333 L 11.370653,26.362333 A 0.643500,0.643500 0 0,0 12.014153,25.718833 "/>
        <path style="fill:none;stroke-width:0.010000;stroke-linecap:round;stroke-linejoin:round;stroke-opacity:1;stroke:#000000;" d="M 1.906053,25.720451 L 11.279753,25.720451 L 11.279753,19.468786 L 1.906053,19.468786 L 1.906053,25.720451 "/>
        <path style="fill:none;stroke-width:0.010000;stroke-linecap:round;stroke-linejoin:round;stroke-opacity:1;stroke:#000000;" d="M 2.006053,19.568786 L 2.006053,25.620451 L 11.179753,25.620451 L 11.179753,19.568786 L 2.006053,19.568786 "/>
    </g>
    <g inkscape:groupmode="layer" id="fa585c1f-4376-416d-84ca-d242fafb457f" inkscape:label="Back_back">
        <path style="fill:none;stroke-width:0.010000;stroke-linecap:round;stroke-linejoin:round;stroke-opacity:1;stroke:#000000;" d="M 5.025013,1.101600 A 0.100000,0.100000 0 0,0 4.925013,1.001600 A 0.100000,0.100000 0 0,0 4.825013,1.101600 A 0.100000,0.100000 0 0,0 4.925013,1.201600 A 0.100000,0.100000 0 0,0 5.025013,1.101600 "/>
        <path style="fill:none;stroke-width:0.010000;stroke-linecap:round;stroke-linejoin:round;stroke-opacity:1;stroke:#000000;" d="M 4.636391,1.101600 A 0.100000,0.100000 0 0,0 4.536391,1.001600 A 0.100000,0.100000 0 0,0 4.436391,1.101600 A 0.100000,0.100000 0 0,0 4.536391,1.201600 A 0.100000,0.100000 0 0,0 4.636391,1.101600 "/>
        <path style="fill:none;stroke-width:0.010000;stroke-linecap:round;stroke-linejoin:round;stroke-opacity:1;stroke:#000000;" d="M 3.655754,1.119341 A 0.100000,0.100000 0 0,0 3.555754,1.019341 A 0.100000,0.100000 0 0,0 3.455754,1.119341 A 0.100000,0.100000 0 0,0 3.555754,1.219341 A 0.100000,0.100000 0 0,0 3.655754,1.119341 "/>
        <path style="fill:none;stroke-width:0.010000;stroke-linecap:round;stroke-linejoin:round;stroke-opacity:1;stroke:#000000;" d="M 3.263500,1.119341 A 0.100000,0.100000 0 0,0 3.163500,1.019341 A 0.100000,0.100000 0 0,0 3.063500,1.119341 A 0.100000,0.100000 0 0,0 3.163500,1.219341 A 0.100000,0.100000 0 0,0 3.263500,1.119341 "/>
        <path style="fill:none;stroke-width:0.010000;stroke-linecap:round;stroke-linejoin:round;stroke-opacity:1;stroke:#000000;" d="M 4.292441,1.101600 A 0.250000,0.250000 0 0,0 4.042441,0.851600 A 0.250000,0.250000 0 0,0 3.792441,1.101600 A 0.250000,0.250000 0 0,0 4.042441,1.351600 A 0.250000,0.250000 0 0,0 4.292441,1.101600 "/>
        <path style="fill:none;stroke-width:0.010000;stroke-linecap:round;stroke-linejoin:round;stroke-opacity:1;stroke:#000000;" d="M 4.922390,0.477879 L 5.258496,0.477879 A 0.250000,0.250000 0 0,1 5.508496,0.727879 L 5.508496,5.852879 A 0.250000,0.250000 0 0,1 5.258496,6.102879 L 2.945996,6.102879 A 0.250000,0.250000 0 0,1 2.695996,5.852879 L 2.695996,0.727879 A 0.250000,0.250000 0 0,1 2.945996,0.477879 L 4.422390,0.477879 L 4.422390,0.022253 L 4.922390,0.022253 L 4.922390,0.477879 "/>
        <path style="fill:none;stroke-width:0.010000;stroke-linecap:round;stroke-linejoin:round;stroke-opacity:1;stroke:#000000;" d="M 13.185805,27.539304 L 13.185805,17.649950 L 0.000000,17.649950 L 0.000000,27.539304 L 13.185805,27.539304 "/>
        <path style="fill:none;stroke-width:0.010000;stroke-linecap:round;stroke-linejoin:round;stroke-opacity:1;stroke:#000000;" d="M 12.717739,18.091035 A 0.125000,0.125000 0 0,0 12.592739,18.216035 A 0.125000,0.125000 0 0,0 12.717739,18.341035 A 0.125000,0.125000 0 0,0 12.842739,18.216035 A 0.125000,0.125000 0 0,0 12.717739,18.091035 "/>
        <path style="fill:none;stroke-width:0.010000;stroke-linecap:round;stroke-linejoin:round;stroke-opacity:1;stroke:#000000;" d="M 12.717739,26.848135 A 0.125000,0.125000 0 0,0 12.592739,26.973135 A 0.125000,0.125000 0 0,0 12.717739,27.098135 A 0.125000,0.125000 0 0,0 12.842739,26.973135 A 0.125000,0.125000 0 0,0 12.717739,26.848135 "/>
        <path style="fill:none;stroke-width:0.010000;stroke-linecap:round;stroke-linejoin:round;stroke-opacity:1;stroke:#000000;" d="M 0.468039,26.848135 A 0.125000,0.125000 0 0,0 0.343039,26.973135 A 0.125000,0.125000 0 0,0 0.468039,27.098135 A 0.125000,0.125000 0 0,0 0.593039,26.973135 A 0.125000,0.125000 0 0,0 0.468039,26.848135 "/>
        <path style="fill:none;stroke-width:0.010000;stroke-linecap:round;stroke-linejoin:round;stroke-opacity:1;stroke:#000000;" d="M 0.468039,18.091035 A 0.125000,0.125000 0 0,0 0.343039,18.216035 A 0.125000,0.125000 0 0,0 0.468039,18.341035 A 0.125000,0.125000 0 0,0 0.593039,18.216035 A 0.125000,0.125000 0 0,0 0.468039,18.091035 "/>
        <path style="fill:none;stroke-width:0.010000;stroke-linecap:round;stroke-linejoin:round;stroke-opacity:1;stroke:#000000;" d="M 13.185805,27.539304 L 13.185805,17.649950 L 0.000000,17.649950 L 0.000000,27.539304 L 13.185805,27.539304 "/>
        <path style="fill:none;stroke-width:0.010000;stroke-linecap:round;stroke-linejoin:round;stroke-opacity:1;stroke:#000000;" d="M 7.866862,2.133744 L 6.608276,2.134025 L 6.616081,2.654620 L 6.316081,2.654565 L 6.315790,4.254565 L 8.015790,4.254874 L 8.015553,5.554874 L 8.915553,5.555038 L 8.915444,6.155038 L 9.615444,6.155165 L 9.615572,5.455165 L 10.315572,5.455292 L 10.315699,4.755292 L 10.772347,4.774549 L 10.772552,3.645374 L 10.315899,3.655292 L 10.316190,2.055292 L 9.816190,2.055201 L 9.816299,1.455201 L 8.716299,1.455002 L 8.716244,1.755002 "/>
        <path style="fill:none;stroke-width:0.010000;stroke-linecap:round;stroke-linejoin:round;stroke-opacity:1;stroke:#000000;" d="M 8.639470,2.889669 L 8.639738,1.415099 L 9.822050,1.415314 L 9.821782,2.889884 L 8.639470,2.889669 "/>
        <path style="fill:none;stroke-width:0.010000;stroke-linecap:round;stroke-linejoin:round;stroke-opacity:1;stroke:#000000;" d="M 8.716244,1.755002 L 8.169179,1.751323 "/>
        <path style="fill:none;stroke-width:0.010000;stroke-linecap:round;stroke-linejoin:round;stroke-opacity:1;stroke:#000000;" d="M 8.169179,1.751323 L 8.167415,2.135997 L 7.866862,2.133744 L 7.866862,2.133744 "/>
        <path style="fill:none;stroke-width:0.010000;stroke-linecap:round;stroke-linejoin:round;stroke-opacity:1;stroke:#000000;" d="M 11.370670,19.331294 L 1.815170,19.331294 A 0.139100,0.139100 0 0,0 1.676070,19.470394 L 1.676070,25.718824 A 0.139100,0.139100 0 0,0 1.815170,25.857924 L 11.370670,25.857924 A 0.139100,0.139100 0 0,0 11.509770,25.718824 L 11.509770,19.470394 A 0.139100,0.139100 0 0,0 11.370670,19.331294 "/>
        <path style="fill:none;stroke-width:0.010000;stroke-linecap:round;stroke-linejoin:round;stroke-opacity:1;stroke:#000000;" d="M 12.014170,25.718824 L 12.014170,19.470394 A 0.643500,0.643500 0 0,0 11.370670,18.826894 L 1.815170,18.826894 A 0.643500,0.643500 0 0,0 1.171670,19.470394 L 1.171670,25.718824 A 0.643500,0.643500 0 0,0 1.815170,26.362324 L 11.370670,26.362324 A 0.643500,0.643500 0 0,0 12.014170,25.718824 "/>
        <path style="fill:none;stroke-width:0.010000;stroke-linecap:round;stroke-linejoin:round;stroke-opacity:1;stroke:#000000;" d="M 1.906070,25.720441 L 11.279770,25.720441 L 11.279770,19.468776 L 1.906070,19.468776 L 1.906070,25.720441 "/>
        <path style="fill:none;stroke-width:0.010000;stroke-linecap:round;stroke-linejoin:round;stroke-opacity:1;stroke:#000000;" d="M 2.156070,25.470441 L 11.029770,25.470441 L 11.029770,19.718776 L 2.156070,19.718776 L 2.156070,25.470441 "/>
    </g>
    <g inkscape:groupmode="layer" id="9855553f-24fc-4d05-b86f-38c71f636df1" inkscape:label="CF_Back">
        <path style="fill:none;stroke-width:0.010000;stroke-linecap:round;stroke-linejoin:round;stroke-opacity:1;stroke:#000000;" d="M 11.825087,9.254097 L 11.825087,15.502527 A 0.129100,0.129100 0 0,1 11.695987,15.631627 L 2.140487,15.631627 A 0.129100,0.129100 0 0,1 2.011387,15.502527 L 2.011387,9.254097 A 0.129100,0.129100 0 0,1 2.140487,9.124997 L 11.695987,9.124997 A 0.129100,0.129100 0 0,1 11.825087,9.254097 "/>
        <path style="fill:none;stroke-width:0.010000;stroke-linecap:round;stroke-linejoin:round;stroke-opacity:1;stroke:#000000;" d="M 9.003914,10.430114 A 0.100000,0.100000 0 0,1 9.103914,10.330114 A 0.100000,0.100000 0 0,1 9.203914,10.430114 A 0.100000,0.100000 0 0,1 9.103914,10.530114 A 0.100000,0.100000 0 0,1 9.003914,10.430114 "/>
        <path style="fill:none;stroke-width:0.010000;stroke-linecap:round;stroke-linejoin:round;stroke-opacity:1;stroke:#000000;" d="M 9.392536,10.430114 A 0.100000,0.100000 0 0,1 9.492536,10.330114 A 0.100000,0.100000 0 0,1 9.592536,10.430114 A 0.100000,0.100000 0 0,1 9.492536,10.530114 A 0.100000,0.100000 0 0,1 9.392536,10.430114 "/>
        <path style="fill:none;stroke-width:0.010000;stroke-linecap:round;stroke-linejoin:round;stroke-opacity:1;stroke:#000000;" d="M 10.373172,10.447854 A 0.100000,0.100000 0 0,1 10.473172,10.347854 A 0.100000,0.100000 0 0,1 10.573172,10.447854 A 0.100000,0.100000 0 0,1 10.473172,10.547854 A 0.100000,0.100000 0 0,1 10.373172,10.447854 "/>
        <path style="fill:none;stroke-width:0.010000;stroke-linecap:round;stroke-linejoin:round;stroke-opacity:1;stroke:#000000;" d="M 10.765427,10.447854 A 0.100000,0.100000 0 0,1 10.865427,10.347854 A 0.100000,0.100000 0 0,1 10.965427,10.447854 A 0.100000,0.100000 0 0,1 10.865427,10.547854 A 0.100000,0.100000 0 0,1 10.765427,10.447854 "/>
        <path style="fill:none;stroke-width:0.010000;stroke-linecap:round;stroke-linejoin:round;stroke-opacity:1;stroke:#000000;" d="M 9.736486,10.430114 A 0.250000,0.250000 0 0,1 9.986486,10.180114 A 0.250000,0.250000 0 0,1 10.236486,10.430114 A 0.250000,0.250000 0 0,1 9.986486,10.680114 A 0.250000,0.250000 0 0,1 9.736486,10.430114 "/>
    </g>
</svg>
